G04 #@! TF.GenerationSoftware,KiCad,Pcbnew,(5.1.9)-1*
G04 #@! TF.CreationDate,2025-08-03T17:35:04+09:00*
G04 #@! TF.ProjectId,PASOPIA7_SD,5041534f-5049-4413-975f-53442e6b6963,rev?*
G04 #@! TF.SameCoordinates,PX53920b0PY93c3260*
G04 #@! TF.FileFunction,Legend,Top*
G04 #@! TF.FilePolarity,Positive*
%FSLAX46Y46*%
G04 Gerber Fmt 4.6, Leading zero omitted, Abs format (unit mm)*
G04 Created by KiCad (PCBNEW (5.1.9)-1) date 2025-08-03 17:35:04*
%MOMM*%
%LPD*%
G01*
G04 APERTURE LIST*
%ADD10C,0.150000*%
%ADD11C,0.500000*%
%ADD12C,0.120000*%
G04 APERTURE END LIST*
D10*
X10247380Y3651667D02*
X10247380Y4223096D01*
X11247380Y3937381D02*
X10247380Y3937381D01*
X10723571Y4556429D02*
X10723571Y4889762D01*
X11247380Y5032620D02*
X11247380Y4556429D01*
X10247380Y4556429D01*
X10247380Y5032620D01*
X11199761Y5413572D02*
X11247380Y5556429D01*
X11247380Y5794524D01*
X11199761Y5889762D01*
X11152142Y5937381D01*
X11056904Y5985000D01*
X10961666Y5985000D01*
X10866428Y5937381D01*
X10818809Y5889762D01*
X10771190Y5794524D01*
X10723571Y5604048D01*
X10675952Y5508810D01*
X10628333Y5461191D01*
X10533095Y5413572D01*
X10437857Y5413572D01*
X10342619Y5461191D01*
X10295000Y5508810D01*
X10247380Y5604048D01*
X10247380Y5842143D01*
X10295000Y5985000D01*
X10247380Y6270715D02*
X10247380Y6842143D01*
X11247380Y6556429D02*
X10247380Y6556429D01*
X11342619Y6937381D02*
X11342619Y7699286D01*
X10247380Y7794524D02*
X11247380Y8127858D01*
X10247380Y8461191D01*
X10247380Y8985000D02*
X10247380Y9175477D01*
X10295000Y9270715D01*
X10390238Y9365953D01*
X10580714Y9413572D01*
X10914047Y9413572D01*
X11104523Y9365953D01*
X11199761Y9270715D01*
X11247380Y9175477D01*
X11247380Y8985000D01*
X11199761Y8889762D01*
X11104523Y8794524D01*
X10914047Y8746905D01*
X10580714Y8746905D01*
X10390238Y8794524D01*
X10295000Y8889762D01*
X10247380Y8985000D01*
X11247380Y10318334D02*
X11247380Y9842143D01*
X10247380Y9842143D01*
X8040714Y83534286D02*
X8707380Y83534286D01*
X7659761Y83296191D02*
X8374047Y83058096D01*
X8374047Y83677143D01*
X8707380Y84105715D02*
X8707380Y84296191D01*
X8659761Y84391429D01*
X8612142Y84439048D01*
X8469285Y84534286D01*
X8278809Y84581905D01*
X7897857Y84581905D01*
X7802619Y84534286D01*
X7755000Y84486667D01*
X7707380Y84391429D01*
X7707380Y84200953D01*
X7755000Y84105715D01*
X7802619Y84058096D01*
X7897857Y84010477D01*
X8135952Y84010477D01*
X8231190Y84058096D01*
X8278809Y84105715D01*
X8326428Y84200953D01*
X8326428Y84391429D01*
X8278809Y84486667D01*
X8231190Y84534286D01*
X8135952Y84581905D01*
X5167380Y83581905D02*
X5167380Y83105715D01*
X5643571Y83058096D01*
X5595952Y83105715D01*
X5548333Y83200953D01*
X5548333Y83439048D01*
X5595952Y83534286D01*
X5643571Y83581905D01*
X5738809Y83629524D01*
X5976904Y83629524D01*
X6072142Y83581905D01*
X6119761Y83534286D01*
X6167380Y83439048D01*
X6167380Y83200953D01*
X6119761Y83105715D01*
X6072142Y83058096D01*
X5167380Y84248572D02*
X5167380Y84343810D01*
X5215000Y84439048D01*
X5262619Y84486667D01*
X5357857Y84534286D01*
X5548333Y84581905D01*
X5786428Y84581905D01*
X5976904Y84534286D01*
X6072142Y84486667D01*
X6119761Y84439048D01*
X6167380Y84343810D01*
X6167380Y84248572D01*
X6119761Y84153334D01*
X6072142Y84105715D01*
X5976904Y84058096D01*
X5786428Y84010477D01*
X5548333Y84010477D01*
X5357857Y84058096D01*
X5262619Y84105715D01*
X5215000Y84153334D01*
X5167380Y84248572D01*
X5262619Y18129286D02*
X5215000Y18176905D01*
X5167380Y18272143D01*
X5167380Y18510239D01*
X5215000Y18605477D01*
X5262619Y18653096D01*
X5357857Y18700715D01*
X5453095Y18700715D01*
X5595952Y18653096D01*
X6167380Y18081667D01*
X6167380Y18700715D01*
X8707380Y18700715D02*
X8707380Y18129286D01*
X8707380Y18415000D02*
X7707380Y18415000D01*
X7850238Y18319762D01*
X7945476Y18224524D01*
X7993095Y18129286D01*
X39822380Y61110953D02*
X39822380Y60634762D01*
X38822380Y60634762D01*
X39774761Y61396667D02*
X39822380Y61539524D01*
X39822380Y61777620D01*
X39774761Y61872858D01*
X39727142Y61920477D01*
X39631904Y61968096D01*
X39536666Y61968096D01*
X39441428Y61920477D01*
X39393809Y61872858D01*
X39346190Y61777620D01*
X39298571Y61587143D01*
X39250952Y61491905D01*
X39203333Y61444286D01*
X39108095Y61396667D01*
X39012857Y61396667D01*
X38917619Y61444286D01*
X38870000Y61491905D01*
X38822380Y61587143D01*
X38822380Y61825239D01*
X38870000Y61968096D01*
X38822380Y62587143D02*
X38822380Y62682381D01*
X38870000Y62777620D01*
X38917619Y62825239D01*
X39012857Y62872858D01*
X39203333Y62920477D01*
X39441428Y62920477D01*
X39631904Y62872858D01*
X39727142Y62825239D01*
X39774761Y62777620D01*
X39822380Y62682381D01*
X39822380Y62587143D01*
X39774761Y62491905D01*
X39727142Y62444286D01*
X39631904Y62396667D01*
X39441428Y62349048D01*
X39203333Y62349048D01*
X39012857Y62396667D01*
X38917619Y62444286D01*
X38870000Y62491905D01*
X38822380Y62587143D01*
X39155714Y63777620D02*
X39822380Y63777620D01*
X38774761Y63539524D02*
X39489047Y63301429D01*
X39489047Y63920477D01*
X96686666Y45935239D02*
X96686666Y46411429D01*
X96972380Y45840000D02*
X95972380Y46173334D01*
X96972380Y46506667D01*
X96972380Y46840000D02*
X96305714Y46840000D01*
X96496190Y46840000D02*
X96400952Y46887620D01*
X96353333Y46935239D01*
X96305714Y47030477D01*
X96305714Y47125715D01*
X96305714Y47887620D02*
X96972380Y47887620D01*
X96305714Y47459048D02*
X96829523Y47459048D01*
X96924761Y47506667D01*
X96972380Y47601905D01*
X96972380Y47744762D01*
X96924761Y47840000D01*
X96877142Y47887620D01*
X96972380Y48792381D02*
X95972380Y48792381D01*
X96924761Y48792381D02*
X96972380Y48697143D01*
X96972380Y48506667D01*
X96924761Y48411429D01*
X96877142Y48363810D01*
X96781904Y48316191D01*
X96496190Y48316191D01*
X96400952Y48363810D01*
X96353333Y48411429D01*
X96305714Y48506667D01*
X96305714Y48697143D01*
X96353333Y48792381D01*
X96972380Y49268572D02*
X96305714Y49268572D01*
X95972380Y49268572D02*
X96020000Y49220953D01*
X96067619Y49268572D01*
X96020000Y49316191D01*
X95972380Y49268572D01*
X96067619Y49268572D01*
X96305714Y49744762D02*
X96972380Y49744762D01*
X96400952Y49744762D02*
X96353333Y49792381D01*
X96305714Y49887620D01*
X96305714Y50030477D01*
X96353333Y50125715D01*
X96448571Y50173334D01*
X96972380Y50173334D01*
X96972380Y50792381D02*
X96924761Y50697143D01*
X96877142Y50649524D01*
X96781904Y50601905D01*
X96496190Y50601905D01*
X96400952Y50649524D01*
X96353333Y50697143D01*
X96305714Y50792381D01*
X96305714Y50935239D01*
X96353333Y51030477D01*
X96400952Y51078096D01*
X96496190Y51125715D01*
X96781904Y51125715D01*
X96877142Y51078096D01*
X96924761Y51030477D01*
X96972380Y50935239D01*
X96972380Y50792381D01*
X96972380Y52316191D02*
X95972380Y52316191D01*
X95972380Y52697143D01*
X96020000Y52792381D01*
X96067619Y52840000D01*
X96162857Y52887620D01*
X96305714Y52887620D01*
X96400952Y52840000D01*
X96448571Y52792381D01*
X96496190Y52697143D01*
X96496190Y52316191D01*
X96972380Y53316191D02*
X96305714Y53316191D01*
X96496190Y53316191D02*
X96400952Y53363810D01*
X96353333Y53411429D01*
X96305714Y53506667D01*
X96305714Y53601905D01*
X96972380Y54078096D02*
X96924761Y53982858D01*
X96877142Y53935239D01*
X96781904Y53887620D01*
X96496190Y53887620D01*
X96400952Y53935239D01*
X96353333Y53982858D01*
X96305714Y54078096D01*
X96305714Y54220953D01*
X96353333Y54316191D01*
X96400952Y54363810D01*
X96496190Y54411429D01*
X96781904Y54411429D01*
X96877142Y54363810D01*
X96924761Y54316191D01*
X96972380Y54220953D01*
X96972380Y54078096D01*
X96972380Y55601905D02*
X95972380Y55601905D01*
X96686666Y55935239D01*
X95972380Y56268572D01*
X96972380Y56268572D01*
X96972380Y56744762D02*
X96305714Y56744762D01*
X95972380Y56744762D02*
X96020000Y56697143D01*
X96067619Y56744762D01*
X96020000Y56792381D01*
X95972380Y56744762D01*
X96067619Y56744762D01*
X96305714Y57220953D02*
X96972380Y57220953D01*
X96400952Y57220953D02*
X96353333Y57268572D01*
X96305714Y57363810D01*
X96305714Y57506667D01*
X96353333Y57601905D01*
X96448571Y57649524D01*
X96972380Y57649524D01*
X96972380Y58125715D02*
X96305714Y58125715D01*
X95972380Y58125715D02*
X96020000Y58078096D01*
X96067619Y58125715D01*
X96020000Y58173334D01*
X95972380Y58125715D01*
X96067619Y58125715D01*
X95972380Y59840000D02*
X95972380Y59363810D01*
X96448571Y59316191D01*
X96400952Y59363810D01*
X96353333Y59459048D01*
X96353333Y59697143D01*
X96400952Y59792381D01*
X96448571Y59840000D01*
X96543809Y59887620D01*
X96781904Y59887620D01*
X96877142Y59840000D01*
X96924761Y59792381D01*
X96972380Y59697143D01*
X96972380Y59459048D01*
X96924761Y59363810D01*
X96877142Y59316191D01*
X95972380Y60173334D02*
X96972380Y60506667D01*
X95972380Y60840000D01*
X77922380Y5826191D02*
X76922380Y5826191D01*
X77922380Y6302381D02*
X76922380Y6302381D01*
X77922380Y6873810D01*
X76922380Y6873810D01*
X72318571Y5278572D02*
X72318571Y5611905D01*
X72842380Y5754762D02*
X72842380Y5278572D01*
X71842380Y5278572D01*
X71842380Y5754762D01*
X71842380Y6088096D02*
X72842380Y6754762D01*
X71842380Y6754762D02*
X72842380Y6088096D01*
X71842380Y6992858D02*
X71842380Y7564286D01*
X72842380Y7278572D02*
X71842380Y7278572D01*
X29138571Y2722858D02*
X29138571Y3056191D01*
X29662380Y3199048D02*
X29662380Y2722858D01*
X28662380Y2722858D01*
X28662380Y3199048D01*
X28662380Y3532381D02*
X29662380Y4199048D01*
X28662380Y4199048D02*
X29662380Y3532381D01*
X28662380Y4437143D02*
X28662380Y5008572D01*
X29662380Y4722858D02*
X28662380Y4722858D01*
X28662380Y6580000D02*
X28662380Y6103810D01*
X29138571Y6056191D01*
X29090952Y6103810D01*
X29043333Y6199048D01*
X29043333Y6437143D01*
X29090952Y6532381D01*
X29138571Y6580000D01*
X29233809Y6627620D01*
X29471904Y6627620D01*
X29567142Y6580000D01*
X29614761Y6532381D01*
X29662380Y6437143D01*
X29662380Y6199048D01*
X29614761Y6103810D01*
X29567142Y6056191D01*
X28662380Y6913334D02*
X29662380Y7246667D01*
X28662380Y7580000D01*
X41727380Y7080477D02*
X40727380Y7080477D01*
X41727380Y7556667D02*
X40727380Y7556667D01*
X41727380Y8128096D01*
X40727380Y8128096D01*
X40727380Y9842381D02*
X40727380Y9366191D01*
X41203571Y9318572D01*
X41155952Y9366191D01*
X41108333Y9461429D01*
X41108333Y9699524D01*
X41155952Y9794762D01*
X41203571Y9842381D01*
X41298809Y9890000D01*
X41536904Y9890000D01*
X41632142Y9842381D01*
X41679761Y9794762D01*
X41727380Y9699524D01*
X41727380Y9461429D01*
X41679761Y9366191D01*
X41632142Y9318572D01*
X40727380Y10175715D02*
X41727380Y10509048D01*
X40727380Y10842381D01*
X53792380Y9882381D02*
X53792380Y9310953D01*
X53792380Y9596667D02*
X52792380Y9596667D01*
X52935238Y9501429D01*
X53030476Y9406191D01*
X53078095Y9310953D01*
X52792380Y10501429D02*
X52792380Y10596667D01*
X52840000Y10691905D01*
X52887619Y10739524D01*
X52982857Y10787143D01*
X53173333Y10834762D01*
X53411428Y10834762D01*
X53601904Y10787143D01*
X53697142Y10739524D01*
X53744761Y10691905D01*
X53792380Y10596667D01*
X53792380Y10501429D01*
X53744761Y10406191D01*
X53697142Y10358572D01*
X53601904Y10310953D01*
X53411428Y10263334D01*
X53173333Y10263334D01*
X52982857Y10310953D01*
X52887619Y10358572D01*
X52840000Y10406191D01*
X52792380Y10501429D01*
X52792380Y11453810D02*
X52792380Y11549048D01*
X52840000Y11644286D01*
X52887619Y11691905D01*
X52982857Y11739524D01*
X53173333Y11787143D01*
X53411428Y11787143D01*
X53601904Y11739524D01*
X53697142Y11691905D01*
X53744761Y11644286D01*
X53792380Y11549048D01*
X53792380Y11453810D01*
X53744761Y11358572D01*
X53697142Y11310953D01*
X53601904Y11263334D01*
X53411428Y11215715D01*
X53173333Y11215715D01*
X52982857Y11263334D01*
X52887619Y11310953D01*
X52840000Y11358572D01*
X52792380Y11453810D01*
X53125714Y12644286D02*
X53792380Y12644286D01*
X53125714Y12215715D02*
X53649523Y12215715D01*
X53744761Y12263334D01*
X53792380Y12358572D01*
X53792380Y12501429D01*
X53744761Y12596667D01*
X53697142Y12644286D01*
X53268571Y13453810D02*
X53268571Y13120477D01*
X53792380Y13120477D02*
X52792380Y13120477D01*
X52792380Y13596667D01*
X42632380Y84717143D02*
X42632380Y84812381D01*
X42680000Y84907620D01*
X42727619Y84955239D01*
X42822857Y85002858D01*
X43013333Y85050477D01*
X43251428Y85050477D01*
X43441904Y85002858D01*
X43537142Y84955239D01*
X43584761Y84907620D01*
X43632380Y84812381D01*
X43632380Y84717143D01*
X43584761Y84621905D01*
X43537142Y84574286D01*
X43441904Y84526667D01*
X43251428Y84479048D01*
X43013333Y84479048D01*
X42822857Y84526667D01*
X42727619Y84574286D01*
X42680000Y84621905D01*
X42632380Y84717143D01*
X43537142Y85479048D02*
X43584761Y85526667D01*
X43632380Y85479048D01*
X43584761Y85431429D01*
X43537142Y85479048D01*
X43632380Y85479048D01*
X43632380Y86479048D02*
X43632380Y85907620D01*
X43632380Y86193334D02*
X42632380Y86193334D01*
X42775238Y86098096D01*
X42870476Y86002858D01*
X42918095Y85907620D01*
X42965714Y87336191D02*
X43632380Y87336191D01*
X42965714Y86907620D02*
X43489523Y86907620D01*
X43584761Y86955239D01*
X43632380Y87050477D01*
X43632380Y87193334D01*
X43584761Y87288572D01*
X43537142Y87336191D01*
X43108571Y88145715D02*
X43108571Y87812381D01*
X43632380Y87812381D02*
X42632380Y87812381D01*
X42632380Y88288572D01*
X26122380Y84717143D02*
X26122380Y84812381D01*
X26170000Y84907620D01*
X26217619Y84955239D01*
X26312857Y85002858D01*
X26503333Y85050477D01*
X26741428Y85050477D01*
X26931904Y85002858D01*
X27027142Y84955239D01*
X27074761Y84907620D01*
X27122380Y84812381D01*
X27122380Y84717143D01*
X27074761Y84621905D01*
X27027142Y84574286D01*
X26931904Y84526667D01*
X26741428Y84479048D01*
X26503333Y84479048D01*
X26312857Y84526667D01*
X26217619Y84574286D01*
X26170000Y84621905D01*
X26122380Y84717143D01*
X27027142Y85479048D02*
X27074761Y85526667D01*
X27122380Y85479048D01*
X27074761Y85431429D01*
X27027142Y85479048D01*
X27122380Y85479048D01*
X27122380Y86479048D02*
X27122380Y85907620D01*
X27122380Y86193334D02*
X26122380Y86193334D01*
X26265238Y86098096D01*
X26360476Y86002858D01*
X26408095Y85907620D01*
X26455714Y87336191D02*
X27122380Y87336191D01*
X26455714Y86907620D02*
X26979523Y86907620D01*
X27074761Y86955239D01*
X27122380Y87050477D01*
X27122380Y87193334D01*
X27074761Y87288572D01*
X27027142Y87336191D01*
X26598571Y88145715D02*
X26598571Y87812381D01*
X27122380Y87812381D02*
X26122380Y87812381D01*
X26122380Y88288572D01*
X23312380Y61110953D02*
X23312380Y60634762D01*
X22312380Y60634762D01*
X23264761Y61396667D02*
X23312380Y61539524D01*
X23312380Y61777620D01*
X23264761Y61872858D01*
X23217142Y61920477D01*
X23121904Y61968096D01*
X23026666Y61968096D01*
X22931428Y61920477D01*
X22883809Y61872858D01*
X22836190Y61777620D01*
X22788571Y61587143D01*
X22740952Y61491905D01*
X22693333Y61444286D01*
X22598095Y61396667D01*
X22502857Y61396667D01*
X22407619Y61444286D01*
X22360000Y61491905D01*
X22312380Y61587143D01*
X22312380Y61825239D01*
X22360000Y61968096D01*
X22312380Y62301429D02*
X22312380Y62920477D01*
X22693333Y62587143D01*
X22693333Y62730000D01*
X22740952Y62825239D01*
X22788571Y62872858D01*
X22883809Y62920477D01*
X23121904Y62920477D01*
X23217142Y62872858D01*
X23264761Y62825239D01*
X23312380Y62730000D01*
X23312380Y62444286D01*
X23264761Y62349048D01*
X23217142Y62301429D01*
X22312380Y63539524D02*
X22312380Y63634762D01*
X22360000Y63730000D01*
X22407619Y63777620D01*
X22502857Y63825239D01*
X22693333Y63872858D01*
X22931428Y63872858D01*
X23121904Y63825239D01*
X23217142Y63777620D01*
X23264761Y63730000D01*
X23312380Y63634762D01*
X23312380Y63539524D01*
X23264761Y63444286D01*
X23217142Y63396667D01*
X23121904Y63349048D01*
X22931428Y63301429D01*
X22693333Y63301429D01*
X22502857Y63349048D01*
X22407619Y63396667D01*
X22360000Y63444286D01*
X22312380Y63539524D01*
D11*
X90257142Y4175715D02*
X87257142Y4175715D01*
X87257142Y5051905D01*
X87400000Y5270953D01*
X87542857Y5380477D01*
X87828571Y5490000D01*
X88257142Y5490000D01*
X88542857Y5380477D01*
X88685714Y5270953D01*
X88828571Y5051905D01*
X88828571Y4175715D01*
X89400000Y6366191D02*
X89400000Y7461429D01*
X90257142Y6147143D02*
X87257142Y6913810D01*
X90257142Y7680477D01*
X90114285Y8337620D02*
X90257142Y8666191D01*
X90257142Y9213810D01*
X90114285Y9432858D01*
X89971428Y9542381D01*
X89685714Y9651905D01*
X89400000Y9651905D01*
X89114285Y9542381D01*
X88971428Y9432858D01*
X88828571Y9213810D01*
X88685714Y8775715D01*
X88542857Y8556667D01*
X88400000Y8447143D01*
X88114285Y8337620D01*
X87828571Y8337620D01*
X87542857Y8447143D01*
X87400000Y8556667D01*
X87257142Y8775715D01*
X87257142Y9323334D01*
X87400000Y9651905D01*
X87257142Y11075715D02*
X87257142Y11513810D01*
X87400000Y11732858D01*
X87685714Y11951905D01*
X88257142Y12061429D01*
X89257142Y12061429D01*
X89828571Y11951905D01*
X90114285Y11732858D01*
X90257142Y11513810D01*
X90257142Y11075715D01*
X90114285Y10856667D01*
X89828571Y10637620D01*
X89257142Y10528096D01*
X88257142Y10528096D01*
X87685714Y10637620D01*
X87400000Y10856667D01*
X87257142Y11075715D01*
X90257142Y13047143D02*
X87257142Y13047143D01*
X87257142Y13923334D01*
X87400000Y14142381D01*
X87542857Y14251905D01*
X87828571Y14361429D01*
X88257142Y14361429D01*
X88542857Y14251905D01*
X88685714Y14142381D01*
X88828571Y13923334D01*
X88828571Y13047143D01*
X90257142Y15347143D02*
X87257142Y15347143D01*
X89400000Y16332858D02*
X89400000Y17428096D01*
X90257142Y16113810D02*
X87257142Y16880477D01*
X90257142Y17647143D01*
X87257142Y18194762D02*
X87257142Y19728096D01*
X90257142Y18742381D01*
X90542857Y20056667D02*
X90542857Y21809048D01*
X90114285Y22247143D02*
X90257142Y22575715D01*
X90257142Y23123334D01*
X90114285Y23342381D01*
X89971428Y23451905D01*
X89685714Y23561429D01*
X89400000Y23561429D01*
X89114285Y23451905D01*
X88971428Y23342381D01*
X88828571Y23123334D01*
X88685714Y22685239D01*
X88542857Y22466191D01*
X88400000Y22356667D01*
X88114285Y22247143D01*
X87828571Y22247143D01*
X87542857Y22356667D01*
X87400000Y22466191D01*
X87257142Y22685239D01*
X87257142Y23232858D01*
X87400000Y23561429D01*
X90257142Y24547143D02*
X87257142Y24547143D01*
X87257142Y25094762D01*
X87400000Y25423334D01*
X87685714Y25642381D01*
X87971428Y25751905D01*
X88542857Y25861429D01*
X88971428Y25861429D01*
X89542857Y25751905D01*
X89828571Y25642381D01*
X90114285Y25423334D01*
X90257142Y25094762D01*
X90257142Y24547143D01*
X90257142Y29913810D02*
X88828571Y29147143D01*
X90257142Y28599524D02*
X87257142Y28599524D01*
X87257142Y29475715D01*
X87400000Y29694762D01*
X87542857Y29804286D01*
X87828571Y29913810D01*
X88257142Y29913810D01*
X88542857Y29804286D01*
X88685714Y29694762D01*
X88828571Y29475715D01*
X88828571Y28599524D01*
X90114285Y31775715D02*
X90257142Y31556667D01*
X90257142Y31118572D01*
X90114285Y30899524D01*
X89828571Y30790000D01*
X88685714Y30790000D01*
X88400000Y30899524D01*
X88257142Y31118572D01*
X88257142Y31556667D01*
X88400000Y31775715D01*
X88685714Y31885239D01*
X88971428Y31885239D01*
X89257142Y30790000D01*
X88257142Y32651905D02*
X90257142Y33199524D01*
X88257142Y33747143D01*
X90257142Y35828096D02*
X90257142Y34513810D01*
X90257142Y35170953D02*
X87257142Y35170953D01*
X87685714Y34951905D01*
X87971428Y34732858D01*
X88114285Y34513810D01*
X89971428Y36813810D02*
X90114285Y36923334D01*
X90257142Y36813810D01*
X90114285Y36704286D01*
X89971428Y36813810D01*
X90257142Y36813810D01*
X87257142Y38894762D02*
X87257142Y38456667D01*
X87400000Y38237620D01*
X87542857Y38128096D01*
X87971428Y37909048D01*
X88542857Y37799524D01*
X89685714Y37799524D01*
X89971428Y37909048D01*
X90114285Y38018572D01*
X90257142Y38237620D01*
X90257142Y38675715D01*
X90114285Y38894762D01*
X89971428Y39004286D01*
X89685714Y39113810D01*
X88971428Y39113810D01*
X88685714Y39004286D01*
X88542857Y38894762D01*
X88400000Y38675715D01*
X88400000Y38237620D01*
X88542857Y38018572D01*
X88685714Y37909048D01*
X88971428Y37799524D01*
D12*
X80615000Y24570000D02*
X79910000Y24570000D01*
X82650000Y24570000D02*
X81945000Y24570000D01*
X80615000Y28810000D02*
X79910000Y28810000D01*
X82650000Y28810000D02*
X81945000Y28810000D01*
X79910000Y28810000D02*
X79910000Y24570000D01*
X82650000Y28810000D02*
X82650000Y24570000D01*
X27880000Y32730000D02*
X27880000Y27670000D01*
X78800000Y32730000D02*
X27880000Y32730000D01*
X78800000Y20610000D02*
X78800000Y32730000D01*
X27880000Y20610000D02*
X78800000Y20610000D01*
X27880000Y25670000D02*
X27880000Y20610000D01*
X27880000Y27670000D02*
G75*
G02*
X27880000Y25670000I0J-1000000D01*
G01*
X56141000Y6370000D02*
G75*
G03*
X56141000Y6370000I-2620000J0D01*
G01*
X56101000Y6370000D02*
X50941000Y6370000D01*
X56101000Y6330000D02*
X50941000Y6330000D01*
X56100000Y6290000D02*
X50942000Y6290000D01*
X56099000Y6250000D02*
X50943000Y6250000D01*
X56097000Y6210000D02*
X50945000Y6210000D01*
X56094000Y6170000D02*
X50948000Y6170000D01*
X56090000Y6130000D02*
X54561000Y6130000D01*
X52481000Y6130000D02*
X50952000Y6130000D01*
X56086000Y6090000D02*
X54561000Y6090000D01*
X52481000Y6090000D02*
X50956000Y6090000D01*
X56082000Y6050000D02*
X54561000Y6050000D01*
X52481000Y6050000D02*
X50960000Y6050000D01*
X56077000Y6010000D02*
X54561000Y6010000D01*
X52481000Y6010000D02*
X50965000Y6010000D01*
X56071000Y5970000D02*
X54561000Y5970000D01*
X52481000Y5970000D02*
X50971000Y5970000D01*
X56064000Y5930000D02*
X54561000Y5930000D01*
X52481000Y5930000D02*
X50978000Y5930000D01*
X56057000Y5890000D02*
X54561000Y5890000D01*
X52481000Y5890000D02*
X50985000Y5890000D01*
X56049000Y5850000D02*
X54561000Y5850000D01*
X52481000Y5850000D02*
X50993000Y5850000D01*
X56041000Y5810000D02*
X54561000Y5810000D01*
X52481000Y5810000D02*
X51001000Y5810000D01*
X56032000Y5770000D02*
X54561000Y5770000D01*
X52481000Y5770000D02*
X51010000Y5770000D01*
X56022000Y5730000D02*
X54561000Y5730000D01*
X52481000Y5730000D02*
X51020000Y5730000D01*
X56012000Y5690000D02*
X54561000Y5690000D01*
X52481000Y5690000D02*
X51030000Y5690000D01*
X56001000Y5649000D02*
X54561000Y5649000D01*
X52481000Y5649000D02*
X51041000Y5649000D01*
X55989000Y5609000D02*
X54561000Y5609000D01*
X52481000Y5609000D02*
X51053000Y5609000D01*
X55976000Y5569000D02*
X54561000Y5569000D01*
X52481000Y5569000D02*
X51066000Y5569000D01*
X55963000Y5529000D02*
X54561000Y5529000D01*
X52481000Y5529000D02*
X51079000Y5529000D01*
X55949000Y5489000D02*
X54561000Y5489000D01*
X52481000Y5489000D02*
X51093000Y5489000D01*
X55935000Y5449000D02*
X54561000Y5449000D01*
X52481000Y5449000D02*
X51107000Y5449000D01*
X55919000Y5409000D02*
X54561000Y5409000D01*
X52481000Y5409000D02*
X51123000Y5409000D01*
X55903000Y5369000D02*
X54561000Y5369000D01*
X52481000Y5369000D02*
X51139000Y5369000D01*
X55886000Y5329000D02*
X54561000Y5329000D01*
X52481000Y5329000D02*
X51156000Y5329000D01*
X55869000Y5289000D02*
X54561000Y5289000D01*
X52481000Y5289000D02*
X51173000Y5289000D01*
X55850000Y5249000D02*
X54561000Y5249000D01*
X52481000Y5249000D02*
X51192000Y5249000D01*
X55831000Y5209000D02*
X54561000Y5209000D01*
X52481000Y5209000D02*
X51211000Y5209000D01*
X55811000Y5169000D02*
X54561000Y5169000D01*
X52481000Y5169000D02*
X51231000Y5169000D01*
X55789000Y5129000D02*
X54561000Y5129000D01*
X52481000Y5129000D02*
X51253000Y5129000D01*
X55768000Y5089000D02*
X54561000Y5089000D01*
X52481000Y5089000D02*
X51274000Y5089000D01*
X55745000Y5049000D02*
X54561000Y5049000D01*
X52481000Y5049000D02*
X51297000Y5049000D01*
X55721000Y5009000D02*
X54561000Y5009000D01*
X52481000Y5009000D02*
X51321000Y5009000D01*
X55696000Y4969000D02*
X54561000Y4969000D01*
X52481000Y4969000D02*
X51346000Y4969000D01*
X55670000Y4929000D02*
X54561000Y4929000D01*
X52481000Y4929000D02*
X51372000Y4929000D01*
X55643000Y4889000D02*
X54561000Y4889000D01*
X52481000Y4889000D02*
X51399000Y4889000D01*
X55616000Y4849000D02*
X54561000Y4849000D01*
X52481000Y4849000D02*
X51426000Y4849000D01*
X55586000Y4809000D02*
X54561000Y4809000D01*
X52481000Y4809000D02*
X51456000Y4809000D01*
X55556000Y4769000D02*
X54561000Y4769000D01*
X52481000Y4769000D02*
X51486000Y4769000D01*
X55525000Y4729000D02*
X54561000Y4729000D01*
X52481000Y4729000D02*
X51517000Y4729000D01*
X55492000Y4689000D02*
X54561000Y4689000D01*
X52481000Y4689000D02*
X51550000Y4689000D01*
X55458000Y4649000D02*
X54561000Y4649000D01*
X52481000Y4649000D02*
X51584000Y4649000D01*
X55422000Y4609000D02*
X54561000Y4609000D01*
X52481000Y4609000D02*
X51620000Y4609000D01*
X55385000Y4569000D02*
X54561000Y4569000D01*
X52481000Y4569000D02*
X51657000Y4569000D01*
X55347000Y4529000D02*
X54561000Y4529000D01*
X52481000Y4529000D02*
X51695000Y4529000D01*
X55306000Y4489000D02*
X54561000Y4489000D01*
X52481000Y4489000D02*
X51736000Y4489000D01*
X55264000Y4449000D02*
X54561000Y4449000D01*
X52481000Y4449000D02*
X51778000Y4449000D01*
X55220000Y4409000D02*
X54561000Y4409000D01*
X52481000Y4409000D02*
X51822000Y4409000D01*
X55174000Y4369000D02*
X54561000Y4369000D01*
X52481000Y4369000D02*
X51868000Y4369000D01*
X55126000Y4329000D02*
X54561000Y4329000D01*
X52481000Y4329000D02*
X51916000Y4329000D01*
X55075000Y4289000D02*
X54561000Y4289000D01*
X52481000Y4289000D02*
X51967000Y4289000D01*
X55021000Y4249000D02*
X54561000Y4249000D01*
X52481000Y4249000D02*
X52021000Y4249000D01*
X54964000Y4209000D02*
X54561000Y4209000D01*
X52481000Y4209000D02*
X52078000Y4209000D01*
X54904000Y4169000D02*
X54561000Y4169000D01*
X52481000Y4169000D02*
X52138000Y4169000D01*
X54840000Y4129000D02*
X54561000Y4129000D01*
X52481000Y4129000D02*
X52202000Y4129000D01*
X54772000Y4089000D02*
X54561000Y4089000D01*
X52481000Y4089000D02*
X52270000Y4089000D01*
X54699000Y4049000D02*
X52343000Y4049000D01*
X54619000Y4009000D02*
X52423000Y4009000D01*
X54532000Y3969000D02*
X52510000Y3969000D01*
X54436000Y3929000D02*
X52606000Y3929000D01*
X54326000Y3889000D02*
X52716000Y3889000D01*
X54198000Y3849000D02*
X52844000Y3849000D01*
X54039000Y3809000D02*
X53003000Y3809000D01*
X53805000Y3769000D02*
X53237000Y3769000D01*
X54996000Y9174775D02*
X54996000Y8674775D01*
X55246000Y8924775D02*
X54746000Y8924775D01*
X37230000Y86460000D02*
X41470000Y86460000D01*
X37230000Y83720000D02*
X41470000Y83720000D01*
X37230000Y86460000D02*
X37230000Y85755000D01*
X37230000Y84425000D02*
X37230000Y83720000D01*
X41470000Y86460000D02*
X41470000Y85755000D01*
X41470000Y84425000D02*
X41470000Y83720000D01*
X25468000Y84425000D02*
X25468000Y83720000D01*
X25468000Y86460000D02*
X25468000Y85755000D01*
X21228000Y84425000D02*
X21228000Y83720000D01*
X21228000Y86460000D02*
X21228000Y85755000D01*
X21228000Y83720000D02*
X25468000Y83720000D01*
X21228000Y86460000D02*
X25468000Y86460000D01*
X9525000Y19050000D02*
X8255000Y19050000D01*
X9525000Y20320000D02*
X9525000Y19050000D01*
X7212071Y81660000D02*
X6757929Y81660000D01*
X7212071Y80900000D02*
X6757929Y80900000D01*
X4672071Y81660000D02*
X4275000Y81660000D01*
X4672071Y80900000D02*
X4275000Y80900000D01*
X-4385000Y81660000D02*
X1615000Y81660000D01*
X-4385000Y80900000D02*
X-4385000Y81660000D01*
X1615000Y80900000D02*
X-4385000Y80900000D01*
X4275000Y80010000D02*
X1615000Y80010000D01*
X7212071Y79120000D02*
X6757929Y79120000D01*
X7212071Y78360000D02*
X6757929Y78360000D01*
X4672071Y79120000D02*
X4275000Y79120000D01*
X4672071Y78360000D02*
X4275000Y78360000D01*
X-4385000Y79120000D02*
X1615000Y79120000D01*
X-4385000Y78360000D02*
X-4385000Y79120000D01*
X1615000Y78360000D02*
X-4385000Y78360000D01*
X4275000Y77470000D02*
X1615000Y77470000D01*
X7212071Y76580000D02*
X6757929Y76580000D01*
X7212071Y75820000D02*
X6757929Y75820000D01*
X4672071Y76580000D02*
X4275000Y76580000D01*
X4672071Y75820000D02*
X4275000Y75820000D01*
X-4385000Y76580000D02*
X1615000Y76580000D01*
X-4385000Y75820000D02*
X-4385000Y76580000D01*
X1615000Y75820000D02*
X-4385000Y75820000D01*
X4275000Y74930000D02*
X1615000Y74930000D01*
X7212071Y74040000D02*
X6757929Y74040000D01*
X7212071Y73280000D02*
X6757929Y73280000D01*
X4672071Y74040000D02*
X4275000Y74040000D01*
X4672071Y73280000D02*
X4275000Y73280000D01*
X-4385000Y74040000D02*
X1615000Y74040000D01*
X-4385000Y73280000D02*
X-4385000Y74040000D01*
X1615000Y73280000D02*
X-4385000Y73280000D01*
X4275000Y72390000D02*
X1615000Y72390000D01*
X7212071Y71500000D02*
X6757929Y71500000D01*
X7212071Y70740000D02*
X6757929Y70740000D01*
X4672071Y71500000D02*
X4275000Y71500000D01*
X4672071Y70740000D02*
X4275000Y70740000D01*
X-4385000Y71500000D02*
X1615000Y71500000D01*
X-4385000Y70740000D02*
X-4385000Y71500000D01*
X1615000Y70740000D02*
X-4385000Y70740000D01*
X4275000Y69850000D02*
X1615000Y69850000D01*
X7212071Y68960000D02*
X6757929Y68960000D01*
X7212071Y68200000D02*
X6757929Y68200000D01*
X4672071Y68960000D02*
X4275000Y68960000D01*
X4672071Y68200000D02*
X4275000Y68200000D01*
X-4385000Y68960000D02*
X1615000Y68960000D01*
X-4385000Y68200000D02*
X-4385000Y68960000D01*
X1615000Y68200000D02*
X-4385000Y68200000D01*
X4275000Y67310000D02*
X1615000Y67310000D01*
X7212071Y66420000D02*
X6757929Y66420000D01*
X7212071Y65660000D02*
X6757929Y65660000D01*
X4672071Y66420000D02*
X4275000Y66420000D01*
X4672071Y65660000D02*
X4275000Y65660000D01*
X-4385000Y66420000D02*
X1615000Y66420000D01*
X-4385000Y65660000D02*
X-4385000Y66420000D01*
X1615000Y65660000D02*
X-4385000Y65660000D01*
X4275000Y64770000D02*
X1615000Y64770000D01*
X7212071Y63880000D02*
X6757929Y63880000D01*
X7212071Y63120000D02*
X6757929Y63120000D01*
X4672071Y63880000D02*
X4275000Y63880000D01*
X4672071Y63120000D02*
X4275000Y63120000D01*
X-4385000Y63880000D02*
X1615000Y63880000D01*
X-4385000Y63120000D02*
X-4385000Y63880000D01*
X1615000Y63120000D02*
X-4385000Y63120000D01*
X4275000Y62230000D02*
X1615000Y62230000D01*
X7212071Y61340000D02*
X6757929Y61340000D01*
X7212071Y60580000D02*
X6757929Y60580000D01*
X4672071Y61340000D02*
X4275000Y61340000D01*
X4672071Y60580000D02*
X4275000Y60580000D01*
X-4385000Y61340000D02*
X1615000Y61340000D01*
X-4385000Y60580000D02*
X-4385000Y61340000D01*
X1615000Y60580000D02*
X-4385000Y60580000D01*
X4275000Y59690000D02*
X1615000Y59690000D01*
X7212071Y58800000D02*
X6757929Y58800000D01*
X7212071Y58040000D02*
X6757929Y58040000D01*
X4672071Y58800000D02*
X4275000Y58800000D01*
X4672071Y58040000D02*
X4275000Y58040000D01*
X-4385000Y58800000D02*
X1615000Y58800000D01*
X-4385000Y58040000D02*
X-4385000Y58800000D01*
X1615000Y58040000D02*
X-4385000Y58040000D01*
X4275000Y57150000D02*
X1615000Y57150000D01*
X7212071Y56260000D02*
X6757929Y56260000D01*
X7212071Y55500000D02*
X6757929Y55500000D01*
X4672071Y56260000D02*
X4275000Y56260000D01*
X4672071Y55500000D02*
X4275000Y55500000D01*
X-4385000Y56260000D02*
X1615000Y56260000D01*
X-4385000Y55500000D02*
X-4385000Y56260000D01*
X1615000Y55500000D02*
X-4385000Y55500000D01*
X4275000Y54610000D02*
X1615000Y54610000D01*
X7212071Y53720000D02*
X6757929Y53720000D01*
X7212071Y52960000D02*
X6757929Y52960000D01*
X4672071Y53720000D02*
X4275000Y53720000D01*
X4672071Y52960000D02*
X4275000Y52960000D01*
X-4385000Y53720000D02*
X1615000Y53720000D01*
X-4385000Y52960000D02*
X-4385000Y53720000D01*
X1615000Y52960000D02*
X-4385000Y52960000D01*
X4275000Y52070000D02*
X1615000Y52070000D01*
X7212071Y51180000D02*
X6757929Y51180000D01*
X7212071Y50420000D02*
X6757929Y50420000D01*
X4672071Y51180000D02*
X4275000Y51180000D01*
X4672071Y50420000D02*
X4275000Y50420000D01*
X-4385000Y51180000D02*
X1615000Y51180000D01*
X-4385000Y50420000D02*
X-4385000Y51180000D01*
X1615000Y50420000D02*
X-4385000Y50420000D01*
X4275000Y49530000D02*
X1615000Y49530000D01*
X7212071Y48640000D02*
X6757929Y48640000D01*
X7212071Y47880000D02*
X6757929Y47880000D01*
X4672071Y48640000D02*
X4275000Y48640000D01*
X4672071Y47880000D02*
X4275000Y47880000D01*
X-4385000Y48640000D02*
X1615000Y48640000D01*
X-4385000Y47880000D02*
X-4385000Y48640000D01*
X1615000Y47880000D02*
X-4385000Y47880000D01*
X4275000Y46990000D02*
X1615000Y46990000D01*
X7212071Y46100000D02*
X6757929Y46100000D01*
X7212071Y45340000D02*
X6757929Y45340000D01*
X4672071Y46100000D02*
X4275000Y46100000D01*
X4672071Y45340000D02*
X4275000Y45340000D01*
X-4385000Y46100000D02*
X1615000Y46100000D01*
X-4385000Y45340000D02*
X-4385000Y46100000D01*
X1615000Y45340000D02*
X-4385000Y45340000D01*
X4275000Y44450000D02*
X1615000Y44450000D01*
X7212071Y43560000D02*
X6757929Y43560000D01*
X7212071Y42800000D02*
X6757929Y42800000D01*
X4672071Y43560000D02*
X4275000Y43560000D01*
X4672071Y42800000D02*
X4275000Y42800000D01*
X-4385000Y43560000D02*
X1615000Y43560000D01*
X-4385000Y42800000D02*
X-4385000Y43560000D01*
X1615000Y42800000D02*
X-4385000Y42800000D01*
X4275000Y41910000D02*
X1615000Y41910000D01*
X7212071Y41020000D02*
X6757929Y41020000D01*
X7212071Y40260000D02*
X6757929Y40260000D01*
X4672071Y41020000D02*
X4275000Y41020000D01*
X4672071Y40260000D02*
X4275000Y40260000D01*
X-4385000Y41020000D02*
X1615000Y41020000D01*
X-4385000Y40260000D02*
X-4385000Y41020000D01*
X1615000Y40260000D02*
X-4385000Y40260000D01*
X4275000Y39370000D02*
X1615000Y39370000D01*
X7212071Y38480000D02*
X6757929Y38480000D01*
X7212071Y37720000D02*
X6757929Y37720000D01*
X4672071Y38480000D02*
X4275000Y38480000D01*
X4672071Y37720000D02*
X4275000Y37720000D01*
X-4385000Y38480000D02*
X1615000Y38480000D01*
X-4385000Y37720000D02*
X-4385000Y38480000D01*
X1615000Y37720000D02*
X-4385000Y37720000D01*
X4275000Y36830000D02*
X1615000Y36830000D01*
X7212071Y35940000D02*
X6757929Y35940000D01*
X7212071Y35180000D02*
X6757929Y35180000D01*
X4672071Y35940000D02*
X4275000Y35940000D01*
X4672071Y35180000D02*
X4275000Y35180000D01*
X-4385000Y35940000D02*
X1615000Y35940000D01*
X-4385000Y35180000D02*
X-4385000Y35940000D01*
X1615000Y35180000D02*
X-4385000Y35180000D01*
X4275000Y34290000D02*
X1615000Y34290000D01*
X7212071Y33400000D02*
X6757929Y33400000D01*
X7212071Y32640000D02*
X6757929Y32640000D01*
X4672071Y33400000D02*
X4275000Y33400000D01*
X4672071Y32640000D02*
X4275000Y32640000D01*
X-4385000Y33400000D02*
X1615000Y33400000D01*
X-4385000Y32640000D02*
X-4385000Y33400000D01*
X1615000Y32640000D02*
X-4385000Y32640000D01*
X4275000Y31750000D02*
X1615000Y31750000D01*
X7212071Y30860000D02*
X6757929Y30860000D01*
X7212071Y30100000D02*
X6757929Y30100000D01*
X4672071Y30860000D02*
X4275000Y30860000D01*
X4672071Y30100000D02*
X4275000Y30100000D01*
X-4385000Y30860000D02*
X1615000Y30860000D01*
X-4385000Y30100000D02*
X-4385000Y30860000D01*
X1615000Y30100000D02*
X-4385000Y30100000D01*
X4275000Y29210000D02*
X1615000Y29210000D01*
X7212071Y28320000D02*
X6757929Y28320000D01*
X7212071Y27560000D02*
X6757929Y27560000D01*
X4672071Y28320000D02*
X4275000Y28320000D01*
X4672071Y27560000D02*
X4275000Y27560000D01*
X-4385000Y28320000D02*
X1615000Y28320000D01*
X-4385000Y27560000D02*
X-4385000Y28320000D01*
X1615000Y27560000D02*
X-4385000Y27560000D01*
X4275000Y26670000D02*
X1615000Y26670000D01*
X7212071Y25780000D02*
X6757929Y25780000D01*
X7212071Y25020000D02*
X6757929Y25020000D01*
X4672071Y25780000D02*
X4275000Y25780000D01*
X4672071Y25020000D02*
X4275000Y25020000D01*
X-4385000Y25780000D02*
X1615000Y25780000D01*
X-4385000Y25020000D02*
X-4385000Y25780000D01*
X1615000Y25020000D02*
X-4385000Y25020000D01*
X4275000Y24130000D02*
X1615000Y24130000D01*
X7212071Y23240000D02*
X6757929Y23240000D01*
X7212071Y22480000D02*
X6757929Y22480000D01*
X4672071Y23240000D02*
X4275000Y23240000D01*
X4672071Y22480000D02*
X4275000Y22480000D01*
X-4385000Y23240000D02*
X1615000Y23240000D01*
X-4385000Y22480000D02*
X-4385000Y23240000D01*
X1615000Y22480000D02*
X-4385000Y22480000D01*
X4275000Y21590000D02*
X1615000Y21590000D01*
X7145000Y20700000D02*
X6757929Y20700000D01*
X7145000Y19940000D02*
X6757929Y19940000D01*
X4672071Y20700000D02*
X4275000Y20700000D01*
X4672071Y19940000D02*
X4275000Y19940000D01*
X1615000Y20600000D02*
X-4385000Y20600000D01*
X1615000Y20480000D02*
X-4385000Y20480000D01*
X1615000Y20360000D02*
X-4385000Y20360000D01*
X1615000Y20240000D02*
X-4385000Y20240000D01*
X1615000Y20120000D02*
X-4385000Y20120000D01*
X1615000Y20000000D02*
X-4385000Y20000000D01*
X-4385000Y20700000D02*
X1615000Y20700000D01*
X-4385000Y19940000D02*
X-4385000Y20700000D01*
X1615000Y19940000D02*
X-4385000Y19940000D01*
X1615000Y18990000D02*
X4275000Y18990000D01*
X1615000Y82610000D02*
X1615000Y18990000D01*
X4275000Y82610000D02*
X1615000Y82610000D01*
X4275000Y18990000D02*
X4275000Y82610000D01*
X25491000Y82610000D02*
X24241000Y82610000D01*
X25491000Y64710000D02*
X25491000Y82610000D01*
X20991000Y64710000D02*
X25491000Y64710000D01*
X20991000Y82610000D02*
X20991000Y64710000D01*
X22241000Y82610000D02*
X20991000Y82610000D01*
X24241000Y82610000D02*
G75*
G02*
X22241000Y82610000I-1000000J0D01*
G01*
X68150000Y86770000D02*
X68150000Y63070000D01*
X99950000Y86770000D02*
X68150000Y86770000D01*
X99950000Y63070000D02*
X99950000Y86770000D01*
X68150000Y63070000D02*
X99950000Y63070000D01*
X68520000Y86420000D02*
X69850000Y86420000D01*
X68520000Y85090000D02*
X68520000Y86420000D01*
X68520000Y83820000D02*
X71180000Y83820000D01*
X71180000Y83820000D02*
X71180000Y63440000D01*
X68520000Y83820000D02*
X68520000Y63440000D01*
X68520000Y63440000D02*
X71180000Y63440000D01*
X95377000Y42418000D02*
X95377000Y60452000D01*
X62103000Y42418000D02*
X95377000Y42418000D01*
X90170000Y57785000D02*
X62103000Y57785000D01*
X90170000Y57785000D02*
X90170000Y60452000D01*
X62103000Y60452000D02*
X62103000Y42415000D01*
X92710000Y45085000D02*
X62103000Y45085000D01*
X92710000Y45085000D02*
X92710000Y42415000D01*
X95377000Y60452000D02*
X92710000Y60452000D01*
X90170000Y60452000D02*
X62103000Y60452000D01*
X92710000Y57785000D02*
X92710000Y60452000D01*
X90170000Y57785000D02*
X92710000Y57785000D01*
X60960000Y81975000D02*
X62290000Y81975000D01*
X62290000Y81975000D02*
X62290000Y80645000D01*
X62290000Y79375000D02*
X62290000Y66615000D01*
X59630000Y66615000D02*
X62290000Y66615000D01*
X59630000Y79375000D02*
X59630000Y66615000D01*
X59630000Y79375000D02*
X62290000Y79375000D01*
X40005000Y12700000D02*
X40005000Y11430000D01*
X38735000Y12700000D02*
X40005000Y12700000D01*
X35815000Y10387071D02*
X35815000Y9990000D01*
X36575000Y10387071D02*
X36575000Y9990000D01*
X35815000Y1330000D02*
X35815000Y7330000D01*
X36575000Y1330000D02*
X35815000Y1330000D01*
X36575000Y7330000D02*
X36575000Y1330000D01*
X37465000Y9990000D02*
X37465000Y7330000D01*
X38355000Y10320000D02*
X38355000Y9990000D01*
X39115000Y10320000D02*
X39115000Y9990000D01*
X38455000Y7330000D02*
X38455000Y1330000D01*
X38575000Y7330000D02*
X38575000Y1330000D01*
X38695000Y7330000D02*
X38695000Y1330000D01*
X38815000Y7330000D02*
X38815000Y1330000D01*
X38935000Y7330000D02*
X38935000Y1330000D01*
X39055000Y7330000D02*
X39055000Y1330000D01*
X38355000Y1330000D02*
X38355000Y7330000D01*
X39115000Y1330000D02*
X38355000Y1330000D01*
X39115000Y7330000D02*
X39115000Y1330000D01*
X40065000Y7330000D02*
X40065000Y9990000D01*
X34865000Y7330000D02*
X40065000Y7330000D01*
X34865000Y9990000D02*
X34865000Y7330000D01*
X40065000Y9990000D02*
X34865000Y9990000D01*
X41620000Y82610000D02*
X40370000Y82610000D01*
X41620000Y64710000D02*
X41620000Y82610000D01*
X37120000Y64710000D02*
X41620000Y64710000D01*
X37120000Y82610000D02*
X37120000Y64710000D01*
X38370000Y82610000D02*
X37120000Y82610000D01*
X40370000Y82610000D02*
G75*
G02*
X38370000Y82610000I-1000000J0D01*
G01*
X18895000Y14870000D02*
X21495000Y14870000D01*
X18895000Y170000D02*
X18895000Y14870000D01*
X28095000Y14870000D02*
X28095000Y12970000D01*
X25395000Y14870000D02*
X28095000Y14870000D01*
X28095000Y170000D02*
X18895000Y170000D01*
X28095000Y8970000D02*
X28095000Y170000D01*
X18695000Y14020000D02*
X18695000Y15070000D01*
X19745000Y15070000D02*
X18695000Y15070000D01*
X78800000Y4505000D02*
X78800000Y3175000D01*
X77470000Y4505000D02*
X78800000Y4505000D01*
X76200000Y4505000D02*
X76200000Y1845000D01*
X76200000Y1845000D02*
X71060000Y1845000D01*
X76200000Y4505000D02*
X71060000Y4505000D01*
X71060000Y4505000D02*
X71060000Y1845000D01*
X14665000Y7045000D02*
X12005000Y7045000D01*
X14665000Y4445000D02*
X14665000Y7045000D01*
X12005000Y4445000D02*
X12005000Y7045000D01*
X14665000Y4445000D02*
X12005000Y4445000D01*
X14665000Y3175000D02*
X14665000Y1845000D01*
X14665000Y1845000D02*
X13335000Y1845000D01*
D10*
X81637142Y22693334D02*
X81684761Y22645715D01*
X81732380Y22502858D01*
X81732380Y22407620D01*
X81684761Y22264762D01*
X81589523Y22169524D01*
X81494285Y22121905D01*
X81303809Y22074286D01*
X81160952Y22074286D01*
X80970476Y22121905D01*
X80875238Y22169524D01*
X80780000Y22264762D01*
X80732380Y22407620D01*
X80732380Y22502858D01*
X80780000Y22645715D01*
X80827619Y22693334D01*
X80732380Y23026667D02*
X80732380Y23645715D01*
X81113333Y23312381D01*
X81113333Y23455239D01*
X81160952Y23550477D01*
X81208571Y23598096D01*
X81303809Y23645715D01*
X81541904Y23645715D01*
X81637142Y23598096D01*
X81684761Y23550477D01*
X81732380Y23455239D01*
X81732380Y23169524D01*
X81684761Y23074286D01*
X81637142Y23026667D01*
X26122380Y22098096D02*
X26931904Y22098096D01*
X27027142Y22145715D01*
X27074761Y22193334D01*
X27122380Y22288572D01*
X27122380Y22479048D01*
X27074761Y22574286D01*
X27027142Y22621905D01*
X26931904Y22669524D01*
X26122380Y22669524D01*
X26122380Y23050477D02*
X26122380Y23669524D01*
X26503333Y23336191D01*
X26503333Y23479048D01*
X26550952Y23574286D01*
X26598571Y23621905D01*
X26693809Y23669524D01*
X26931904Y23669524D01*
X27027142Y23621905D01*
X27074761Y23574286D01*
X27122380Y23479048D01*
X27122380Y23193334D01*
X27074761Y23098096D01*
X27027142Y23050477D01*
X50068142Y6183334D02*
X50115761Y6135715D01*
X50163380Y5992858D01*
X50163380Y5897620D01*
X50115761Y5754762D01*
X50020523Y5659524D01*
X49925285Y5611905D01*
X49734809Y5564286D01*
X49591952Y5564286D01*
X49401476Y5611905D01*
X49306238Y5659524D01*
X49211000Y5754762D01*
X49163380Y5897620D01*
X49163380Y5992858D01*
X49211000Y6135715D01*
X49258619Y6183334D01*
X49496714Y7040477D02*
X50163380Y7040477D01*
X49115761Y6802381D02*
X49830047Y6564286D01*
X49830047Y7183334D01*
X35917142Y84818334D02*
X35964761Y84770715D01*
X36012380Y84627858D01*
X36012380Y84532620D01*
X35964761Y84389762D01*
X35869523Y84294524D01*
X35774285Y84246905D01*
X35583809Y84199286D01*
X35440952Y84199286D01*
X35250476Y84246905D01*
X35155238Y84294524D01*
X35060000Y84389762D01*
X35012380Y84532620D01*
X35012380Y84627858D01*
X35060000Y84770715D01*
X35107619Y84818334D01*
X36012380Y85770715D02*
X36012380Y85199286D01*
X36012380Y85485000D02*
X35012380Y85485000D01*
X35155238Y85389762D01*
X35250476Y85294524D01*
X35298095Y85199286D01*
X20042142Y84606334D02*
X20089761Y84558715D01*
X20137380Y84415858D01*
X20137380Y84320620D01*
X20089761Y84177762D01*
X19994523Y84082524D01*
X19899285Y84034905D01*
X19708809Y83987286D01*
X19565952Y83987286D01*
X19375476Y84034905D01*
X19280238Y84082524D01*
X19185000Y84177762D01*
X19137380Y84320620D01*
X19137380Y84415858D01*
X19185000Y84558715D01*
X19232619Y84606334D01*
X19232619Y84987286D02*
X19185000Y85034905D01*
X19137380Y85130143D01*
X19137380Y85368239D01*
X19185000Y85463477D01*
X19232619Y85511096D01*
X19327857Y85558715D01*
X19423095Y85558715D01*
X19565952Y85511096D01*
X20137380Y84939667D01*
X20137380Y85558715D01*
X2627380Y16176667D02*
X3341666Y16176667D01*
X3484523Y16129048D01*
X3579761Y16033810D01*
X3627380Y15890953D01*
X3627380Y15795715D01*
X3627380Y17176667D02*
X3627380Y16605239D01*
X3627380Y16890953D02*
X2627380Y16890953D01*
X2770238Y16795715D01*
X2865476Y16700477D01*
X2913095Y16605239D01*
X18502380Y61468096D02*
X19311904Y61468096D01*
X19407142Y61515715D01*
X19454761Y61563334D01*
X19502380Y61658572D01*
X19502380Y61849048D01*
X19454761Y61944286D01*
X19407142Y61991905D01*
X19311904Y62039524D01*
X18502380Y62039524D01*
X18597619Y62468096D02*
X18550000Y62515715D01*
X18502380Y62610953D01*
X18502380Y62849048D01*
X18550000Y62944286D01*
X18597619Y62991905D01*
X18692857Y63039524D01*
X18788095Y63039524D01*
X18930952Y62991905D01*
X19502380Y62420477D01*
X19502380Y63039524D01*
X82002380Y65706667D02*
X82716666Y65706667D01*
X82859523Y65659048D01*
X82954761Y65563810D01*
X83002380Y65420953D01*
X83002380Y65325715D01*
X82097619Y66135239D02*
X82050000Y66182858D01*
X82002380Y66278096D01*
X82002380Y66516191D01*
X82050000Y66611429D01*
X82097619Y66659048D01*
X82192857Y66706667D01*
X82288095Y66706667D01*
X82430952Y66659048D01*
X83002380Y66087620D01*
X83002380Y66706667D01*
X82716666Y69573096D02*
X82716666Y70049286D01*
X83002380Y69477858D02*
X82002380Y69811191D01*
X83002380Y70144524D01*
X82478571Y70477858D02*
X82478571Y70811191D01*
X83002380Y70954048D02*
X83002380Y70477858D01*
X82002380Y70477858D01*
X82002380Y70954048D01*
X82621428Y71382620D02*
X82621428Y72144524D01*
X83002380Y72620715D02*
X82335714Y72620715D01*
X82430952Y72620715D02*
X82383333Y72668334D01*
X82335714Y72763572D01*
X82335714Y72906429D01*
X82383333Y73001667D01*
X82478571Y73049286D01*
X83002380Y73049286D01*
X82478571Y73049286D02*
X82383333Y73096905D01*
X82335714Y73192143D01*
X82335714Y73335000D01*
X82383333Y73430239D01*
X82478571Y73477858D01*
X83002380Y73477858D01*
X83002380Y73954048D02*
X82335714Y73954048D01*
X82002380Y73954048D02*
X82050000Y73906429D01*
X82097619Y73954048D01*
X82050000Y74001667D01*
X82002380Y73954048D01*
X82097619Y73954048D01*
X82954761Y74858810D02*
X83002380Y74763572D01*
X83002380Y74573096D01*
X82954761Y74477858D01*
X82907142Y74430239D01*
X82811904Y74382620D01*
X82526190Y74382620D01*
X82430952Y74430239D01*
X82383333Y74477858D01*
X82335714Y74573096D01*
X82335714Y74763572D01*
X82383333Y74858810D01*
X83002380Y75287381D02*
X82335714Y75287381D01*
X82526190Y75287381D02*
X82430952Y75335000D01*
X82383333Y75382620D01*
X82335714Y75477858D01*
X82335714Y75573096D01*
X83002380Y76049286D02*
X82954761Y75954048D01*
X82907142Y75906429D01*
X82811904Y75858810D01*
X82526190Y75858810D01*
X82430952Y75906429D01*
X82383333Y75954048D01*
X82335714Y76049286D01*
X82335714Y76192143D01*
X82383333Y76287381D01*
X82430952Y76335000D01*
X82526190Y76382620D01*
X82811904Y76382620D01*
X82907142Y76335000D01*
X82954761Y76287381D01*
X83002380Y76192143D01*
X83002380Y76049286D01*
X82954761Y76763572D02*
X83002380Y76906429D01*
X83002380Y77144524D01*
X82954761Y77239762D01*
X82907142Y77287381D01*
X82811904Y77335000D01*
X82716666Y77335000D01*
X82621428Y77287381D01*
X82573809Y77239762D01*
X82526190Y77144524D01*
X82478571Y76954048D01*
X82430952Y76858810D01*
X82383333Y76811191D01*
X82288095Y76763572D01*
X82192857Y76763572D01*
X82097619Y76811191D01*
X82050000Y76858810D01*
X82002380Y76954048D01*
X82002380Y77192143D01*
X82050000Y77335000D01*
X83002380Y77763572D02*
X82002380Y77763572D01*
X82002380Y78001667D01*
X82050000Y78144524D01*
X82145238Y78239762D01*
X82240476Y78287381D01*
X82430952Y78335000D01*
X82573809Y78335000D01*
X82764285Y78287381D01*
X82859523Y78239762D01*
X82954761Y78144524D01*
X83002380Y78001667D01*
X83002380Y77763572D01*
X82621428Y78763572D02*
X82621428Y79525477D01*
X83002380Y80477858D02*
X83002380Y80001667D01*
X82002380Y80001667D01*
X83002380Y81287381D02*
X83002380Y80811191D01*
X82002380Y80811191D01*
X82907142Y82192143D02*
X82954761Y82144524D01*
X83002380Y82001667D01*
X83002380Y81906429D01*
X82954761Y81763572D01*
X82859523Y81668334D01*
X82764285Y81620715D01*
X82573809Y81573096D01*
X82430952Y81573096D01*
X82240476Y81620715D01*
X82145238Y81668334D01*
X82050000Y81763572D01*
X82002380Y81906429D01*
X82002380Y82001667D01*
X82050000Y82144524D01*
X82097619Y82192143D01*
X83002380Y82620715D02*
X82002380Y82620715D01*
X83002380Y83192143D01*
X82002380Y83192143D01*
X82002380Y83525477D02*
X83002380Y83858810D01*
X82002380Y84192143D01*
X95972380Y42418096D02*
X96781904Y42418096D01*
X96877142Y42465715D01*
X96924761Y42513334D01*
X96972380Y42608572D01*
X96972380Y42799048D01*
X96924761Y42894286D01*
X96877142Y42941905D01*
X96781904Y42989524D01*
X95972380Y42989524D01*
X96305714Y43894286D02*
X96972380Y43894286D01*
X95924761Y43656191D02*
X96639047Y43418096D01*
X96639047Y44037143D01*
X60412380Y83081667D02*
X61126666Y83081667D01*
X61269523Y83034048D01*
X61364761Y82938810D01*
X61412380Y82795953D01*
X61412380Y82700715D01*
X60412380Y83462620D02*
X60412380Y84081667D01*
X60793333Y83748334D01*
X60793333Y83891191D01*
X60840952Y83986429D01*
X60888571Y84034048D01*
X60983809Y84081667D01*
X61221904Y84081667D01*
X61317142Y84034048D01*
X61364761Y83986429D01*
X61412380Y83891191D01*
X61412380Y83605477D01*
X61364761Y83510239D01*
X61317142Y83462620D01*
X33107380Y8556667D02*
X33821666Y8556667D01*
X33964523Y8509048D01*
X34059761Y8413810D01*
X34107380Y8270953D01*
X34107380Y8175715D01*
X33440714Y9461429D02*
X34107380Y9461429D01*
X33059761Y9223334D02*
X33774047Y8985239D01*
X33774047Y9604286D01*
X35012380Y61468096D02*
X35821904Y61468096D01*
X35917142Y61515715D01*
X35964761Y61563334D01*
X36012380Y61658572D01*
X36012380Y61849048D01*
X35964761Y61944286D01*
X35917142Y61991905D01*
X35821904Y62039524D01*
X35012380Y62039524D01*
X36012380Y63039524D02*
X36012380Y62468096D01*
X36012380Y62753810D02*
X35012380Y62753810D01*
X35155238Y62658572D01*
X35250476Y62563334D01*
X35298095Y62468096D01*
X17232380Y7286667D02*
X17946666Y7286667D01*
X18089523Y7239048D01*
X18184761Y7143810D01*
X18232380Y7000953D01*
X18232380Y6905715D01*
X17232380Y8239048D02*
X17232380Y7762858D01*
X17708571Y7715239D01*
X17660952Y7762858D01*
X17613333Y7858096D01*
X17613333Y8096191D01*
X17660952Y8191429D01*
X17708571Y8239048D01*
X17803809Y8286667D01*
X18041904Y8286667D01*
X18137142Y8239048D01*
X18184761Y8191429D01*
X18232380Y8096191D01*
X18232380Y7858096D01*
X18184761Y7762858D01*
X18137142Y7715239D01*
X80204761Y2413096D02*
X80252380Y2555953D01*
X80252380Y2794048D01*
X80204761Y2889286D01*
X80157142Y2936905D01*
X80061904Y2984524D01*
X79966666Y2984524D01*
X79871428Y2936905D01*
X79823809Y2889286D01*
X79776190Y2794048D01*
X79728571Y2603572D01*
X79680952Y2508334D01*
X79633333Y2460715D01*
X79538095Y2413096D01*
X79442857Y2413096D01*
X79347619Y2460715D01*
X79300000Y2508334D01*
X79252380Y2603572D01*
X79252380Y2841667D01*
X79300000Y2984524D01*
X80252380Y3936905D02*
X80252380Y3365477D01*
X80252380Y3651191D02*
X79252380Y3651191D01*
X79395238Y3555953D01*
X79490476Y3460715D01*
X79538095Y3365477D01*
X10247380Y1571667D02*
X10961666Y1571667D01*
X11104523Y1524048D01*
X11199761Y1428810D01*
X11247380Y1285953D01*
X11247380Y1190715D01*
X10247380Y2476429D02*
X10247380Y2285953D01*
X10295000Y2190715D01*
X10342619Y2143096D01*
X10485476Y2047858D01*
X10675952Y2000239D01*
X11056904Y2000239D01*
X11152142Y2047858D01*
X11199761Y2095477D01*
X11247380Y2190715D01*
X11247380Y2381191D01*
X11199761Y2476429D01*
X11152142Y2524048D01*
X11056904Y2571667D01*
X10818809Y2571667D01*
X10723571Y2524048D01*
X10675952Y2476429D01*
X10628333Y2381191D01*
X10628333Y2190715D01*
X10675952Y2095477D01*
X10723571Y2047858D01*
X10818809Y2000239D01*
M02*
