M48
; DRILL file {KiCad (5.1.9)-1} date 08/03/25 17:35:07
; FORMAT={-:-/ absolute / metric / decimal}
; #@! TF.CreationDate,2025-08-03T17:35:07+09:00
; #@! TF.GenerationSoftware,Kicad,Pcbnew,(5.1.9)-1
FMAT,2
METRIC
T1C0.300
T2C0.800
T3C1.000
T4C3.200
%
G90
G05
T1
X28.705Y60.777
X30.365Y60.369
X66.714Y37.414
X72.701Y25.899
T2
X19.431Y81.28
X19.431Y78.74
X19.431Y76.2
X19.431Y73.66
X19.431Y71.12
X19.431Y68.58
X19.431Y66.04
X22.098Y85.09
X24.598Y85.09
X27.051Y81.28
X27.051Y78.74
X27.051Y76.2
X27.051Y73.66
X27.051Y71.12
X27.051Y68.58
X27.051Y66.04
X29.21Y34.29
X29.21Y19.05
X31.75Y34.29
X31.75Y19.05
X34.29Y34.29
X34.29Y19.05
X35.56Y81.28
X35.56Y78.74
X35.56Y76.2
X35.56Y73.66
X35.56Y71.12
X35.56Y68.58
X35.56Y66.04
X36.83Y34.29
X36.83Y19.05
X38.1Y85.09
X39.37Y34.29
X39.37Y19.05
X40.6Y85.09
X41.91Y34.29
X41.91Y19.05
X43.18Y81.28
X43.18Y78.74
X43.18Y76.2
X43.18Y73.66
X43.18Y71.12
X43.18Y68.58
X43.18Y66.04
X44.45Y34.29
X44.45Y19.05
X46.99Y34.29
X46.99Y19.05
X49.53Y34.29
X49.53Y19.05
X52.07Y34.29
X52.07Y19.05
X53.521Y7.62
X53.521Y5.12
X54.61Y34.29
X54.61Y19.05
X57.15Y34.29
X57.15Y19.05
X59.69Y34.29
X59.69Y19.05
X62.23Y34.29
X62.23Y19.05
X63.5Y59.055
X63.5Y43.815
X64.77Y34.29
X64.77Y19.05
X66.04Y59.055
X66.04Y43.815
X67.31Y34.29
X67.31Y19.05
X68.58Y59.055
X68.58Y43.815
X69.85Y46.355
X69.85Y34.29
X69.85Y19.05
X71.12Y59.055
X71.12Y43.815
X72.39Y46.355
X72.39Y34.29
X72.39Y19.05
X73.66Y59.055
X73.66Y43.815
X74.93Y34.29
X74.93Y19.05
X76.2Y59.055
X76.2Y43.815
X77.47Y34.29
X77.47Y19.05
X78.74Y59.055
X78.74Y43.815
X80.01Y46.355
X81.28Y59.055
X81.28Y43.815
X81.28Y27.94
X81.28Y25.44
X82.55Y46.355
X83.82Y59.055
X83.82Y43.815
X86.36Y59.055
X86.36Y43.815
X88.9Y59.055
X88.9Y43.815
X91.44Y59.055
X91.44Y43.815
T3
X5.715Y81.28
X5.715Y78.74
X5.715Y76.2
X5.715Y73.66
X5.715Y71.12
X5.715Y68.58
X5.715Y66.04
X5.715Y63.5
X5.715Y60.96
X5.715Y58.42
X5.715Y55.88
X5.715Y53.34
X5.715Y50.8
X5.715Y48.26
X5.715Y45.72
X5.715Y43.18
X5.715Y40.64
X5.715Y38.1
X5.715Y35.56
X5.715Y33.02
X5.715Y30.48
X5.715Y27.94
X5.715Y25.4
X5.715Y22.86
X5.715Y20.32
X8.255Y81.28
X8.255Y78.74
X8.255Y76.2
X8.255Y73.66
X8.255Y71.12
X8.255Y68.58
X8.255Y66.04
X8.255Y63.5
X8.255Y60.96
X8.255Y58.42
X8.255Y55.88
X8.255Y53.34
X8.255Y50.8
X8.255Y48.26
X8.255Y45.72
X8.255Y43.18
X8.255Y40.64
X8.255Y38.1
X8.255Y35.56
X8.255Y33.02
X8.255Y30.48
X8.255Y27.94
X8.255Y25.4
X8.255Y22.86
X8.255Y20.32
X13.335Y5.715
X13.335Y3.175
X36.195Y11.43
X38.735Y11.43
X60.96Y80.645
X60.96Y78.105
X60.96Y75.565
X60.96Y73.025
X60.96Y70.485
X60.96Y67.945
X69.85Y85.09
X69.85Y82.55
X69.85Y80.01
X69.85Y77.47
X69.85Y74.93
X69.85Y72.39
X69.85Y69.85
X69.85Y67.31
X69.85Y64.77
X72.39Y3.175
X74.93Y3.175
X77.47Y3.175
X95.25Y85.09
X95.25Y64.77
X97.79Y85.09
X97.79Y64.77
T4
X5.0Y95.0
X5.0Y5.0
X95.0Y95.0
X95.0Y5.0
T3
G00X22.495Y13.97
M15
G01X24.495Y13.97
M16
G05
G00X22.495Y7.97
M15
G01X24.495Y7.97
M16
G05
G00X28.195Y9.97
M15
G01X28.195Y11.97
M16
G05
T0
M30
