G04 #@! TF.GenerationSoftware,KiCad,Pcbnew,(5.1.9)-1*
G04 #@! TF.CreationDate,2025-08-03T17:35:04+09:00*
G04 #@! TF.ProjectId,PASOPIA7_SD,5041534f-5049-4413-975f-53442e6b6963,rev?*
G04 #@! TF.SameCoordinates,PX53920b0PY93c3260*
G04 #@! TF.FileFunction,Soldermask,Bot*
G04 #@! TF.FilePolarity,Negative*
%FSLAX46Y46*%
G04 Gerber Fmt 4.6, Leading zero omitted, Abs format (unit mm)*
G04 Created by KiCad (PCBNEW (5.1.9)-1) date 2025-08-03 17:35:04*
%MOMM*%
%LPD*%
G01*
G04 APERTURE LIST*
%ADD10C,1.600000*%
%ADD11R,1.600000X2.400000*%
%ADD12O,1.600000X2.400000*%
%ADD13C,3.200000*%
%ADD14R,1.600000X1.600000*%
%ADD15O,1.700000X1.700000*%
%ADD16R,1.700000X1.700000*%
%ADD17R,2.400000X1.600000*%
%ADD18O,2.400000X1.600000*%
%ADD19O,1.600000X1.600000*%
%ADD20R,3.500000X3.500000*%
G04 APERTURE END LIST*
D10*
X81280000Y27940000D03*
X81280000Y25440000D03*
D11*
X29210000Y19050000D03*
D12*
X77470000Y34290000D03*
X31750000Y19050000D03*
X74930000Y34290000D03*
X34290000Y19050000D03*
X72390000Y34290000D03*
X36830000Y19050000D03*
X69850000Y34290000D03*
X39370000Y19050000D03*
X67310000Y34290000D03*
X41910000Y19050000D03*
X64770000Y34290000D03*
X44450000Y19050000D03*
X62230000Y34290000D03*
X46990000Y19050000D03*
X59690000Y34290000D03*
X49530000Y19050000D03*
X57150000Y34290000D03*
X52070000Y19050000D03*
X54610000Y34290000D03*
X54610000Y19050000D03*
X52070000Y34290000D03*
X57150000Y19050000D03*
X49530000Y34290000D03*
X59690000Y19050000D03*
X46990000Y34290000D03*
X62230000Y19050000D03*
X44450000Y34290000D03*
X64770000Y19050000D03*
X41910000Y34290000D03*
X67310000Y19050000D03*
X39370000Y34290000D03*
X69850000Y19050000D03*
X36830000Y34290000D03*
X72390000Y19050000D03*
X34290000Y34290000D03*
X74930000Y19050000D03*
X31750000Y34290000D03*
X77470000Y19050000D03*
X29210000Y34290000D03*
D13*
X5000000Y95000000D03*
X95000000Y95000000D03*
X95000000Y5000000D03*
X5000000Y5000000D03*
D14*
X53521000Y7620000D03*
D10*
X53521000Y5120000D03*
X38100000Y85090000D03*
X40600000Y85090000D03*
X24598000Y85090000D03*
X22098000Y85090000D03*
D15*
X5715000Y81280000D03*
X8255000Y81280000D03*
X5715000Y78740000D03*
X8255000Y78740000D03*
X5715000Y76200000D03*
X8255000Y76200000D03*
X5715000Y73660000D03*
X8255000Y73660000D03*
X5715000Y71120000D03*
X8255000Y71120000D03*
X5715000Y68580000D03*
X8255000Y68580000D03*
X5715000Y66040000D03*
X8255000Y66040000D03*
X5715000Y63500000D03*
X8255000Y63500000D03*
X5715000Y60960000D03*
X8255000Y60960000D03*
X5715000Y58420000D03*
X8255000Y58420000D03*
X5715000Y55880000D03*
X8255000Y55880000D03*
X5715000Y53340000D03*
X8255000Y53340000D03*
X5715000Y50800000D03*
X8255000Y50800000D03*
X5715000Y48260000D03*
X8255000Y48260000D03*
X5715000Y45720000D03*
X8255000Y45720000D03*
X5715000Y43180000D03*
X8255000Y43180000D03*
X5715000Y40640000D03*
X8255000Y40640000D03*
X5715000Y38100000D03*
X8255000Y38100000D03*
X5715000Y35560000D03*
X8255000Y35560000D03*
X5715000Y33020000D03*
X8255000Y33020000D03*
X5715000Y30480000D03*
X8255000Y30480000D03*
X5715000Y27940000D03*
X8255000Y27940000D03*
X5715000Y25400000D03*
X8255000Y25400000D03*
X5715000Y22860000D03*
X8255000Y22860000D03*
X5715000Y20320000D03*
D16*
X8255000Y20320000D03*
D17*
X19431000Y81280000D03*
D18*
X27051000Y66040000D03*
X19431000Y78740000D03*
X27051000Y68580000D03*
X19431000Y76200000D03*
X27051000Y71120000D03*
X19431000Y73660000D03*
X27051000Y73660000D03*
X19431000Y71120000D03*
X27051000Y76200000D03*
X19431000Y68580000D03*
X27051000Y78740000D03*
X19431000Y66040000D03*
X27051000Y81280000D03*
D16*
X69850000Y85090000D03*
D15*
X69850000Y82550000D03*
X69850000Y80010000D03*
X69850000Y77470000D03*
X69850000Y74930000D03*
X69850000Y72390000D03*
X69850000Y69850000D03*
X69850000Y67310000D03*
X69850000Y64770000D03*
X97790000Y64770000D03*
X95250000Y64770000D03*
X97790000Y85090000D03*
X95250000Y85090000D03*
D14*
X91440000Y59055000D03*
D19*
X88900000Y59055000D03*
X86360000Y59055000D03*
X63500000Y43815000D03*
X83820000Y59055000D03*
X66040000Y43815000D03*
X81280000Y59055000D03*
X68580000Y43815000D03*
X78740000Y59055000D03*
X71120000Y43815000D03*
X76200000Y59055000D03*
X73660000Y43815000D03*
X73660000Y59055000D03*
X76200000Y43815000D03*
X71120000Y59055000D03*
X78740000Y43815000D03*
X68580000Y59055000D03*
X81280000Y43815000D03*
X66040000Y59055000D03*
X83820000Y43815000D03*
X63500000Y59055000D03*
X86360000Y43815000D03*
X88900000Y43815000D03*
X91440000Y43815000D03*
X82550000Y46355000D03*
X80010000Y46355000D03*
X72390000Y46355000D03*
X69850000Y46355000D03*
D16*
X60960000Y80645000D03*
D15*
X60960000Y78105000D03*
X60960000Y75565000D03*
X60960000Y73025000D03*
X60960000Y70485000D03*
X60960000Y67945000D03*
D16*
X38735000Y11430000D03*
D15*
X36195000Y11430000D03*
D17*
X35560000Y81280000D03*
D18*
X43180000Y66040000D03*
X35560000Y78740000D03*
X43180000Y68580000D03*
X35560000Y76200000D03*
X43180000Y71120000D03*
X35560000Y73660000D03*
X43180000Y73660000D03*
X35560000Y71120000D03*
X43180000Y76200000D03*
X35560000Y68580000D03*
X43180000Y78740000D03*
X35560000Y66040000D03*
X43180000Y81280000D03*
D20*
X23495000Y13970000D03*
G36*
G01*
X24495000Y6470000D02*
X22495000Y6470000D01*
G75*
G02*
X21745000Y7220000I0J750000D01*
G01*
X21745000Y8720000D01*
G75*
G02*
X22495000Y9470000I750000J0D01*
G01*
X24495000Y9470000D01*
G75*
G02*
X25245000Y8720000I0J-750000D01*
G01*
X25245000Y7220000D01*
G75*
G02*
X24495000Y6470000I-750000J0D01*
G01*
G37*
G36*
G01*
X29070000Y9220000D02*
X27320000Y9220000D01*
G75*
G02*
X26445000Y10095000I0J875000D01*
G01*
X26445000Y11845000D01*
G75*
G02*
X27320000Y12720000I875000J0D01*
G01*
X29070000Y12720000D01*
G75*
G02*
X29945000Y11845000I0J-875000D01*
G01*
X29945000Y10095000D01*
G75*
G02*
X29070000Y9220000I-875000J0D01*
G01*
G37*
D16*
X77470000Y3175000D03*
D15*
X74930000Y3175000D03*
X72390000Y3175000D03*
D16*
X13335000Y3175000D03*
D15*
X13335000Y5715000D03*
M02*
