M48
; DRILL file {KiCad (5.1.9)-1} date 08/03/25 17:29:23
; FORMAT={-:-/ absolute / metric / decimal}
; #@! TF.CreationDate,2025-08-03T17:29:23+09:00
; #@! TF.GenerationSoftware,Kicad,Pcbnew,(5.1.9)-1
FMAT,2
METRIC
T1C0.300
T2C0.800
T3C1.000
T4C3.200
%
G90
G05
T1
X17.39Y24.765
X17.78Y27.359
X20.639Y37.87
X22.705Y10.114
X31.133Y25.989
X35.627Y6.96
X44.936Y29.226
X47.248Y28.533
X50.831Y10.083
X51.524Y9.674
X55.494Y10.252
X61.96Y20.09
X86.029Y29.578
T2
X3.81Y34.29
X3.81Y26.67
X3.81Y21.59
X3.81Y13.97
X6.35Y34.29
X6.35Y26.67
X6.35Y21.59
X6.35Y13.97
X8.89Y34.29
X8.89Y26.67
X8.89Y21.59
X8.89Y13.97
X11.43Y34.29
X11.43Y26.67
X11.43Y21.59
X11.43Y13.97
X13.97Y34.29
X13.97Y26.67
X13.97Y21.59
X13.97Y13.97
X16.51Y34.29
X16.51Y26.67
X16.51Y21.59
X16.51Y13.97
X19.05Y34.29
X19.05Y26.67
X19.05Y21.59
X19.05Y13.97
X21.59Y34.29
X21.59Y26.67
X21.59Y21.59
X21.59Y13.97
X24.13Y34.29
X24.13Y26.67
X24.13Y21.59
X24.13Y13.97
X26.67Y34.29
X26.67Y26.67
X26.67Y21.59
X26.67Y13.97
X30.48Y31.71
X30.48Y29.21
X30.48Y19.01
X30.48Y16.51
X35.56Y54.61
X35.56Y39.37
X36.83Y19.01
X36.83Y16.51
X38.1Y54.61
X38.1Y39.37
X40.64Y54.61
X40.64Y39.37
X43.18Y54.61
X43.18Y39.37
X45.72Y54.61
X45.72Y39.37
X45.72Y34.29
X45.72Y26.67
X48.26Y54.61
X48.26Y39.37
X48.26Y34.29
X48.26Y26.67
X50.8Y54.61
X50.8Y39.37
X50.8Y34.29
X50.8Y26.67
X53.34Y54.61
X53.34Y39.37
X53.34Y34.29
X53.34Y26.67
X53.34Y21.59
X53.34Y13.97
X55.88Y54.61
X55.88Y39.37
X55.88Y34.29
X55.88Y26.67
X55.88Y21.59
X55.88Y13.97
X58.42Y54.61
X58.42Y39.37
X58.42Y34.29
X58.42Y26.67
X58.42Y21.59
X58.42Y13.97
X60.96Y54.61
X60.96Y39.37
X60.96Y34.29
X60.96Y26.67
X60.96Y21.59
X60.96Y13.97
X63.5Y54.61
X63.5Y39.37
X63.5Y34.29
X63.5Y26.67
X63.5Y21.59
X63.5Y13.97
X66.04Y54.61
X66.04Y39.37
X66.04Y34.29
X66.04Y26.67
X66.04Y21.59
X66.04Y13.97
X68.58Y54.61
X68.58Y39.37
X68.58Y34.29
X68.58Y26.67
X68.58Y21.59
X68.58Y13.97
X72.39Y48.22
X72.39Y45.72
X72.39Y31.75
X72.39Y29.25
X72.39Y19.05
X72.39Y16.55
X77.47Y34.29
X77.47Y26.67
X77.47Y21.43
X77.47Y13.81
X80.01Y34.29
X80.01Y26.67
X80.01Y21.43
X80.01Y13.81
X82.55Y34.29
X82.55Y26.67
X82.55Y21.43
X82.55Y13.81
X85.09Y34.29
X85.09Y26.67
X85.09Y21.43
X85.09Y13.81
X87.63Y34.29
X87.63Y26.67
X87.63Y21.43
X87.63Y13.81
X90.17Y34.29
X90.17Y26.67
X90.17Y21.43
X90.17Y13.81
X92.71Y34.29
X92.71Y26.67
X92.71Y21.43
X92.71Y13.81
X96.52Y31.71
X96.52Y29.21
X96.52Y18.87
X96.52Y16.37
T3
X10.16Y43.18
X10.16Y40.64
X34.29Y7.62
X34.29Y5.08
X36.83Y7.62
X36.83Y5.08
X39.37Y7.62
X39.37Y5.08
X41.91Y7.62
X41.91Y5.08
X44.45Y7.62
X44.45Y5.08
X46.99Y7.62
X46.99Y5.08
X49.53Y7.62
X49.53Y5.08
X52.07Y7.62
X52.07Y5.08
X54.61Y7.62
X54.61Y5.08
X57.15Y7.62
X57.15Y5.08
X82.55Y46.355
X85.09Y46.355
X87.63Y46.355
T4
X5.0Y55.0
X5.0Y5.0
X95.0Y55.0
X95.0Y5.0
T0
M30
