G04 #@! TF.GenerationSoftware,KiCad,Pcbnew,(5.1.9)-1*
G04 #@! TF.CreationDate,2025-08-03T17:29:21+09:00*
G04 #@! TF.ProjectId,PASOPIA7_SD_ROM,5041534f-5049-4413-975f-53445f524f4d,rev?*
G04 #@! TF.SameCoordinates,PX53920b0PY93c3260*
G04 #@! TF.FileFunction,Copper,L1,Top*
G04 #@! TF.FilePolarity,Positive*
%FSLAX46Y46*%
G04 Gerber Fmt 4.6, Leading zero omitted, Abs format (unit mm)*
G04 Created by KiCad (PCBNEW (5.1.9)-1) date 2025-08-03 17:29:21*
%MOMM*%
%LPD*%
G01*
G04 APERTURE LIST*
G04 #@! TA.AperFunction,ComponentPad*
%ADD10R,1.600000X1.600000*%
G04 #@! TD*
G04 #@! TA.AperFunction,ComponentPad*
%ADD11C,1.600000*%
G04 #@! TD*
G04 #@! TA.AperFunction,ComponentPad*
%ADD12R,1.600000X2.400000*%
G04 #@! TD*
G04 #@! TA.AperFunction,ComponentPad*
%ADD13O,1.600000X2.400000*%
G04 #@! TD*
G04 #@! TA.AperFunction,ComponentPad*
%ADD14R,1.700000X1.700000*%
G04 #@! TD*
G04 #@! TA.AperFunction,ComponentPad*
%ADD15O,1.700000X1.700000*%
G04 #@! TD*
G04 #@! TA.AperFunction,ViaPad*
%ADD16C,0.500000*%
G04 #@! TD*
G04 #@! TA.AperFunction,Conductor*
%ADD17C,0.400000*%
G04 #@! TD*
G04 #@! TA.AperFunction,Conductor*
%ADD18C,0.200000*%
G04 #@! TD*
G04 #@! TA.AperFunction,Conductor*
%ADD19C,0.254000*%
G04 #@! TD*
G04 #@! TA.AperFunction,Conductor*
%ADD20C,0.100000*%
G04 #@! TD*
G04 APERTURE END LIST*
D10*
X36830000Y16510000D03*
D11*
X36830000Y19010000D03*
X96520000Y18870000D03*
X96520000Y16370000D03*
X72390000Y16550000D03*
X72390000Y19050000D03*
X96520000Y31710000D03*
X96520000Y29210000D03*
D12*
X92710000Y21430000D03*
D13*
X77470000Y13810000D03*
X90170000Y21430000D03*
X80010000Y13810000D03*
X87630000Y21430000D03*
X82550000Y13810000D03*
X85090000Y21430000D03*
X85090000Y13810000D03*
X82550000Y21430000D03*
X87630000Y13810000D03*
X80010000Y21430000D03*
X90170000Y13810000D03*
X77470000Y21430000D03*
X92710000Y13810000D03*
D11*
X30480000Y19010000D03*
X30480000Y16510000D03*
X30480000Y29210000D03*
X30480000Y31710000D03*
X72390000Y31750000D03*
X72390000Y29250000D03*
X72390000Y45720000D03*
X72390000Y48220000D03*
D14*
X87630000Y46355000D03*
D15*
X85090000Y46355000D03*
X82550000Y46355000D03*
D13*
X68580000Y13970000D03*
X53340000Y21590000D03*
X66040000Y13970000D03*
X55880000Y21590000D03*
X63500000Y13970000D03*
X58420000Y21590000D03*
X60960000Y13970000D03*
X60960000Y21590000D03*
X58420000Y13970000D03*
X63500000Y21590000D03*
X55880000Y13970000D03*
X66040000Y21590000D03*
X53340000Y13970000D03*
D12*
X68580000Y21590000D03*
X26670000Y21590000D03*
D13*
X3810000Y13970000D03*
X24130000Y21590000D03*
X6350000Y13970000D03*
X21590000Y21590000D03*
X8890000Y13970000D03*
X19050000Y21590000D03*
X11430000Y13970000D03*
X16510000Y21590000D03*
X13970000Y13970000D03*
X13970000Y21590000D03*
X16510000Y13970000D03*
X11430000Y21590000D03*
X19050000Y13970000D03*
X8890000Y21590000D03*
X21590000Y13970000D03*
X6350000Y21590000D03*
X24130000Y13970000D03*
X3810000Y21590000D03*
X26670000Y13970000D03*
X26670000Y26670000D03*
X3810000Y34290000D03*
X24130000Y26670000D03*
X6350000Y34290000D03*
X21590000Y26670000D03*
X8890000Y34290000D03*
X19050000Y26670000D03*
X11430000Y34290000D03*
X16510000Y26670000D03*
X13970000Y34290000D03*
X13970000Y26670000D03*
X16510000Y34290000D03*
X11430000Y26670000D03*
X19050000Y34290000D03*
X8890000Y26670000D03*
X21590000Y34290000D03*
X6350000Y26670000D03*
X24130000Y34290000D03*
X3810000Y26670000D03*
D12*
X26670000Y34290000D03*
X68580000Y54610000D03*
D13*
X35560000Y39370000D03*
X66040000Y54610000D03*
X38100000Y39370000D03*
X63500000Y54610000D03*
X40640000Y39370000D03*
X60960000Y54610000D03*
X43180000Y39370000D03*
X58420000Y54610000D03*
X45720000Y39370000D03*
X55880000Y54610000D03*
X48260000Y39370000D03*
X53340000Y54610000D03*
X50800000Y39370000D03*
X50800000Y54610000D03*
X53340000Y39370000D03*
X48260000Y54610000D03*
X55880000Y39370000D03*
X45720000Y54610000D03*
X58420000Y39370000D03*
X43180000Y54610000D03*
X60960000Y39370000D03*
X40640000Y54610000D03*
X63500000Y39370000D03*
X38100000Y54610000D03*
X66040000Y39370000D03*
X35560000Y54610000D03*
X68580000Y39370000D03*
D12*
X68580000Y34290000D03*
D13*
X45720000Y26670000D03*
X66040000Y34290000D03*
X48260000Y26670000D03*
X63500000Y34290000D03*
X50800000Y26670000D03*
X60960000Y34290000D03*
X53340000Y26670000D03*
X58420000Y34290000D03*
X55880000Y26670000D03*
X55880000Y34290000D03*
X58420000Y26670000D03*
X53340000Y34290000D03*
X60960000Y26670000D03*
X50800000Y34290000D03*
X63500000Y26670000D03*
X48260000Y34290000D03*
X66040000Y26670000D03*
X45720000Y34290000D03*
X68580000Y26670000D03*
D12*
X92710000Y34290000D03*
D13*
X77470000Y26670000D03*
X90170000Y34290000D03*
X80010000Y26670000D03*
X87630000Y34290000D03*
X82550000Y26670000D03*
X85090000Y34290000D03*
X85090000Y26670000D03*
X82550000Y34290000D03*
X87630000Y26670000D03*
X80010000Y34290000D03*
X90170000Y26670000D03*
X77470000Y34290000D03*
X92710000Y26670000D03*
D14*
X57150000Y5080000D03*
D15*
X57150000Y7620000D03*
X54610000Y5080000D03*
X54610000Y7620000D03*
X52070000Y5080000D03*
X52070000Y7620000D03*
X49530000Y5080000D03*
X49530000Y7620000D03*
X46990000Y5080000D03*
X46990000Y7620000D03*
X44450000Y5080000D03*
X44450000Y7620000D03*
X41910000Y5080000D03*
X41910000Y7620000D03*
X39370000Y5080000D03*
X39370000Y7620000D03*
X36830000Y5080000D03*
X36830000Y7620000D03*
X34290000Y5080000D03*
X34290000Y7620000D03*
D14*
X10160000Y40640000D03*
D15*
X10160000Y43180000D03*
D16*
X86029500Y29578200D03*
X61960400Y20089700D03*
X50831200Y10083500D03*
X22705000Y10114200D03*
X51523900Y9674200D03*
X47248000Y28533200D03*
X55494300Y10252100D03*
X35627500Y6960000D03*
X17780000Y27358600D03*
X17390500Y24765300D03*
X20638800Y37869700D03*
X44936300Y29226100D03*
X31132800Y25988900D03*
D17*
X36830000Y16510000D02*
X38030300Y16510000D01*
X70720300Y16110300D02*
X38430000Y16110300D01*
X38430000Y16110300D02*
X38030300Y16510000D01*
X70720300Y16110300D02*
X68580000Y13970000D01*
X72390000Y16550000D02*
X71160000Y16550000D01*
X71160000Y16550000D02*
X70720300Y16110300D01*
X82550000Y46355000D02*
X81299700Y46355000D01*
X72390000Y44450000D02*
X79394700Y44450000D01*
X79394700Y44450000D02*
X81299700Y46355000D01*
X72390000Y44450000D02*
X72390000Y43180000D01*
X72390000Y43180000D02*
X68580000Y39370000D01*
X72390000Y45720000D02*
X72390000Y44450000D01*
X30480000Y16510000D02*
X36830000Y16510000D01*
X96520000Y16370000D02*
X95270000Y16370000D01*
X95270000Y16370000D02*
X92710000Y13810000D01*
X96520000Y29210000D02*
X95250000Y29210000D01*
X95250000Y29210000D02*
X92710000Y26670000D01*
X72390000Y29250000D02*
X71160000Y29250000D01*
X71160000Y29250000D02*
X68580000Y26670000D01*
X34290000Y7620000D02*
X34290000Y13970000D01*
X34290000Y13970000D02*
X36830000Y16510000D01*
X34290000Y5080000D02*
X34290000Y7620000D01*
X30480000Y16510000D02*
X29210000Y16510000D01*
X29210000Y16510000D02*
X26670000Y13970000D01*
X30480000Y29210000D02*
X29210000Y29210000D01*
X29210000Y29210000D02*
X26670000Y26670000D01*
X12090600Y40640000D02*
X10160000Y40640000D01*
X16840300Y35890300D02*
X12090600Y40640000D01*
X26670000Y35890300D02*
X16840300Y35890300D01*
X26670000Y34290000D02*
X26670000Y35890300D01*
X77470000Y21430000D02*
X77470000Y19829700D01*
X72390000Y19050000D02*
X76690300Y19050000D01*
X76690300Y19050000D02*
X77470000Y19829700D01*
X53340000Y19989700D02*
X54279700Y19050000D01*
X54279700Y19050000D02*
X72390000Y19050000D01*
X93910400Y18870000D02*
X93629700Y18870000D01*
X93629700Y18870000D02*
X90170000Y15410300D01*
X96520000Y18870000D02*
X93910400Y18870000D01*
X90170000Y25944800D02*
X90782600Y25944800D01*
X90782600Y25944800D02*
X93910400Y22817000D01*
X93910400Y22817000D02*
X93910400Y18870000D01*
X90170000Y26090700D02*
X90170000Y25944800D01*
X90170000Y26236500D02*
X90170000Y26090700D01*
X35560000Y54610000D02*
X35560000Y53009700D01*
X35560000Y53009700D02*
X36220600Y53009700D01*
X36220600Y53009700D02*
X48260000Y40970300D01*
X53340000Y39370000D02*
X53340000Y40970300D01*
X48260000Y39370000D02*
X48260000Y40970300D01*
X48260000Y40970300D02*
X53340000Y40970300D01*
X3810000Y21590000D02*
X3810000Y19989700D01*
X30480000Y19010000D02*
X4789700Y19010000D01*
X4789700Y19010000D02*
X3810000Y19989700D01*
X30480000Y31710000D02*
X33060000Y34290000D01*
X33060000Y34290000D02*
X45720000Y34290000D01*
X77470000Y32689700D02*
X82550000Y32689700D01*
X72390000Y31750000D02*
X73329700Y32689700D01*
X73329700Y32689700D02*
X77470000Y32689700D01*
X85090000Y34290000D02*
X85090000Y32689700D01*
X82550000Y34290000D02*
X82550000Y32689700D01*
X82550000Y32689700D02*
X85090000Y32689700D01*
X36830000Y19010000D02*
X52360300Y19010000D01*
X52360300Y19010000D02*
X53340000Y19989700D01*
X53340000Y21590000D02*
X53340000Y19989700D01*
X82550000Y25069700D02*
X86754900Y25069700D01*
X86754900Y25069700D02*
X87630000Y25944800D01*
X82550000Y25219800D02*
X82550000Y25069700D01*
X82550000Y26670000D02*
X82550000Y25219800D01*
X80010000Y26670000D02*
X80010000Y25069700D01*
X80010000Y25069700D02*
X82550000Y25069700D01*
X90170000Y26670000D02*
X90170000Y28270300D01*
X90170000Y28270300D02*
X93080300Y28270300D01*
X93080300Y28270300D02*
X96520000Y31710000D01*
X90170000Y26236500D02*
X90170000Y26670000D01*
X87630000Y26670000D02*
X87630000Y25944800D01*
X90170000Y25944800D02*
X87630000Y25944800D01*
X68580000Y34290000D02*
X68580000Y32689700D01*
X68580000Y32689700D02*
X71450300Y32689700D01*
X71450300Y32689700D02*
X72390000Y31750000D01*
X77470000Y34290000D02*
X77470000Y32689700D01*
X90170000Y13810000D02*
X90170000Y15410300D01*
X54610000Y5080000D02*
X53359700Y5080000D01*
X49091600Y5080000D02*
X50361600Y6350000D01*
X50361600Y6350000D02*
X52607800Y6350000D01*
X52607800Y6350000D02*
X53359700Y5598100D01*
X53359700Y5598100D02*
X53359700Y5080000D01*
X49530000Y5080000D02*
X49091600Y5080000D01*
X48904900Y5080000D02*
X48279700Y5080000D01*
X48904900Y5080000D02*
X49091600Y5080000D01*
X41910000Y5080000D02*
X43160300Y5080000D01*
X43160300Y5080000D02*
X43160300Y5627000D01*
X43160300Y5627000D02*
X43883300Y6350000D01*
X43883300Y6350000D02*
X47527800Y6350000D01*
X47527800Y6350000D02*
X48279700Y5598100D01*
X48279700Y5598100D02*
X48279700Y5080000D01*
D18*
X90170000Y21430000D02*
X90170000Y22930300D01*
X68580000Y21590000D02*
X68580000Y23090300D01*
X68580000Y23090300D02*
X90010000Y23090300D01*
X90010000Y23090300D02*
X90170000Y22930300D01*
X92710000Y34290000D02*
X92710000Y32789700D01*
X92710000Y32789700D02*
X89498500Y29578200D01*
X89498500Y29578200D02*
X86029500Y29578200D01*
X82550000Y13810000D02*
X82550000Y12309700D01*
X63500000Y13970000D02*
X63500000Y12469700D01*
X63500000Y12469700D02*
X63943000Y12026700D01*
X63943000Y12026700D02*
X82267000Y12026700D01*
X82267000Y12026700D02*
X82550000Y12309700D01*
X58420000Y20089700D02*
X61960400Y20089700D01*
X58420000Y21590000D02*
X58420000Y20089700D01*
X21590000Y26670000D02*
X21590000Y28170300D01*
X48260000Y34290000D02*
X48260000Y32789700D01*
X48260000Y32789700D02*
X34290800Y32789700D01*
X34290800Y32789700D02*
X31902700Y30401600D01*
X31902700Y30401600D02*
X23821300Y30401600D01*
X23821300Y30401600D02*
X21590000Y28170300D01*
X57150000Y5080000D02*
X55880000Y6350000D01*
X55880000Y6350000D02*
X55880000Y8050000D01*
X55880000Y8050000D02*
X53677900Y10252100D01*
X53677900Y10252100D02*
X50999800Y10252100D01*
X50999800Y10252100D02*
X50831200Y10083500D01*
X50800000Y34290000D02*
X50800000Y35790300D01*
X19050000Y26670000D02*
X23390200Y31010200D01*
X23390200Y31010200D02*
X28163900Y31010200D01*
X28163900Y31010200D02*
X32944000Y35790300D01*
X32944000Y35790300D02*
X50800000Y35790300D01*
X57150000Y7620000D02*
X57150000Y6469700D01*
X57150000Y6469700D02*
X57940800Y6469700D01*
X57940800Y6469700D02*
X58300400Y6110100D01*
X58300400Y6110100D02*
X58300400Y4088300D01*
X58300400Y4088300D02*
X57287100Y3075000D01*
X57287100Y3075000D02*
X29744200Y3075000D01*
X29744200Y3075000D02*
X22705000Y10114200D01*
X11430000Y25169700D02*
X17016700Y25169700D01*
X17016700Y25169700D02*
X17162600Y25315600D01*
X17162600Y25315600D02*
X17618500Y25315600D01*
X17618500Y25315600D02*
X18174600Y24759500D01*
X18174600Y24759500D02*
X28706800Y24759500D01*
X28706800Y24759500D02*
X35792000Y31844700D01*
X35792000Y31844700D02*
X52395000Y31844700D01*
X52395000Y31844700D02*
X53340000Y32789700D01*
X51523900Y9674200D02*
X51724200Y9674200D01*
X51724200Y9674200D02*
X53459700Y7938700D01*
X53459700Y7938700D02*
X53459700Y7620000D01*
X54610000Y7620000D02*
X53459700Y7620000D01*
X11430000Y26670000D02*
X11430000Y25169700D01*
X53340000Y34290000D02*
X53340000Y32789700D01*
X8890000Y13970000D02*
X8890000Y12469700D01*
X52070000Y5080000D02*
X50919700Y5080000D01*
X50919700Y5080000D02*
X50919700Y4792400D01*
X50919700Y4792400D02*
X49648000Y3520700D01*
X49648000Y3520700D02*
X33430800Y3520700D01*
X33430800Y3520700D02*
X25767000Y11184500D01*
X25767000Y11184500D02*
X10175200Y11184500D01*
X10175200Y11184500D02*
X8890000Y12469700D01*
X58420000Y32789700D02*
X56018100Y30387800D01*
X56018100Y30387800D02*
X42262800Y30387800D01*
X42262800Y30387800D02*
X35833900Y23958900D01*
X35833900Y23958900D02*
X9758600Y23958900D01*
X9758600Y23958900D02*
X8890000Y23090300D01*
X8890000Y21590000D02*
X8890000Y23090300D01*
X58420000Y34290000D02*
X58420000Y32789700D01*
X11430000Y21590000D02*
X11430000Y23090300D01*
X11430000Y23090300D02*
X11830400Y23490700D01*
X11830400Y23490700D02*
X38367700Y23490700D01*
X38367700Y23490700D02*
X44685100Y29808100D01*
X44685100Y29808100D02*
X45973100Y29808100D01*
X45973100Y29808100D02*
X47248000Y28533200D01*
X60960000Y34290000D02*
X60960000Y32789700D01*
X47248000Y28533200D02*
X47285500Y28570700D01*
X47285500Y28570700D02*
X56741000Y28570700D01*
X56741000Y28570700D02*
X60960000Y32789700D01*
X63500000Y32789700D02*
X62562300Y32789700D01*
X62562300Y32789700D02*
X57319600Y27547000D01*
X57319600Y27547000D02*
X57319600Y26152700D01*
X57319600Y26152700D02*
X55257700Y24090800D01*
X55257700Y24090800D02*
X49576700Y24090800D01*
X49576700Y24090800D02*
X48576200Y23090300D01*
X48576200Y23090300D02*
X19050000Y23090300D01*
X19050000Y21590000D02*
X19050000Y23090300D01*
X63500000Y34290000D02*
X63500000Y32789700D01*
X55494300Y10252100D02*
X55094000Y10652400D01*
X55094000Y10652400D02*
X48345100Y10652400D01*
X48345100Y10652400D02*
X45600300Y7907600D01*
X45600300Y7907600D02*
X45600300Y7620000D01*
X92710000Y21430000D02*
X92710000Y19929700D01*
X55494300Y10252100D02*
X86064700Y10252100D01*
X86064700Y10252100D02*
X88900000Y13087400D01*
X88900000Y13087400D02*
X88900000Y16119700D01*
X88900000Y16119700D02*
X92710000Y19929700D01*
X44450000Y7620000D02*
X45600300Y7620000D01*
X87630000Y19929700D02*
X86360000Y18659700D01*
X86360000Y18659700D02*
X86360000Y13116500D01*
X86360000Y13116500D02*
X84296200Y11052700D01*
X84296200Y11052700D02*
X46205400Y11052700D01*
X46205400Y11052700D02*
X43060300Y7907600D01*
X43060300Y7907600D02*
X43060300Y7620000D01*
X87630000Y21430000D02*
X87630000Y19929700D01*
X41910000Y7620000D02*
X43060300Y7620000D01*
X82550000Y19929700D02*
X81049700Y19929700D01*
X81049700Y19929700D02*
X73547100Y12427100D01*
X73547100Y12427100D02*
X65604900Y12427100D01*
X65604900Y12427100D02*
X64770000Y13262000D01*
X64770000Y13262000D02*
X64770000Y14698900D01*
X64770000Y14698900D02*
X63998500Y15470400D01*
X63998500Y15470400D02*
X43008900Y15470400D01*
X43008900Y15470400D02*
X35627500Y8089000D01*
X35627500Y8089000D02*
X35627500Y6960000D01*
X82550000Y21430000D02*
X82550000Y19929700D01*
X85090000Y13810000D02*
X82733000Y11453000D01*
X82733000Y11453000D02*
X44065700Y11453000D01*
X44065700Y11453000D02*
X40520300Y7907600D01*
X40520300Y7907600D02*
X40520300Y7620000D01*
X39370000Y7620000D02*
X40520300Y7620000D01*
X87630000Y34290000D02*
X87630000Y32789700D01*
X66040000Y26670000D02*
X66040000Y28170300D01*
X66040000Y28170300D02*
X68349700Y30480000D01*
X68349700Y30480000D02*
X85320300Y30480000D01*
X85320300Y30480000D02*
X87630000Y32789700D01*
X55880000Y23090300D02*
X55479700Y23490600D01*
X55479700Y23490600D02*
X49874400Y23490600D01*
X49874400Y23490600D02*
X48492200Y22108400D01*
X48492200Y22108400D02*
X31072800Y22108400D01*
X31072800Y22108400D02*
X29017000Y20052600D01*
X29017000Y20052600D02*
X5863800Y20052600D01*
X5863800Y20052600D02*
X5080000Y20836400D01*
X5080000Y20836400D02*
X5080000Y23899700D01*
X5080000Y23899700D02*
X3810000Y25169700D01*
X55880000Y21590000D02*
X55880000Y23090300D01*
X3810000Y26670000D02*
X3810000Y25169700D01*
X53340000Y12469700D02*
X42564500Y12469700D01*
X42564500Y12469700D02*
X38023300Y7928500D01*
X38023300Y7928500D02*
X38023300Y7185200D01*
X38023300Y7185200D02*
X37068400Y6230300D01*
X37068400Y6230300D02*
X36353500Y6230300D01*
X36353500Y6230300D02*
X35679700Y5556500D01*
X35679700Y5556500D02*
X35679700Y4795000D01*
X35679700Y4795000D02*
X34807100Y3922400D01*
X34807100Y3922400D02*
X33595400Y3922400D01*
X33595400Y3922400D02*
X25048100Y12469700D01*
X25048100Y12469700D02*
X13490100Y12469700D01*
X13490100Y12469700D02*
X12700000Y13259800D01*
X12700000Y13259800D02*
X12700000Y14711000D01*
X12700000Y14711000D02*
X11940700Y15470300D01*
X11940700Y15470300D02*
X3810000Y15470300D01*
X53340000Y13970000D02*
X53340000Y12469700D01*
X3810000Y13970000D02*
X3810000Y15470300D01*
X58420000Y39370000D02*
X56519200Y37469200D01*
X56519200Y37469200D02*
X55952900Y37469200D01*
X55952900Y37469200D02*
X55099200Y36615500D01*
X55099200Y36615500D02*
X32802600Y36615500D01*
X32802600Y36615500D02*
X28119700Y31932600D01*
X28119700Y31932600D02*
X22354000Y31932600D01*
X22354000Y31932600D02*
X17780000Y27358600D01*
X63500000Y37869700D02*
X61498500Y35868200D01*
X61498500Y35868200D02*
X58036600Y35868200D01*
X58036600Y35868200D02*
X57150000Y34981600D01*
X57150000Y34981600D02*
X57150000Y33603300D01*
X57150000Y33603300D02*
X54334800Y30788100D01*
X54334800Y30788100D02*
X42097000Y30788100D01*
X42097000Y30788100D02*
X35668100Y24359200D01*
X35668100Y24359200D02*
X17796600Y24359200D01*
X17796600Y24359200D02*
X17390500Y24765300D01*
X63500000Y39370000D02*
X63500000Y37869700D01*
X50800000Y39370000D02*
X50800000Y37869700D01*
X50800000Y37869700D02*
X20638800Y37869700D01*
X16510000Y13970000D02*
X16510000Y15470300D01*
X66040000Y39370000D02*
X66040000Y37869700D01*
X66040000Y37869700D02*
X64815400Y36645100D01*
X64815400Y36645100D02*
X64815400Y33479200D01*
X64815400Y33479200D02*
X59840900Y28504700D01*
X59840900Y28504700D02*
X59840900Y25211100D01*
X59840900Y25211100D02*
X57150000Y22520200D01*
X57150000Y22520200D02*
X57150000Y20858800D01*
X57150000Y20858800D02*
X56378500Y20087300D01*
X56378500Y20087300D02*
X55425800Y20087300D01*
X55425800Y20087300D02*
X54610000Y20903100D01*
X54610000Y20903100D02*
X54610000Y22276500D01*
X54610000Y22276500D02*
X53796200Y23090300D01*
X53796200Y23090300D02*
X52640000Y23090300D01*
X52640000Y23090300D02*
X50195300Y20645600D01*
X50195300Y20645600D02*
X35523800Y20645600D01*
X35523800Y20645600D02*
X32638200Y17760000D01*
X32638200Y17760000D02*
X18799700Y17760000D01*
X18799700Y17760000D02*
X16510000Y15470300D01*
X55880000Y39370000D02*
X53974700Y37464700D01*
X53974700Y37464700D02*
X32353800Y37464700D01*
X32353800Y37464700D02*
X27622500Y32733400D01*
X27622500Y32733400D02*
X15502200Y32733400D01*
X15502200Y32733400D02*
X10160000Y27391200D01*
X10160000Y27391200D02*
X10160000Y25962600D01*
X10160000Y25962600D02*
X7287700Y23090300D01*
X7287700Y23090300D02*
X6350000Y23090300D01*
X6350000Y21590000D02*
X6350000Y23090300D01*
X24130000Y25169700D02*
X28473700Y25169700D01*
X28473700Y25169700D02*
X35693300Y32389300D01*
X35693300Y32389300D02*
X50897300Y32389300D01*
X50897300Y32389300D02*
X52070000Y33562000D01*
X52070000Y33562000D02*
X52070000Y35018900D01*
X52070000Y35018900D02*
X53266200Y36215100D01*
X53266200Y36215100D02*
X55265100Y36215100D01*
X55265100Y36215100D02*
X55892500Y36842500D01*
X55892500Y36842500D02*
X57902800Y36842500D01*
X57902800Y36842500D02*
X59559500Y38499200D01*
X59559500Y38499200D02*
X59559500Y49169200D01*
X59559500Y49169200D02*
X63500000Y53109700D01*
X24130000Y26670000D02*
X24130000Y25169700D01*
X63500000Y54610000D02*
X63500000Y53109700D01*
X60960000Y53109700D02*
X57291700Y49441400D01*
X57291700Y49441400D02*
X57291700Y38822900D01*
X57291700Y38822900D02*
X56338400Y37869600D01*
X56338400Y37869600D02*
X55559100Y37869600D01*
X55559100Y37869600D02*
X54705400Y37015900D01*
X54705400Y37015900D02*
X32471100Y37015900D01*
X32471100Y37015900D02*
X27788200Y32333000D01*
X27788200Y32333000D02*
X20672700Y32333000D01*
X20672700Y32333000D02*
X16510000Y28170300D01*
X16510000Y26670000D02*
X16510000Y28170300D01*
X60960000Y54610000D02*
X60960000Y53109700D01*
X6350000Y28170300D02*
X6350000Y26670000D01*
X7620000Y29440300D02*
X6350000Y28170300D01*
X7620000Y44450000D02*
X7620000Y29440300D01*
X19280300Y56110300D02*
X7620000Y44450000D01*
X55880000Y56110300D02*
X19280300Y56110300D01*
X55880000Y54610000D02*
X55880000Y56110300D01*
X44936300Y29226100D02*
X45776900Y29226100D01*
X45776900Y29226100D02*
X47020100Y27982900D01*
X47020100Y27982900D02*
X47476000Y27982900D01*
X47476000Y27982900D02*
X47663400Y28170300D01*
X47663400Y28170300D02*
X55880000Y28170300D01*
X55880000Y26670000D02*
X55880000Y28170300D01*
X31132800Y25988900D02*
X36332300Y31188400D01*
X36332300Y31188400D02*
X52324400Y31188400D01*
X52324400Y31188400D02*
X54610000Y33474000D01*
X54610000Y33474000D02*
X54610000Y34976900D01*
X54610000Y34976900D02*
X56075300Y36442200D01*
X56075300Y36442200D02*
X60006000Y36442200D01*
X60006000Y36442200D02*
X62399600Y38835800D01*
X62399600Y38835800D02*
X62399600Y40228400D01*
X62399600Y40228400D02*
X69161200Y46990000D01*
X69161200Y46990000D02*
X81227000Y46990000D01*
X81227000Y46990000D02*
X81758200Y47521200D01*
X81758200Y47521200D02*
X85601100Y47521200D01*
X85601100Y47521200D02*
X86479700Y46642600D01*
X86479700Y46642600D02*
X86479700Y46355000D01*
X87630000Y46355000D02*
X86479700Y46355000D01*
D19*
X99340000Y660000D02*
X660000Y660000D01*
X660000Y5220128D01*
X2765000Y5220128D01*
X2765000Y4779872D01*
X2850890Y4348075D01*
X3019369Y3941331D01*
X3263962Y3575271D01*
X3575271Y3263962D01*
X3941331Y3019369D01*
X4348075Y2850890D01*
X4779872Y2765000D01*
X5220128Y2765000D01*
X5651925Y2850890D01*
X6058669Y3019369D01*
X6424729Y3263962D01*
X6736038Y3575271D01*
X6980631Y3941331D01*
X7149110Y4348075D01*
X7235000Y4779872D01*
X7235000Y5220128D01*
X7149110Y5651925D01*
X6980631Y6058669D01*
X6736038Y6424729D01*
X6424729Y6736038D01*
X6058669Y6980631D01*
X5651925Y7149110D01*
X5220128Y7235000D01*
X4779872Y7235000D01*
X4348075Y7149110D01*
X3941331Y6980631D01*
X3575271Y6736038D01*
X3263962Y6424729D01*
X3019369Y6058669D01*
X2850890Y5651925D01*
X2765000Y5220128D01*
X660000Y5220128D01*
X660000Y21463000D01*
X2375000Y21463000D01*
X2375000Y21063000D01*
X2427350Y20785486D01*
X2532834Y20523517D01*
X2687399Y20287161D01*
X2885105Y20085500D01*
X3118354Y19926285D01*
X3378182Y19815633D01*
X3460961Y19798096D01*
X3683000Y19920085D01*
X3683000Y21463000D01*
X2375000Y21463000D01*
X660000Y21463000D01*
X660000Y22117000D01*
X2375000Y22117000D01*
X2375000Y21717000D01*
X3683000Y21717000D01*
X3683000Y23259915D01*
X3460961Y23381904D01*
X3378182Y23364367D01*
X3118354Y23253715D01*
X2885105Y23094500D01*
X2687399Y22892839D01*
X2532834Y22656483D01*
X2427350Y22394514D01*
X2375000Y22117000D01*
X660000Y22117000D01*
X660000Y27140492D01*
X2375000Y27140492D01*
X2375000Y26199509D01*
X2395764Y25988692D01*
X2477818Y25718193D01*
X2611068Y25468900D01*
X2790392Y25250393D01*
X3008899Y25071068D01*
X3085174Y25030298D01*
X3085635Y25025615D01*
X3127664Y24887067D01*
X3195914Y24759380D01*
X3287763Y24647462D01*
X3315807Y24624447D01*
X4345001Y23595252D01*
X4345001Y23320425D01*
X4241818Y23364367D01*
X4159039Y23381904D01*
X3937000Y23259915D01*
X3937000Y21717000D01*
X3957000Y21717000D01*
X3957000Y21463000D01*
X3937000Y21463000D01*
X3937000Y19920085D01*
X4159039Y19798096D01*
X4241818Y19815633D01*
X4501646Y19926285D01*
X4734895Y20085500D01*
X4762894Y20114059D01*
X5318546Y19558407D01*
X5341562Y19530362D01*
X5369606Y19507347D01*
X5453480Y19438513D01*
X5581166Y19370263D01*
X5719715Y19328235D01*
X5863800Y19314044D01*
X5899905Y19317600D01*
X28980895Y19317600D01*
X29017000Y19314044D01*
X29053105Y19317600D01*
X29078332Y19320085D01*
X29053700Y19221816D01*
X29039783Y18939488D01*
X29081213Y18659870D01*
X29140173Y18495000D01*
X18835805Y18495000D01*
X18799700Y18498556D01*
X18763595Y18495000D01*
X18655615Y18484365D01*
X18517067Y18442337D01*
X18389380Y18374087D01*
X18277462Y18282238D01*
X18254446Y18254193D01*
X16015808Y16015554D01*
X15987763Y15992538D01*
X15895914Y15880620D01*
X15857403Y15808570D01*
X15827664Y15752933D01*
X15785635Y15614385D01*
X15785174Y15609701D01*
X15708900Y15568932D01*
X15490393Y15389608D01*
X15311068Y15171101D01*
X15240000Y15038142D01*
X15168932Y15171101D01*
X14989608Y15389608D01*
X14771101Y15568932D01*
X14521808Y15702182D01*
X14251309Y15784236D01*
X13970000Y15811943D01*
X13688692Y15784236D01*
X13418193Y15702182D01*
X13168900Y15568932D01*
X13011055Y15439392D01*
X12485958Y15964488D01*
X12462938Y15992538D01*
X12351020Y16084387D01*
X12223333Y16152637D01*
X12084785Y16194665D01*
X11976805Y16205300D01*
X11940700Y16208856D01*
X11904595Y16205300D01*
X3846105Y16205300D01*
X3810000Y16208856D01*
X3773895Y16205300D01*
X3665915Y16194665D01*
X3527367Y16152637D01*
X3399680Y16084387D01*
X3287762Y15992538D01*
X3195913Y15880620D01*
X3127663Y15752933D01*
X3085635Y15614385D01*
X3085174Y15609701D01*
X3008900Y15568932D01*
X2790393Y15389608D01*
X2611068Y15171101D01*
X2477818Y14921808D01*
X2395764Y14651309D01*
X2375000Y14440492D01*
X2375000Y13499509D01*
X2395764Y13288692D01*
X2477818Y13018193D01*
X2611068Y12768900D01*
X2790392Y12550393D01*
X3008899Y12371068D01*
X3258192Y12237818D01*
X3528691Y12155764D01*
X3810000Y12128057D01*
X4091308Y12155764D01*
X4361807Y12237818D01*
X4611100Y12371068D01*
X4829607Y12550392D01*
X5008932Y12768899D01*
X5080000Y12901858D01*
X5151068Y12768900D01*
X5330392Y12550393D01*
X5548899Y12371068D01*
X5798192Y12237818D01*
X6068691Y12155764D01*
X6350000Y12128057D01*
X6631308Y12155764D01*
X6901807Y12237818D01*
X7151100Y12371068D01*
X7369607Y12550392D01*
X7548932Y12768899D01*
X7620000Y12901858D01*
X7691068Y12768900D01*
X7870392Y12550393D01*
X8088899Y12371068D01*
X8165174Y12330298D01*
X8165635Y12325615D01*
X8192269Y12237818D01*
X8207664Y12187067D01*
X8275914Y12059380D01*
X8367763Y11947462D01*
X8395807Y11924447D01*
X9629946Y10690307D01*
X9652962Y10662262D01*
X9764880Y10570413D01*
X9892567Y10502163D01*
X10031115Y10460135D01*
X10139095Y10449500D01*
X10139104Y10449500D01*
X10175199Y10445945D01*
X10211294Y10449500D01*
X21885969Y10449500D01*
X21854010Y10372345D01*
X21820000Y10201365D01*
X21820000Y10027035D01*
X21854010Y9856055D01*
X21920723Y9694995D01*
X22017576Y9550045D01*
X22140845Y9426776D01*
X22285795Y9329923D01*
X22446855Y9263210D01*
X22533848Y9245906D01*
X29198946Y2580807D01*
X29221962Y2552762D01*
X29333880Y2460913D01*
X29461567Y2392663D01*
X29558086Y2363384D01*
X29600114Y2350635D01*
X29614332Y2349235D01*
X29708095Y2340000D01*
X29708102Y2340000D01*
X29744199Y2336445D01*
X29780296Y2340000D01*
X57250995Y2340000D01*
X57287100Y2336444D01*
X57323205Y2340000D01*
X57431185Y2350635D01*
X57569733Y2392663D01*
X57697420Y2460913D01*
X57809338Y2552762D01*
X57832358Y2580812D01*
X58794593Y3543046D01*
X58822638Y3566062D01*
X58914487Y3677980D01*
X58968117Y3778315D01*
X58982737Y3805666D01*
X59024765Y3944215D01*
X59038956Y4088300D01*
X59035400Y4124405D01*
X59035400Y5220128D01*
X92765000Y5220128D01*
X92765000Y4779872D01*
X92850890Y4348075D01*
X93019369Y3941331D01*
X93263962Y3575271D01*
X93575271Y3263962D01*
X93941331Y3019369D01*
X94348075Y2850890D01*
X94779872Y2765000D01*
X95220128Y2765000D01*
X95651925Y2850890D01*
X96058669Y3019369D01*
X96424729Y3263962D01*
X96736038Y3575271D01*
X96980631Y3941331D01*
X97149110Y4348075D01*
X97235000Y4779872D01*
X97235000Y5220128D01*
X97149110Y5651925D01*
X96980631Y6058669D01*
X96736038Y6424729D01*
X96424729Y6736038D01*
X96058669Y6980631D01*
X95651925Y7149110D01*
X95220128Y7235000D01*
X94779872Y7235000D01*
X94348075Y7149110D01*
X93941331Y6980631D01*
X93575271Y6736038D01*
X93263962Y6424729D01*
X93019369Y6058669D01*
X92850890Y5651925D01*
X92765000Y5220128D01*
X59035400Y5220128D01*
X59035400Y6074006D01*
X59038955Y6110101D01*
X59035400Y6146196D01*
X59035400Y6146205D01*
X59024765Y6254185D01*
X58982737Y6392733D01*
X58914487Y6520420D01*
X58822637Y6632338D01*
X58794592Y6655354D01*
X58486059Y6963887D01*
X58485742Y6964274D01*
X58577932Y7186842D01*
X58635000Y7473740D01*
X58635000Y7766260D01*
X58577932Y8053158D01*
X58465990Y8323411D01*
X58303475Y8566632D01*
X58096632Y8773475D01*
X57853411Y8935990D01*
X57583158Y9047932D01*
X57296260Y9105000D01*
X57003740Y9105000D01*
X56716842Y9047932D01*
X56446589Y8935990D01*
X56203368Y8773475D01*
X56199670Y8769777D01*
X55598882Y9370564D01*
X55752445Y9401110D01*
X55913505Y9467823D01*
X55987253Y9517100D01*
X86028595Y9517100D01*
X86064700Y9513544D01*
X86100805Y9517100D01*
X86208785Y9527735D01*
X86347333Y9569763D01*
X86475020Y9638013D01*
X86586938Y9729862D01*
X86609959Y9757913D01*
X89201760Y12349713D01*
X89245105Y12305500D01*
X89478354Y12146285D01*
X89738182Y12035633D01*
X89820961Y12018096D01*
X90043000Y12140085D01*
X90043000Y13683000D01*
X90023000Y13683000D01*
X90023000Y13937000D01*
X90043000Y13937000D01*
X90043000Y15479915D01*
X90297000Y15479915D01*
X90297000Y13937000D01*
X90317000Y13937000D01*
X90317000Y13683000D01*
X90297000Y13683000D01*
X90297000Y12140085D01*
X90519039Y12018096D01*
X90601818Y12035633D01*
X90861646Y12146285D01*
X91094895Y12305500D01*
X91292601Y12507161D01*
X91442735Y12736742D01*
X91511068Y12608900D01*
X91690392Y12390393D01*
X91908899Y12211068D01*
X92158192Y12077818D01*
X92428691Y11995764D01*
X92710000Y11968057D01*
X92991308Y11995764D01*
X93261807Y12077818D01*
X93511100Y12211068D01*
X93729607Y12390392D01*
X93908932Y12608899D01*
X94042182Y12858192D01*
X94124236Y13128691D01*
X94145000Y13339508D01*
X94145000Y14064132D01*
X95470736Y15389868D01*
X95605241Y15255363D01*
X95840273Y15098320D01*
X96101426Y14990147D01*
X96378665Y14935000D01*
X96661335Y14935000D01*
X96938574Y14990147D01*
X97199727Y15098320D01*
X97434759Y15255363D01*
X97634637Y15455241D01*
X97791680Y15690273D01*
X97899853Y15951426D01*
X97955000Y16228665D01*
X97955000Y16511335D01*
X97899853Y16788574D01*
X97791680Y17049727D01*
X97634637Y17284759D01*
X97434759Y17484637D01*
X97234131Y17618692D01*
X97261514Y17633329D01*
X97333097Y17877298D01*
X96520000Y18690395D01*
X95706903Y17877298D01*
X95778486Y17633329D01*
X95807341Y17619676D01*
X95605241Y17484637D01*
X95405363Y17284759D01*
X95352070Y17205000D01*
X95311018Y17205000D01*
X95270000Y17209040D01*
X95228982Y17205000D01*
X95228981Y17205000D01*
X95106311Y17192918D01*
X95028911Y17169439D01*
X94948913Y17145172D01*
X94803854Y17067636D01*
X94747569Y17021444D01*
X94676709Y16963291D01*
X94650563Y16931432D01*
X93261429Y15542297D01*
X92991309Y15624236D01*
X92710000Y15651943D01*
X92428692Y15624236D01*
X92158193Y15542182D01*
X91908900Y15408932D01*
X91690393Y15229608D01*
X91511068Y15011101D01*
X91442735Y14883259D01*
X91292601Y15112839D01*
X91094895Y15314500D01*
X90861646Y15473715D01*
X90601818Y15584367D01*
X90519039Y15601904D01*
X90297000Y15479915D01*
X90043000Y15479915D01*
X89820961Y15601904D01*
X89738182Y15584367D01*
X89635000Y15540425D01*
X89635000Y15815254D01*
X92619234Y18799488D01*
X95079783Y18799488D01*
X95121213Y18519870D01*
X95216397Y18253708D01*
X95283329Y18128486D01*
X95527298Y18056903D01*
X96340395Y18870000D01*
X96699605Y18870000D01*
X97512702Y18056903D01*
X97756671Y18128486D01*
X97877571Y18383996D01*
X97946300Y18658184D01*
X97960217Y18940512D01*
X97918787Y19220130D01*
X97823603Y19486292D01*
X97756671Y19611514D01*
X97512702Y19683097D01*
X96699605Y18870000D01*
X96340395Y18870000D01*
X95527298Y19683097D01*
X95283329Y19611514D01*
X95162429Y19356004D01*
X95093700Y19081816D01*
X95079783Y18799488D01*
X92619234Y18799488D01*
X93204193Y19384446D01*
X93232238Y19407462D01*
X93324087Y19519380D01*
X93336203Y19542047D01*
X93362865Y19591928D01*
X93510000Y19591928D01*
X93634482Y19604188D01*
X93754180Y19640498D01*
X93864494Y19699463D01*
X93961185Y19778815D01*
X94030029Y19862702D01*
X95706903Y19862702D01*
X96520000Y19049605D01*
X97333097Y19862702D01*
X97261514Y20106671D01*
X97006004Y20227571D01*
X96731816Y20296300D01*
X96449488Y20310217D01*
X96169870Y20268787D01*
X95903708Y20173603D01*
X95778486Y20106671D01*
X95706903Y19862702D01*
X94030029Y19862702D01*
X94040537Y19875506D01*
X94099502Y19985820D01*
X94135812Y20105518D01*
X94148072Y20230000D01*
X94148072Y22630000D01*
X94135812Y22754482D01*
X94099502Y22874180D01*
X94040537Y22984494D01*
X93961185Y23081185D01*
X93864494Y23160537D01*
X93754180Y23219502D01*
X93634482Y23255812D01*
X93510000Y23268072D01*
X91910000Y23268072D01*
X91785518Y23255812D01*
X91665820Y23219502D01*
X91555506Y23160537D01*
X91458815Y23081185D01*
X91379463Y22984494D01*
X91320498Y22874180D01*
X91284188Y22754482D01*
X91282419Y22736518D01*
X91189608Y22849608D01*
X90971101Y23028932D01*
X90894826Y23069702D01*
X90894365Y23074385D01*
X90892577Y23080281D01*
X90876194Y23134287D01*
X90852337Y23212933D01*
X90784087Y23340620D01*
X90692238Y23452538D01*
X90664187Y23475559D01*
X90555259Y23584487D01*
X90532238Y23612538D01*
X90420320Y23704387D01*
X90292633Y23772637D01*
X90154085Y23814665D01*
X90046105Y23825300D01*
X90010000Y23828856D01*
X89973895Y23825300D01*
X68616105Y23825300D01*
X68580000Y23828856D01*
X68543895Y23825300D01*
X68435915Y23814665D01*
X68297367Y23772637D01*
X68169680Y23704387D01*
X68057762Y23612538D01*
X67965913Y23500620D01*
X67927135Y23428072D01*
X67780000Y23428072D01*
X67655518Y23415812D01*
X67535820Y23379502D01*
X67425506Y23320537D01*
X67328815Y23241185D01*
X67249463Y23144494D01*
X67190498Y23034180D01*
X67154188Y22914482D01*
X67152419Y22896518D01*
X67059608Y23009608D01*
X66841101Y23188932D01*
X66591808Y23322182D01*
X66321309Y23404236D01*
X66040000Y23431943D01*
X65758692Y23404236D01*
X65488193Y23322182D01*
X65238900Y23188932D01*
X65020393Y23009608D01*
X64841068Y22791101D01*
X64770000Y22658142D01*
X64698932Y22791101D01*
X64519608Y23009608D01*
X64301101Y23188932D01*
X64051808Y23322182D01*
X63781309Y23404236D01*
X63500000Y23431943D01*
X63218692Y23404236D01*
X62948193Y23322182D01*
X62698900Y23188932D01*
X62480393Y23009608D01*
X62301068Y22791101D01*
X62230000Y22658142D01*
X62158932Y22791101D01*
X61979608Y23009608D01*
X61761101Y23188932D01*
X61511808Y23322182D01*
X61241309Y23404236D01*
X60960000Y23431943D01*
X60678692Y23404236D01*
X60408193Y23322182D01*
X60158900Y23188932D01*
X59940393Y23009608D01*
X59761068Y22791101D01*
X59690000Y22658142D01*
X59618932Y22791101D01*
X59439608Y23009608D01*
X59221101Y23188932D01*
X58984594Y23315348D01*
X60335093Y24665846D01*
X60363138Y24688862D01*
X60454987Y24800780D01*
X60511487Y24906484D01*
X60678691Y24855764D01*
X60960000Y24828057D01*
X61241308Y24855764D01*
X61511807Y24937818D01*
X61761100Y25071068D01*
X61979607Y25250392D01*
X62158932Y25468899D01*
X62230000Y25601858D01*
X62301068Y25468900D01*
X62480392Y25250393D01*
X62698899Y25071068D01*
X62948192Y24937818D01*
X63218691Y24855764D01*
X63500000Y24828057D01*
X63781308Y24855764D01*
X64051807Y24937818D01*
X64301100Y25071068D01*
X64519607Y25250392D01*
X64698932Y25468899D01*
X64770000Y25601858D01*
X64841068Y25468900D01*
X65020392Y25250393D01*
X65238899Y25071068D01*
X65488192Y24937818D01*
X65758691Y24855764D01*
X66040000Y24828057D01*
X66321308Y24855764D01*
X66591807Y24937818D01*
X66841100Y25071068D01*
X67059607Y25250392D01*
X67238932Y25468899D01*
X67310000Y25601858D01*
X67381068Y25468900D01*
X67560392Y25250393D01*
X67778899Y25071068D01*
X68028192Y24937818D01*
X68298691Y24855764D01*
X68580000Y24828057D01*
X68861308Y24855764D01*
X69131807Y24937818D01*
X69381100Y25071068D01*
X69599607Y25250392D01*
X69778932Y25468899D01*
X69912182Y25718192D01*
X69994236Y25988691D01*
X70015000Y26199508D01*
X70015000Y26924133D01*
X70231359Y27140492D01*
X76035000Y27140492D01*
X76035000Y26199509D01*
X76055764Y25988692D01*
X76137818Y25718193D01*
X76271068Y25468900D01*
X76450392Y25250393D01*
X76668899Y25071068D01*
X76918192Y24937818D01*
X77188691Y24855764D01*
X77470000Y24828057D01*
X77751308Y24855764D01*
X78021807Y24937818D01*
X78271100Y25071068D01*
X78489607Y25250392D01*
X78668932Y25468899D01*
X78737265Y25596741D01*
X78887399Y25367161D01*
X79085105Y25165500D01*
X79318354Y25006285D01*
X79578182Y24895633D01*
X79660961Y24878096D01*
X79883000Y25000085D01*
X79883000Y26543000D01*
X80137000Y26543000D01*
X80137000Y25000085D01*
X80359039Y24878096D01*
X80441818Y24895633D01*
X80701646Y25006285D01*
X80934895Y25165500D01*
X81132601Y25367161D01*
X81280000Y25592559D01*
X81427399Y25367161D01*
X81625105Y25165500D01*
X81858354Y25006285D01*
X82118182Y24895633D01*
X82200961Y24878096D01*
X82423000Y25000085D01*
X82423000Y26543000D01*
X80137000Y26543000D01*
X79883000Y26543000D01*
X79863000Y26543000D01*
X79863000Y26797000D01*
X79883000Y26797000D01*
X79883000Y28339915D01*
X80137000Y28339915D01*
X80137000Y26797000D01*
X82423000Y26797000D01*
X82423000Y28339915D01*
X82677000Y28339915D01*
X82677000Y26797000D01*
X82697000Y26797000D01*
X82697000Y26543000D01*
X82677000Y26543000D01*
X82677000Y25000085D01*
X82899039Y24878096D01*
X82981818Y24895633D01*
X83241646Y25006285D01*
X83474895Y25165500D01*
X83672601Y25367161D01*
X83822735Y25596742D01*
X83891068Y25468900D01*
X84070392Y25250393D01*
X84288899Y25071068D01*
X84538192Y24937818D01*
X84808691Y24855764D01*
X85090000Y24828057D01*
X85371308Y24855764D01*
X85641807Y24937818D01*
X85891100Y25071068D01*
X86109607Y25250392D01*
X86288932Y25468899D01*
X86357265Y25596741D01*
X86507399Y25367161D01*
X86705105Y25165500D01*
X86938354Y25006285D01*
X87198182Y24895633D01*
X87280961Y24878096D01*
X87503000Y25000085D01*
X87503000Y26543000D01*
X87757000Y26543000D01*
X87757000Y25000085D01*
X87979039Y24878096D01*
X88061818Y24895633D01*
X88321646Y25006285D01*
X88554895Y25165500D01*
X88752601Y25367161D01*
X88900000Y25592559D01*
X89047399Y25367161D01*
X89245105Y25165500D01*
X89478354Y25006285D01*
X89738182Y24895633D01*
X89820961Y24878096D01*
X90043000Y25000085D01*
X90043000Y26543000D01*
X87757000Y26543000D01*
X87503000Y26543000D01*
X87483000Y26543000D01*
X87483000Y26797000D01*
X87503000Y26797000D01*
X87503000Y28339915D01*
X87757000Y28339915D01*
X87757000Y26797000D01*
X90043000Y26797000D01*
X90043000Y28339915D01*
X90297000Y28339915D01*
X90297000Y26797000D01*
X90317000Y26797000D01*
X90317000Y26543000D01*
X90297000Y26543000D01*
X90297000Y25000085D01*
X90519039Y24878096D01*
X90601818Y24895633D01*
X90861646Y25006285D01*
X91094895Y25165500D01*
X91292601Y25367161D01*
X91442735Y25596742D01*
X91511068Y25468900D01*
X91690392Y25250393D01*
X91908899Y25071068D01*
X92158192Y24937818D01*
X92428691Y24855764D01*
X92710000Y24828057D01*
X92991308Y24855764D01*
X93261807Y24937818D01*
X93511100Y25071068D01*
X93729607Y25250392D01*
X93908932Y25468899D01*
X94042182Y25718192D01*
X94124236Y25988691D01*
X94145000Y26199508D01*
X94145000Y26924133D01*
X95460736Y28239868D01*
X95605241Y28095363D01*
X95840273Y27938320D01*
X96101426Y27830147D01*
X96378665Y27775000D01*
X96661335Y27775000D01*
X96938574Y27830147D01*
X97199727Y27938320D01*
X97434759Y28095363D01*
X97634637Y28295241D01*
X97791680Y28530273D01*
X97899853Y28791426D01*
X97955000Y29068665D01*
X97955000Y29351335D01*
X97899853Y29628574D01*
X97791680Y29889727D01*
X97634637Y30124759D01*
X97434759Y30324637D01*
X97234131Y30458692D01*
X97261514Y30473329D01*
X97333097Y30717298D01*
X96520000Y31530395D01*
X95706903Y30717298D01*
X95778486Y30473329D01*
X95807341Y30459676D01*
X95605241Y30324637D01*
X95405363Y30124759D01*
X95352070Y30045000D01*
X95291007Y30045000D01*
X95249999Y30049039D01*
X95208991Y30045000D01*
X95208981Y30045000D01*
X95086311Y30032918D01*
X94928913Y29985172D01*
X94783854Y29907636D01*
X94656709Y29803291D01*
X94630559Y29771427D01*
X93261429Y28402297D01*
X92991309Y28484236D01*
X92710000Y28511943D01*
X92428692Y28484236D01*
X92158193Y28402182D01*
X91908900Y28268932D01*
X91690393Y28089608D01*
X91511068Y27871101D01*
X91442735Y27743259D01*
X91292601Y27972839D01*
X91094895Y28174500D01*
X90861646Y28333715D01*
X90601818Y28444367D01*
X90519039Y28461904D01*
X90297000Y28339915D01*
X90043000Y28339915D01*
X89820961Y28461904D01*
X89738182Y28444367D01*
X89478354Y28333715D01*
X89245105Y28174500D01*
X89047399Y27972839D01*
X88900000Y27747441D01*
X88752601Y27972839D01*
X88554895Y28174500D01*
X88321646Y28333715D01*
X88061818Y28444367D01*
X87979039Y28461904D01*
X87757000Y28339915D01*
X87503000Y28339915D01*
X87280961Y28461904D01*
X87198182Y28444367D01*
X86938354Y28333715D01*
X86705105Y28174500D01*
X86507399Y27972839D01*
X86357265Y27743259D01*
X86288932Y27871101D01*
X86109608Y28089608D01*
X85891101Y28268932D01*
X85641808Y28402182D01*
X85371309Y28484236D01*
X85090000Y28511943D01*
X84808692Y28484236D01*
X84538193Y28402182D01*
X84288900Y28268932D01*
X84070393Y28089608D01*
X83891068Y27871101D01*
X83822735Y27743259D01*
X83672601Y27972839D01*
X83474895Y28174500D01*
X83241646Y28333715D01*
X82981818Y28444367D01*
X82899039Y28461904D01*
X82677000Y28339915D01*
X82423000Y28339915D01*
X82200961Y28461904D01*
X82118182Y28444367D01*
X81858354Y28333715D01*
X81625105Y28174500D01*
X81427399Y27972839D01*
X81280000Y27747441D01*
X81132601Y27972839D01*
X80934895Y28174500D01*
X80701646Y28333715D01*
X80441818Y28444367D01*
X80359039Y28461904D01*
X80137000Y28339915D01*
X79883000Y28339915D01*
X79660961Y28461904D01*
X79578182Y28444367D01*
X79318354Y28333715D01*
X79085105Y28174500D01*
X78887399Y27972839D01*
X78737265Y27743259D01*
X78668932Y27871101D01*
X78489608Y28089608D01*
X78271101Y28268932D01*
X78021808Y28402182D01*
X77751309Y28484236D01*
X77470000Y28511943D01*
X77188692Y28484236D01*
X76918193Y28402182D01*
X76668900Y28268932D01*
X76450393Y28089608D01*
X76271068Y27871101D01*
X76137818Y27621808D01*
X76055764Y27351309D01*
X76035000Y27140492D01*
X70231359Y27140492D01*
X71350736Y28259868D01*
X71475241Y28135363D01*
X71710273Y27978320D01*
X71971426Y27870147D01*
X72248665Y27815000D01*
X72531335Y27815000D01*
X72808574Y27870147D01*
X73069727Y27978320D01*
X73304759Y28135363D01*
X73504637Y28335241D01*
X73661680Y28570273D01*
X73769853Y28831426D01*
X73825000Y29108665D01*
X73825000Y29391335D01*
X73769853Y29668574D01*
X73738196Y29745000D01*
X85160340Y29745000D01*
X85144500Y29665365D01*
X85144500Y29491035D01*
X85178510Y29320055D01*
X85245223Y29158995D01*
X85342076Y29014045D01*
X85465345Y28890776D01*
X85610295Y28793923D01*
X85771355Y28727210D01*
X85942335Y28693200D01*
X86116665Y28693200D01*
X86287645Y28727210D01*
X86448705Y28793923D01*
X86522453Y28843200D01*
X89462395Y28843200D01*
X89498500Y28839644D01*
X89534605Y28843200D01*
X89642585Y28853835D01*
X89781133Y28895863D01*
X89908820Y28964113D01*
X90020738Y29055962D01*
X90043759Y29084013D01*
X92599234Y31639488D01*
X95079783Y31639488D01*
X95121213Y31359870D01*
X95216397Y31093708D01*
X95283329Y30968486D01*
X95527298Y30896903D01*
X96340395Y31710000D01*
X96699605Y31710000D01*
X97512702Y30896903D01*
X97756671Y30968486D01*
X97877571Y31223996D01*
X97946300Y31498184D01*
X97960217Y31780512D01*
X97918787Y32060130D01*
X97823603Y32326292D01*
X97756671Y32451514D01*
X97512702Y32523097D01*
X96699605Y31710000D01*
X96340395Y31710000D01*
X95527298Y32523097D01*
X95283329Y32451514D01*
X95162429Y32196004D01*
X95093700Y31921816D01*
X95079783Y31639488D01*
X92599234Y31639488D01*
X93204193Y32244446D01*
X93232238Y32267462D01*
X93324087Y32379380D01*
X93362865Y32451928D01*
X93510000Y32451928D01*
X93634482Y32464188D01*
X93754180Y32500498D01*
X93864494Y32559463D01*
X93961185Y32638815D01*
X94013615Y32702702D01*
X95706903Y32702702D01*
X96520000Y31889605D01*
X97333097Y32702702D01*
X97261514Y32946671D01*
X97006004Y33067571D01*
X96731816Y33136300D01*
X96449488Y33150217D01*
X96169870Y33108787D01*
X95903708Y33013603D01*
X95778486Y32946671D01*
X95706903Y32702702D01*
X94013615Y32702702D01*
X94040537Y32735506D01*
X94099502Y32845820D01*
X94135812Y32965518D01*
X94148072Y33090000D01*
X94148072Y35490000D01*
X94135812Y35614482D01*
X94099502Y35734180D01*
X94040537Y35844494D01*
X93961185Y35941185D01*
X93864494Y36020537D01*
X93754180Y36079502D01*
X93634482Y36115812D01*
X93510000Y36128072D01*
X91910000Y36128072D01*
X91785518Y36115812D01*
X91665820Y36079502D01*
X91555506Y36020537D01*
X91458815Y35941185D01*
X91379463Y35844494D01*
X91320498Y35734180D01*
X91284188Y35614482D01*
X91282419Y35596518D01*
X91189608Y35709608D01*
X90971101Y35888932D01*
X90721808Y36022182D01*
X90451309Y36104236D01*
X90170000Y36131943D01*
X89888692Y36104236D01*
X89618193Y36022182D01*
X89368900Y35888932D01*
X89150393Y35709608D01*
X88971068Y35491101D01*
X88900000Y35358142D01*
X88828932Y35491101D01*
X88649608Y35709608D01*
X88431101Y35888932D01*
X88181808Y36022182D01*
X87911309Y36104236D01*
X87630000Y36131943D01*
X87348692Y36104236D01*
X87078193Y36022182D01*
X86828900Y35888932D01*
X86610393Y35709608D01*
X86431068Y35491101D01*
X86362735Y35363259D01*
X86212601Y35592839D01*
X86014895Y35794500D01*
X85781646Y35953715D01*
X85521818Y36064367D01*
X85439039Y36081904D01*
X85217000Y35959915D01*
X85217000Y34417000D01*
X85237000Y34417000D01*
X85237000Y34163000D01*
X85217000Y34163000D01*
X85217000Y32620085D01*
X85439039Y32498096D01*
X85521818Y32515633D01*
X85781646Y32626285D01*
X86014895Y32785500D01*
X86212601Y32987161D01*
X86362735Y33216742D01*
X86431068Y33088900D01*
X86610392Y32870393D01*
X86643816Y32842963D01*
X85015854Y31215000D01*
X73724387Y31215000D01*
X73747571Y31263996D01*
X73816300Y31538184D01*
X73830217Y31820512D01*
X73788787Y32100130D01*
X73693603Y32366292D01*
X73626671Y32491514D01*
X73382702Y32563097D01*
X72569605Y31750000D01*
X72583748Y31735857D01*
X72404143Y31556252D01*
X72390000Y31570395D01*
X72375858Y31556252D01*
X72196253Y31735857D01*
X72210395Y31750000D01*
X71397298Y32563097D01*
X71153329Y32491514D01*
X71032429Y32236004D01*
X70963700Y31961816D01*
X70949783Y31679488D01*
X70991213Y31399870D01*
X71057326Y31215000D01*
X68385804Y31215000D01*
X68349699Y31218556D01*
X68205614Y31204365D01*
X68171591Y31194044D01*
X68067067Y31162337D01*
X67939380Y31094087D01*
X67827462Y31002238D01*
X67804446Y30974193D01*
X65545808Y28715554D01*
X65517763Y28692538D01*
X65425914Y28580620D01*
X65385568Y28505138D01*
X65357664Y28452933D01*
X65315635Y28314385D01*
X65315174Y28309701D01*
X65238900Y28268932D01*
X65020393Y28089608D01*
X64841068Y27871101D01*
X64770000Y27738142D01*
X64698932Y27871101D01*
X64519608Y28089608D01*
X64301101Y28268932D01*
X64051808Y28402182D01*
X63781309Y28484236D01*
X63500000Y28511943D01*
X63218692Y28484236D01*
X62948193Y28402182D01*
X62698900Y28268932D01*
X62480393Y28089608D01*
X62301068Y27871101D01*
X62230000Y27738142D01*
X62158932Y27871101D01*
X61979608Y28089608D01*
X61761101Y28268932D01*
X61511808Y28402182D01*
X61241309Y28484236D01*
X60960000Y28511943D01*
X60879678Y28504032D01*
X65144328Y32768681D01*
X65238899Y32691068D01*
X65488192Y32557818D01*
X65758691Y32475764D01*
X66040000Y32448057D01*
X66321308Y32475764D01*
X66591807Y32557818D01*
X66841100Y32691068D01*
X67059607Y32870392D01*
X67152419Y32983483D01*
X67154188Y32965518D01*
X67190498Y32845820D01*
X67249463Y32735506D01*
X67328815Y32638815D01*
X67425506Y32559463D01*
X67535820Y32500498D01*
X67655518Y32464188D01*
X67780000Y32451928D01*
X68294250Y32455000D01*
X68453000Y32613750D01*
X68453000Y34163000D01*
X68707000Y34163000D01*
X68707000Y32613750D01*
X68865750Y32455000D01*
X69380000Y32451928D01*
X69504482Y32464188D01*
X69624180Y32500498D01*
X69734494Y32559463D01*
X69831185Y32638815D01*
X69910537Y32735506D01*
X69914383Y32742702D01*
X71576903Y32742702D01*
X72390000Y31929605D01*
X73203097Y32742702D01*
X73131514Y32986671D01*
X72876004Y33107571D01*
X72601816Y33176300D01*
X72319488Y33190217D01*
X72039870Y33148787D01*
X71773708Y33053603D01*
X71648486Y32986671D01*
X71576903Y32742702D01*
X69914383Y32742702D01*
X69969502Y32845820D01*
X70005812Y32965518D01*
X70018072Y33090000D01*
X70015000Y34004250D01*
X69856250Y34163000D01*
X76035000Y34163000D01*
X76035000Y33763000D01*
X76087350Y33485486D01*
X76192834Y33223517D01*
X76347399Y32987161D01*
X76545105Y32785500D01*
X76778354Y32626285D01*
X77038182Y32515633D01*
X77120961Y32498096D01*
X77343000Y32620085D01*
X77343000Y34163000D01*
X76035000Y34163000D01*
X69856250Y34163000D01*
X68707000Y34163000D01*
X68453000Y34163000D01*
X68433000Y34163000D01*
X68433000Y34417000D01*
X68453000Y34417000D01*
X68453000Y35966250D01*
X68707000Y35966250D01*
X68707000Y34417000D01*
X69856250Y34417000D01*
X70015000Y34575750D01*
X70015810Y34817000D01*
X76035000Y34817000D01*
X76035000Y34417000D01*
X77343000Y34417000D01*
X77343000Y35959915D01*
X77597000Y35959915D01*
X77597000Y34417000D01*
X77617000Y34417000D01*
X77617000Y34163000D01*
X77597000Y34163000D01*
X77597000Y32620085D01*
X77819039Y32498096D01*
X77901818Y32515633D01*
X78161646Y32626285D01*
X78394895Y32785500D01*
X78592601Y32987161D01*
X78742735Y33216742D01*
X78811068Y33088900D01*
X78990392Y32870393D01*
X79208899Y32691068D01*
X79458192Y32557818D01*
X79728691Y32475764D01*
X80010000Y32448057D01*
X80291308Y32475764D01*
X80561807Y32557818D01*
X80811100Y32691068D01*
X81029607Y32870392D01*
X81208932Y33088899D01*
X81277265Y33216741D01*
X81427399Y32987161D01*
X81625105Y32785500D01*
X81858354Y32626285D01*
X82118182Y32515633D01*
X82200961Y32498096D01*
X82423000Y32620085D01*
X82423000Y34163000D01*
X82677000Y34163000D01*
X82677000Y32620085D01*
X82899039Y32498096D01*
X82981818Y32515633D01*
X83241646Y32626285D01*
X83474895Y32785500D01*
X83672601Y32987161D01*
X83820000Y33212559D01*
X83967399Y32987161D01*
X84165105Y32785500D01*
X84398354Y32626285D01*
X84658182Y32515633D01*
X84740961Y32498096D01*
X84963000Y32620085D01*
X84963000Y34163000D01*
X82677000Y34163000D01*
X82423000Y34163000D01*
X82403000Y34163000D01*
X82403000Y34417000D01*
X82423000Y34417000D01*
X82423000Y35959915D01*
X82677000Y35959915D01*
X82677000Y34417000D01*
X84963000Y34417000D01*
X84963000Y35959915D01*
X84740961Y36081904D01*
X84658182Y36064367D01*
X84398354Y35953715D01*
X84165105Y35794500D01*
X83967399Y35592839D01*
X83820000Y35367441D01*
X83672601Y35592839D01*
X83474895Y35794500D01*
X83241646Y35953715D01*
X82981818Y36064367D01*
X82899039Y36081904D01*
X82677000Y35959915D01*
X82423000Y35959915D01*
X82200961Y36081904D01*
X82118182Y36064367D01*
X81858354Y35953715D01*
X81625105Y35794500D01*
X81427399Y35592839D01*
X81277265Y35363259D01*
X81208932Y35491101D01*
X81029608Y35709608D01*
X80811101Y35888932D01*
X80561808Y36022182D01*
X80291309Y36104236D01*
X80010000Y36131943D01*
X79728692Y36104236D01*
X79458193Y36022182D01*
X79208900Y35888932D01*
X78990393Y35709608D01*
X78811068Y35491101D01*
X78742735Y35363259D01*
X78592601Y35592839D01*
X78394895Y35794500D01*
X78161646Y35953715D01*
X77901818Y36064367D01*
X77819039Y36081904D01*
X77597000Y35959915D01*
X77343000Y35959915D01*
X77120961Y36081904D01*
X77038182Y36064367D01*
X76778354Y35953715D01*
X76545105Y35794500D01*
X76347399Y35592839D01*
X76192834Y35356483D01*
X76087350Y35094514D01*
X76035000Y34817000D01*
X70015810Y34817000D01*
X70018072Y35490000D01*
X70005812Y35614482D01*
X69969502Y35734180D01*
X69910537Y35844494D01*
X69831185Y35941185D01*
X69734494Y36020537D01*
X69624180Y36079502D01*
X69504482Y36115812D01*
X69380000Y36128072D01*
X68865750Y36125000D01*
X68707000Y35966250D01*
X68453000Y35966250D01*
X68294250Y36125000D01*
X67780000Y36128072D01*
X67655518Y36115812D01*
X67535820Y36079502D01*
X67425506Y36020537D01*
X67328815Y35941185D01*
X67249463Y35844494D01*
X67190498Y35734180D01*
X67154188Y35614482D01*
X67152419Y35596518D01*
X67059608Y35709608D01*
X66841101Y35888932D01*
X66591808Y36022182D01*
X66321309Y36104236D01*
X66040000Y36131943D01*
X65758692Y36104236D01*
X65550400Y36041052D01*
X65550400Y36340654D01*
X66534193Y37324446D01*
X66562238Y37347462D01*
X66654087Y37459380D01*
X66722337Y37587067D01*
X66764365Y37725615D01*
X66764826Y37730299D01*
X66841100Y37771068D01*
X67059607Y37950392D01*
X67238932Y38168899D01*
X67310000Y38301858D01*
X67381068Y38168900D01*
X67560392Y37950393D01*
X67778899Y37771068D01*
X68028192Y37637818D01*
X68298691Y37555764D01*
X68580000Y37528057D01*
X68861308Y37555764D01*
X69131807Y37637818D01*
X69381100Y37771068D01*
X69599607Y37950392D01*
X69778932Y38168899D01*
X69912182Y38418192D01*
X69994236Y38688691D01*
X70015000Y38899508D01*
X70015000Y39624133D01*
X72951432Y42560563D01*
X72983291Y42586709D01*
X73087636Y42713854D01*
X73165172Y42858913D01*
X73212918Y43016311D01*
X73225000Y43138981D01*
X73225000Y43138982D01*
X73229040Y43180000D01*
X73225000Y43221018D01*
X73225000Y43615000D01*
X79353682Y43615000D01*
X79394700Y43610960D01*
X79435718Y43615000D01*
X79435719Y43615000D01*
X79558389Y43627082D01*
X79715787Y43674828D01*
X79860846Y43752364D01*
X79987991Y43856709D01*
X80014146Y43888579D01*
X81465231Y45339662D01*
X81603368Y45201525D01*
X81846589Y45039010D01*
X82116842Y44927068D01*
X82403740Y44870000D01*
X82696260Y44870000D01*
X82983158Y44927068D01*
X83253411Y45039010D01*
X83496632Y45201525D01*
X83703475Y45408368D01*
X83820000Y45582760D01*
X83936525Y45408368D01*
X84143368Y45201525D01*
X84386589Y45039010D01*
X84656842Y44927068D01*
X84943740Y44870000D01*
X85236260Y44870000D01*
X85523158Y44927068D01*
X85793411Y45039010D01*
X86036632Y45201525D01*
X86168487Y45333380D01*
X86190498Y45260820D01*
X86249463Y45150506D01*
X86328815Y45053815D01*
X86425506Y44974463D01*
X86535820Y44915498D01*
X86655518Y44879188D01*
X86780000Y44866928D01*
X88480000Y44866928D01*
X88604482Y44879188D01*
X88724180Y44915498D01*
X88834494Y44974463D01*
X88931185Y45053815D01*
X89010537Y45150506D01*
X89069502Y45260820D01*
X89105812Y45380518D01*
X89118072Y45505000D01*
X89118072Y47205000D01*
X89105812Y47329482D01*
X89069502Y47449180D01*
X89010537Y47559494D01*
X88931185Y47656185D01*
X88834494Y47735537D01*
X88724180Y47794502D01*
X88604482Y47830812D01*
X88480000Y47843072D01*
X86780000Y47843072D01*
X86655518Y47830812D01*
X86535820Y47794502D01*
X86425964Y47735782D01*
X86146358Y48015388D01*
X86123338Y48043438D01*
X86011420Y48135287D01*
X85883733Y48203537D01*
X85745185Y48245565D01*
X85637205Y48256200D01*
X85601100Y48259756D01*
X85564995Y48256200D01*
X81794294Y48256200D01*
X81758199Y48259755D01*
X81722104Y48256200D01*
X81722095Y48256200D01*
X81614115Y48245565D01*
X81475567Y48203537D01*
X81347880Y48135287D01*
X81235962Y48043438D01*
X81212946Y48015392D01*
X80922554Y47725000D01*
X73743314Y47725000D01*
X73747571Y47733996D01*
X73816300Y48008184D01*
X73830217Y48290512D01*
X73788787Y48570130D01*
X73693603Y48836292D01*
X73626671Y48961514D01*
X73382702Y49033097D01*
X72569605Y48220000D01*
X72583748Y48205857D01*
X72404143Y48026252D01*
X72390000Y48040395D01*
X72375858Y48026252D01*
X72196253Y48205857D01*
X72210395Y48220000D01*
X71397298Y49033097D01*
X71153329Y48961514D01*
X71032429Y48706004D01*
X70963700Y48431816D01*
X70949783Y48149488D01*
X70991213Y47869870D01*
X71043021Y47725000D01*
X69197294Y47725000D01*
X69161199Y47728555D01*
X69125104Y47725000D01*
X69125095Y47725000D01*
X69017115Y47714365D01*
X68878567Y47672337D01*
X68750880Y47604087D01*
X68638962Y47512238D01*
X68615946Y47484193D01*
X61947617Y40815863D01*
X61761101Y40968932D01*
X61511808Y41102182D01*
X61241309Y41184236D01*
X60960000Y41211943D01*
X60678692Y41184236D01*
X60408193Y41102182D01*
X60294500Y41041412D01*
X60294500Y48864754D01*
X60642448Y49212702D01*
X71576903Y49212702D01*
X72390000Y48399605D01*
X73203097Y49212702D01*
X73131514Y49456671D01*
X72876004Y49577571D01*
X72601816Y49646300D01*
X72319488Y49660217D01*
X72039870Y49618787D01*
X71773708Y49523603D01*
X71648486Y49456671D01*
X71576903Y49212702D01*
X60642448Y49212702D01*
X63994193Y52564446D01*
X64022238Y52587462D01*
X64114087Y52699380D01*
X64159418Y52784188D01*
X64182337Y52827066D01*
X64224365Y52965615D01*
X64224826Y52970299D01*
X64301100Y53011068D01*
X64519607Y53190392D01*
X64698932Y53408899D01*
X64770000Y53541858D01*
X64841068Y53408900D01*
X65020392Y53190393D01*
X65238899Y53011068D01*
X65488192Y52877818D01*
X65758691Y52795764D01*
X66040000Y52768057D01*
X66321308Y52795764D01*
X66591807Y52877818D01*
X66841100Y53011068D01*
X67059607Y53190392D01*
X67152419Y53303483D01*
X67154188Y53285518D01*
X67190498Y53165820D01*
X67249463Y53055506D01*
X67328815Y52958815D01*
X67425506Y52879463D01*
X67535820Y52820498D01*
X67655518Y52784188D01*
X67780000Y52771928D01*
X69380000Y52771928D01*
X69504482Y52784188D01*
X69624180Y52820498D01*
X69734494Y52879463D01*
X69831185Y52958815D01*
X69910537Y53055506D01*
X69969502Y53165820D01*
X70005812Y53285518D01*
X70018072Y53410000D01*
X70018072Y55220128D01*
X92765000Y55220128D01*
X92765000Y54779872D01*
X92850890Y54348075D01*
X93019369Y53941331D01*
X93263962Y53575271D01*
X93575271Y53263962D01*
X93941331Y53019369D01*
X94348075Y52850890D01*
X94779872Y52765000D01*
X95220128Y52765000D01*
X95651925Y52850890D01*
X96058669Y53019369D01*
X96424729Y53263962D01*
X96736038Y53575271D01*
X96980631Y53941331D01*
X97149110Y54348075D01*
X97235000Y54779872D01*
X97235000Y55220128D01*
X97149110Y55651925D01*
X96980631Y56058669D01*
X96736038Y56424729D01*
X96424729Y56736038D01*
X96058669Y56980631D01*
X95651925Y57149110D01*
X95220128Y57235000D01*
X94779872Y57235000D01*
X94348075Y57149110D01*
X93941331Y56980631D01*
X93575271Y56736038D01*
X93263962Y56424729D01*
X93019369Y56058669D01*
X92850890Y55651925D01*
X92765000Y55220128D01*
X70018072Y55220128D01*
X70018072Y55810000D01*
X70005812Y55934482D01*
X69969502Y56054180D01*
X69910537Y56164494D01*
X69831185Y56261185D01*
X69734494Y56340537D01*
X69624180Y56399502D01*
X69504482Y56435812D01*
X69380000Y56448072D01*
X67780000Y56448072D01*
X67655518Y56435812D01*
X67535820Y56399502D01*
X67425506Y56340537D01*
X67328815Y56261185D01*
X67249463Y56164494D01*
X67190498Y56054180D01*
X67154188Y55934482D01*
X67152419Y55916518D01*
X67059608Y56029608D01*
X66841101Y56208932D01*
X66591808Y56342182D01*
X66321309Y56424236D01*
X66040000Y56451943D01*
X65758692Y56424236D01*
X65488193Y56342182D01*
X65238900Y56208932D01*
X65020393Y56029608D01*
X64841068Y55811101D01*
X64770000Y55678142D01*
X64698932Y55811101D01*
X64519608Y56029608D01*
X64301101Y56208932D01*
X64051808Y56342182D01*
X63781309Y56424236D01*
X63500000Y56451943D01*
X63218692Y56424236D01*
X62948193Y56342182D01*
X62698900Y56208932D01*
X62480393Y56029608D01*
X62301068Y55811101D01*
X62230000Y55678142D01*
X62158932Y55811101D01*
X61979608Y56029608D01*
X61761101Y56208932D01*
X61511808Y56342182D01*
X61241309Y56424236D01*
X60960000Y56451943D01*
X60678692Y56424236D01*
X60408193Y56342182D01*
X60158900Y56208932D01*
X59940393Y56029608D01*
X59761068Y55811101D01*
X59690000Y55678142D01*
X59618932Y55811101D01*
X59439608Y56029608D01*
X59221101Y56208932D01*
X58971808Y56342182D01*
X58701309Y56424236D01*
X58420000Y56451943D01*
X58138692Y56424236D01*
X57868193Y56342182D01*
X57618900Y56208932D01*
X57400393Y56029608D01*
X57221068Y55811101D01*
X57150000Y55678142D01*
X57078932Y55811101D01*
X56899608Y56029608D01*
X56681101Y56208932D01*
X56604826Y56249702D01*
X56604365Y56254385D01*
X56562337Y56392933D01*
X56494087Y56520620D01*
X56402238Y56632538D01*
X56290320Y56724387D01*
X56162633Y56792637D01*
X56024085Y56834665D01*
X55916105Y56845300D01*
X55880000Y56848856D01*
X55843895Y56845300D01*
X19316394Y56845300D01*
X19280299Y56848855D01*
X19244204Y56845300D01*
X19244195Y56845300D01*
X19136215Y56834665D01*
X18997667Y56792637D01*
X18869980Y56724387D01*
X18758062Y56632538D01*
X18735046Y56604493D01*
X7125808Y44995254D01*
X7097762Y44972237D01*
X7005913Y44860319D01*
X6937663Y44732632D01*
X6917147Y44665000D01*
X6895635Y44594085D01*
X6881444Y44450000D01*
X6885000Y44413895D01*
X6885001Y36027280D01*
X6631309Y36104236D01*
X6350000Y36131943D01*
X6068692Y36104236D01*
X5798193Y36022182D01*
X5548900Y35888932D01*
X5330393Y35709608D01*
X5151068Y35491101D01*
X5082735Y35363259D01*
X4932601Y35592839D01*
X4734895Y35794500D01*
X4501646Y35953715D01*
X4241818Y36064367D01*
X4159039Y36081904D01*
X3937000Y35959915D01*
X3937000Y34417000D01*
X3957000Y34417000D01*
X3957000Y34163000D01*
X3937000Y34163000D01*
X3937000Y32620085D01*
X4159039Y32498096D01*
X4241818Y32515633D01*
X4501646Y32626285D01*
X4734895Y32785500D01*
X4932601Y32987161D01*
X5082735Y33216742D01*
X5151068Y33088900D01*
X5330392Y32870393D01*
X5548899Y32691068D01*
X5798192Y32557818D01*
X6068691Y32475764D01*
X6350000Y32448057D01*
X6631308Y32475764D01*
X6885001Y32552720D01*
X6885001Y29744748D01*
X5855808Y28715554D01*
X5827762Y28692537D01*
X5735913Y28580619D01*
X5667663Y28452932D01*
X5647688Y28387082D01*
X5625635Y28314385D01*
X5625174Y28309701D01*
X5548900Y28268932D01*
X5330393Y28089608D01*
X5151068Y27871101D01*
X5080000Y27738142D01*
X5008932Y27871101D01*
X4829608Y28089608D01*
X4611101Y28268932D01*
X4361808Y28402182D01*
X4091309Y28484236D01*
X3810000Y28511943D01*
X3528692Y28484236D01*
X3258193Y28402182D01*
X3008900Y28268932D01*
X2790393Y28089608D01*
X2611068Y27871101D01*
X2477818Y27621808D01*
X2395764Y27351309D01*
X2375000Y27140492D01*
X660000Y27140492D01*
X660000Y34163000D01*
X2375000Y34163000D01*
X2375000Y33763000D01*
X2427350Y33485486D01*
X2532834Y33223517D01*
X2687399Y32987161D01*
X2885105Y32785500D01*
X3118354Y32626285D01*
X3378182Y32515633D01*
X3460961Y32498096D01*
X3683000Y32620085D01*
X3683000Y34163000D01*
X2375000Y34163000D01*
X660000Y34163000D01*
X660000Y34817000D01*
X2375000Y34817000D01*
X2375000Y34417000D01*
X3683000Y34417000D01*
X3683000Y35959915D01*
X3460961Y36081904D01*
X3378182Y36064367D01*
X3118354Y35953715D01*
X2885105Y35794500D01*
X2687399Y35592839D01*
X2532834Y35356483D01*
X2427350Y35094514D01*
X2375000Y34817000D01*
X660000Y34817000D01*
X660000Y55220128D01*
X2765000Y55220128D01*
X2765000Y54779872D01*
X2850890Y54348075D01*
X3019369Y53941331D01*
X3263962Y53575271D01*
X3575271Y53263962D01*
X3941331Y53019369D01*
X4348075Y52850890D01*
X4779872Y52765000D01*
X5220128Y52765000D01*
X5651925Y52850890D01*
X6058669Y53019369D01*
X6424729Y53263962D01*
X6736038Y53575271D01*
X6980631Y53941331D01*
X7149110Y54348075D01*
X7235000Y54779872D01*
X7235000Y55220128D01*
X7149110Y55651925D01*
X6980631Y56058669D01*
X6736038Y56424729D01*
X6424729Y56736038D01*
X6058669Y56980631D01*
X5651925Y57149110D01*
X5220128Y57235000D01*
X4779872Y57235000D01*
X4348075Y57149110D01*
X3941331Y56980631D01*
X3575271Y56736038D01*
X3263962Y56424729D01*
X3019369Y56058669D01*
X2850890Y55651925D01*
X2765000Y55220128D01*
X660000Y55220128D01*
X660000Y59340000D01*
X99340001Y59340000D01*
X99340000Y660000D01*
G04 #@! TA.AperFunction,Conductor*
D20*
G36*
X99340000Y660000D02*
G01*
X660000Y660000D01*
X660000Y5220128D01*
X2765000Y5220128D01*
X2765000Y4779872D01*
X2850890Y4348075D01*
X3019369Y3941331D01*
X3263962Y3575271D01*
X3575271Y3263962D01*
X3941331Y3019369D01*
X4348075Y2850890D01*
X4779872Y2765000D01*
X5220128Y2765000D01*
X5651925Y2850890D01*
X6058669Y3019369D01*
X6424729Y3263962D01*
X6736038Y3575271D01*
X6980631Y3941331D01*
X7149110Y4348075D01*
X7235000Y4779872D01*
X7235000Y5220128D01*
X7149110Y5651925D01*
X6980631Y6058669D01*
X6736038Y6424729D01*
X6424729Y6736038D01*
X6058669Y6980631D01*
X5651925Y7149110D01*
X5220128Y7235000D01*
X4779872Y7235000D01*
X4348075Y7149110D01*
X3941331Y6980631D01*
X3575271Y6736038D01*
X3263962Y6424729D01*
X3019369Y6058669D01*
X2850890Y5651925D01*
X2765000Y5220128D01*
X660000Y5220128D01*
X660000Y21463000D01*
X2375000Y21463000D01*
X2375000Y21063000D01*
X2427350Y20785486D01*
X2532834Y20523517D01*
X2687399Y20287161D01*
X2885105Y20085500D01*
X3118354Y19926285D01*
X3378182Y19815633D01*
X3460961Y19798096D01*
X3683000Y19920085D01*
X3683000Y21463000D01*
X2375000Y21463000D01*
X660000Y21463000D01*
X660000Y22117000D01*
X2375000Y22117000D01*
X2375000Y21717000D01*
X3683000Y21717000D01*
X3683000Y23259915D01*
X3460961Y23381904D01*
X3378182Y23364367D01*
X3118354Y23253715D01*
X2885105Y23094500D01*
X2687399Y22892839D01*
X2532834Y22656483D01*
X2427350Y22394514D01*
X2375000Y22117000D01*
X660000Y22117000D01*
X660000Y27140492D01*
X2375000Y27140492D01*
X2375000Y26199509D01*
X2395764Y25988692D01*
X2477818Y25718193D01*
X2611068Y25468900D01*
X2790392Y25250393D01*
X3008899Y25071068D01*
X3085174Y25030298D01*
X3085635Y25025615D01*
X3127664Y24887067D01*
X3195914Y24759380D01*
X3287763Y24647462D01*
X3315807Y24624447D01*
X4345001Y23595252D01*
X4345001Y23320425D01*
X4241818Y23364367D01*
X4159039Y23381904D01*
X3937000Y23259915D01*
X3937000Y21717000D01*
X3957000Y21717000D01*
X3957000Y21463000D01*
X3937000Y21463000D01*
X3937000Y19920085D01*
X4159039Y19798096D01*
X4241818Y19815633D01*
X4501646Y19926285D01*
X4734895Y20085500D01*
X4762894Y20114059D01*
X5318546Y19558407D01*
X5341562Y19530362D01*
X5369606Y19507347D01*
X5453480Y19438513D01*
X5581166Y19370263D01*
X5719715Y19328235D01*
X5863800Y19314044D01*
X5899905Y19317600D01*
X28980895Y19317600D01*
X29017000Y19314044D01*
X29053105Y19317600D01*
X29078332Y19320085D01*
X29053700Y19221816D01*
X29039783Y18939488D01*
X29081213Y18659870D01*
X29140173Y18495000D01*
X18835805Y18495000D01*
X18799700Y18498556D01*
X18763595Y18495000D01*
X18655615Y18484365D01*
X18517067Y18442337D01*
X18389380Y18374087D01*
X18277462Y18282238D01*
X18254446Y18254193D01*
X16015808Y16015554D01*
X15987763Y15992538D01*
X15895914Y15880620D01*
X15857403Y15808570D01*
X15827664Y15752933D01*
X15785635Y15614385D01*
X15785174Y15609701D01*
X15708900Y15568932D01*
X15490393Y15389608D01*
X15311068Y15171101D01*
X15240000Y15038142D01*
X15168932Y15171101D01*
X14989608Y15389608D01*
X14771101Y15568932D01*
X14521808Y15702182D01*
X14251309Y15784236D01*
X13970000Y15811943D01*
X13688692Y15784236D01*
X13418193Y15702182D01*
X13168900Y15568932D01*
X13011055Y15439392D01*
X12485958Y15964488D01*
X12462938Y15992538D01*
X12351020Y16084387D01*
X12223333Y16152637D01*
X12084785Y16194665D01*
X11976805Y16205300D01*
X11940700Y16208856D01*
X11904595Y16205300D01*
X3846105Y16205300D01*
X3810000Y16208856D01*
X3773895Y16205300D01*
X3665915Y16194665D01*
X3527367Y16152637D01*
X3399680Y16084387D01*
X3287762Y15992538D01*
X3195913Y15880620D01*
X3127663Y15752933D01*
X3085635Y15614385D01*
X3085174Y15609701D01*
X3008900Y15568932D01*
X2790393Y15389608D01*
X2611068Y15171101D01*
X2477818Y14921808D01*
X2395764Y14651309D01*
X2375000Y14440492D01*
X2375000Y13499509D01*
X2395764Y13288692D01*
X2477818Y13018193D01*
X2611068Y12768900D01*
X2790392Y12550393D01*
X3008899Y12371068D01*
X3258192Y12237818D01*
X3528691Y12155764D01*
X3810000Y12128057D01*
X4091308Y12155764D01*
X4361807Y12237818D01*
X4611100Y12371068D01*
X4829607Y12550392D01*
X5008932Y12768899D01*
X5080000Y12901858D01*
X5151068Y12768900D01*
X5330392Y12550393D01*
X5548899Y12371068D01*
X5798192Y12237818D01*
X6068691Y12155764D01*
X6350000Y12128057D01*
X6631308Y12155764D01*
X6901807Y12237818D01*
X7151100Y12371068D01*
X7369607Y12550392D01*
X7548932Y12768899D01*
X7620000Y12901858D01*
X7691068Y12768900D01*
X7870392Y12550393D01*
X8088899Y12371068D01*
X8165174Y12330298D01*
X8165635Y12325615D01*
X8192269Y12237818D01*
X8207664Y12187067D01*
X8275914Y12059380D01*
X8367763Y11947462D01*
X8395807Y11924447D01*
X9629946Y10690307D01*
X9652962Y10662262D01*
X9764880Y10570413D01*
X9892567Y10502163D01*
X10031115Y10460135D01*
X10139095Y10449500D01*
X10139104Y10449500D01*
X10175199Y10445945D01*
X10211294Y10449500D01*
X21885969Y10449500D01*
X21854010Y10372345D01*
X21820000Y10201365D01*
X21820000Y10027035D01*
X21854010Y9856055D01*
X21920723Y9694995D01*
X22017576Y9550045D01*
X22140845Y9426776D01*
X22285795Y9329923D01*
X22446855Y9263210D01*
X22533848Y9245906D01*
X29198946Y2580807D01*
X29221962Y2552762D01*
X29333880Y2460913D01*
X29461567Y2392663D01*
X29558086Y2363384D01*
X29600114Y2350635D01*
X29614332Y2349235D01*
X29708095Y2340000D01*
X29708102Y2340000D01*
X29744199Y2336445D01*
X29780296Y2340000D01*
X57250995Y2340000D01*
X57287100Y2336444D01*
X57323205Y2340000D01*
X57431185Y2350635D01*
X57569733Y2392663D01*
X57697420Y2460913D01*
X57809338Y2552762D01*
X57832358Y2580812D01*
X58794593Y3543046D01*
X58822638Y3566062D01*
X58914487Y3677980D01*
X58968117Y3778315D01*
X58982737Y3805666D01*
X59024765Y3944215D01*
X59038956Y4088300D01*
X59035400Y4124405D01*
X59035400Y5220128D01*
X92765000Y5220128D01*
X92765000Y4779872D01*
X92850890Y4348075D01*
X93019369Y3941331D01*
X93263962Y3575271D01*
X93575271Y3263962D01*
X93941331Y3019369D01*
X94348075Y2850890D01*
X94779872Y2765000D01*
X95220128Y2765000D01*
X95651925Y2850890D01*
X96058669Y3019369D01*
X96424729Y3263962D01*
X96736038Y3575271D01*
X96980631Y3941331D01*
X97149110Y4348075D01*
X97235000Y4779872D01*
X97235000Y5220128D01*
X97149110Y5651925D01*
X96980631Y6058669D01*
X96736038Y6424729D01*
X96424729Y6736038D01*
X96058669Y6980631D01*
X95651925Y7149110D01*
X95220128Y7235000D01*
X94779872Y7235000D01*
X94348075Y7149110D01*
X93941331Y6980631D01*
X93575271Y6736038D01*
X93263962Y6424729D01*
X93019369Y6058669D01*
X92850890Y5651925D01*
X92765000Y5220128D01*
X59035400Y5220128D01*
X59035400Y6074006D01*
X59038955Y6110101D01*
X59035400Y6146196D01*
X59035400Y6146205D01*
X59024765Y6254185D01*
X58982737Y6392733D01*
X58914487Y6520420D01*
X58822637Y6632338D01*
X58794592Y6655354D01*
X58486059Y6963887D01*
X58485742Y6964274D01*
X58577932Y7186842D01*
X58635000Y7473740D01*
X58635000Y7766260D01*
X58577932Y8053158D01*
X58465990Y8323411D01*
X58303475Y8566632D01*
X58096632Y8773475D01*
X57853411Y8935990D01*
X57583158Y9047932D01*
X57296260Y9105000D01*
X57003740Y9105000D01*
X56716842Y9047932D01*
X56446589Y8935990D01*
X56203368Y8773475D01*
X56199670Y8769777D01*
X55598882Y9370564D01*
X55752445Y9401110D01*
X55913505Y9467823D01*
X55987253Y9517100D01*
X86028595Y9517100D01*
X86064700Y9513544D01*
X86100805Y9517100D01*
X86208785Y9527735D01*
X86347333Y9569763D01*
X86475020Y9638013D01*
X86586938Y9729862D01*
X86609959Y9757913D01*
X89201760Y12349713D01*
X89245105Y12305500D01*
X89478354Y12146285D01*
X89738182Y12035633D01*
X89820961Y12018096D01*
X90043000Y12140085D01*
X90043000Y13683000D01*
X90023000Y13683000D01*
X90023000Y13937000D01*
X90043000Y13937000D01*
X90043000Y15479915D01*
X90297000Y15479915D01*
X90297000Y13937000D01*
X90317000Y13937000D01*
X90317000Y13683000D01*
X90297000Y13683000D01*
X90297000Y12140085D01*
X90519039Y12018096D01*
X90601818Y12035633D01*
X90861646Y12146285D01*
X91094895Y12305500D01*
X91292601Y12507161D01*
X91442735Y12736742D01*
X91511068Y12608900D01*
X91690392Y12390393D01*
X91908899Y12211068D01*
X92158192Y12077818D01*
X92428691Y11995764D01*
X92710000Y11968057D01*
X92991308Y11995764D01*
X93261807Y12077818D01*
X93511100Y12211068D01*
X93729607Y12390392D01*
X93908932Y12608899D01*
X94042182Y12858192D01*
X94124236Y13128691D01*
X94145000Y13339508D01*
X94145000Y14064132D01*
X95470736Y15389868D01*
X95605241Y15255363D01*
X95840273Y15098320D01*
X96101426Y14990147D01*
X96378665Y14935000D01*
X96661335Y14935000D01*
X96938574Y14990147D01*
X97199727Y15098320D01*
X97434759Y15255363D01*
X97634637Y15455241D01*
X97791680Y15690273D01*
X97899853Y15951426D01*
X97955000Y16228665D01*
X97955000Y16511335D01*
X97899853Y16788574D01*
X97791680Y17049727D01*
X97634637Y17284759D01*
X97434759Y17484637D01*
X97234131Y17618692D01*
X97261514Y17633329D01*
X97333097Y17877298D01*
X96520000Y18690395D01*
X95706903Y17877298D01*
X95778486Y17633329D01*
X95807341Y17619676D01*
X95605241Y17484637D01*
X95405363Y17284759D01*
X95352070Y17205000D01*
X95311018Y17205000D01*
X95270000Y17209040D01*
X95228982Y17205000D01*
X95228981Y17205000D01*
X95106311Y17192918D01*
X95028911Y17169439D01*
X94948913Y17145172D01*
X94803854Y17067636D01*
X94747569Y17021444D01*
X94676709Y16963291D01*
X94650563Y16931432D01*
X93261429Y15542297D01*
X92991309Y15624236D01*
X92710000Y15651943D01*
X92428692Y15624236D01*
X92158193Y15542182D01*
X91908900Y15408932D01*
X91690393Y15229608D01*
X91511068Y15011101D01*
X91442735Y14883259D01*
X91292601Y15112839D01*
X91094895Y15314500D01*
X90861646Y15473715D01*
X90601818Y15584367D01*
X90519039Y15601904D01*
X90297000Y15479915D01*
X90043000Y15479915D01*
X89820961Y15601904D01*
X89738182Y15584367D01*
X89635000Y15540425D01*
X89635000Y15815254D01*
X92619234Y18799488D01*
X95079783Y18799488D01*
X95121213Y18519870D01*
X95216397Y18253708D01*
X95283329Y18128486D01*
X95527298Y18056903D01*
X96340395Y18870000D01*
X96699605Y18870000D01*
X97512702Y18056903D01*
X97756671Y18128486D01*
X97877571Y18383996D01*
X97946300Y18658184D01*
X97960217Y18940512D01*
X97918787Y19220130D01*
X97823603Y19486292D01*
X97756671Y19611514D01*
X97512702Y19683097D01*
X96699605Y18870000D01*
X96340395Y18870000D01*
X95527298Y19683097D01*
X95283329Y19611514D01*
X95162429Y19356004D01*
X95093700Y19081816D01*
X95079783Y18799488D01*
X92619234Y18799488D01*
X93204193Y19384446D01*
X93232238Y19407462D01*
X93324087Y19519380D01*
X93336203Y19542047D01*
X93362865Y19591928D01*
X93510000Y19591928D01*
X93634482Y19604188D01*
X93754180Y19640498D01*
X93864494Y19699463D01*
X93961185Y19778815D01*
X94030029Y19862702D01*
X95706903Y19862702D01*
X96520000Y19049605D01*
X97333097Y19862702D01*
X97261514Y20106671D01*
X97006004Y20227571D01*
X96731816Y20296300D01*
X96449488Y20310217D01*
X96169870Y20268787D01*
X95903708Y20173603D01*
X95778486Y20106671D01*
X95706903Y19862702D01*
X94030029Y19862702D01*
X94040537Y19875506D01*
X94099502Y19985820D01*
X94135812Y20105518D01*
X94148072Y20230000D01*
X94148072Y22630000D01*
X94135812Y22754482D01*
X94099502Y22874180D01*
X94040537Y22984494D01*
X93961185Y23081185D01*
X93864494Y23160537D01*
X93754180Y23219502D01*
X93634482Y23255812D01*
X93510000Y23268072D01*
X91910000Y23268072D01*
X91785518Y23255812D01*
X91665820Y23219502D01*
X91555506Y23160537D01*
X91458815Y23081185D01*
X91379463Y22984494D01*
X91320498Y22874180D01*
X91284188Y22754482D01*
X91282419Y22736518D01*
X91189608Y22849608D01*
X90971101Y23028932D01*
X90894826Y23069702D01*
X90894365Y23074385D01*
X90892577Y23080281D01*
X90876194Y23134287D01*
X90852337Y23212933D01*
X90784087Y23340620D01*
X90692238Y23452538D01*
X90664187Y23475559D01*
X90555259Y23584487D01*
X90532238Y23612538D01*
X90420320Y23704387D01*
X90292633Y23772637D01*
X90154085Y23814665D01*
X90046105Y23825300D01*
X90010000Y23828856D01*
X89973895Y23825300D01*
X68616105Y23825300D01*
X68580000Y23828856D01*
X68543895Y23825300D01*
X68435915Y23814665D01*
X68297367Y23772637D01*
X68169680Y23704387D01*
X68057762Y23612538D01*
X67965913Y23500620D01*
X67927135Y23428072D01*
X67780000Y23428072D01*
X67655518Y23415812D01*
X67535820Y23379502D01*
X67425506Y23320537D01*
X67328815Y23241185D01*
X67249463Y23144494D01*
X67190498Y23034180D01*
X67154188Y22914482D01*
X67152419Y22896518D01*
X67059608Y23009608D01*
X66841101Y23188932D01*
X66591808Y23322182D01*
X66321309Y23404236D01*
X66040000Y23431943D01*
X65758692Y23404236D01*
X65488193Y23322182D01*
X65238900Y23188932D01*
X65020393Y23009608D01*
X64841068Y22791101D01*
X64770000Y22658142D01*
X64698932Y22791101D01*
X64519608Y23009608D01*
X64301101Y23188932D01*
X64051808Y23322182D01*
X63781309Y23404236D01*
X63500000Y23431943D01*
X63218692Y23404236D01*
X62948193Y23322182D01*
X62698900Y23188932D01*
X62480393Y23009608D01*
X62301068Y22791101D01*
X62230000Y22658142D01*
X62158932Y22791101D01*
X61979608Y23009608D01*
X61761101Y23188932D01*
X61511808Y23322182D01*
X61241309Y23404236D01*
X60960000Y23431943D01*
X60678692Y23404236D01*
X60408193Y23322182D01*
X60158900Y23188932D01*
X59940393Y23009608D01*
X59761068Y22791101D01*
X59690000Y22658142D01*
X59618932Y22791101D01*
X59439608Y23009608D01*
X59221101Y23188932D01*
X58984594Y23315348D01*
X60335093Y24665846D01*
X60363138Y24688862D01*
X60454987Y24800780D01*
X60511487Y24906484D01*
X60678691Y24855764D01*
X60960000Y24828057D01*
X61241308Y24855764D01*
X61511807Y24937818D01*
X61761100Y25071068D01*
X61979607Y25250392D01*
X62158932Y25468899D01*
X62230000Y25601858D01*
X62301068Y25468900D01*
X62480392Y25250393D01*
X62698899Y25071068D01*
X62948192Y24937818D01*
X63218691Y24855764D01*
X63500000Y24828057D01*
X63781308Y24855764D01*
X64051807Y24937818D01*
X64301100Y25071068D01*
X64519607Y25250392D01*
X64698932Y25468899D01*
X64770000Y25601858D01*
X64841068Y25468900D01*
X65020392Y25250393D01*
X65238899Y25071068D01*
X65488192Y24937818D01*
X65758691Y24855764D01*
X66040000Y24828057D01*
X66321308Y24855764D01*
X66591807Y24937818D01*
X66841100Y25071068D01*
X67059607Y25250392D01*
X67238932Y25468899D01*
X67310000Y25601858D01*
X67381068Y25468900D01*
X67560392Y25250393D01*
X67778899Y25071068D01*
X68028192Y24937818D01*
X68298691Y24855764D01*
X68580000Y24828057D01*
X68861308Y24855764D01*
X69131807Y24937818D01*
X69381100Y25071068D01*
X69599607Y25250392D01*
X69778932Y25468899D01*
X69912182Y25718192D01*
X69994236Y25988691D01*
X70015000Y26199508D01*
X70015000Y26924133D01*
X70231359Y27140492D01*
X76035000Y27140492D01*
X76035000Y26199509D01*
X76055764Y25988692D01*
X76137818Y25718193D01*
X76271068Y25468900D01*
X76450392Y25250393D01*
X76668899Y25071068D01*
X76918192Y24937818D01*
X77188691Y24855764D01*
X77470000Y24828057D01*
X77751308Y24855764D01*
X78021807Y24937818D01*
X78271100Y25071068D01*
X78489607Y25250392D01*
X78668932Y25468899D01*
X78737265Y25596741D01*
X78887399Y25367161D01*
X79085105Y25165500D01*
X79318354Y25006285D01*
X79578182Y24895633D01*
X79660961Y24878096D01*
X79883000Y25000085D01*
X79883000Y26543000D01*
X80137000Y26543000D01*
X80137000Y25000085D01*
X80359039Y24878096D01*
X80441818Y24895633D01*
X80701646Y25006285D01*
X80934895Y25165500D01*
X81132601Y25367161D01*
X81280000Y25592559D01*
X81427399Y25367161D01*
X81625105Y25165500D01*
X81858354Y25006285D01*
X82118182Y24895633D01*
X82200961Y24878096D01*
X82423000Y25000085D01*
X82423000Y26543000D01*
X80137000Y26543000D01*
X79883000Y26543000D01*
X79863000Y26543000D01*
X79863000Y26797000D01*
X79883000Y26797000D01*
X79883000Y28339915D01*
X80137000Y28339915D01*
X80137000Y26797000D01*
X82423000Y26797000D01*
X82423000Y28339915D01*
X82677000Y28339915D01*
X82677000Y26797000D01*
X82697000Y26797000D01*
X82697000Y26543000D01*
X82677000Y26543000D01*
X82677000Y25000085D01*
X82899039Y24878096D01*
X82981818Y24895633D01*
X83241646Y25006285D01*
X83474895Y25165500D01*
X83672601Y25367161D01*
X83822735Y25596742D01*
X83891068Y25468900D01*
X84070392Y25250393D01*
X84288899Y25071068D01*
X84538192Y24937818D01*
X84808691Y24855764D01*
X85090000Y24828057D01*
X85371308Y24855764D01*
X85641807Y24937818D01*
X85891100Y25071068D01*
X86109607Y25250392D01*
X86288932Y25468899D01*
X86357265Y25596741D01*
X86507399Y25367161D01*
X86705105Y25165500D01*
X86938354Y25006285D01*
X87198182Y24895633D01*
X87280961Y24878096D01*
X87503000Y25000085D01*
X87503000Y26543000D01*
X87757000Y26543000D01*
X87757000Y25000085D01*
X87979039Y24878096D01*
X88061818Y24895633D01*
X88321646Y25006285D01*
X88554895Y25165500D01*
X88752601Y25367161D01*
X88900000Y25592559D01*
X89047399Y25367161D01*
X89245105Y25165500D01*
X89478354Y25006285D01*
X89738182Y24895633D01*
X89820961Y24878096D01*
X90043000Y25000085D01*
X90043000Y26543000D01*
X87757000Y26543000D01*
X87503000Y26543000D01*
X87483000Y26543000D01*
X87483000Y26797000D01*
X87503000Y26797000D01*
X87503000Y28339915D01*
X87757000Y28339915D01*
X87757000Y26797000D01*
X90043000Y26797000D01*
X90043000Y28339915D01*
X90297000Y28339915D01*
X90297000Y26797000D01*
X90317000Y26797000D01*
X90317000Y26543000D01*
X90297000Y26543000D01*
X90297000Y25000085D01*
X90519039Y24878096D01*
X90601818Y24895633D01*
X90861646Y25006285D01*
X91094895Y25165500D01*
X91292601Y25367161D01*
X91442735Y25596742D01*
X91511068Y25468900D01*
X91690392Y25250393D01*
X91908899Y25071068D01*
X92158192Y24937818D01*
X92428691Y24855764D01*
X92710000Y24828057D01*
X92991308Y24855764D01*
X93261807Y24937818D01*
X93511100Y25071068D01*
X93729607Y25250392D01*
X93908932Y25468899D01*
X94042182Y25718192D01*
X94124236Y25988691D01*
X94145000Y26199508D01*
X94145000Y26924133D01*
X95460736Y28239868D01*
X95605241Y28095363D01*
X95840273Y27938320D01*
X96101426Y27830147D01*
X96378665Y27775000D01*
X96661335Y27775000D01*
X96938574Y27830147D01*
X97199727Y27938320D01*
X97434759Y28095363D01*
X97634637Y28295241D01*
X97791680Y28530273D01*
X97899853Y28791426D01*
X97955000Y29068665D01*
X97955000Y29351335D01*
X97899853Y29628574D01*
X97791680Y29889727D01*
X97634637Y30124759D01*
X97434759Y30324637D01*
X97234131Y30458692D01*
X97261514Y30473329D01*
X97333097Y30717298D01*
X96520000Y31530395D01*
X95706903Y30717298D01*
X95778486Y30473329D01*
X95807341Y30459676D01*
X95605241Y30324637D01*
X95405363Y30124759D01*
X95352070Y30045000D01*
X95291007Y30045000D01*
X95249999Y30049039D01*
X95208991Y30045000D01*
X95208981Y30045000D01*
X95086311Y30032918D01*
X94928913Y29985172D01*
X94783854Y29907636D01*
X94656709Y29803291D01*
X94630559Y29771427D01*
X93261429Y28402297D01*
X92991309Y28484236D01*
X92710000Y28511943D01*
X92428692Y28484236D01*
X92158193Y28402182D01*
X91908900Y28268932D01*
X91690393Y28089608D01*
X91511068Y27871101D01*
X91442735Y27743259D01*
X91292601Y27972839D01*
X91094895Y28174500D01*
X90861646Y28333715D01*
X90601818Y28444367D01*
X90519039Y28461904D01*
X90297000Y28339915D01*
X90043000Y28339915D01*
X89820961Y28461904D01*
X89738182Y28444367D01*
X89478354Y28333715D01*
X89245105Y28174500D01*
X89047399Y27972839D01*
X88900000Y27747441D01*
X88752601Y27972839D01*
X88554895Y28174500D01*
X88321646Y28333715D01*
X88061818Y28444367D01*
X87979039Y28461904D01*
X87757000Y28339915D01*
X87503000Y28339915D01*
X87280961Y28461904D01*
X87198182Y28444367D01*
X86938354Y28333715D01*
X86705105Y28174500D01*
X86507399Y27972839D01*
X86357265Y27743259D01*
X86288932Y27871101D01*
X86109608Y28089608D01*
X85891101Y28268932D01*
X85641808Y28402182D01*
X85371309Y28484236D01*
X85090000Y28511943D01*
X84808692Y28484236D01*
X84538193Y28402182D01*
X84288900Y28268932D01*
X84070393Y28089608D01*
X83891068Y27871101D01*
X83822735Y27743259D01*
X83672601Y27972839D01*
X83474895Y28174500D01*
X83241646Y28333715D01*
X82981818Y28444367D01*
X82899039Y28461904D01*
X82677000Y28339915D01*
X82423000Y28339915D01*
X82200961Y28461904D01*
X82118182Y28444367D01*
X81858354Y28333715D01*
X81625105Y28174500D01*
X81427399Y27972839D01*
X81280000Y27747441D01*
X81132601Y27972839D01*
X80934895Y28174500D01*
X80701646Y28333715D01*
X80441818Y28444367D01*
X80359039Y28461904D01*
X80137000Y28339915D01*
X79883000Y28339915D01*
X79660961Y28461904D01*
X79578182Y28444367D01*
X79318354Y28333715D01*
X79085105Y28174500D01*
X78887399Y27972839D01*
X78737265Y27743259D01*
X78668932Y27871101D01*
X78489608Y28089608D01*
X78271101Y28268932D01*
X78021808Y28402182D01*
X77751309Y28484236D01*
X77470000Y28511943D01*
X77188692Y28484236D01*
X76918193Y28402182D01*
X76668900Y28268932D01*
X76450393Y28089608D01*
X76271068Y27871101D01*
X76137818Y27621808D01*
X76055764Y27351309D01*
X76035000Y27140492D01*
X70231359Y27140492D01*
X71350736Y28259868D01*
X71475241Y28135363D01*
X71710273Y27978320D01*
X71971426Y27870147D01*
X72248665Y27815000D01*
X72531335Y27815000D01*
X72808574Y27870147D01*
X73069727Y27978320D01*
X73304759Y28135363D01*
X73504637Y28335241D01*
X73661680Y28570273D01*
X73769853Y28831426D01*
X73825000Y29108665D01*
X73825000Y29391335D01*
X73769853Y29668574D01*
X73738196Y29745000D01*
X85160340Y29745000D01*
X85144500Y29665365D01*
X85144500Y29491035D01*
X85178510Y29320055D01*
X85245223Y29158995D01*
X85342076Y29014045D01*
X85465345Y28890776D01*
X85610295Y28793923D01*
X85771355Y28727210D01*
X85942335Y28693200D01*
X86116665Y28693200D01*
X86287645Y28727210D01*
X86448705Y28793923D01*
X86522453Y28843200D01*
X89462395Y28843200D01*
X89498500Y28839644D01*
X89534605Y28843200D01*
X89642585Y28853835D01*
X89781133Y28895863D01*
X89908820Y28964113D01*
X90020738Y29055962D01*
X90043759Y29084013D01*
X92599234Y31639488D01*
X95079783Y31639488D01*
X95121213Y31359870D01*
X95216397Y31093708D01*
X95283329Y30968486D01*
X95527298Y30896903D01*
X96340395Y31710000D01*
X96699605Y31710000D01*
X97512702Y30896903D01*
X97756671Y30968486D01*
X97877571Y31223996D01*
X97946300Y31498184D01*
X97960217Y31780512D01*
X97918787Y32060130D01*
X97823603Y32326292D01*
X97756671Y32451514D01*
X97512702Y32523097D01*
X96699605Y31710000D01*
X96340395Y31710000D01*
X95527298Y32523097D01*
X95283329Y32451514D01*
X95162429Y32196004D01*
X95093700Y31921816D01*
X95079783Y31639488D01*
X92599234Y31639488D01*
X93204193Y32244446D01*
X93232238Y32267462D01*
X93324087Y32379380D01*
X93362865Y32451928D01*
X93510000Y32451928D01*
X93634482Y32464188D01*
X93754180Y32500498D01*
X93864494Y32559463D01*
X93961185Y32638815D01*
X94013615Y32702702D01*
X95706903Y32702702D01*
X96520000Y31889605D01*
X97333097Y32702702D01*
X97261514Y32946671D01*
X97006004Y33067571D01*
X96731816Y33136300D01*
X96449488Y33150217D01*
X96169870Y33108787D01*
X95903708Y33013603D01*
X95778486Y32946671D01*
X95706903Y32702702D01*
X94013615Y32702702D01*
X94040537Y32735506D01*
X94099502Y32845820D01*
X94135812Y32965518D01*
X94148072Y33090000D01*
X94148072Y35490000D01*
X94135812Y35614482D01*
X94099502Y35734180D01*
X94040537Y35844494D01*
X93961185Y35941185D01*
X93864494Y36020537D01*
X93754180Y36079502D01*
X93634482Y36115812D01*
X93510000Y36128072D01*
X91910000Y36128072D01*
X91785518Y36115812D01*
X91665820Y36079502D01*
X91555506Y36020537D01*
X91458815Y35941185D01*
X91379463Y35844494D01*
X91320498Y35734180D01*
X91284188Y35614482D01*
X91282419Y35596518D01*
X91189608Y35709608D01*
X90971101Y35888932D01*
X90721808Y36022182D01*
X90451309Y36104236D01*
X90170000Y36131943D01*
X89888692Y36104236D01*
X89618193Y36022182D01*
X89368900Y35888932D01*
X89150393Y35709608D01*
X88971068Y35491101D01*
X88900000Y35358142D01*
X88828932Y35491101D01*
X88649608Y35709608D01*
X88431101Y35888932D01*
X88181808Y36022182D01*
X87911309Y36104236D01*
X87630000Y36131943D01*
X87348692Y36104236D01*
X87078193Y36022182D01*
X86828900Y35888932D01*
X86610393Y35709608D01*
X86431068Y35491101D01*
X86362735Y35363259D01*
X86212601Y35592839D01*
X86014895Y35794500D01*
X85781646Y35953715D01*
X85521818Y36064367D01*
X85439039Y36081904D01*
X85217000Y35959915D01*
X85217000Y34417000D01*
X85237000Y34417000D01*
X85237000Y34163000D01*
X85217000Y34163000D01*
X85217000Y32620085D01*
X85439039Y32498096D01*
X85521818Y32515633D01*
X85781646Y32626285D01*
X86014895Y32785500D01*
X86212601Y32987161D01*
X86362735Y33216742D01*
X86431068Y33088900D01*
X86610392Y32870393D01*
X86643816Y32842963D01*
X85015854Y31215000D01*
X73724387Y31215000D01*
X73747571Y31263996D01*
X73816300Y31538184D01*
X73830217Y31820512D01*
X73788787Y32100130D01*
X73693603Y32366292D01*
X73626671Y32491514D01*
X73382702Y32563097D01*
X72569605Y31750000D01*
X72583748Y31735857D01*
X72404143Y31556252D01*
X72390000Y31570395D01*
X72375858Y31556252D01*
X72196253Y31735857D01*
X72210395Y31750000D01*
X71397298Y32563097D01*
X71153329Y32491514D01*
X71032429Y32236004D01*
X70963700Y31961816D01*
X70949783Y31679488D01*
X70991213Y31399870D01*
X71057326Y31215000D01*
X68385804Y31215000D01*
X68349699Y31218556D01*
X68205614Y31204365D01*
X68171591Y31194044D01*
X68067067Y31162337D01*
X67939380Y31094087D01*
X67827462Y31002238D01*
X67804446Y30974193D01*
X65545808Y28715554D01*
X65517763Y28692538D01*
X65425914Y28580620D01*
X65385568Y28505138D01*
X65357664Y28452933D01*
X65315635Y28314385D01*
X65315174Y28309701D01*
X65238900Y28268932D01*
X65020393Y28089608D01*
X64841068Y27871101D01*
X64770000Y27738142D01*
X64698932Y27871101D01*
X64519608Y28089608D01*
X64301101Y28268932D01*
X64051808Y28402182D01*
X63781309Y28484236D01*
X63500000Y28511943D01*
X63218692Y28484236D01*
X62948193Y28402182D01*
X62698900Y28268932D01*
X62480393Y28089608D01*
X62301068Y27871101D01*
X62230000Y27738142D01*
X62158932Y27871101D01*
X61979608Y28089608D01*
X61761101Y28268932D01*
X61511808Y28402182D01*
X61241309Y28484236D01*
X60960000Y28511943D01*
X60879678Y28504032D01*
X65144328Y32768681D01*
X65238899Y32691068D01*
X65488192Y32557818D01*
X65758691Y32475764D01*
X66040000Y32448057D01*
X66321308Y32475764D01*
X66591807Y32557818D01*
X66841100Y32691068D01*
X67059607Y32870392D01*
X67152419Y32983483D01*
X67154188Y32965518D01*
X67190498Y32845820D01*
X67249463Y32735506D01*
X67328815Y32638815D01*
X67425506Y32559463D01*
X67535820Y32500498D01*
X67655518Y32464188D01*
X67780000Y32451928D01*
X68294250Y32455000D01*
X68453000Y32613750D01*
X68453000Y34163000D01*
X68707000Y34163000D01*
X68707000Y32613750D01*
X68865750Y32455000D01*
X69380000Y32451928D01*
X69504482Y32464188D01*
X69624180Y32500498D01*
X69734494Y32559463D01*
X69831185Y32638815D01*
X69910537Y32735506D01*
X69914383Y32742702D01*
X71576903Y32742702D01*
X72390000Y31929605D01*
X73203097Y32742702D01*
X73131514Y32986671D01*
X72876004Y33107571D01*
X72601816Y33176300D01*
X72319488Y33190217D01*
X72039870Y33148787D01*
X71773708Y33053603D01*
X71648486Y32986671D01*
X71576903Y32742702D01*
X69914383Y32742702D01*
X69969502Y32845820D01*
X70005812Y32965518D01*
X70018072Y33090000D01*
X70015000Y34004250D01*
X69856250Y34163000D01*
X76035000Y34163000D01*
X76035000Y33763000D01*
X76087350Y33485486D01*
X76192834Y33223517D01*
X76347399Y32987161D01*
X76545105Y32785500D01*
X76778354Y32626285D01*
X77038182Y32515633D01*
X77120961Y32498096D01*
X77343000Y32620085D01*
X77343000Y34163000D01*
X76035000Y34163000D01*
X69856250Y34163000D01*
X68707000Y34163000D01*
X68453000Y34163000D01*
X68433000Y34163000D01*
X68433000Y34417000D01*
X68453000Y34417000D01*
X68453000Y35966250D01*
X68707000Y35966250D01*
X68707000Y34417000D01*
X69856250Y34417000D01*
X70015000Y34575750D01*
X70015810Y34817000D01*
X76035000Y34817000D01*
X76035000Y34417000D01*
X77343000Y34417000D01*
X77343000Y35959915D01*
X77597000Y35959915D01*
X77597000Y34417000D01*
X77617000Y34417000D01*
X77617000Y34163000D01*
X77597000Y34163000D01*
X77597000Y32620085D01*
X77819039Y32498096D01*
X77901818Y32515633D01*
X78161646Y32626285D01*
X78394895Y32785500D01*
X78592601Y32987161D01*
X78742735Y33216742D01*
X78811068Y33088900D01*
X78990392Y32870393D01*
X79208899Y32691068D01*
X79458192Y32557818D01*
X79728691Y32475764D01*
X80010000Y32448057D01*
X80291308Y32475764D01*
X80561807Y32557818D01*
X80811100Y32691068D01*
X81029607Y32870392D01*
X81208932Y33088899D01*
X81277265Y33216741D01*
X81427399Y32987161D01*
X81625105Y32785500D01*
X81858354Y32626285D01*
X82118182Y32515633D01*
X82200961Y32498096D01*
X82423000Y32620085D01*
X82423000Y34163000D01*
X82677000Y34163000D01*
X82677000Y32620085D01*
X82899039Y32498096D01*
X82981818Y32515633D01*
X83241646Y32626285D01*
X83474895Y32785500D01*
X83672601Y32987161D01*
X83820000Y33212559D01*
X83967399Y32987161D01*
X84165105Y32785500D01*
X84398354Y32626285D01*
X84658182Y32515633D01*
X84740961Y32498096D01*
X84963000Y32620085D01*
X84963000Y34163000D01*
X82677000Y34163000D01*
X82423000Y34163000D01*
X82403000Y34163000D01*
X82403000Y34417000D01*
X82423000Y34417000D01*
X82423000Y35959915D01*
X82677000Y35959915D01*
X82677000Y34417000D01*
X84963000Y34417000D01*
X84963000Y35959915D01*
X84740961Y36081904D01*
X84658182Y36064367D01*
X84398354Y35953715D01*
X84165105Y35794500D01*
X83967399Y35592839D01*
X83820000Y35367441D01*
X83672601Y35592839D01*
X83474895Y35794500D01*
X83241646Y35953715D01*
X82981818Y36064367D01*
X82899039Y36081904D01*
X82677000Y35959915D01*
X82423000Y35959915D01*
X82200961Y36081904D01*
X82118182Y36064367D01*
X81858354Y35953715D01*
X81625105Y35794500D01*
X81427399Y35592839D01*
X81277265Y35363259D01*
X81208932Y35491101D01*
X81029608Y35709608D01*
X80811101Y35888932D01*
X80561808Y36022182D01*
X80291309Y36104236D01*
X80010000Y36131943D01*
X79728692Y36104236D01*
X79458193Y36022182D01*
X79208900Y35888932D01*
X78990393Y35709608D01*
X78811068Y35491101D01*
X78742735Y35363259D01*
X78592601Y35592839D01*
X78394895Y35794500D01*
X78161646Y35953715D01*
X77901818Y36064367D01*
X77819039Y36081904D01*
X77597000Y35959915D01*
X77343000Y35959915D01*
X77120961Y36081904D01*
X77038182Y36064367D01*
X76778354Y35953715D01*
X76545105Y35794500D01*
X76347399Y35592839D01*
X76192834Y35356483D01*
X76087350Y35094514D01*
X76035000Y34817000D01*
X70015810Y34817000D01*
X70018072Y35490000D01*
X70005812Y35614482D01*
X69969502Y35734180D01*
X69910537Y35844494D01*
X69831185Y35941185D01*
X69734494Y36020537D01*
X69624180Y36079502D01*
X69504482Y36115812D01*
X69380000Y36128072D01*
X68865750Y36125000D01*
X68707000Y35966250D01*
X68453000Y35966250D01*
X68294250Y36125000D01*
X67780000Y36128072D01*
X67655518Y36115812D01*
X67535820Y36079502D01*
X67425506Y36020537D01*
X67328815Y35941185D01*
X67249463Y35844494D01*
X67190498Y35734180D01*
X67154188Y35614482D01*
X67152419Y35596518D01*
X67059608Y35709608D01*
X66841101Y35888932D01*
X66591808Y36022182D01*
X66321309Y36104236D01*
X66040000Y36131943D01*
X65758692Y36104236D01*
X65550400Y36041052D01*
X65550400Y36340654D01*
X66534193Y37324446D01*
X66562238Y37347462D01*
X66654087Y37459380D01*
X66722337Y37587067D01*
X66764365Y37725615D01*
X66764826Y37730299D01*
X66841100Y37771068D01*
X67059607Y37950392D01*
X67238932Y38168899D01*
X67310000Y38301858D01*
X67381068Y38168900D01*
X67560392Y37950393D01*
X67778899Y37771068D01*
X68028192Y37637818D01*
X68298691Y37555764D01*
X68580000Y37528057D01*
X68861308Y37555764D01*
X69131807Y37637818D01*
X69381100Y37771068D01*
X69599607Y37950392D01*
X69778932Y38168899D01*
X69912182Y38418192D01*
X69994236Y38688691D01*
X70015000Y38899508D01*
X70015000Y39624133D01*
X72951432Y42560563D01*
X72983291Y42586709D01*
X73087636Y42713854D01*
X73165172Y42858913D01*
X73212918Y43016311D01*
X73225000Y43138981D01*
X73225000Y43138982D01*
X73229040Y43180000D01*
X73225000Y43221018D01*
X73225000Y43615000D01*
X79353682Y43615000D01*
X79394700Y43610960D01*
X79435718Y43615000D01*
X79435719Y43615000D01*
X79558389Y43627082D01*
X79715787Y43674828D01*
X79860846Y43752364D01*
X79987991Y43856709D01*
X80014146Y43888579D01*
X81465231Y45339662D01*
X81603368Y45201525D01*
X81846589Y45039010D01*
X82116842Y44927068D01*
X82403740Y44870000D01*
X82696260Y44870000D01*
X82983158Y44927068D01*
X83253411Y45039010D01*
X83496632Y45201525D01*
X83703475Y45408368D01*
X83820000Y45582760D01*
X83936525Y45408368D01*
X84143368Y45201525D01*
X84386589Y45039010D01*
X84656842Y44927068D01*
X84943740Y44870000D01*
X85236260Y44870000D01*
X85523158Y44927068D01*
X85793411Y45039010D01*
X86036632Y45201525D01*
X86168487Y45333380D01*
X86190498Y45260820D01*
X86249463Y45150506D01*
X86328815Y45053815D01*
X86425506Y44974463D01*
X86535820Y44915498D01*
X86655518Y44879188D01*
X86780000Y44866928D01*
X88480000Y44866928D01*
X88604482Y44879188D01*
X88724180Y44915498D01*
X88834494Y44974463D01*
X88931185Y45053815D01*
X89010537Y45150506D01*
X89069502Y45260820D01*
X89105812Y45380518D01*
X89118072Y45505000D01*
X89118072Y47205000D01*
X89105812Y47329482D01*
X89069502Y47449180D01*
X89010537Y47559494D01*
X88931185Y47656185D01*
X88834494Y47735537D01*
X88724180Y47794502D01*
X88604482Y47830812D01*
X88480000Y47843072D01*
X86780000Y47843072D01*
X86655518Y47830812D01*
X86535820Y47794502D01*
X86425964Y47735782D01*
X86146358Y48015388D01*
X86123338Y48043438D01*
X86011420Y48135287D01*
X85883733Y48203537D01*
X85745185Y48245565D01*
X85637205Y48256200D01*
X85601100Y48259756D01*
X85564995Y48256200D01*
X81794294Y48256200D01*
X81758199Y48259755D01*
X81722104Y48256200D01*
X81722095Y48256200D01*
X81614115Y48245565D01*
X81475567Y48203537D01*
X81347880Y48135287D01*
X81235962Y48043438D01*
X81212946Y48015392D01*
X80922554Y47725000D01*
X73743314Y47725000D01*
X73747571Y47733996D01*
X73816300Y48008184D01*
X73830217Y48290512D01*
X73788787Y48570130D01*
X73693603Y48836292D01*
X73626671Y48961514D01*
X73382702Y49033097D01*
X72569605Y48220000D01*
X72583748Y48205857D01*
X72404143Y48026252D01*
X72390000Y48040395D01*
X72375858Y48026252D01*
X72196253Y48205857D01*
X72210395Y48220000D01*
X71397298Y49033097D01*
X71153329Y48961514D01*
X71032429Y48706004D01*
X70963700Y48431816D01*
X70949783Y48149488D01*
X70991213Y47869870D01*
X71043021Y47725000D01*
X69197294Y47725000D01*
X69161199Y47728555D01*
X69125104Y47725000D01*
X69125095Y47725000D01*
X69017115Y47714365D01*
X68878567Y47672337D01*
X68750880Y47604087D01*
X68638962Y47512238D01*
X68615946Y47484193D01*
X61947617Y40815863D01*
X61761101Y40968932D01*
X61511808Y41102182D01*
X61241309Y41184236D01*
X60960000Y41211943D01*
X60678692Y41184236D01*
X60408193Y41102182D01*
X60294500Y41041412D01*
X60294500Y48864754D01*
X60642448Y49212702D01*
X71576903Y49212702D01*
X72390000Y48399605D01*
X73203097Y49212702D01*
X73131514Y49456671D01*
X72876004Y49577571D01*
X72601816Y49646300D01*
X72319488Y49660217D01*
X72039870Y49618787D01*
X71773708Y49523603D01*
X71648486Y49456671D01*
X71576903Y49212702D01*
X60642448Y49212702D01*
X63994193Y52564446D01*
X64022238Y52587462D01*
X64114087Y52699380D01*
X64159418Y52784188D01*
X64182337Y52827066D01*
X64224365Y52965615D01*
X64224826Y52970299D01*
X64301100Y53011068D01*
X64519607Y53190392D01*
X64698932Y53408899D01*
X64770000Y53541858D01*
X64841068Y53408900D01*
X65020392Y53190393D01*
X65238899Y53011068D01*
X65488192Y52877818D01*
X65758691Y52795764D01*
X66040000Y52768057D01*
X66321308Y52795764D01*
X66591807Y52877818D01*
X66841100Y53011068D01*
X67059607Y53190392D01*
X67152419Y53303483D01*
X67154188Y53285518D01*
X67190498Y53165820D01*
X67249463Y53055506D01*
X67328815Y52958815D01*
X67425506Y52879463D01*
X67535820Y52820498D01*
X67655518Y52784188D01*
X67780000Y52771928D01*
X69380000Y52771928D01*
X69504482Y52784188D01*
X69624180Y52820498D01*
X69734494Y52879463D01*
X69831185Y52958815D01*
X69910537Y53055506D01*
X69969502Y53165820D01*
X70005812Y53285518D01*
X70018072Y53410000D01*
X70018072Y55220128D01*
X92765000Y55220128D01*
X92765000Y54779872D01*
X92850890Y54348075D01*
X93019369Y53941331D01*
X93263962Y53575271D01*
X93575271Y53263962D01*
X93941331Y53019369D01*
X94348075Y52850890D01*
X94779872Y52765000D01*
X95220128Y52765000D01*
X95651925Y52850890D01*
X96058669Y53019369D01*
X96424729Y53263962D01*
X96736038Y53575271D01*
X96980631Y53941331D01*
X97149110Y54348075D01*
X97235000Y54779872D01*
X97235000Y55220128D01*
X97149110Y55651925D01*
X96980631Y56058669D01*
X96736038Y56424729D01*
X96424729Y56736038D01*
X96058669Y56980631D01*
X95651925Y57149110D01*
X95220128Y57235000D01*
X94779872Y57235000D01*
X94348075Y57149110D01*
X93941331Y56980631D01*
X93575271Y56736038D01*
X93263962Y56424729D01*
X93019369Y56058669D01*
X92850890Y55651925D01*
X92765000Y55220128D01*
X70018072Y55220128D01*
X70018072Y55810000D01*
X70005812Y55934482D01*
X69969502Y56054180D01*
X69910537Y56164494D01*
X69831185Y56261185D01*
X69734494Y56340537D01*
X69624180Y56399502D01*
X69504482Y56435812D01*
X69380000Y56448072D01*
X67780000Y56448072D01*
X67655518Y56435812D01*
X67535820Y56399502D01*
X67425506Y56340537D01*
X67328815Y56261185D01*
X67249463Y56164494D01*
X67190498Y56054180D01*
X67154188Y55934482D01*
X67152419Y55916518D01*
X67059608Y56029608D01*
X66841101Y56208932D01*
X66591808Y56342182D01*
X66321309Y56424236D01*
X66040000Y56451943D01*
X65758692Y56424236D01*
X65488193Y56342182D01*
X65238900Y56208932D01*
X65020393Y56029608D01*
X64841068Y55811101D01*
X64770000Y55678142D01*
X64698932Y55811101D01*
X64519608Y56029608D01*
X64301101Y56208932D01*
X64051808Y56342182D01*
X63781309Y56424236D01*
X63500000Y56451943D01*
X63218692Y56424236D01*
X62948193Y56342182D01*
X62698900Y56208932D01*
X62480393Y56029608D01*
X62301068Y55811101D01*
X62230000Y55678142D01*
X62158932Y55811101D01*
X61979608Y56029608D01*
X61761101Y56208932D01*
X61511808Y56342182D01*
X61241309Y56424236D01*
X60960000Y56451943D01*
X60678692Y56424236D01*
X60408193Y56342182D01*
X60158900Y56208932D01*
X59940393Y56029608D01*
X59761068Y55811101D01*
X59690000Y55678142D01*
X59618932Y55811101D01*
X59439608Y56029608D01*
X59221101Y56208932D01*
X58971808Y56342182D01*
X58701309Y56424236D01*
X58420000Y56451943D01*
X58138692Y56424236D01*
X57868193Y56342182D01*
X57618900Y56208932D01*
X57400393Y56029608D01*
X57221068Y55811101D01*
X57150000Y55678142D01*
X57078932Y55811101D01*
X56899608Y56029608D01*
X56681101Y56208932D01*
X56604826Y56249702D01*
X56604365Y56254385D01*
X56562337Y56392933D01*
X56494087Y56520620D01*
X56402238Y56632538D01*
X56290320Y56724387D01*
X56162633Y56792637D01*
X56024085Y56834665D01*
X55916105Y56845300D01*
X55880000Y56848856D01*
X55843895Y56845300D01*
X19316394Y56845300D01*
X19280299Y56848855D01*
X19244204Y56845300D01*
X19244195Y56845300D01*
X19136215Y56834665D01*
X18997667Y56792637D01*
X18869980Y56724387D01*
X18758062Y56632538D01*
X18735046Y56604493D01*
X7125808Y44995254D01*
X7097762Y44972237D01*
X7005913Y44860319D01*
X6937663Y44732632D01*
X6917147Y44665000D01*
X6895635Y44594085D01*
X6881444Y44450000D01*
X6885000Y44413895D01*
X6885001Y36027280D01*
X6631309Y36104236D01*
X6350000Y36131943D01*
X6068692Y36104236D01*
X5798193Y36022182D01*
X5548900Y35888932D01*
X5330393Y35709608D01*
X5151068Y35491101D01*
X5082735Y35363259D01*
X4932601Y35592839D01*
X4734895Y35794500D01*
X4501646Y35953715D01*
X4241818Y36064367D01*
X4159039Y36081904D01*
X3937000Y35959915D01*
X3937000Y34417000D01*
X3957000Y34417000D01*
X3957000Y34163000D01*
X3937000Y34163000D01*
X3937000Y32620085D01*
X4159039Y32498096D01*
X4241818Y32515633D01*
X4501646Y32626285D01*
X4734895Y32785500D01*
X4932601Y32987161D01*
X5082735Y33216742D01*
X5151068Y33088900D01*
X5330392Y32870393D01*
X5548899Y32691068D01*
X5798192Y32557818D01*
X6068691Y32475764D01*
X6350000Y32448057D01*
X6631308Y32475764D01*
X6885001Y32552720D01*
X6885001Y29744748D01*
X5855808Y28715554D01*
X5827762Y28692537D01*
X5735913Y28580619D01*
X5667663Y28452932D01*
X5647688Y28387082D01*
X5625635Y28314385D01*
X5625174Y28309701D01*
X5548900Y28268932D01*
X5330393Y28089608D01*
X5151068Y27871101D01*
X5080000Y27738142D01*
X5008932Y27871101D01*
X4829608Y28089608D01*
X4611101Y28268932D01*
X4361808Y28402182D01*
X4091309Y28484236D01*
X3810000Y28511943D01*
X3528692Y28484236D01*
X3258193Y28402182D01*
X3008900Y28268932D01*
X2790393Y28089608D01*
X2611068Y27871101D01*
X2477818Y27621808D01*
X2395764Y27351309D01*
X2375000Y27140492D01*
X660000Y27140492D01*
X660000Y34163000D01*
X2375000Y34163000D01*
X2375000Y33763000D01*
X2427350Y33485486D01*
X2532834Y33223517D01*
X2687399Y32987161D01*
X2885105Y32785500D01*
X3118354Y32626285D01*
X3378182Y32515633D01*
X3460961Y32498096D01*
X3683000Y32620085D01*
X3683000Y34163000D01*
X2375000Y34163000D01*
X660000Y34163000D01*
X660000Y34817000D01*
X2375000Y34817000D01*
X2375000Y34417000D01*
X3683000Y34417000D01*
X3683000Y35959915D01*
X3460961Y36081904D01*
X3378182Y36064367D01*
X3118354Y35953715D01*
X2885105Y35794500D01*
X2687399Y35592839D01*
X2532834Y35356483D01*
X2427350Y35094514D01*
X2375000Y34817000D01*
X660000Y34817000D01*
X660000Y55220128D01*
X2765000Y55220128D01*
X2765000Y54779872D01*
X2850890Y54348075D01*
X3019369Y53941331D01*
X3263962Y53575271D01*
X3575271Y53263962D01*
X3941331Y53019369D01*
X4348075Y52850890D01*
X4779872Y52765000D01*
X5220128Y52765000D01*
X5651925Y52850890D01*
X6058669Y53019369D01*
X6424729Y53263962D01*
X6736038Y53575271D01*
X6980631Y53941331D01*
X7149110Y54348075D01*
X7235000Y54779872D01*
X7235000Y55220128D01*
X7149110Y55651925D01*
X6980631Y56058669D01*
X6736038Y56424729D01*
X6424729Y56736038D01*
X6058669Y56980631D01*
X5651925Y57149110D01*
X5220128Y57235000D01*
X4779872Y57235000D01*
X4348075Y57149110D01*
X3941331Y56980631D01*
X3575271Y56736038D01*
X3263962Y56424729D01*
X3019369Y56058669D01*
X2850890Y55651925D01*
X2765000Y55220128D01*
X660000Y55220128D01*
X660000Y59340000D01*
X99340001Y59340000D01*
X99340000Y660000D01*
G37*
G04 #@! TD.AperFunction*
D19*
X42037000Y5207000D02*
X42057000Y5207000D01*
X42057000Y4953000D01*
X42037000Y4953000D01*
X42037000Y4933000D01*
X41783000Y4933000D01*
X41783000Y4953000D01*
X41763000Y4953000D01*
X41763000Y5207000D01*
X41783000Y5207000D01*
X41783000Y5227000D01*
X42037000Y5227000D01*
X42037000Y5207000D01*
G04 #@! TA.AperFunction,Conductor*
D20*
G36*
X42037000Y5207000D02*
G01*
X42057000Y5207000D01*
X42057000Y4953000D01*
X42037000Y4953000D01*
X42037000Y4933000D01*
X41783000Y4933000D01*
X41783000Y4953000D01*
X41763000Y4953000D01*
X41763000Y5207000D01*
X41783000Y5207000D01*
X41783000Y5227000D01*
X42037000Y5227000D01*
X42037000Y5207000D01*
G37*
G04 #@! TD.AperFunction*
D19*
X49657000Y5207000D02*
X49677000Y5207000D01*
X49677000Y4953000D01*
X49657000Y4953000D01*
X49657000Y4933000D01*
X49403000Y4933000D01*
X49403000Y4953000D01*
X49383000Y4953000D01*
X49383000Y5207000D01*
X49403000Y5207000D01*
X49403000Y5227000D01*
X49657000Y5227000D01*
X49657000Y5207000D01*
G04 #@! TA.AperFunction,Conductor*
D20*
G36*
X49657000Y5207000D02*
G01*
X49677000Y5207000D01*
X49677000Y4953000D01*
X49657000Y4953000D01*
X49657000Y4933000D01*
X49403000Y4933000D01*
X49403000Y4953000D01*
X49383000Y4953000D01*
X49383000Y5207000D01*
X49403000Y5207000D01*
X49403000Y5227000D01*
X49657000Y5227000D01*
X49657000Y5207000D01*
G37*
G04 #@! TD.AperFunction*
D19*
X54737000Y5207000D02*
X54757000Y5207000D01*
X54757000Y4953000D01*
X54737000Y4953000D01*
X54737000Y4933000D01*
X54483000Y4933000D01*
X54483000Y4953000D01*
X54463000Y4953000D01*
X54463000Y5207000D01*
X54483000Y5207000D01*
X54483000Y5227000D01*
X54737000Y5227000D01*
X54737000Y5207000D01*
G04 #@! TA.AperFunction,Conductor*
D20*
G36*
X54737000Y5207000D02*
G01*
X54757000Y5207000D01*
X54757000Y4953000D01*
X54737000Y4953000D01*
X54737000Y4933000D01*
X54483000Y4933000D01*
X54483000Y4953000D01*
X54463000Y4953000D01*
X54463000Y5207000D01*
X54483000Y5207000D01*
X54483000Y5227000D01*
X54737000Y5227000D01*
X54737000Y5207000D01*
G37*
G04 #@! TD.AperFunction*
D19*
X36957000Y5207000D02*
X36977000Y5207000D01*
X36977000Y4953000D01*
X36957000Y4953000D01*
X36957000Y4933000D01*
X36703000Y4933000D01*
X36703000Y4953000D01*
X36683000Y4953000D01*
X36683000Y5207000D01*
X36703000Y5207000D01*
X36703000Y5227000D01*
X36957000Y5227000D01*
X36957000Y5207000D01*
G04 #@! TA.AperFunction,Conductor*
D20*
G36*
X36957000Y5207000D02*
G01*
X36977000Y5207000D01*
X36977000Y4953000D01*
X36957000Y4953000D01*
X36957000Y4933000D01*
X36703000Y4933000D01*
X36703000Y4953000D01*
X36683000Y4953000D01*
X36683000Y5207000D01*
X36703000Y5207000D01*
X36703000Y5227000D01*
X36957000Y5227000D01*
X36957000Y5207000D01*
G37*
G04 #@! TD.AperFunction*
D19*
X50916525Y6673368D02*
X51123368Y6466525D01*
X51297760Y6350000D01*
X51123368Y6233475D01*
X50916525Y6026632D01*
X50794805Y5844466D01*
X50725178Y5961355D01*
X50530269Y6177588D01*
X50300594Y6348900D01*
X50476632Y6466525D01*
X50683475Y6673368D01*
X50800000Y6847760D01*
X50916525Y6673368D01*
G04 #@! TA.AperFunction,Conductor*
D20*
G36*
X50916525Y6673368D02*
G01*
X51123368Y6466525D01*
X51297760Y6350000D01*
X51123368Y6233475D01*
X50916525Y6026632D01*
X50794805Y5844466D01*
X50725178Y5961355D01*
X50530269Y6177588D01*
X50300594Y6348900D01*
X50476632Y6466525D01*
X50683475Y6673368D01*
X50800000Y6847760D01*
X50916525Y6673368D01*
G37*
G04 #@! TD.AperFunction*
D19*
X36957000Y7747000D02*
X36977000Y7747000D01*
X36977000Y7493000D01*
X36957000Y7493000D01*
X36957000Y7473000D01*
X36703000Y7473000D01*
X36703000Y7493000D01*
X36683000Y7493000D01*
X36683000Y7747000D01*
X36703000Y7747000D01*
X36703000Y7767000D01*
X36957000Y7767000D01*
X36957000Y7747000D01*
G04 #@! TA.AperFunction,Conductor*
D20*
G36*
X36957000Y7747000D02*
G01*
X36977000Y7747000D01*
X36977000Y7493000D01*
X36957000Y7493000D01*
X36957000Y7473000D01*
X36703000Y7473000D01*
X36703000Y7493000D01*
X36683000Y7493000D01*
X36683000Y7747000D01*
X36703000Y7747000D01*
X36703000Y7767000D01*
X36957000Y7767000D01*
X36957000Y7747000D01*
G37*
G04 #@! TD.AperFunction*
D19*
X76087350Y22234514D02*
X76035000Y21957000D01*
X76035000Y21557000D01*
X77343000Y21557000D01*
X77343000Y21577000D01*
X77597000Y21577000D01*
X77597000Y21557000D01*
X77617000Y21557000D01*
X77617000Y21303000D01*
X77597000Y21303000D01*
X77597000Y19760085D01*
X77819039Y19638096D01*
X77901818Y19655633D01*
X78161646Y19766285D01*
X78394895Y19925500D01*
X78592601Y20127161D01*
X78742735Y20356742D01*
X78811068Y20228900D01*
X78990392Y20010393D01*
X79208899Y19831068D01*
X79458192Y19697818D01*
X79703852Y19623299D01*
X73242654Y13162100D01*
X69955835Y13162100D01*
X69994236Y13288691D01*
X70015000Y13499508D01*
X70015000Y14224133D01*
X71281727Y15490859D01*
X71313591Y15517009D01*
X71339745Y15548878D01*
X71350736Y15559868D01*
X71475241Y15435363D01*
X71710273Y15278320D01*
X71971426Y15170147D01*
X72248665Y15115000D01*
X72531335Y15115000D01*
X72808574Y15170147D01*
X73069727Y15278320D01*
X73304759Y15435363D01*
X73504637Y15635241D01*
X73661680Y15870273D01*
X73769853Y16131426D01*
X73825000Y16408665D01*
X73825000Y16691335D01*
X73769853Y16968574D01*
X73661680Y17229727D01*
X73504637Y17464759D01*
X73304759Y17664637D01*
X73104131Y17798692D01*
X73131514Y17813329D01*
X73203097Y18057298D01*
X72390000Y18870395D01*
X71576903Y18057298D01*
X71648486Y17813329D01*
X71677341Y17799676D01*
X71475241Y17664637D01*
X71275363Y17464759D01*
X71222070Y17385000D01*
X71201018Y17385000D01*
X71160000Y17389040D01*
X71118982Y17385000D01*
X71118981Y17385000D01*
X70996311Y17372918D01*
X70838913Y17325172D01*
X70693854Y17247636D01*
X70566709Y17143291D01*
X70540558Y17111426D01*
X70374432Y16945300D01*
X38775867Y16945300D01*
X38649746Y17071421D01*
X38623591Y17103291D01*
X38496446Y17207636D01*
X38351387Y17285172D01*
X38268027Y17310459D01*
X38255812Y17434482D01*
X38219502Y17554180D01*
X38160537Y17664494D01*
X38081185Y17761185D01*
X37984494Y17840537D01*
X37874180Y17899502D01*
X37754482Y17935812D01*
X37630000Y17948072D01*
X37622785Y17948072D01*
X37643097Y18017298D01*
X36830000Y18830395D01*
X36016903Y18017298D01*
X36037215Y17948072D01*
X36030000Y17948072D01*
X35905518Y17935812D01*
X35785820Y17899502D01*
X35675506Y17840537D01*
X35578815Y17761185D01*
X35499463Y17664494D01*
X35440498Y17554180D01*
X35404188Y17434482D01*
X35395375Y17345000D01*
X33262646Y17345000D01*
X35525221Y19607574D01*
X35472429Y19496004D01*
X35403700Y19221816D01*
X35389783Y18939488D01*
X35431213Y18659870D01*
X35526397Y18393708D01*
X35593329Y18268486D01*
X35837298Y18196903D01*
X36650395Y19010000D01*
X36636253Y19024142D01*
X36815858Y19203747D01*
X36830000Y19189605D01*
X36844143Y19203747D01*
X37023748Y19024142D01*
X37009605Y19010000D01*
X37822702Y18196903D01*
X38066671Y18268486D01*
X38187571Y18523996D01*
X38256300Y18798184D01*
X38265237Y18979488D01*
X70949783Y18979488D01*
X70991213Y18699870D01*
X71086397Y18433708D01*
X71153329Y18308486D01*
X71397298Y18236903D01*
X72210395Y19050000D01*
X72569605Y19050000D01*
X73382702Y18236903D01*
X73626671Y18308486D01*
X73747571Y18563996D01*
X73816300Y18838184D01*
X73830217Y19120512D01*
X73788787Y19400130D01*
X73693603Y19666292D01*
X73626671Y19791514D01*
X73382702Y19863097D01*
X72569605Y19050000D01*
X72210395Y19050000D01*
X71397298Y19863097D01*
X71153329Y19791514D01*
X71032429Y19536004D01*
X70963700Y19261816D01*
X70949783Y18979488D01*
X38265237Y18979488D01*
X38270217Y19080512D01*
X38228787Y19360130D01*
X38133603Y19626292D01*
X38066671Y19751514D01*
X37822704Y19823097D01*
X37910207Y19910600D01*
X50159195Y19910600D01*
X50195300Y19907044D01*
X50231405Y19910600D01*
X50339385Y19921235D01*
X50477933Y19963263D01*
X50605620Y20031513D01*
X50717538Y20123362D01*
X50740559Y20151412D01*
X51905000Y21315854D01*
X51905000Y21063000D01*
X51957350Y20785486D01*
X52062834Y20523517D01*
X52217399Y20287161D01*
X52415105Y20085500D01*
X52648354Y19926285D01*
X52908182Y19815633D01*
X52990961Y19798096D01*
X53213000Y19920085D01*
X53213000Y21463000D01*
X53193000Y21463000D01*
X53193000Y21717000D01*
X53213000Y21717000D01*
X53213000Y21737000D01*
X53467000Y21737000D01*
X53467000Y21717000D01*
X53487000Y21717000D01*
X53487000Y21463000D01*
X53467000Y21463000D01*
X53467000Y19920085D01*
X53689039Y19798096D01*
X53771818Y19815633D01*
X54031646Y19926285D01*
X54264895Y20085500D01*
X54325914Y20147740D01*
X54880546Y19593107D01*
X54903562Y19565062D01*
X55015480Y19473213D01*
X55143167Y19404963D01*
X55281715Y19362935D01*
X55389695Y19352300D01*
X55389704Y19352300D01*
X55425799Y19348745D01*
X55461894Y19352300D01*
X56342395Y19352300D01*
X56378500Y19348744D01*
X56414605Y19352300D01*
X56522585Y19362935D01*
X56661133Y19404963D01*
X56788820Y19473213D01*
X56900738Y19565062D01*
X56923758Y19593112D01*
X57455672Y20125025D01*
X57618899Y19991068D01*
X57695174Y19950298D01*
X57695635Y19945615D01*
X57737663Y19807067D01*
X57805913Y19679380D01*
X57897762Y19567462D01*
X58009680Y19475613D01*
X58137367Y19407363D01*
X58275915Y19365335D01*
X58383895Y19354700D01*
X58420000Y19351144D01*
X58456105Y19354700D01*
X61467447Y19354700D01*
X61541195Y19305423D01*
X61702255Y19238710D01*
X61873235Y19204700D01*
X62047565Y19204700D01*
X62218545Y19238710D01*
X62379605Y19305423D01*
X62524555Y19402276D01*
X62647824Y19525545D01*
X62744677Y19670495D01*
X62811390Y19831555D01*
X62829259Y19921389D01*
X62948192Y19857818D01*
X63218691Y19775764D01*
X63500000Y19748057D01*
X63781308Y19775764D01*
X64051807Y19857818D01*
X64301100Y19991068D01*
X64519607Y20170392D01*
X64698932Y20388899D01*
X64770000Y20521858D01*
X64841068Y20388900D01*
X65020392Y20170393D01*
X65238899Y19991068D01*
X65488192Y19857818D01*
X65758691Y19775764D01*
X66040000Y19748057D01*
X66321308Y19775764D01*
X66591807Y19857818D01*
X66841100Y19991068D01*
X67059607Y20170392D01*
X67152419Y20283483D01*
X67154188Y20265518D01*
X67190498Y20145820D01*
X67249463Y20035506D01*
X67328815Y19938815D01*
X67425506Y19859463D01*
X67535820Y19800498D01*
X67655518Y19764188D01*
X67780000Y19751928D01*
X69380000Y19751928D01*
X69504482Y19764188D01*
X69624180Y19800498D01*
X69734494Y19859463D01*
X69831185Y19938815D01*
X69910537Y20035506D01*
X69914383Y20042702D01*
X71576903Y20042702D01*
X72390000Y19229605D01*
X73203097Y20042702D01*
X73131514Y20286671D01*
X72876004Y20407571D01*
X72601816Y20476300D01*
X72319488Y20490217D01*
X72039870Y20448787D01*
X71773708Y20353603D01*
X71648486Y20286671D01*
X71576903Y20042702D01*
X69914383Y20042702D01*
X69969502Y20145820D01*
X70005812Y20265518D01*
X70018072Y20390000D01*
X70018072Y21303000D01*
X76035000Y21303000D01*
X76035000Y20903000D01*
X76087350Y20625486D01*
X76192834Y20363517D01*
X76347399Y20127161D01*
X76545105Y19925500D01*
X76778354Y19766285D01*
X77038182Y19655633D01*
X77120961Y19638096D01*
X77343000Y19760085D01*
X77343000Y21303000D01*
X76035000Y21303000D01*
X70018072Y21303000D01*
X70018072Y22355300D01*
X76135985Y22355300D01*
X76087350Y22234514D01*
G04 #@! TA.AperFunction,Conductor*
D20*
G36*
X76087350Y22234514D02*
G01*
X76035000Y21957000D01*
X76035000Y21557000D01*
X77343000Y21557000D01*
X77343000Y21577000D01*
X77597000Y21577000D01*
X77597000Y21557000D01*
X77617000Y21557000D01*
X77617000Y21303000D01*
X77597000Y21303000D01*
X77597000Y19760085D01*
X77819039Y19638096D01*
X77901818Y19655633D01*
X78161646Y19766285D01*
X78394895Y19925500D01*
X78592601Y20127161D01*
X78742735Y20356742D01*
X78811068Y20228900D01*
X78990392Y20010393D01*
X79208899Y19831068D01*
X79458192Y19697818D01*
X79703852Y19623299D01*
X73242654Y13162100D01*
X69955835Y13162100D01*
X69994236Y13288691D01*
X70015000Y13499508D01*
X70015000Y14224133D01*
X71281727Y15490859D01*
X71313591Y15517009D01*
X71339745Y15548878D01*
X71350736Y15559868D01*
X71475241Y15435363D01*
X71710273Y15278320D01*
X71971426Y15170147D01*
X72248665Y15115000D01*
X72531335Y15115000D01*
X72808574Y15170147D01*
X73069727Y15278320D01*
X73304759Y15435363D01*
X73504637Y15635241D01*
X73661680Y15870273D01*
X73769853Y16131426D01*
X73825000Y16408665D01*
X73825000Y16691335D01*
X73769853Y16968574D01*
X73661680Y17229727D01*
X73504637Y17464759D01*
X73304759Y17664637D01*
X73104131Y17798692D01*
X73131514Y17813329D01*
X73203097Y18057298D01*
X72390000Y18870395D01*
X71576903Y18057298D01*
X71648486Y17813329D01*
X71677341Y17799676D01*
X71475241Y17664637D01*
X71275363Y17464759D01*
X71222070Y17385000D01*
X71201018Y17385000D01*
X71160000Y17389040D01*
X71118982Y17385000D01*
X71118981Y17385000D01*
X70996311Y17372918D01*
X70838913Y17325172D01*
X70693854Y17247636D01*
X70566709Y17143291D01*
X70540558Y17111426D01*
X70374432Y16945300D01*
X38775867Y16945300D01*
X38649746Y17071421D01*
X38623591Y17103291D01*
X38496446Y17207636D01*
X38351387Y17285172D01*
X38268027Y17310459D01*
X38255812Y17434482D01*
X38219502Y17554180D01*
X38160537Y17664494D01*
X38081185Y17761185D01*
X37984494Y17840537D01*
X37874180Y17899502D01*
X37754482Y17935812D01*
X37630000Y17948072D01*
X37622785Y17948072D01*
X37643097Y18017298D01*
X36830000Y18830395D01*
X36016903Y18017298D01*
X36037215Y17948072D01*
X36030000Y17948072D01*
X35905518Y17935812D01*
X35785820Y17899502D01*
X35675506Y17840537D01*
X35578815Y17761185D01*
X35499463Y17664494D01*
X35440498Y17554180D01*
X35404188Y17434482D01*
X35395375Y17345000D01*
X33262646Y17345000D01*
X35525221Y19607574D01*
X35472429Y19496004D01*
X35403700Y19221816D01*
X35389783Y18939488D01*
X35431213Y18659870D01*
X35526397Y18393708D01*
X35593329Y18268486D01*
X35837298Y18196903D01*
X36650395Y19010000D01*
X36636253Y19024142D01*
X36815858Y19203747D01*
X36830000Y19189605D01*
X36844143Y19203747D01*
X37023748Y19024142D01*
X37009605Y19010000D01*
X37822702Y18196903D01*
X38066671Y18268486D01*
X38187571Y18523996D01*
X38256300Y18798184D01*
X38265237Y18979488D01*
X70949783Y18979488D01*
X70991213Y18699870D01*
X71086397Y18433708D01*
X71153329Y18308486D01*
X71397298Y18236903D01*
X72210395Y19050000D01*
X72569605Y19050000D01*
X73382702Y18236903D01*
X73626671Y18308486D01*
X73747571Y18563996D01*
X73816300Y18838184D01*
X73830217Y19120512D01*
X73788787Y19400130D01*
X73693603Y19666292D01*
X73626671Y19791514D01*
X73382702Y19863097D01*
X72569605Y19050000D01*
X72210395Y19050000D01*
X71397298Y19863097D01*
X71153329Y19791514D01*
X71032429Y19536004D01*
X70963700Y19261816D01*
X70949783Y18979488D01*
X38265237Y18979488D01*
X38270217Y19080512D01*
X38228787Y19360130D01*
X38133603Y19626292D01*
X38066671Y19751514D01*
X37822704Y19823097D01*
X37910207Y19910600D01*
X50159195Y19910600D01*
X50195300Y19907044D01*
X50231405Y19910600D01*
X50339385Y19921235D01*
X50477933Y19963263D01*
X50605620Y20031513D01*
X50717538Y20123362D01*
X50740559Y20151412D01*
X51905000Y21315854D01*
X51905000Y21063000D01*
X51957350Y20785486D01*
X52062834Y20523517D01*
X52217399Y20287161D01*
X52415105Y20085500D01*
X52648354Y19926285D01*
X52908182Y19815633D01*
X52990961Y19798096D01*
X53213000Y19920085D01*
X53213000Y21463000D01*
X53193000Y21463000D01*
X53193000Y21717000D01*
X53213000Y21717000D01*
X53213000Y21737000D01*
X53467000Y21737000D01*
X53467000Y21717000D01*
X53487000Y21717000D01*
X53487000Y21463000D01*
X53467000Y21463000D01*
X53467000Y19920085D01*
X53689039Y19798096D01*
X53771818Y19815633D01*
X54031646Y19926285D01*
X54264895Y20085500D01*
X54325914Y20147740D01*
X54880546Y19593107D01*
X54903562Y19565062D01*
X55015480Y19473213D01*
X55143167Y19404963D01*
X55281715Y19362935D01*
X55389695Y19352300D01*
X55389704Y19352300D01*
X55425799Y19348745D01*
X55461894Y19352300D01*
X56342395Y19352300D01*
X56378500Y19348744D01*
X56414605Y19352300D01*
X56522585Y19362935D01*
X56661133Y19404963D01*
X56788820Y19473213D01*
X56900738Y19565062D01*
X56923758Y19593112D01*
X57455672Y20125025D01*
X57618899Y19991068D01*
X57695174Y19950298D01*
X57695635Y19945615D01*
X57737663Y19807067D01*
X57805913Y19679380D01*
X57897762Y19567462D01*
X58009680Y19475613D01*
X58137367Y19407363D01*
X58275915Y19365335D01*
X58383895Y19354700D01*
X58420000Y19351144D01*
X58456105Y19354700D01*
X61467447Y19354700D01*
X61541195Y19305423D01*
X61702255Y19238710D01*
X61873235Y19204700D01*
X62047565Y19204700D01*
X62218545Y19238710D01*
X62379605Y19305423D01*
X62524555Y19402276D01*
X62647824Y19525545D01*
X62744677Y19670495D01*
X62811390Y19831555D01*
X62829259Y19921389D01*
X62948192Y19857818D01*
X63218691Y19775764D01*
X63500000Y19748057D01*
X63781308Y19775764D01*
X64051807Y19857818D01*
X64301100Y19991068D01*
X64519607Y20170392D01*
X64698932Y20388899D01*
X64770000Y20521858D01*
X64841068Y20388900D01*
X65020392Y20170393D01*
X65238899Y19991068D01*
X65488192Y19857818D01*
X65758691Y19775764D01*
X66040000Y19748057D01*
X66321308Y19775764D01*
X66591807Y19857818D01*
X66841100Y19991068D01*
X67059607Y20170392D01*
X67152419Y20283483D01*
X67154188Y20265518D01*
X67190498Y20145820D01*
X67249463Y20035506D01*
X67328815Y19938815D01*
X67425506Y19859463D01*
X67535820Y19800498D01*
X67655518Y19764188D01*
X67780000Y19751928D01*
X69380000Y19751928D01*
X69504482Y19764188D01*
X69624180Y19800498D01*
X69734494Y19859463D01*
X69831185Y19938815D01*
X69910537Y20035506D01*
X69914383Y20042702D01*
X71576903Y20042702D01*
X72390000Y19229605D01*
X73203097Y20042702D01*
X73131514Y20286671D01*
X72876004Y20407571D01*
X72601816Y20476300D01*
X72319488Y20490217D01*
X72039870Y20448787D01*
X71773708Y20353603D01*
X71648486Y20286671D01*
X71576903Y20042702D01*
X69914383Y20042702D01*
X69969502Y20145820D01*
X70005812Y20265518D01*
X70018072Y20390000D01*
X70018072Y21303000D01*
X76035000Y21303000D01*
X76035000Y20903000D01*
X76087350Y20625486D01*
X76192834Y20363517D01*
X76347399Y20127161D01*
X76545105Y19925500D01*
X76778354Y19766285D01*
X77038182Y19655633D01*
X77120961Y19638096D01*
X77343000Y19760085D01*
X77343000Y21303000D01*
X76035000Y21303000D01*
X70018072Y21303000D01*
X70018072Y22355300D01*
X76135985Y22355300D01*
X76087350Y22234514D01*
G37*
G04 #@! TD.AperFunction*
D19*
X35379715Y21369965D02*
X35241166Y21327937D01*
X35162551Y21285916D01*
X35113480Y21259687D01*
X35001562Y21167838D01*
X34978546Y21139793D01*
X32333754Y18495000D01*
X31823851Y18495000D01*
X31837571Y18523996D01*
X31906300Y18798184D01*
X31920217Y19080512D01*
X31878787Y19360130D01*
X31783603Y19626292D01*
X31716671Y19751514D01*
X31472702Y19823097D01*
X30659605Y19010000D01*
X30673748Y18995857D01*
X30494143Y18816252D01*
X30480000Y18830395D01*
X30465858Y18816252D01*
X30286253Y18995857D01*
X30300395Y19010000D01*
X30286253Y19024142D01*
X30465858Y19203747D01*
X30480000Y19189605D01*
X31293097Y20002702D01*
X31221514Y20246671D01*
X30966004Y20367571D01*
X30691816Y20436300D01*
X30451969Y20448123D01*
X31377247Y21373400D01*
X35414591Y21373400D01*
X35379715Y21369965D01*
G04 #@! TA.AperFunction,Conductor*
D20*
G36*
X35379715Y21369965D02*
G01*
X35241166Y21327937D01*
X35162551Y21285916D01*
X35113480Y21259687D01*
X35001562Y21167838D01*
X34978546Y21139793D01*
X32333754Y18495000D01*
X31823851Y18495000D01*
X31837571Y18523996D01*
X31906300Y18798184D01*
X31920217Y19080512D01*
X31878787Y19360130D01*
X31783603Y19626292D01*
X31716671Y19751514D01*
X31472702Y19823097D01*
X30659605Y19010000D01*
X30673748Y18995857D01*
X30494143Y18816252D01*
X30480000Y18830395D01*
X30465858Y18816252D01*
X30286253Y18995857D01*
X30300395Y19010000D01*
X30286253Y19024142D01*
X30465858Y19203747D01*
X30480000Y19189605D01*
X31293097Y20002702D01*
X31221514Y20246671D01*
X30966004Y20367571D01*
X30691816Y20436300D01*
X30451969Y20448123D01*
X31377247Y21373400D01*
X35414591Y21373400D01*
X35379715Y21369965D01*
G37*
G04 #@! TD.AperFunction*
D19*
X44285000Y34817000D02*
X44285000Y34417000D01*
X45593000Y34417000D01*
X45593000Y34437000D01*
X45847000Y34437000D01*
X45847000Y34417000D01*
X45867000Y34417000D01*
X45867000Y34163000D01*
X45847000Y34163000D01*
X45847000Y34143000D01*
X45593000Y34143000D01*
X45593000Y34163000D01*
X44285000Y34163000D01*
X44285000Y33763000D01*
X44329953Y33524700D01*
X34326894Y33524700D01*
X34290799Y33528255D01*
X34254704Y33524700D01*
X34254695Y33524700D01*
X34146715Y33514065D01*
X34008167Y33472037D01*
X33880480Y33403787D01*
X33768562Y33311938D01*
X33745546Y33283893D01*
X31888391Y31426737D01*
X31906300Y31498184D01*
X31920217Y31780512D01*
X31878787Y32060130D01*
X31783603Y32326292D01*
X31716671Y32451514D01*
X31472702Y32523097D01*
X30659605Y31710000D01*
X30673748Y31695857D01*
X30494143Y31516252D01*
X30480000Y31530395D01*
X30465858Y31516252D01*
X30286253Y31695857D01*
X30300395Y31710000D01*
X30286253Y31724142D01*
X30465858Y31903747D01*
X30480000Y31889605D01*
X31293097Y32702702D01*
X31221514Y32946671D01*
X31166058Y32972911D01*
X33248447Y35055300D01*
X44329953Y35055300D01*
X44285000Y34817000D01*
G04 #@! TA.AperFunction,Conductor*
D20*
G36*
X44285000Y34817000D02*
G01*
X44285000Y34417000D01*
X45593000Y34417000D01*
X45593000Y34437000D01*
X45847000Y34437000D01*
X45847000Y34417000D01*
X45867000Y34417000D01*
X45867000Y34163000D01*
X45847000Y34163000D01*
X45847000Y34143000D01*
X45593000Y34143000D01*
X45593000Y34163000D01*
X44285000Y34163000D01*
X44285000Y33763000D01*
X44329953Y33524700D01*
X34326894Y33524700D01*
X34290799Y33528255D01*
X34254704Y33524700D01*
X34254695Y33524700D01*
X34146715Y33514065D01*
X34008167Y33472037D01*
X33880480Y33403787D01*
X33768562Y33311938D01*
X33745546Y33283893D01*
X31888391Y31426737D01*
X31906300Y31498184D01*
X31920217Y31780512D01*
X31878787Y32060130D01*
X31783603Y32326292D01*
X31716671Y32451514D01*
X31472702Y32523097D01*
X30659605Y31710000D01*
X30673748Y31695857D01*
X30494143Y31516252D01*
X30480000Y31530395D01*
X30465858Y31516252D01*
X30286253Y31695857D01*
X30300395Y31710000D01*
X30286253Y31724142D01*
X30465858Y31903747D01*
X30480000Y31889605D01*
X31293097Y32702702D01*
X31221514Y32946671D01*
X31166058Y32972911D01*
X33248447Y35055300D01*
X44329953Y35055300D01*
X44285000Y34817000D01*
G37*
G04 #@! TD.AperFunction*
D19*
X34125000Y55137000D02*
X34125000Y54737000D01*
X35433000Y54737000D01*
X35433000Y54757000D01*
X35687000Y54757000D01*
X35687000Y54737000D01*
X35707000Y54737000D01*
X35707000Y54483000D01*
X35687000Y54483000D01*
X35687000Y52940085D01*
X35909039Y52818096D01*
X35991818Y52835633D01*
X36251646Y52946285D01*
X36484895Y53105500D01*
X36682601Y53307161D01*
X36832735Y53536742D01*
X36901068Y53408900D01*
X37080392Y53190393D01*
X37298899Y53011068D01*
X37548192Y52877818D01*
X37818691Y52795764D01*
X38100000Y52768057D01*
X38381308Y52795764D01*
X38651807Y52877818D01*
X38901100Y53011068D01*
X39119607Y53190392D01*
X39298932Y53408899D01*
X39370000Y53541858D01*
X39441068Y53408900D01*
X39620392Y53190393D01*
X39838899Y53011068D01*
X40088192Y52877818D01*
X40358691Y52795764D01*
X40640000Y52768057D01*
X40921308Y52795764D01*
X41191807Y52877818D01*
X41441100Y53011068D01*
X41659607Y53190392D01*
X41838932Y53408899D01*
X41910000Y53541858D01*
X41981068Y53408900D01*
X42160392Y53190393D01*
X42378899Y53011068D01*
X42628192Y52877818D01*
X42898691Y52795764D01*
X43180000Y52768057D01*
X43461308Y52795764D01*
X43731807Y52877818D01*
X43981100Y53011068D01*
X44199607Y53190392D01*
X44378932Y53408899D01*
X44450000Y53541858D01*
X44521068Y53408900D01*
X44700392Y53190393D01*
X44918899Y53011068D01*
X45168192Y52877818D01*
X45438691Y52795764D01*
X45720000Y52768057D01*
X46001308Y52795764D01*
X46271807Y52877818D01*
X46521100Y53011068D01*
X46739607Y53190392D01*
X46918932Y53408899D01*
X46990000Y53541858D01*
X47061068Y53408900D01*
X47240392Y53190393D01*
X47458899Y53011068D01*
X47708192Y52877818D01*
X47978691Y52795764D01*
X48260000Y52768057D01*
X48541308Y52795764D01*
X48811807Y52877818D01*
X49061100Y53011068D01*
X49279607Y53190392D01*
X49458932Y53408899D01*
X49530000Y53541858D01*
X49601068Y53408900D01*
X49780392Y53190393D01*
X49998899Y53011068D01*
X50248192Y52877818D01*
X50518691Y52795764D01*
X50800000Y52768057D01*
X51081308Y52795764D01*
X51351807Y52877818D01*
X51601100Y53011068D01*
X51819607Y53190392D01*
X51998932Y53408899D01*
X52070000Y53541858D01*
X52141068Y53408900D01*
X52320392Y53190393D01*
X52538899Y53011068D01*
X52788192Y52877818D01*
X53058691Y52795764D01*
X53340000Y52768057D01*
X53621308Y52795764D01*
X53891807Y52877818D01*
X54141100Y53011068D01*
X54359607Y53190392D01*
X54538932Y53408899D01*
X54610000Y53541858D01*
X54681068Y53408900D01*
X54860392Y53190393D01*
X55078899Y53011068D01*
X55328192Y52877818D01*
X55598691Y52795764D01*
X55880000Y52768057D01*
X56161308Y52795764D01*
X56431807Y52877818D01*
X56681100Y53011068D01*
X56899607Y53190392D01*
X57078932Y53408899D01*
X57150000Y53541858D01*
X57221068Y53408900D01*
X57400392Y53190393D01*
X57618899Y53011068D01*
X57868192Y52877818D01*
X58138691Y52795764D01*
X58420000Y52768057D01*
X58701308Y52795764D01*
X58971807Y52877818D01*
X59221100Y53011068D01*
X59439607Y53190392D01*
X59618932Y53408899D01*
X59690000Y53541858D01*
X59761068Y53408900D01*
X59940392Y53190393D01*
X59973816Y53162963D01*
X56797508Y49986654D01*
X56769462Y49963637D01*
X56677613Y49851719D01*
X56609363Y49724032D01*
X56590005Y49660217D01*
X56567335Y49585485D01*
X56553144Y49441400D01*
X56556700Y49405295D01*
X56556701Y41035425D01*
X56431808Y41102182D01*
X56161309Y41184236D01*
X55880000Y41211943D01*
X55598692Y41184236D01*
X55328193Y41102182D01*
X55078900Y40968932D01*
X54860393Y40789608D01*
X54681068Y40571101D01*
X54612735Y40443259D01*
X54462601Y40672839D01*
X54264895Y40874500D01*
X54031646Y41033715D01*
X53771818Y41144367D01*
X53689039Y41161904D01*
X53467000Y41039915D01*
X53467000Y39497000D01*
X53487000Y39497000D01*
X53487000Y39243000D01*
X53467000Y39243000D01*
X53467000Y39223000D01*
X53213000Y39223000D01*
X53213000Y39243000D01*
X53193000Y39243000D01*
X53193000Y39497000D01*
X53213000Y39497000D01*
X53213000Y41039915D01*
X52990961Y41161904D01*
X52908182Y41144367D01*
X52648354Y41033715D01*
X52415105Y40874500D01*
X52217399Y40672839D01*
X52067265Y40443259D01*
X51998932Y40571101D01*
X51819608Y40789608D01*
X51601101Y40968932D01*
X51351808Y41102182D01*
X51081309Y41184236D01*
X50800000Y41211943D01*
X50518692Y41184236D01*
X50248193Y41102182D01*
X49998900Y40968932D01*
X49780393Y40789608D01*
X49601068Y40571101D01*
X49532735Y40443259D01*
X49382601Y40672839D01*
X49184895Y40874500D01*
X48951646Y41033715D01*
X48691818Y41144367D01*
X48609039Y41161904D01*
X48387000Y41039915D01*
X48387000Y39497000D01*
X48407000Y39497000D01*
X48407000Y39243000D01*
X48387000Y39243000D01*
X48387000Y39223000D01*
X48133000Y39223000D01*
X48133000Y39243000D01*
X48113000Y39243000D01*
X48113000Y39497000D01*
X48133000Y39497000D01*
X48133000Y41039915D01*
X47910961Y41161904D01*
X47828182Y41144367D01*
X47568354Y41033715D01*
X47335105Y40874500D01*
X47137399Y40672839D01*
X46987265Y40443259D01*
X46918932Y40571101D01*
X46739608Y40789608D01*
X46521101Y40968932D01*
X46271808Y41102182D01*
X46001309Y41184236D01*
X45720000Y41211943D01*
X45438692Y41184236D01*
X45168193Y41102182D01*
X44918900Y40968932D01*
X44700393Y40789608D01*
X44521068Y40571101D01*
X44450000Y40438142D01*
X44378932Y40571101D01*
X44199608Y40789608D01*
X43981101Y40968932D01*
X43731808Y41102182D01*
X43461309Y41184236D01*
X43180000Y41211943D01*
X42898692Y41184236D01*
X42628193Y41102182D01*
X42378900Y40968932D01*
X42160393Y40789608D01*
X41981068Y40571101D01*
X41910000Y40438142D01*
X41838932Y40571101D01*
X41659608Y40789608D01*
X41441101Y40968932D01*
X41191808Y41102182D01*
X40921309Y41184236D01*
X40640000Y41211943D01*
X40358692Y41184236D01*
X40088193Y41102182D01*
X39838900Y40968932D01*
X39620393Y40789608D01*
X39441068Y40571101D01*
X39370000Y40438142D01*
X39298932Y40571101D01*
X39119608Y40789608D01*
X38901101Y40968932D01*
X38651808Y41102182D01*
X38381309Y41184236D01*
X38100000Y41211943D01*
X37818692Y41184236D01*
X37548193Y41102182D01*
X37298900Y40968932D01*
X37080393Y40789608D01*
X36901068Y40571101D01*
X36830000Y40438142D01*
X36758932Y40571101D01*
X36579608Y40789608D01*
X36361101Y40968932D01*
X36111808Y41102182D01*
X35841309Y41184236D01*
X35560000Y41211943D01*
X35278692Y41184236D01*
X35008193Y41102182D01*
X34758900Y40968932D01*
X34540393Y40789608D01*
X34361068Y40571101D01*
X34227818Y40321808D01*
X34145764Y40051309D01*
X34125000Y39840492D01*
X34125000Y38899509D01*
X34145764Y38688692D01*
X34171242Y38604700D01*
X21131753Y38604700D01*
X21058005Y38653977D01*
X20896945Y38720690D01*
X20725965Y38754700D01*
X20551635Y38754700D01*
X20380655Y38720690D01*
X20219595Y38653977D01*
X20074645Y38557124D01*
X19951376Y38433855D01*
X19854523Y38288905D01*
X19787810Y38127845D01*
X19753800Y37956865D01*
X19753800Y37782535D01*
X19787810Y37611555D01*
X19854523Y37450495D01*
X19951376Y37305545D01*
X20074645Y37182276D01*
X20219595Y37085423D01*
X20380655Y37018710D01*
X20551635Y36984700D01*
X20725965Y36984700D01*
X20896945Y37018710D01*
X21058005Y37085423D01*
X21131753Y37134700D01*
X30984353Y37134700D01*
X28108072Y34258418D01*
X28108072Y35490000D01*
X28095812Y35614482D01*
X28059502Y35734180D01*
X28000537Y35844494D01*
X27921185Y35941185D01*
X27824494Y36020537D01*
X27714180Y36079502D01*
X27594482Y36115812D01*
X27470459Y36128027D01*
X27445172Y36211387D01*
X27367636Y36356446D01*
X27263291Y36483591D01*
X27136146Y36587936D01*
X26991087Y36665472D01*
X26833689Y36713218D01*
X26711019Y36725300D01*
X26670000Y36729340D01*
X26628982Y36725300D01*
X17186168Y36725300D01*
X12710046Y41201421D01*
X12683891Y41233291D01*
X12556746Y41337636D01*
X12411687Y41415172D01*
X12254289Y41462918D01*
X12131619Y41475000D01*
X12131618Y41475000D01*
X12090600Y41479040D01*
X12049582Y41475000D01*
X11648072Y41475000D01*
X11648072Y41490000D01*
X11635812Y41614482D01*
X11599502Y41734180D01*
X11540537Y41844494D01*
X11461185Y41941185D01*
X11364494Y42020537D01*
X11254180Y42079502D01*
X11181620Y42101513D01*
X11313475Y42233368D01*
X11475990Y42476589D01*
X11587932Y42746842D01*
X11645000Y43033740D01*
X11645000Y43326260D01*
X11587932Y43613158D01*
X11475990Y43883411D01*
X11313475Y44126632D01*
X11106632Y44333475D01*
X10863411Y44495990D01*
X10593158Y44607932D01*
X10306260Y44665000D01*
X10013740Y44665000D01*
X9726842Y44607932D01*
X9456589Y44495990D01*
X9213368Y44333475D01*
X9006525Y44126632D01*
X8844010Y43883411D01*
X8732068Y43613158D01*
X8675000Y43326260D01*
X8675000Y43033740D01*
X8732068Y42746842D01*
X8844010Y42476589D01*
X9006525Y42233368D01*
X9138380Y42101513D01*
X9065820Y42079502D01*
X8955506Y42020537D01*
X8858815Y41941185D01*
X8779463Y41844494D01*
X8720498Y41734180D01*
X8684188Y41614482D01*
X8671928Y41490000D01*
X8671928Y39790000D01*
X8684188Y39665518D01*
X8720498Y39545820D01*
X8779463Y39435506D01*
X8858815Y39338815D01*
X8955506Y39259463D01*
X9065820Y39200498D01*
X9185518Y39164188D01*
X9310000Y39151928D01*
X11010000Y39151928D01*
X11134482Y39164188D01*
X11254180Y39200498D01*
X11364494Y39259463D01*
X11461185Y39338815D01*
X11540537Y39435506D01*
X11599502Y39545820D01*
X11635812Y39665518D01*
X11648072Y39790000D01*
X11648072Y39805000D01*
X11744733Y39805000D01*
X15682481Y35867251D01*
X15490393Y35709608D01*
X15311068Y35491101D01*
X15240000Y35358142D01*
X15168932Y35491101D01*
X14989608Y35709608D01*
X14771101Y35888932D01*
X14521808Y36022182D01*
X14251309Y36104236D01*
X13970000Y36131943D01*
X13688692Y36104236D01*
X13418193Y36022182D01*
X13168900Y35888932D01*
X12950393Y35709608D01*
X12771068Y35491101D01*
X12700000Y35358142D01*
X12628932Y35491101D01*
X12449608Y35709608D01*
X12231101Y35888932D01*
X11981808Y36022182D01*
X11711309Y36104236D01*
X11430000Y36131943D01*
X11148692Y36104236D01*
X10878193Y36022182D01*
X10628900Y35888932D01*
X10410393Y35709608D01*
X10231068Y35491101D01*
X10160000Y35358142D01*
X10088932Y35491101D01*
X9909608Y35709608D01*
X9691101Y35888932D01*
X9441808Y36022182D01*
X9171309Y36104236D01*
X8890000Y36131943D01*
X8608692Y36104236D01*
X8355000Y36027280D01*
X8355000Y44145554D01*
X18692446Y54483000D01*
X34125000Y54483000D01*
X34125000Y54083000D01*
X34177350Y53805486D01*
X34282834Y53543517D01*
X34437399Y53307161D01*
X34635105Y53105500D01*
X34868354Y52946285D01*
X35128182Y52835633D01*
X35210961Y52818096D01*
X35433000Y52940085D01*
X35433000Y54483000D01*
X34125000Y54483000D01*
X18692446Y54483000D01*
X19584747Y55375300D01*
X34169953Y55375300D01*
X34125000Y55137000D01*
G04 #@! TA.AperFunction,Conductor*
D20*
G36*
X34125000Y55137000D02*
G01*
X34125000Y54737000D01*
X35433000Y54737000D01*
X35433000Y54757000D01*
X35687000Y54757000D01*
X35687000Y54737000D01*
X35707000Y54737000D01*
X35707000Y54483000D01*
X35687000Y54483000D01*
X35687000Y52940085D01*
X35909039Y52818096D01*
X35991818Y52835633D01*
X36251646Y52946285D01*
X36484895Y53105500D01*
X36682601Y53307161D01*
X36832735Y53536742D01*
X36901068Y53408900D01*
X37080392Y53190393D01*
X37298899Y53011068D01*
X37548192Y52877818D01*
X37818691Y52795764D01*
X38100000Y52768057D01*
X38381308Y52795764D01*
X38651807Y52877818D01*
X38901100Y53011068D01*
X39119607Y53190392D01*
X39298932Y53408899D01*
X39370000Y53541858D01*
X39441068Y53408900D01*
X39620392Y53190393D01*
X39838899Y53011068D01*
X40088192Y52877818D01*
X40358691Y52795764D01*
X40640000Y52768057D01*
X40921308Y52795764D01*
X41191807Y52877818D01*
X41441100Y53011068D01*
X41659607Y53190392D01*
X41838932Y53408899D01*
X41910000Y53541858D01*
X41981068Y53408900D01*
X42160392Y53190393D01*
X42378899Y53011068D01*
X42628192Y52877818D01*
X42898691Y52795764D01*
X43180000Y52768057D01*
X43461308Y52795764D01*
X43731807Y52877818D01*
X43981100Y53011068D01*
X44199607Y53190392D01*
X44378932Y53408899D01*
X44450000Y53541858D01*
X44521068Y53408900D01*
X44700392Y53190393D01*
X44918899Y53011068D01*
X45168192Y52877818D01*
X45438691Y52795764D01*
X45720000Y52768057D01*
X46001308Y52795764D01*
X46271807Y52877818D01*
X46521100Y53011068D01*
X46739607Y53190392D01*
X46918932Y53408899D01*
X46990000Y53541858D01*
X47061068Y53408900D01*
X47240392Y53190393D01*
X47458899Y53011068D01*
X47708192Y52877818D01*
X47978691Y52795764D01*
X48260000Y52768057D01*
X48541308Y52795764D01*
X48811807Y52877818D01*
X49061100Y53011068D01*
X49279607Y53190392D01*
X49458932Y53408899D01*
X49530000Y53541858D01*
X49601068Y53408900D01*
X49780392Y53190393D01*
X49998899Y53011068D01*
X50248192Y52877818D01*
X50518691Y52795764D01*
X50800000Y52768057D01*
X51081308Y52795764D01*
X51351807Y52877818D01*
X51601100Y53011068D01*
X51819607Y53190392D01*
X51998932Y53408899D01*
X52070000Y53541858D01*
X52141068Y53408900D01*
X52320392Y53190393D01*
X52538899Y53011068D01*
X52788192Y52877818D01*
X53058691Y52795764D01*
X53340000Y52768057D01*
X53621308Y52795764D01*
X53891807Y52877818D01*
X54141100Y53011068D01*
X54359607Y53190392D01*
X54538932Y53408899D01*
X54610000Y53541858D01*
X54681068Y53408900D01*
X54860392Y53190393D01*
X55078899Y53011068D01*
X55328192Y52877818D01*
X55598691Y52795764D01*
X55880000Y52768057D01*
X56161308Y52795764D01*
X56431807Y52877818D01*
X56681100Y53011068D01*
X56899607Y53190392D01*
X57078932Y53408899D01*
X57150000Y53541858D01*
X57221068Y53408900D01*
X57400392Y53190393D01*
X57618899Y53011068D01*
X57868192Y52877818D01*
X58138691Y52795764D01*
X58420000Y52768057D01*
X58701308Y52795764D01*
X58971807Y52877818D01*
X59221100Y53011068D01*
X59439607Y53190392D01*
X59618932Y53408899D01*
X59690000Y53541858D01*
X59761068Y53408900D01*
X59940392Y53190393D01*
X59973816Y53162963D01*
X56797508Y49986654D01*
X56769462Y49963637D01*
X56677613Y49851719D01*
X56609363Y49724032D01*
X56590005Y49660217D01*
X56567335Y49585485D01*
X56553144Y49441400D01*
X56556700Y49405295D01*
X56556701Y41035425D01*
X56431808Y41102182D01*
X56161309Y41184236D01*
X55880000Y41211943D01*
X55598692Y41184236D01*
X55328193Y41102182D01*
X55078900Y40968932D01*
X54860393Y40789608D01*
X54681068Y40571101D01*
X54612735Y40443259D01*
X54462601Y40672839D01*
X54264895Y40874500D01*
X54031646Y41033715D01*
X53771818Y41144367D01*
X53689039Y41161904D01*
X53467000Y41039915D01*
X53467000Y39497000D01*
X53487000Y39497000D01*
X53487000Y39243000D01*
X53467000Y39243000D01*
X53467000Y39223000D01*
X53213000Y39223000D01*
X53213000Y39243000D01*
X53193000Y39243000D01*
X53193000Y39497000D01*
X53213000Y39497000D01*
X53213000Y41039915D01*
X52990961Y41161904D01*
X52908182Y41144367D01*
X52648354Y41033715D01*
X52415105Y40874500D01*
X52217399Y40672839D01*
X52067265Y40443259D01*
X51998932Y40571101D01*
X51819608Y40789608D01*
X51601101Y40968932D01*
X51351808Y41102182D01*
X51081309Y41184236D01*
X50800000Y41211943D01*
X50518692Y41184236D01*
X50248193Y41102182D01*
X49998900Y40968932D01*
X49780393Y40789608D01*
X49601068Y40571101D01*
X49532735Y40443259D01*
X49382601Y40672839D01*
X49184895Y40874500D01*
X48951646Y41033715D01*
X48691818Y41144367D01*
X48609039Y41161904D01*
X48387000Y41039915D01*
X48387000Y39497000D01*
X48407000Y39497000D01*
X48407000Y39243000D01*
X48387000Y39243000D01*
X48387000Y39223000D01*
X48133000Y39223000D01*
X48133000Y39243000D01*
X48113000Y39243000D01*
X48113000Y39497000D01*
X48133000Y39497000D01*
X48133000Y41039915D01*
X47910961Y41161904D01*
X47828182Y41144367D01*
X47568354Y41033715D01*
X47335105Y40874500D01*
X47137399Y40672839D01*
X46987265Y40443259D01*
X46918932Y40571101D01*
X46739608Y40789608D01*
X46521101Y40968932D01*
X46271808Y41102182D01*
X46001309Y41184236D01*
X45720000Y41211943D01*
X45438692Y41184236D01*
X45168193Y41102182D01*
X44918900Y40968932D01*
X44700393Y40789608D01*
X44521068Y40571101D01*
X44450000Y40438142D01*
X44378932Y40571101D01*
X44199608Y40789608D01*
X43981101Y40968932D01*
X43731808Y41102182D01*
X43461309Y41184236D01*
X43180000Y41211943D01*
X42898692Y41184236D01*
X42628193Y41102182D01*
X42378900Y40968932D01*
X42160393Y40789608D01*
X41981068Y40571101D01*
X41910000Y40438142D01*
X41838932Y40571101D01*
X41659608Y40789608D01*
X41441101Y40968932D01*
X41191808Y41102182D01*
X40921309Y41184236D01*
X40640000Y41211943D01*
X40358692Y41184236D01*
X40088193Y41102182D01*
X39838900Y40968932D01*
X39620393Y40789608D01*
X39441068Y40571101D01*
X39370000Y40438142D01*
X39298932Y40571101D01*
X39119608Y40789608D01*
X38901101Y40968932D01*
X38651808Y41102182D01*
X38381309Y41184236D01*
X38100000Y41211943D01*
X37818692Y41184236D01*
X37548193Y41102182D01*
X37298900Y40968932D01*
X37080393Y40789608D01*
X36901068Y40571101D01*
X36830000Y40438142D01*
X36758932Y40571101D01*
X36579608Y40789608D01*
X36361101Y40968932D01*
X36111808Y41102182D01*
X35841309Y41184236D01*
X35560000Y41211943D01*
X35278692Y41184236D01*
X35008193Y41102182D01*
X34758900Y40968932D01*
X34540393Y40789608D01*
X34361068Y40571101D01*
X34227818Y40321808D01*
X34145764Y40051309D01*
X34125000Y39840492D01*
X34125000Y38899509D01*
X34145764Y38688692D01*
X34171242Y38604700D01*
X21131753Y38604700D01*
X21058005Y38653977D01*
X20896945Y38720690D01*
X20725965Y38754700D01*
X20551635Y38754700D01*
X20380655Y38720690D01*
X20219595Y38653977D01*
X20074645Y38557124D01*
X19951376Y38433855D01*
X19854523Y38288905D01*
X19787810Y38127845D01*
X19753800Y37956865D01*
X19753800Y37782535D01*
X19787810Y37611555D01*
X19854523Y37450495D01*
X19951376Y37305545D01*
X20074645Y37182276D01*
X20219595Y37085423D01*
X20380655Y37018710D01*
X20551635Y36984700D01*
X20725965Y36984700D01*
X20896945Y37018710D01*
X21058005Y37085423D01*
X21131753Y37134700D01*
X30984353Y37134700D01*
X28108072Y34258418D01*
X28108072Y35490000D01*
X28095812Y35614482D01*
X28059502Y35734180D01*
X28000537Y35844494D01*
X27921185Y35941185D01*
X27824494Y36020537D01*
X27714180Y36079502D01*
X27594482Y36115812D01*
X27470459Y36128027D01*
X27445172Y36211387D01*
X27367636Y36356446D01*
X27263291Y36483591D01*
X27136146Y36587936D01*
X26991087Y36665472D01*
X26833689Y36713218D01*
X26711019Y36725300D01*
X26670000Y36729340D01*
X26628982Y36725300D01*
X17186168Y36725300D01*
X12710046Y41201421D01*
X12683891Y41233291D01*
X12556746Y41337636D01*
X12411687Y41415172D01*
X12254289Y41462918D01*
X12131619Y41475000D01*
X12131618Y41475000D01*
X12090600Y41479040D01*
X12049582Y41475000D01*
X11648072Y41475000D01*
X11648072Y41490000D01*
X11635812Y41614482D01*
X11599502Y41734180D01*
X11540537Y41844494D01*
X11461185Y41941185D01*
X11364494Y42020537D01*
X11254180Y42079502D01*
X11181620Y42101513D01*
X11313475Y42233368D01*
X11475990Y42476589D01*
X11587932Y42746842D01*
X11645000Y43033740D01*
X11645000Y43326260D01*
X11587932Y43613158D01*
X11475990Y43883411D01*
X11313475Y44126632D01*
X11106632Y44333475D01*
X10863411Y44495990D01*
X10593158Y44607932D01*
X10306260Y44665000D01*
X10013740Y44665000D01*
X9726842Y44607932D01*
X9456589Y44495990D01*
X9213368Y44333475D01*
X9006525Y44126632D01*
X8844010Y43883411D01*
X8732068Y43613158D01*
X8675000Y43326260D01*
X8675000Y43033740D01*
X8732068Y42746842D01*
X8844010Y42476589D01*
X9006525Y42233368D01*
X9138380Y42101513D01*
X9065820Y42079502D01*
X8955506Y42020537D01*
X8858815Y41941185D01*
X8779463Y41844494D01*
X8720498Y41734180D01*
X8684188Y41614482D01*
X8671928Y41490000D01*
X8671928Y39790000D01*
X8684188Y39665518D01*
X8720498Y39545820D01*
X8779463Y39435506D01*
X8858815Y39338815D01*
X8955506Y39259463D01*
X9065820Y39200498D01*
X9185518Y39164188D01*
X9310000Y39151928D01*
X11010000Y39151928D01*
X11134482Y39164188D01*
X11254180Y39200498D01*
X11364494Y39259463D01*
X11461185Y39338815D01*
X11540537Y39435506D01*
X11599502Y39545820D01*
X11635812Y39665518D01*
X11648072Y39790000D01*
X11648072Y39805000D01*
X11744733Y39805000D01*
X15682481Y35867251D01*
X15490393Y35709608D01*
X15311068Y35491101D01*
X15240000Y35358142D01*
X15168932Y35491101D01*
X14989608Y35709608D01*
X14771101Y35888932D01*
X14521808Y36022182D01*
X14251309Y36104236D01*
X13970000Y36131943D01*
X13688692Y36104236D01*
X13418193Y36022182D01*
X13168900Y35888932D01*
X12950393Y35709608D01*
X12771068Y35491101D01*
X12700000Y35358142D01*
X12628932Y35491101D01*
X12449608Y35709608D01*
X12231101Y35888932D01*
X11981808Y36022182D01*
X11711309Y36104236D01*
X11430000Y36131943D01*
X11148692Y36104236D01*
X10878193Y36022182D01*
X10628900Y35888932D01*
X10410393Y35709608D01*
X10231068Y35491101D01*
X10160000Y35358142D01*
X10088932Y35491101D01*
X9909608Y35709608D01*
X9691101Y35888932D01*
X9441808Y36022182D01*
X9171309Y36104236D01*
X8890000Y36131943D01*
X8608692Y36104236D01*
X8355000Y36027280D01*
X8355000Y44145554D01*
X18692446Y54483000D01*
X34125000Y54483000D01*
X34125000Y54083000D01*
X34177350Y53805486D01*
X34282834Y53543517D01*
X34437399Y53307161D01*
X34635105Y53105500D01*
X34868354Y52946285D01*
X35128182Y52835633D01*
X35210961Y52818096D01*
X35433000Y52940085D01*
X35433000Y54483000D01*
X34125000Y54483000D01*
X18692446Y54483000D01*
X19584747Y55375300D01*
X34169953Y55375300D01*
X34125000Y55137000D01*
G37*
G04 #@! TD.AperFunction*
M02*
