G04 #@! TF.GenerationSoftware,KiCad,Pcbnew,(5.1.9)-1*
G04 #@! TF.CreationDate,2025-08-03T17:29:21+09:00*
G04 #@! TF.ProjectId,PASOPIA7_SD_ROM,5041534f-5049-4413-975f-53445f524f4d,rev?*
G04 #@! TF.SameCoordinates,PX53920b0PY93c3260*
G04 #@! TF.FileFunction,Copper,L2,Bot*
G04 #@! TF.FilePolarity,Positive*
%FSLAX46Y46*%
G04 Gerber Fmt 4.6, Leading zero omitted, Abs format (unit mm)*
G04 Created by KiCad (PCBNEW (5.1.9)-1) date 2025-08-03 17:29:21*
%MOMM*%
%LPD*%
G01*
G04 APERTURE LIST*
G04 #@! TA.AperFunction,ComponentPad*
%ADD10R,1.600000X1.600000*%
G04 #@! TD*
G04 #@! TA.AperFunction,ComponentPad*
%ADD11C,1.600000*%
G04 #@! TD*
G04 #@! TA.AperFunction,ComponentPad*
%ADD12R,1.600000X2.400000*%
G04 #@! TD*
G04 #@! TA.AperFunction,ComponentPad*
%ADD13O,1.600000X2.400000*%
G04 #@! TD*
G04 #@! TA.AperFunction,ComponentPad*
%ADD14R,1.700000X1.700000*%
G04 #@! TD*
G04 #@! TA.AperFunction,ComponentPad*
%ADD15O,1.700000X1.700000*%
G04 #@! TD*
G04 #@! TA.AperFunction,ViaPad*
%ADD16C,0.500000*%
G04 #@! TD*
G04 #@! TA.AperFunction,Conductor*
%ADD17C,0.400000*%
G04 #@! TD*
G04 #@! TA.AperFunction,Conductor*
%ADD18C,0.200000*%
G04 #@! TD*
G04 #@! TA.AperFunction,Conductor*
%ADD19C,0.254000*%
G04 #@! TD*
G04 #@! TA.AperFunction,Conductor*
%ADD20C,0.100000*%
G04 #@! TD*
G04 APERTURE END LIST*
D10*
X36830000Y16510000D03*
D11*
X36830000Y19010000D03*
X96520000Y18870000D03*
X96520000Y16370000D03*
X72390000Y16550000D03*
X72390000Y19050000D03*
X96520000Y31710000D03*
X96520000Y29210000D03*
D12*
X92710000Y21430000D03*
D13*
X77470000Y13810000D03*
X90170000Y21430000D03*
X80010000Y13810000D03*
X87630000Y21430000D03*
X82550000Y13810000D03*
X85090000Y21430000D03*
X85090000Y13810000D03*
X82550000Y21430000D03*
X87630000Y13810000D03*
X80010000Y21430000D03*
X90170000Y13810000D03*
X77470000Y21430000D03*
X92710000Y13810000D03*
D11*
X30480000Y19010000D03*
X30480000Y16510000D03*
X30480000Y29210000D03*
X30480000Y31710000D03*
X72390000Y31750000D03*
X72390000Y29250000D03*
X72390000Y45720000D03*
X72390000Y48220000D03*
D14*
X87630000Y46355000D03*
D15*
X85090000Y46355000D03*
X82550000Y46355000D03*
D13*
X68580000Y13970000D03*
X53340000Y21590000D03*
X66040000Y13970000D03*
X55880000Y21590000D03*
X63500000Y13970000D03*
X58420000Y21590000D03*
X60960000Y13970000D03*
X60960000Y21590000D03*
X58420000Y13970000D03*
X63500000Y21590000D03*
X55880000Y13970000D03*
X66040000Y21590000D03*
X53340000Y13970000D03*
D12*
X68580000Y21590000D03*
X26670000Y21590000D03*
D13*
X3810000Y13970000D03*
X24130000Y21590000D03*
X6350000Y13970000D03*
X21590000Y21590000D03*
X8890000Y13970000D03*
X19050000Y21590000D03*
X11430000Y13970000D03*
X16510000Y21590000D03*
X13970000Y13970000D03*
X13970000Y21590000D03*
X16510000Y13970000D03*
X11430000Y21590000D03*
X19050000Y13970000D03*
X8890000Y21590000D03*
X21590000Y13970000D03*
X6350000Y21590000D03*
X24130000Y13970000D03*
X3810000Y21590000D03*
X26670000Y13970000D03*
X26670000Y26670000D03*
X3810000Y34290000D03*
X24130000Y26670000D03*
X6350000Y34290000D03*
X21590000Y26670000D03*
X8890000Y34290000D03*
X19050000Y26670000D03*
X11430000Y34290000D03*
X16510000Y26670000D03*
X13970000Y34290000D03*
X13970000Y26670000D03*
X16510000Y34290000D03*
X11430000Y26670000D03*
X19050000Y34290000D03*
X8890000Y26670000D03*
X21590000Y34290000D03*
X6350000Y26670000D03*
X24130000Y34290000D03*
X3810000Y26670000D03*
D12*
X26670000Y34290000D03*
X68580000Y54610000D03*
D13*
X35560000Y39370000D03*
X66040000Y54610000D03*
X38100000Y39370000D03*
X63500000Y54610000D03*
X40640000Y39370000D03*
X60960000Y54610000D03*
X43180000Y39370000D03*
X58420000Y54610000D03*
X45720000Y39370000D03*
X55880000Y54610000D03*
X48260000Y39370000D03*
X53340000Y54610000D03*
X50800000Y39370000D03*
X50800000Y54610000D03*
X53340000Y39370000D03*
X48260000Y54610000D03*
X55880000Y39370000D03*
X45720000Y54610000D03*
X58420000Y39370000D03*
X43180000Y54610000D03*
X60960000Y39370000D03*
X40640000Y54610000D03*
X63500000Y39370000D03*
X38100000Y54610000D03*
X66040000Y39370000D03*
X35560000Y54610000D03*
X68580000Y39370000D03*
D12*
X68580000Y34290000D03*
D13*
X45720000Y26670000D03*
X66040000Y34290000D03*
X48260000Y26670000D03*
X63500000Y34290000D03*
X50800000Y26670000D03*
X60960000Y34290000D03*
X53340000Y26670000D03*
X58420000Y34290000D03*
X55880000Y26670000D03*
X55880000Y34290000D03*
X58420000Y26670000D03*
X53340000Y34290000D03*
X60960000Y26670000D03*
X50800000Y34290000D03*
X63500000Y26670000D03*
X48260000Y34290000D03*
X66040000Y26670000D03*
X45720000Y34290000D03*
X68580000Y26670000D03*
D12*
X92710000Y34290000D03*
D13*
X77470000Y26670000D03*
X90170000Y34290000D03*
X80010000Y26670000D03*
X87630000Y34290000D03*
X82550000Y26670000D03*
X85090000Y34290000D03*
X85090000Y26670000D03*
X82550000Y34290000D03*
X87630000Y26670000D03*
X80010000Y34290000D03*
X90170000Y26670000D03*
X77470000Y34290000D03*
X92710000Y26670000D03*
D14*
X57150000Y5080000D03*
D15*
X57150000Y7620000D03*
X54610000Y5080000D03*
X54610000Y7620000D03*
X52070000Y5080000D03*
X52070000Y7620000D03*
X49530000Y5080000D03*
X49530000Y7620000D03*
X46990000Y5080000D03*
X46990000Y7620000D03*
X44450000Y5080000D03*
X44450000Y7620000D03*
X41910000Y5080000D03*
X41910000Y7620000D03*
X39370000Y5080000D03*
X39370000Y7620000D03*
X36830000Y5080000D03*
X36830000Y7620000D03*
X34290000Y5080000D03*
X34290000Y7620000D03*
D14*
X10160000Y40640000D03*
D15*
X10160000Y43180000D03*
D16*
X86029500Y29578200D03*
X61960400Y20089700D03*
X50831200Y10083500D03*
X22705000Y10114200D03*
X51523900Y9674200D03*
X47248000Y28533200D03*
X55494300Y10252100D03*
X35627500Y6960000D03*
X17780000Y27358600D03*
X17390500Y24765300D03*
X20638800Y37869700D03*
X44936300Y29226100D03*
X31132800Y25988900D03*
D17*
X68580000Y26670000D02*
X68580000Y25069700D01*
X72390000Y16550000D02*
X70706100Y18233900D01*
X70706100Y18233900D02*
X70706100Y22943600D01*
X70706100Y22943600D02*
X68580000Y25069700D01*
X26670000Y13970000D02*
X26670000Y21590000D01*
X26670000Y28270300D02*
X26670000Y32689700D01*
X92710000Y26670000D02*
X92710000Y28270300D01*
X82550000Y46355000D02*
X82550000Y45104700D01*
X82550000Y45104700D02*
X91370400Y36284300D01*
X91370400Y36284300D02*
X91370400Y29609900D01*
X91370400Y29609900D02*
X92710000Y28270300D01*
X26670000Y26670000D02*
X26670000Y28270300D01*
X26670000Y34290000D02*
X26670000Y32689700D01*
X26670000Y26670000D02*
X26670000Y21590000D01*
X68580000Y39370000D02*
X68580000Y37769700D01*
X72390000Y29250000D02*
X71189600Y30450400D01*
X71189600Y30450400D02*
X71189600Y35160100D01*
X71189600Y35160100D02*
X68580000Y37769700D01*
X92710000Y26236500D02*
X92710000Y26670000D01*
X92710000Y26236500D02*
X92710000Y25069700D01*
X96520000Y16370000D02*
X94833600Y18056400D01*
X94833600Y18056400D02*
X94833600Y22946100D01*
X94833600Y22946100D02*
X92710000Y25069700D01*
X35629600Y17809600D02*
X36830000Y19010000D01*
X36830000Y8870300D02*
X35629600Y10070700D01*
X35629600Y10070700D02*
X35629600Y17809600D01*
X31784200Y20314200D02*
X33125000Y20314200D01*
X33125000Y20314200D02*
X35629600Y17809600D01*
X31784200Y20314200D02*
X30480000Y19010000D01*
X30480000Y31710000D02*
X31784200Y30405800D01*
X31784200Y30405800D02*
X31784200Y20314200D01*
X36830000Y7620000D02*
X36830000Y8870300D01*
X36830000Y6350000D02*
X36830000Y7620000D01*
X77470000Y34290000D02*
X77470000Y43140000D01*
X77470000Y43140000D02*
X72390000Y48220000D01*
X82550000Y26670000D02*
X82550000Y34290000D01*
X3810000Y34290000D02*
X3810000Y32689700D01*
X3810000Y21590000D02*
X3810000Y23190300D01*
X3810000Y23190300D02*
X5079900Y24460200D01*
X5079900Y24460200D02*
X5079900Y31419800D01*
X5079900Y31419800D02*
X3810000Y32689700D01*
X80010000Y26670000D02*
X80010000Y25069700D01*
X77470000Y21430000D02*
X77470000Y23030300D01*
X80010000Y25069700D02*
X79509400Y25069700D01*
X79509400Y25069700D02*
X77470000Y23030300D01*
X45720000Y34290000D02*
X45720000Y35890300D01*
X48260000Y39370000D02*
X48260000Y37769700D01*
X48260000Y37769700D02*
X46380600Y35890300D01*
X46380600Y35890300D02*
X45720000Y35890300D01*
X41910000Y5080000D02*
X40659700Y5080000D01*
X36830000Y6350000D02*
X39907800Y6350000D01*
X39907800Y6350000D02*
X40659700Y5598100D01*
X40659700Y5598100D02*
X40659700Y5080000D01*
X36830000Y6350000D02*
X36830000Y5080000D01*
D18*
X80010000Y21430000D02*
X80010000Y22930300D01*
X86029500Y29578200D02*
X83820000Y27368700D01*
X83820000Y27368700D02*
X83820000Y25892700D01*
X83820000Y25892700D02*
X80857600Y22930300D01*
X80857600Y22930300D02*
X80010000Y22930300D01*
X58420000Y13970000D02*
X58420000Y15470300D01*
X66040000Y21481700D02*
X64431400Y23090300D01*
X64431400Y23090300D02*
X60461300Y23090300D01*
X60461300Y23090300D02*
X59690000Y22319000D01*
X59690000Y22319000D02*
X59690000Y16740300D01*
X59690000Y16740300D02*
X58420000Y15470300D01*
X66040000Y21481700D02*
X66040000Y21373300D01*
X66040000Y21590000D02*
X66040000Y21481700D01*
X66040000Y21373300D02*
X66040000Y21328600D01*
X66040000Y21328600D02*
X72058300Y15310300D01*
X72058300Y15310300D02*
X77470000Y15310300D01*
X77470000Y13810000D02*
X77470000Y15310300D01*
X60960000Y21590000D02*
X60960000Y20089700D01*
X63500000Y15470300D02*
X60960100Y18010200D01*
X60960100Y18010200D02*
X60960100Y20089700D01*
X60960100Y20089700D02*
X60960000Y20089700D01*
X63500000Y13970000D02*
X63500000Y15470300D01*
X66040000Y13970000D02*
X66040000Y16010100D01*
X66040000Y16010100D02*
X61960400Y20089700D01*
X66040000Y13970000D02*
X66040000Y12469700D01*
X85090000Y21430000D02*
X85090000Y19929700D01*
X66040000Y12469700D02*
X66227000Y12282700D01*
X66227000Y12282700D02*
X77913300Y12282700D01*
X77913300Y12282700D02*
X78740000Y13109400D01*
X78740000Y13109400D02*
X78740000Y14557900D01*
X78740000Y14557900D02*
X84111800Y19929700D01*
X84111800Y19929700D02*
X85090000Y19929700D01*
X85090000Y21430000D02*
X85090000Y22930300D01*
X85090000Y22930300D02*
X86360000Y24200300D01*
X86360000Y24200300D02*
X86360000Y27426300D01*
X86360000Y27426300D02*
X90170000Y31236300D01*
X90170000Y31236300D02*
X90170000Y34290000D01*
X13970000Y34290000D02*
X13970000Y36782500D01*
X13970000Y36782500D02*
X34904400Y57716900D01*
X34904400Y57716900D02*
X49193400Y57716900D01*
X49193400Y57716900D02*
X50800000Y56110300D01*
X50800000Y54610000D02*
X50800000Y56110300D01*
X16510000Y35790300D02*
X16510000Y38119500D01*
X16510000Y38119500D02*
X35306800Y56916300D01*
X35306800Y56916300D02*
X47454000Y56916300D01*
X47454000Y56916300D02*
X48260000Y56110300D01*
X16510000Y34290000D02*
X16510000Y35790300D01*
X48260000Y54610000D02*
X48260000Y56110300D01*
X24130000Y34290000D02*
X24130000Y35790300D01*
X45720000Y54610000D02*
X45720000Y56110300D01*
X45720000Y56110300D02*
X37624500Y56110300D01*
X37624500Y56110300D02*
X36916400Y55402200D01*
X36916400Y55402200D02*
X36916400Y48576700D01*
X36916400Y48576700D02*
X24130000Y35790300D01*
X48260000Y34290000D02*
X48260000Y32789700D01*
X48260000Y32789700D02*
X49389900Y31659800D01*
X49389900Y31659800D02*
X49389900Y11524800D01*
X49389900Y11524800D02*
X50831200Y10083500D01*
X21590000Y13970000D02*
X21590000Y15470300D01*
X21590000Y26670000D02*
X21590000Y25169700D01*
X21590000Y25169700D02*
X20479100Y24058800D01*
X20479100Y24058800D02*
X20479100Y16581200D01*
X20479100Y16581200D02*
X21590000Y15470300D01*
X19050000Y13970000D02*
X19050000Y12469700D01*
X22705000Y10114200D02*
X20349500Y12469700D01*
X20349500Y12469700D02*
X19050000Y12469700D01*
X19050000Y15470300D02*
X17928000Y16592300D01*
X17928000Y16592300D02*
X17928000Y23813200D01*
X17928000Y23813200D02*
X18942300Y24827500D01*
X18942300Y24827500D02*
X18942300Y25062000D01*
X18942300Y25062000D02*
X19050000Y25169700D01*
X19050000Y13970000D02*
X19050000Y15470300D01*
X19050000Y26670000D02*
X19050000Y25169700D01*
X53340000Y32789700D02*
X51900400Y31350100D01*
X51900400Y31350100D02*
X51900400Y24633500D01*
X51900400Y24633500D02*
X51523900Y24257000D01*
X51523900Y24257000D02*
X51523900Y9674200D01*
X53340000Y34290000D02*
X53340000Y32789700D01*
X11430000Y13970000D02*
X11430000Y15470300D01*
X11430000Y26670000D02*
X11430000Y25169700D01*
X11430000Y25169700D02*
X12599600Y24000100D01*
X12599600Y24000100D02*
X12599600Y16639900D01*
X12599600Y16639900D02*
X11430000Y15470300D01*
X52070000Y6230300D02*
X51831500Y6230300D01*
X51831500Y6230300D02*
X50879300Y7182500D01*
X50879300Y7182500D02*
X50879300Y8251300D01*
X50879300Y8251300D02*
X52089400Y9461400D01*
X52089400Y9461400D02*
X52089400Y22823900D01*
X52089400Y22823900D02*
X54539800Y25274300D01*
X54539800Y25274300D02*
X54539800Y31449500D01*
X54539800Y31449500D02*
X55880000Y32789700D01*
X52070000Y5080000D02*
X52070000Y6230300D01*
X55880000Y34290000D02*
X55880000Y32789700D01*
X8890000Y13970000D02*
X8890000Y15470300D01*
X8890000Y26670000D02*
X8890000Y25169700D01*
X8890000Y25169700D02*
X10014000Y24045700D01*
X10014000Y24045700D02*
X10014000Y16594300D01*
X10014000Y16594300D02*
X8890000Y15470300D01*
X52070000Y7620000D02*
X52070000Y8770300D01*
X52070000Y8770300D02*
X54610000Y11310300D01*
X54610000Y11310300D02*
X54610000Y22303700D01*
X54610000Y22303700D02*
X56583800Y24277500D01*
X56583800Y24277500D02*
X58014100Y24277500D01*
X58014100Y24277500D02*
X59560600Y25824000D01*
X59560600Y25824000D02*
X59560600Y27596000D01*
X59560600Y27596000D02*
X58420000Y28736600D01*
X58420000Y28736600D02*
X58420000Y34290000D01*
X8890000Y21590000D02*
X8890000Y23090300D01*
X8890000Y34290000D02*
X8890000Y32789700D01*
X8890000Y32789700D02*
X7720400Y31620100D01*
X7720400Y31620100D02*
X7720400Y24259900D01*
X7720400Y24259900D02*
X8890000Y23090300D01*
X49530000Y7620000D02*
X49530000Y8770300D01*
X49530000Y8770300D02*
X47159600Y11140700D01*
X47159600Y11140700D02*
X47159600Y28444800D01*
X47159600Y28444800D02*
X47248000Y28533200D01*
X11430000Y34290000D02*
X11430000Y32789700D01*
X11430000Y21590000D02*
X11430000Y23754500D01*
X11430000Y23754500D02*
X10318800Y24865700D01*
X10318800Y24865700D02*
X10318800Y31678500D01*
X10318800Y31678500D02*
X11430000Y32789700D01*
X45839700Y5080000D02*
X45839700Y4792400D01*
X45839700Y4792400D02*
X44176100Y3128800D01*
X44176100Y3128800D02*
X30468700Y3128800D01*
X30468700Y3128800D02*
X20174000Y13423500D01*
X20174000Y13423500D02*
X20173900Y13423500D01*
X20173900Y13423500D02*
X20173900Y14912700D01*
X20173900Y14912700D02*
X19050000Y16036600D01*
X19050000Y16036600D02*
X19050000Y21590000D01*
X19050000Y21590000D02*
X19050000Y23090300D01*
X19050000Y23090300D02*
X19342700Y23383000D01*
X19342700Y23383000D02*
X19342700Y24896100D01*
X19342700Y24896100D02*
X20161600Y25715000D01*
X20161600Y25715000D02*
X20161600Y31678100D01*
X20161600Y31678100D02*
X19050000Y32789700D01*
X46990000Y5080000D02*
X45839700Y5080000D01*
X19050000Y34290000D02*
X19050000Y32789700D01*
X66040000Y34290000D02*
X66040000Y32789700D01*
X46990000Y7620000D02*
X48140300Y7620000D01*
X48140300Y7620000D02*
X48140300Y7332300D01*
X48140300Y7332300D02*
X49002900Y6469700D01*
X49002900Y6469700D02*
X49804500Y6469700D01*
X49804500Y6469700D02*
X50800000Y5474200D01*
X50800000Y5474200D02*
X50800000Y4721500D01*
X50800000Y4721500D02*
X51596900Y3924600D01*
X51596900Y3924600D02*
X52582700Y3924600D01*
X52582700Y3924600D02*
X53340000Y4681900D01*
X53340000Y4681900D02*
X53340000Y7977700D01*
X53340000Y7977700D02*
X54802600Y9440300D01*
X54802600Y9440300D02*
X55541600Y9440300D01*
X55541600Y9440300D02*
X57150000Y11048700D01*
X57150000Y11048700D02*
X57150000Y22353300D01*
X57150000Y22353300D02*
X59560100Y24763400D01*
X59560100Y24763400D02*
X63557400Y24763400D01*
X63557400Y24763400D02*
X64770000Y25976000D01*
X64770000Y25976000D02*
X64770000Y31519700D01*
X64770000Y31519700D02*
X66040000Y32789700D01*
X46705800Y7620000D02*
X46990000Y7620000D01*
X45839700Y7620000D02*
X45839700Y7351400D01*
X45839700Y7351400D02*
X44818500Y6330200D01*
X44818500Y6330200D02*
X44059600Y6330200D01*
X44059600Y6330200D02*
X43180000Y5450600D01*
X43180000Y5450600D02*
X43180000Y4690000D01*
X43180000Y4690000D02*
X42019100Y3529100D01*
X42019100Y3529100D02*
X32597200Y3529100D01*
X32597200Y3529100D02*
X23029600Y13096700D01*
X23029600Y13096700D02*
X23029600Y18650100D01*
X23029600Y18650100D02*
X21590000Y20089700D01*
X21590000Y32789700D02*
X21590000Y31933000D01*
X21590000Y31933000D02*
X22701100Y30821900D01*
X22701100Y30821900D02*
X22701100Y24201400D01*
X22701100Y24201400D02*
X21590000Y23090300D01*
X46705800Y7620000D02*
X45839700Y7620000D01*
X21590000Y21590000D02*
X21590000Y20089700D01*
X21590000Y22023500D02*
X21590000Y21590000D01*
X21590000Y22023500D02*
X21590000Y23090300D01*
X21590000Y34290000D02*
X21590000Y32789700D01*
X80010000Y13810000D02*
X80010000Y12309700D01*
X44450000Y5080000D02*
X45600400Y6230400D01*
X45600400Y6230400D02*
X47528100Y6230400D01*
X47528100Y6230400D02*
X48260000Y5498500D01*
X48260000Y5498500D02*
X48260000Y4683800D01*
X48260000Y4683800D02*
X49424100Y3519700D01*
X49424100Y3519700D02*
X71220000Y3519700D01*
X71220000Y3519700D02*
X80010000Y12309700D01*
X55880000Y13970000D02*
X55880000Y12469700D01*
X55494300Y10252100D02*
X55494300Y12084000D01*
X55494300Y12084000D02*
X55880000Y12469700D01*
X38219700Y5080000D02*
X38219700Y4792400D01*
X38219700Y4792400D02*
X37356800Y3929500D01*
X37356800Y3929500D02*
X36336000Y3929500D01*
X36336000Y3929500D02*
X35627500Y4638000D01*
X35627500Y4638000D02*
X35627500Y6960000D01*
X39370000Y5080000D02*
X38219700Y5080000D01*
X85090000Y46355000D02*
X83939700Y46355000D01*
X68580000Y54610000D02*
X68580000Y53109700D01*
X68580000Y53109700D02*
X77423300Y53109700D01*
X77423300Y53109700D02*
X83939700Y46593300D01*
X83939700Y46593300D02*
X83939700Y46355000D01*
X24130000Y21590000D02*
X24130000Y23090300D01*
X60960000Y39370000D02*
X60960000Y40870300D01*
X60960000Y40870300D02*
X60022300Y40870300D01*
X60022300Y40870300D02*
X46903600Y53989000D01*
X46903600Y53989000D02*
X46903600Y55546900D01*
X46903600Y55546900D02*
X45934600Y56515900D01*
X45934600Y56515900D02*
X35509600Y56515900D01*
X35509600Y56515900D02*
X23001300Y44007600D01*
X23001300Y44007600D02*
X23001300Y31290700D01*
X23001300Y31290700D02*
X25241100Y29050900D01*
X25241100Y29050900D02*
X25241100Y24201400D01*
X25241100Y24201400D02*
X24130000Y23090300D01*
X6350000Y15470300D02*
X6350000Y13970000D01*
X2681400Y19138900D02*
X6350000Y15470300D01*
X2681400Y42051400D02*
X2681400Y19138900D01*
X19147600Y58517600D02*
X2681400Y42051400D01*
X63632700Y58517600D02*
X19147600Y58517600D01*
X66040000Y56110300D02*
X63632700Y58517600D01*
X66040000Y54610000D02*
X66040000Y56110300D01*
X16510000Y23090300D02*
X17976500Y24556800D01*
X17976500Y24556800D02*
X17976500Y25155000D01*
X17976500Y25155000D02*
X17780000Y25351500D01*
X17780000Y25351500D02*
X17780000Y27358600D01*
X16510000Y21590000D02*
X16510000Y23090300D01*
X13970000Y13970000D02*
X13970000Y15470300D01*
X17390500Y24765300D02*
X15409600Y22784400D01*
X15409600Y22784400D02*
X15409600Y16909900D01*
X15409600Y16909900D02*
X13970000Y15470300D01*
X13970000Y23090300D02*
X15209500Y24329800D01*
X15209500Y24329800D02*
X15209500Y29900800D01*
X15209500Y29900800D02*
X17740700Y32432000D01*
X17740700Y32432000D02*
X17740700Y34971600D01*
X17740700Y34971600D02*
X20638800Y37869700D01*
X13970000Y21590000D02*
X13970000Y23090300D01*
X6350000Y35790300D02*
X11916500Y35790300D01*
X11916500Y35790300D02*
X34243400Y58117200D01*
X34243400Y58117200D02*
X51333100Y58117200D01*
X51333100Y58117200D02*
X53340000Y56110300D01*
X6350000Y34290000D02*
X6350000Y35790300D01*
X53340000Y54610000D02*
X53340000Y56110300D01*
X13970000Y26670000D02*
X13970000Y31233300D01*
X13970000Y31233300D02*
X15240000Y32503300D01*
X15240000Y32503300D02*
X15240000Y37450900D01*
X15240000Y37450900D02*
X35105700Y57316600D01*
X35105700Y57316600D02*
X47620000Y57316600D01*
X47620000Y57316600D02*
X49699600Y55237000D01*
X49699600Y55237000D02*
X49699600Y53749100D01*
X49699600Y53749100D02*
X50339000Y53109700D01*
X50339000Y53109700D02*
X58420000Y53109700D01*
X58420000Y54610000D02*
X58420000Y53109700D01*
X35560000Y37869700D02*
X36292700Y37869700D01*
X36292700Y37869700D02*
X44936300Y29226100D01*
X35560000Y39370000D02*
X35560000Y37869700D01*
X53340000Y26670000D02*
X53340000Y32223400D01*
X53340000Y32223400D02*
X54445500Y33328900D01*
X54445500Y33328900D02*
X54445500Y35200600D01*
X54445500Y35200600D02*
X53546700Y36099400D01*
X53546700Y36099400D02*
X52111200Y36099400D01*
X52111200Y36099400D02*
X49529800Y38680800D01*
X49529800Y38680800D02*
X49529800Y40113200D01*
X49529800Y40113200D02*
X47972100Y41670900D01*
X47972100Y41670900D02*
X38900600Y41670900D01*
X38900600Y41670900D02*
X38100000Y40870300D01*
X38100000Y39370000D02*
X38100000Y40870300D01*
X50800000Y26670000D02*
X50800000Y31779900D01*
X50800000Y31779900D02*
X49530000Y33049900D01*
X49530000Y33049900D02*
X49530000Y35034900D01*
X49530000Y35034900D02*
X48737200Y35827700D01*
X48737200Y35827700D02*
X47806600Y35827700D01*
X47806600Y35827700D02*
X46990000Y35011100D01*
X46990000Y35011100D02*
X46990000Y33498800D01*
X46990000Y33498800D02*
X46244400Y32753200D01*
X46244400Y32753200D02*
X45271500Y32753200D01*
X45271500Y32753200D02*
X44604700Y33420000D01*
X44604700Y33420000D02*
X44604700Y35653100D01*
X44604700Y35653100D02*
X46828500Y37876900D01*
X46828500Y37876900D02*
X46828500Y40218600D01*
X46828500Y40218600D02*
X45776500Y41270600D01*
X45776500Y41270600D02*
X41040300Y41270600D01*
X41040300Y41270600D02*
X40640000Y40870300D01*
X40640000Y39370000D02*
X40640000Y40870300D01*
X43180000Y39370000D02*
X43180000Y37869700D01*
X48260000Y26670000D02*
X48260000Y29144200D01*
X48260000Y29144200D02*
X43180100Y34224100D01*
X43180100Y34224100D02*
X43180100Y37869700D01*
X43180100Y37869700D02*
X43180000Y37869700D01*
X45720000Y39370000D02*
X44219700Y40870300D01*
X44219700Y40870300D02*
X42681000Y40870300D01*
X42681000Y40870300D02*
X42006400Y40195700D01*
X42006400Y40195700D02*
X42006400Y32978900D01*
X42006400Y32978900D02*
X45720000Y29265300D01*
X45720000Y29265300D02*
X45720000Y26670000D01*
X63500000Y26670000D02*
X63500000Y28170300D01*
X43180000Y54610000D02*
X43180000Y53109700D01*
X43180000Y53109700D02*
X44117700Y53109700D01*
X44117700Y53109700D02*
X57150000Y40077400D01*
X57150000Y40077400D02*
X57150000Y38675600D01*
X57150000Y38675600D02*
X59165200Y36660400D01*
X59165200Y36660400D02*
X60609300Y36660400D01*
X60609300Y36660400D02*
X62230000Y35039700D01*
X62230000Y35039700D02*
X62230000Y29440300D01*
X62230000Y29440300D02*
X63500000Y28170300D01*
X40640000Y53109700D02*
X41618100Y53109700D01*
X41618100Y53109700D02*
X54610000Y40117800D01*
X54610000Y40117800D02*
X54610000Y38640300D01*
X54610000Y38640300D02*
X56019900Y37230400D01*
X56019900Y37230400D02*
X57482900Y37230400D01*
X57482900Y37230400D02*
X59690000Y35023300D01*
X59690000Y35023300D02*
X59690000Y29440300D01*
X59690000Y29440300D02*
X60960000Y28170300D01*
X40640000Y54610000D02*
X40640000Y53109700D01*
X60960000Y26670000D02*
X60960000Y28170300D01*
X58420000Y26670000D02*
X58420000Y28170300D01*
X38100000Y54610000D02*
X38100000Y53109700D01*
X38100000Y53109700D02*
X39037700Y53109700D01*
X39037700Y53109700D02*
X52070000Y40077400D01*
X52070000Y40077400D02*
X52070000Y38647000D01*
X52070000Y38647000D02*
X53998000Y36719000D01*
X53998000Y36719000D02*
X55448100Y36719000D01*
X55448100Y36719000D02*
X57091400Y35075700D01*
X57091400Y35075700D02*
X57091400Y29498900D01*
X57091400Y29498900D02*
X58420000Y28170300D01*
X24130000Y13970000D02*
X25651600Y12448400D01*
X25651600Y12448400D02*
X27122100Y12448400D01*
X27122100Y12448400D02*
X28791100Y14117400D01*
X28791100Y14117400D02*
X28791100Y23647200D01*
X28791100Y23647200D02*
X31132800Y25988900D01*
D19*
X99340000Y660000D02*
X660000Y660000D01*
X660000Y5220128D01*
X2765000Y5220128D01*
X2765000Y4779872D01*
X2850890Y4348075D01*
X3019369Y3941331D01*
X3263962Y3575271D01*
X3575271Y3263962D01*
X3941331Y3019369D01*
X4348075Y2850890D01*
X4779872Y2765000D01*
X5220128Y2765000D01*
X5651925Y2850890D01*
X6058669Y3019369D01*
X6424729Y3263962D01*
X6736038Y3575271D01*
X6980631Y3941331D01*
X7149110Y4348075D01*
X7235000Y4779872D01*
X7235000Y5220128D01*
X7149110Y5651925D01*
X6980631Y6058669D01*
X6736038Y6424729D01*
X6424729Y6736038D01*
X6058669Y6980631D01*
X5651925Y7149110D01*
X5220128Y7235000D01*
X4779872Y7235000D01*
X4348075Y7149110D01*
X3941331Y6980631D01*
X3575271Y6736038D01*
X3263962Y6424729D01*
X3019369Y6058669D01*
X2850890Y5651925D01*
X2765000Y5220128D01*
X660000Y5220128D01*
X660000Y42051400D01*
X1942844Y42051400D01*
X1946400Y42015295D01*
X1946401Y19175015D01*
X1942844Y19138900D01*
X1957035Y18994815D01*
X1994778Y18870395D01*
X1999064Y18856267D01*
X2067314Y18728580D01*
X2159163Y18616662D01*
X2187208Y18593646D01*
X5363816Y15417037D01*
X5330393Y15389608D01*
X5151068Y15171101D01*
X5080000Y15038142D01*
X5008932Y15171101D01*
X4829608Y15389608D01*
X4611101Y15568932D01*
X4361808Y15702182D01*
X4091309Y15784236D01*
X3810000Y15811943D01*
X3528692Y15784236D01*
X3258193Y15702182D01*
X3008900Y15568932D01*
X2790393Y15389608D01*
X2611068Y15171101D01*
X2477818Y14921808D01*
X2395764Y14651309D01*
X2375000Y14440492D01*
X2375000Y13499509D01*
X2395764Y13288692D01*
X2477818Y13018193D01*
X2611068Y12768900D01*
X2790392Y12550393D01*
X3008899Y12371068D01*
X3258192Y12237818D01*
X3528691Y12155764D01*
X3810000Y12128057D01*
X4091308Y12155764D01*
X4361807Y12237818D01*
X4611100Y12371068D01*
X4829607Y12550392D01*
X5008932Y12768899D01*
X5080000Y12901858D01*
X5151068Y12768900D01*
X5330392Y12550393D01*
X5548899Y12371068D01*
X5798192Y12237818D01*
X6068691Y12155764D01*
X6350000Y12128057D01*
X6631308Y12155764D01*
X6901807Y12237818D01*
X7151100Y12371068D01*
X7369607Y12550392D01*
X7548932Y12768899D01*
X7620000Y12901858D01*
X7691068Y12768900D01*
X7870392Y12550393D01*
X8088899Y12371068D01*
X8338192Y12237818D01*
X8608691Y12155764D01*
X8890000Y12128057D01*
X9171308Y12155764D01*
X9441807Y12237818D01*
X9691100Y12371068D01*
X9909607Y12550392D01*
X10088932Y12768899D01*
X10160000Y12901858D01*
X10231068Y12768900D01*
X10410392Y12550393D01*
X10628899Y12371068D01*
X10878192Y12237818D01*
X11148691Y12155764D01*
X11430000Y12128057D01*
X11711308Y12155764D01*
X11981807Y12237818D01*
X12231100Y12371068D01*
X12449607Y12550392D01*
X12628932Y12768899D01*
X12700000Y12901858D01*
X12771068Y12768900D01*
X12950392Y12550393D01*
X13168899Y12371068D01*
X13418192Y12237818D01*
X13688691Y12155764D01*
X13970000Y12128057D01*
X14251308Y12155764D01*
X14521807Y12237818D01*
X14771100Y12371068D01*
X14989607Y12550392D01*
X15168932Y12768899D01*
X15240000Y12901858D01*
X15311068Y12768900D01*
X15490392Y12550393D01*
X15708899Y12371068D01*
X15958192Y12237818D01*
X16228691Y12155764D01*
X16510000Y12128057D01*
X16791308Y12155764D01*
X17061807Y12237818D01*
X17311100Y12371068D01*
X17529607Y12550392D01*
X17708932Y12768899D01*
X17780000Y12901858D01*
X17851068Y12768900D01*
X18030392Y12550393D01*
X18248899Y12371068D01*
X18325174Y12330298D01*
X18325635Y12325615D01*
X18367663Y12187067D01*
X18435913Y12059380D01*
X18527762Y11947462D01*
X18639680Y11855613D01*
X18767367Y11787363D01*
X18905915Y11745335D01*
X19013895Y11734700D01*
X19050000Y11731144D01*
X19086105Y11734700D01*
X20045054Y11734700D01*
X21836706Y9943047D01*
X21854010Y9856055D01*
X21920723Y9694995D01*
X22017576Y9550045D01*
X22140845Y9426776D01*
X22285795Y9329923D01*
X22446855Y9263210D01*
X22617835Y9229200D01*
X22792165Y9229200D01*
X22963145Y9263210D01*
X23124205Y9329923D01*
X23186504Y9371550D01*
X29923446Y2634607D01*
X29946462Y2606562D01*
X30058380Y2514713D01*
X30186067Y2446463D01*
X30324615Y2404435D01*
X30432595Y2393800D01*
X30432604Y2393800D01*
X30468699Y2390245D01*
X30504794Y2393800D01*
X44139995Y2393800D01*
X44176100Y2390244D01*
X44212205Y2393800D01*
X44320185Y2404435D01*
X44458733Y2446463D01*
X44586420Y2514713D01*
X44698338Y2606562D01*
X44721358Y2634612D01*
X46028320Y3941573D01*
X46043368Y3926525D01*
X46286589Y3764010D01*
X46556842Y3652068D01*
X46843740Y3595000D01*
X47136260Y3595000D01*
X47423158Y3652068D01*
X47693411Y3764010D01*
X47936632Y3926525D01*
X47957230Y3947123D01*
X48878846Y3025507D01*
X48901862Y2997462D01*
X49013780Y2905613D01*
X49141467Y2837363D01*
X49237986Y2808084D01*
X49280014Y2795335D01*
X49424099Y2781144D01*
X49460204Y2784700D01*
X71183895Y2784700D01*
X71220000Y2781144D01*
X71256105Y2784700D01*
X71364085Y2795335D01*
X71502633Y2837363D01*
X71630320Y2905613D01*
X71742238Y2997462D01*
X71765259Y3025513D01*
X73959874Y5220128D01*
X92765000Y5220128D01*
X92765000Y4779872D01*
X92850890Y4348075D01*
X93019369Y3941331D01*
X93263962Y3575271D01*
X93575271Y3263962D01*
X93941331Y3019369D01*
X94348075Y2850890D01*
X94779872Y2765000D01*
X95220128Y2765000D01*
X95651925Y2850890D01*
X96058669Y3019369D01*
X96424729Y3263962D01*
X96736038Y3575271D01*
X96980631Y3941331D01*
X97149110Y4348075D01*
X97235000Y4779872D01*
X97235000Y5220128D01*
X97149110Y5651925D01*
X96980631Y6058669D01*
X96736038Y6424729D01*
X96424729Y6736038D01*
X96058669Y6980631D01*
X95651925Y7149110D01*
X95220128Y7235000D01*
X94779872Y7235000D01*
X94348075Y7149110D01*
X93941331Y6980631D01*
X93575271Y6736038D01*
X93263962Y6424729D01*
X93019369Y6058669D01*
X92850890Y5651925D01*
X92765000Y5220128D01*
X73959874Y5220128D01*
X80504193Y11764446D01*
X80532238Y11787462D01*
X80624087Y11899380D01*
X80692337Y12027067D01*
X80734365Y12165615D01*
X80734826Y12170299D01*
X80811100Y12211068D01*
X81029607Y12390392D01*
X81208932Y12608899D01*
X81280000Y12741858D01*
X81351068Y12608900D01*
X81530392Y12390393D01*
X81748899Y12211068D01*
X81998192Y12077818D01*
X82268691Y11995764D01*
X82550000Y11968057D01*
X82831308Y11995764D01*
X83101807Y12077818D01*
X83351100Y12211068D01*
X83569607Y12390392D01*
X83748932Y12608899D01*
X83820000Y12741858D01*
X83891068Y12608900D01*
X84070392Y12390393D01*
X84288899Y12211068D01*
X84538192Y12077818D01*
X84808691Y11995764D01*
X85090000Y11968057D01*
X85371308Y11995764D01*
X85641807Y12077818D01*
X85891100Y12211068D01*
X86109607Y12390392D01*
X86288932Y12608899D01*
X86360000Y12741858D01*
X86431068Y12608900D01*
X86610392Y12390393D01*
X86828899Y12211068D01*
X87078192Y12077818D01*
X87348691Y11995764D01*
X87630000Y11968057D01*
X87911308Y11995764D01*
X88181807Y12077818D01*
X88431100Y12211068D01*
X88649607Y12390392D01*
X88828932Y12608899D01*
X88897265Y12736741D01*
X89047399Y12507161D01*
X89245105Y12305500D01*
X89478354Y12146285D01*
X89738182Y12035633D01*
X89820961Y12018096D01*
X90043000Y12140085D01*
X90043000Y13683000D01*
X90023000Y13683000D01*
X90023000Y13937000D01*
X90043000Y13937000D01*
X90043000Y15479915D01*
X90297000Y15479915D01*
X90297000Y13937000D01*
X90317000Y13937000D01*
X90317000Y13683000D01*
X90297000Y13683000D01*
X90297000Y12140085D01*
X90519039Y12018096D01*
X90601818Y12035633D01*
X90861646Y12146285D01*
X91094895Y12305500D01*
X91292601Y12507161D01*
X91442735Y12736742D01*
X91511068Y12608900D01*
X91690392Y12390393D01*
X91908899Y12211068D01*
X92158192Y12077818D01*
X92428691Y11995764D01*
X92710000Y11968057D01*
X92991308Y11995764D01*
X93261807Y12077818D01*
X93511100Y12211068D01*
X93729607Y12390392D01*
X93908932Y12608899D01*
X94042182Y12858192D01*
X94124236Y13128691D01*
X94145000Y13339508D01*
X94145000Y14280491D01*
X94124236Y14491309D01*
X94042182Y14761808D01*
X93908932Y15011101D01*
X93729608Y15229608D01*
X93511101Y15408932D01*
X93261808Y15542182D01*
X92991309Y15624236D01*
X92710000Y15651943D01*
X92428692Y15624236D01*
X92158193Y15542182D01*
X91908900Y15408932D01*
X91690393Y15229608D01*
X91511068Y15011101D01*
X91442735Y14883259D01*
X91292601Y15112839D01*
X91094895Y15314500D01*
X90861646Y15473715D01*
X90601818Y15584367D01*
X90519039Y15601904D01*
X90297000Y15479915D01*
X90043000Y15479915D01*
X89820961Y15601904D01*
X89738182Y15584367D01*
X89478354Y15473715D01*
X89245105Y15314500D01*
X89047399Y15112839D01*
X88897265Y14883259D01*
X88828932Y15011101D01*
X88649608Y15229608D01*
X88431101Y15408932D01*
X88181808Y15542182D01*
X87911309Y15624236D01*
X87630000Y15651943D01*
X87348692Y15624236D01*
X87078193Y15542182D01*
X86828900Y15408932D01*
X86610393Y15229608D01*
X86431068Y15011101D01*
X86360000Y14878142D01*
X86288932Y15011101D01*
X86109608Y15229608D01*
X85891101Y15408932D01*
X85641808Y15542182D01*
X85371309Y15624236D01*
X85090000Y15651943D01*
X84808692Y15624236D01*
X84538193Y15542182D01*
X84288900Y15408932D01*
X84070393Y15229608D01*
X83891068Y15011101D01*
X83820000Y14878142D01*
X83748932Y15011101D01*
X83569608Y15229608D01*
X83351101Y15408932D01*
X83101808Y15542182D01*
X82831309Y15624236D01*
X82550000Y15651943D01*
X82268692Y15624236D01*
X81998193Y15542182D01*
X81748900Y15408932D01*
X81530393Y15229608D01*
X81351068Y15011101D01*
X81280000Y14878142D01*
X81208932Y15011101D01*
X81029608Y15229608D01*
X80811101Y15408932D01*
X80693394Y15471848D01*
X84416247Y19194700D01*
X85053895Y19194700D01*
X85090000Y19191144D01*
X85126105Y19194700D01*
X85234085Y19205335D01*
X85372633Y19247363D01*
X85500320Y19315613D01*
X85612238Y19407462D01*
X85704087Y19519380D01*
X85772337Y19647067D01*
X85814365Y19785615D01*
X85814826Y19790299D01*
X85891100Y19831068D01*
X86109607Y20010392D01*
X86288932Y20228899D01*
X86360000Y20361858D01*
X86431068Y20228900D01*
X86610392Y20010393D01*
X86828899Y19831068D01*
X87078192Y19697818D01*
X87348691Y19615764D01*
X87630000Y19588057D01*
X87911308Y19615764D01*
X88181807Y19697818D01*
X88431100Y19831068D01*
X88649607Y20010392D01*
X88828932Y20228899D01*
X88900000Y20361858D01*
X88971068Y20228900D01*
X89150392Y20010393D01*
X89368899Y19831068D01*
X89618192Y19697818D01*
X89888691Y19615764D01*
X90170000Y19588057D01*
X90451308Y19615764D01*
X90721807Y19697818D01*
X90971100Y19831068D01*
X91189607Y20010392D01*
X91282419Y20123483D01*
X91284188Y20105518D01*
X91320498Y19985820D01*
X91379463Y19875506D01*
X91458815Y19778815D01*
X91555506Y19699463D01*
X91665820Y19640498D01*
X91785518Y19604188D01*
X91910000Y19591928D01*
X93510000Y19591928D01*
X93634482Y19604188D01*
X93754180Y19640498D01*
X93864494Y19699463D01*
X93961185Y19778815D01*
X93998600Y19824406D01*
X93998600Y18097419D01*
X93994560Y18056400D01*
X94008702Y17912814D01*
X94010682Y17892712D01*
X94058428Y17735314D01*
X94135964Y17590255D01*
X94240309Y17463109D01*
X94272179Y17436954D01*
X95103714Y16605418D01*
X95085000Y16511335D01*
X95085000Y16228665D01*
X95140147Y15951426D01*
X95248320Y15690273D01*
X95405363Y15455241D01*
X95605241Y15255363D01*
X95840273Y15098320D01*
X96101426Y14990147D01*
X96378665Y14935000D01*
X96661335Y14935000D01*
X96938574Y14990147D01*
X97199727Y15098320D01*
X97434759Y15255363D01*
X97634637Y15455241D01*
X97791680Y15690273D01*
X97899853Y15951426D01*
X97955000Y16228665D01*
X97955000Y16511335D01*
X97899853Y16788574D01*
X97791680Y17049727D01*
X97634637Y17284759D01*
X97434759Y17484637D01*
X97234131Y17618692D01*
X97261514Y17633329D01*
X97333097Y17877298D01*
X96520000Y18690395D01*
X96505858Y18676252D01*
X96326253Y18855857D01*
X96340395Y18870000D01*
X96699605Y18870000D01*
X97512702Y18056903D01*
X97756671Y18128486D01*
X97877571Y18383996D01*
X97946300Y18658184D01*
X97960217Y18940512D01*
X97918787Y19220130D01*
X97823603Y19486292D01*
X97756671Y19611514D01*
X97512702Y19683097D01*
X96699605Y18870000D01*
X96340395Y18870000D01*
X96326253Y18884142D01*
X96505858Y19063747D01*
X96520000Y19049605D01*
X97333097Y19862702D01*
X97261514Y20106671D01*
X97006004Y20227571D01*
X96731816Y20296300D01*
X96449488Y20310217D01*
X96169870Y20268787D01*
X95903708Y20173603D01*
X95778486Y20106671D01*
X95706903Y19862704D01*
X95668600Y19901007D01*
X95668600Y22905082D01*
X95672640Y22946100D01*
X95656518Y23109789D01*
X95608772Y23267187D01*
X95531236Y23412246D01*
X95453039Y23507530D01*
X95453037Y23507532D01*
X95426891Y23539391D01*
X95395032Y23565537D01*
X93718934Y25241633D01*
X93729607Y25250392D01*
X93908932Y25468899D01*
X94042182Y25718192D01*
X94124236Y25988691D01*
X94145000Y26199508D01*
X94145000Y27140491D01*
X94124236Y27351309D01*
X94042182Y27621808D01*
X93908932Y27871101D01*
X93729608Y28089608D01*
X93546077Y28240228D01*
X93549039Y28270301D01*
X93545000Y28311309D01*
X93545000Y28311319D01*
X93532918Y28433989D01*
X93485172Y28591387D01*
X93407636Y28736446D01*
X93303291Y28863591D01*
X93271426Y28889742D01*
X92809833Y29351335D01*
X95085000Y29351335D01*
X95085000Y29068665D01*
X95140147Y28791426D01*
X95248320Y28530273D01*
X95405363Y28295241D01*
X95605241Y28095363D01*
X95840273Y27938320D01*
X96101426Y27830147D01*
X96378665Y27775000D01*
X96661335Y27775000D01*
X96938574Y27830147D01*
X97199727Y27938320D01*
X97434759Y28095363D01*
X97634637Y28295241D01*
X97791680Y28530273D01*
X97899853Y28791426D01*
X97955000Y29068665D01*
X97955000Y29351335D01*
X97899853Y29628574D01*
X97791680Y29889727D01*
X97634637Y30124759D01*
X97434759Y30324637D01*
X97234131Y30458692D01*
X97261514Y30473329D01*
X97333097Y30717298D01*
X96520000Y31530395D01*
X95706903Y30717298D01*
X95778486Y30473329D01*
X95807341Y30459676D01*
X95605241Y30324637D01*
X95405363Y30124759D01*
X95248320Y29889727D01*
X95140147Y29628574D01*
X95085000Y29351335D01*
X92809833Y29351335D01*
X92205400Y29955767D01*
X92205400Y31639488D01*
X95079783Y31639488D01*
X95121213Y31359870D01*
X95216397Y31093708D01*
X95283329Y30968486D01*
X95527298Y30896903D01*
X96340395Y31710000D01*
X96699605Y31710000D01*
X97512702Y30896903D01*
X97756671Y30968486D01*
X97877571Y31223996D01*
X97946300Y31498184D01*
X97960217Y31780512D01*
X97918787Y32060130D01*
X97823603Y32326292D01*
X97756671Y32451514D01*
X97512702Y32523097D01*
X96699605Y31710000D01*
X96340395Y31710000D01*
X95527298Y32523097D01*
X95283329Y32451514D01*
X95162429Y32196004D01*
X95093700Y31921816D01*
X95079783Y31639488D01*
X92205400Y31639488D01*
X92205400Y32451928D01*
X93510000Y32451928D01*
X93634482Y32464188D01*
X93754180Y32500498D01*
X93864494Y32559463D01*
X93961185Y32638815D01*
X94013615Y32702702D01*
X95706903Y32702702D01*
X96520000Y31889605D01*
X97333097Y32702702D01*
X97261514Y32946671D01*
X97006004Y33067571D01*
X96731816Y33136300D01*
X96449488Y33150217D01*
X96169870Y33108787D01*
X95903708Y33013603D01*
X95778486Y32946671D01*
X95706903Y32702702D01*
X94013615Y32702702D01*
X94040537Y32735506D01*
X94099502Y32845820D01*
X94135812Y32965518D01*
X94148072Y33090000D01*
X94148072Y35490000D01*
X94135812Y35614482D01*
X94099502Y35734180D01*
X94040537Y35844494D01*
X93961185Y35941185D01*
X93864494Y36020537D01*
X93754180Y36079502D01*
X93634482Y36115812D01*
X93510000Y36128072D01*
X92205400Y36128072D01*
X92205400Y36243293D01*
X92209439Y36284301D01*
X92205400Y36325309D01*
X92205400Y36325319D01*
X92193318Y36447989D01*
X92145572Y36605387D01*
X92068036Y36750446D01*
X91963691Y36877591D01*
X91931828Y36903740D01*
X83565337Y45270230D01*
X83703475Y45408368D01*
X83820000Y45582760D01*
X83936525Y45408368D01*
X84143368Y45201525D01*
X84386589Y45039010D01*
X84656842Y44927068D01*
X84943740Y44870000D01*
X85236260Y44870000D01*
X85523158Y44927068D01*
X85793411Y45039010D01*
X86036632Y45201525D01*
X86168487Y45333380D01*
X86190498Y45260820D01*
X86249463Y45150506D01*
X86328815Y45053815D01*
X86425506Y44974463D01*
X86535820Y44915498D01*
X86655518Y44879188D01*
X86780000Y44866928D01*
X88480000Y44866928D01*
X88604482Y44879188D01*
X88724180Y44915498D01*
X88834494Y44974463D01*
X88931185Y45053815D01*
X89010537Y45150506D01*
X89069502Y45260820D01*
X89105812Y45380518D01*
X89118072Y45505000D01*
X89118072Y47205000D01*
X89105812Y47329482D01*
X89069502Y47449180D01*
X89010537Y47559494D01*
X88931185Y47656185D01*
X88834494Y47735537D01*
X88724180Y47794502D01*
X88604482Y47830812D01*
X88480000Y47843072D01*
X86780000Y47843072D01*
X86655518Y47830812D01*
X86535820Y47794502D01*
X86425506Y47735537D01*
X86328815Y47656185D01*
X86249463Y47559494D01*
X86190498Y47449180D01*
X86168487Y47376620D01*
X86036632Y47508475D01*
X85793411Y47670990D01*
X85523158Y47782932D01*
X85236260Y47840000D01*
X84943740Y47840000D01*
X84656842Y47782932D01*
X84386589Y47670990D01*
X84143368Y47508475D01*
X84103670Y47468777D01*
X77968559Y53603887D01*
X77945538Y53631938D01*
X77833620Y53723787D01*
X77705933Y53792037D01*
X77567385Y53834065D01*
X77459405Y53844700D01*
X77423300Y53848256D01*
X77387195Y53844700D01*
X70018072Y53844700D01*
X70018072Y55220128D01*
X92765000Y55220128D01*
X92765000Y54779872D01*
X92850890Y54348075D01*
X93019369Y53941331D01*
X93263962Y53575271D01*
X93575271Y53263962D01*
X93941331Y53019369D01*
X94348075Y52850890D01*
X94779872Y52765000D01*
X95220128Y52765000D01*
X95651925Y52850890D01*
X96058669Y53019369D01*
X96424729Y53263962D01*
X96736038Y53575271D01*
X96980631Y53941331D01*
X97149110Y54348075D01*
X97235000Y54779872D01*
X97235000Y55220128D01*
X97149110Y55651925D01*
X96980631Y56058669D01*
X96736038Y56424729D01*
X96424729Y56736038D01*
X96058669Y56980631D01*
X95651925Y57149110D01*
X95220128Y57235000D01*
X94779872Y57235000D01*
X94348075Y57149110D01*
X93941331Y56980631D01*
X93575271Y56736038D01*
X93263962Y56424729D01*
X93019369Y56058669D01*
X92850890Y55651925D01*
X92765000Y55220128D01*
X70018072Y55220128D01*
X70018072Y55810000D01*
X70005812Y55934482D01*
X69969502Y56054180D01*
X69910537Y56164494D01*
X69831185Y56261185D01*
X69734494Y56340537D01*
X69624180Y56399502D01*
X69504482Y56435812D01*
X69380000Y56448072D01*
X67780000Y56448072D01*
X67655518Y56435812D01*
X67535820Y56399502D01*
X67425506Y56340537D01*
X67328815Y56261185D01*
X67249463Y56164494D01*
X67190498Y56054180D01*
X67154188Y55934482D01*
X67152419Y55916518D01*
X67059608Y56029608D01*
X66841101Y56208932D01*
X66764826Y56249702D01*
X66764365Y56254385D01*
X66722337Y56392933D01*
X66654087Y56520620D01*
X66562238Y56632538D01*
X66534193Y56655554D01*
X64177959Y59011788D01*
X64154938Y59039838D01*
X64043020Y59131687D01*
X63915333Y59199937D01*
X63776785Y59241965D01*
X63668805Y59252600D01*
X63632700Y59256156D01*
X63596595Y59252600D01*
X19183694Y59252600D01*
X19147599Y59256155D01*
X19111504Y59252600D01*
X19111495Y59252600D01*
X19003515Y59241965D01*
X18864967Y59199937D01*
X18737280Y59131687D01*
X18625362Y59039838D01*
X18602346Y59011793D01*
X2187208Y42596654D01*
X2159162Y42573637D01*
X2067313Y42461719D01*
X1999063Y42334032D01*
X1984185Y42284986D01*
X1957035Y42195485D01*
X1942844Y42051400D01*
X660000Y42051400D01*
X660000Y55220128D01*
X2765000Y55220128D01*
X2765000Y54779872D01*
X2850890Y54348075D01*
X3019369Y53941331D01*
X3263962Y53575271D01*
X3575271Y53263962D01*
X3941331Y53019369D01*
X4348075Y52850890D01*
X4779872Y52765000D01*
X5220128Y52765000D01*
X5651925Y52850890D01*
X6058669Y53019369D01*
X6424729Y53263962D01*
X6736038Y53575271D01*
X6980631Y53941331D01*
X7149110Y54348075D01*
X7235000Y54779872D01*
X7235000Y55220128D01*
X7149110Y55651925D01*
X6980631Y56058669D01*
X6736038Y56424729D01*
X6424729Y56736038D01*
X6058669Y56980631D01*
X5651925Y57149110D01*
X5220128Y57235000D01*
X4779872Y57235000D01*
X4348075Y57149110D01*
X3941331Y56980631D01*
X3575271Y56736038D01*
X3263962Y56424729D01*
X3019369Y56058669D01*
X2850890Y55651925D01*
X2765000Y55220128D01*
X660000Y55220128D01*
X660000Y59340000D01*
X99340001Y59340000D01*
X99340000Y660000D01*
G04 #@! TA.AperFunction,Conductor*
D20*
G36*
X99340000Y660000D02*
G01*
X660000Y660000D01*
X660000Y5220128D01*
X2765000Y5220128D01*
X2765000Y4779872D01*
X2850890Y4348075D01*
X3019369Y3941331D01*
X3263962Y3575271D01*
X3575271Y3263962D01*
X3941331Y3019369D01*
X4348075Y2850890D01*
X4779872Y2765000D01*
X5220128Y2765000D01*
X5651925Y2850890D01*
X6058669Y3019369D01*
X6424729Y3263962D01*
X6736038Y3575271D01*
X6980631Y3941331D01*
X7149110Y4348075D01*
X7235000Y4779872D01*
X7235000Y5220128D01*
X7149110Y5651925D01*
X6980631Y6058669D01*
X6736038Y6424729D01*
X6424729Y6736038D01*
X6058669Y6980631D01*
X5651925Y7149110D01*
X5220128Y7235000D01*
X4779872Y7235000D01*
X4348075Y7149110D01*
X3941331Y6980631D01*
X3575271Y6736038D01*
X3263962Y6424729D01*
X3019369Y6058669D01*
X2850890Y5651925D01*
X2765000Y5220128D01*
X660000Y5220128D01*
X660000Y42051400D01*
X1942844Y42051400D01*
X1946400Y42015295D01*
X1946401Y19175015D01*
X1942844Y19138900D01*
X1957035Y18994815D01*
X1994778Y18870395D01*
X1999064Y18856267D01*
X2067314Y18728580D01*
X2159163Y18616662D01*
X2187208Y18593646D01*
X5363816Y15417037D01*
X5330393Y15389608D01*
X5151068Y15171101D01*
X5080000Y15038142D01*
X5008932Y15171101D01*
X4829608Y15389608D01*
X4611101Y15568932D01*
X4361808Y15702182D01*
X4091309Y15784236D01*
X3810000Y15811943D01*
X3528692Y15784236D01*
X3258193Y15702182D01*
X3008900Y15568932D01*
X2790393Y15389608D01*
X2611068Y15171101D01*
X2477818Y14921808D01*
X2395764Y14651309D01*
X2375000Y14440492D01*
X2375000Y13499509D01*
X2395764Y13288692D01*
X2477818Y13018193D01*
X2611068Y12768900D01*
X2790392Y12550393D01*
X3008899Y12371068D01*
X3258192Y12237818D01*
X3528691Y12155764D01*
X3810000Y12128057D01*
X4091308Y12155764D01*
X4361807Y12237818D01*
X4611100Y12371068D01*
X4829607Y12550392D01*
X5008932Y12768899D01*
X5080000Y12901858D01*
X5151068Y12768900D01*
X5330392Y12550393D01*
X5548899Y12371068D01*
X5798192Y12237818D01*
X6068691Y12155764D01*
X6350000Y12128057D01*
X6631308Y12155764D01*
X6901807Y12237818D01*
X7151100Y12371068D01*
X7369607Y12550392D01*
X7548932Y12768899D01*
X7620000Y12901858D01*
X7691068Y12768900D01*
X7870392Y12550393D01*
X8088899Y12371068D01*
X8338192Y12237818D01*
X8608691Y12155764D01*
X8890000Y12128057D01*
X9171308Y12155764D01*
X9441807Y12237818D01*
X9691100Y12371068D01*
X9909607Y12550392D01*
X10088932Y12768899D01*
X10160000Y12901858D01*
X10231068Y12768900D01*
X10410392Y12550393D01*
X10628899Y12371068D01*
X10878192Y12237818D01*
X11148691Y12155764D01*
X11430000Y12128057D01*
X11711308Y12155764D01*
X11981807Y12237818D01*
X12231100Y12371068D01*
X12449607Y12550392D01*
X12628932Y12768899D01*
X12700000Y12901858D01*
X12771068Y12768900D01*
X12950392Y12550393D01*
X13168899Y12371068D01*
X13418192Y12237818D01*
X13688691Y12155764D01*
X13970000Y12128057D01*
X14251308Y12155764D01*
X14521807Y12237818D01*
X14771100Y12371068D01*
X14989607Y12550392D01*
X15168932Y12768899D01*
X15240000Y12901858D01*
X15311068Y12768900D01*
X15490392Y12550393D01*
X15708899Y12371068D01*
X15958192Y12237818D01*
X16228691Y12155764D01*
X16510000Y12128057D01*
X16791308Y12155764D01*
X17061807Y12237818D01*
X17311100Y12371068D01*
X17529607Y12550392D01*
X17708932Y12768899D01*
X17780000Y12901858D01*
X17851068Y12768900D01*
X18030392Y12550393D01*
X18248899Y12371068D01*
X18325174Y12330298D01*
X18325635Y12325615D01*
X18367663Y12187067D01*
X18435913Y12059380D01*
X18527762Y11947462D01*
X18639680Y11855613D01*
X18767367Y11787363D01*
X18905915Y11745335D01*
X19013895Y11734700D01*
X19050000Y11731144D01*
X19086105Y11734700D01*
X20045054Y11734700D01*
X21836706Y9943047D01*
X21854010Y9856055D01*
X21920723Y9694995D01*
X22017576Y9550045D01*
X22140845Y9426776D01*
X22285795Y9329923D01*
X22446855Y9263210D01*
X22617835Y9229200D01*
X22792165Y9229200D01*
X22963145Y9263210D01*
X23124205Y9329923D01*
X23186504Y9371550D01*
X29923446Y2634607D01*
X29946462Y2606562D01*
X30058380Y2514713D01*
X30186067Y2446463D01*
X30324615Y2404435D01*
X30432595Y2393800D01*
X30432604Y2393800D01*
X30468699Y2390245D01*
X30504794Y2393800D01*
X44139995Y2393800D01*
X44176100Y2390244D01*
X44212205Y2393800D01*
X44320185Y2404435D01*
X44458733Y2446463D01*
X44586420Y2514713D01*
X44698338Y2606562D01*
X44721358Y2634612D01*
X46028320Y3941573D01*
X46043368Y3926525D01*
X46286589Y3764010D01*
X46556842Y3652068D01*
X46843740Y3595000D01*
X47136260Y3595000D01*
X47423158Y3652068D01*
X47693411Y3764010D01*
X47936632Y3926525D01*
X47957230Y3947123D01*
X48878846Y3025507D01*
X48901862Y2997462D01*
X49013780Y2905613D01*
X49141467Y2837363D01*
X49237986Y2808084D01*
X49280014Y2795335D01*
X49424099Y2781144D01*
X49460204Y2784700D01*
X71183895Y2784700D01*
X71220000Y2781144D01*
X71256105Y2784700D01*
X71364085Y2795335D01*
X71502633Y2837363D01*
X71630320Y2905613D01*
X71742238Y2997462D01*
X71765259Y3025513D01*
X73959874Y5220128D01*
X92765000Y5220128D01*
X92765000Y4779872D01*
X92850890Y4348075D01*
X93019369Y3941331D01*
X93263962Y3575271D01*
X93575271Y3263962D01*
X93941331Y3019369D01*
X94348075Y2850890D01*
X94779872Y2765000D01*
X95220128Y2765000D01*
X95651925Y2850890D01*
X96058669Y3019369D01*
X96424729Y3263962D01*
X96736038Y3575271D01*
X96980631Y3941331D01*
X97149110Y4348075D01*
X97235000Y4779872D01*
X97235000Y5220128D01*
X97149110Y5651925D01*
X96980631Y6058669D01*
X96736038Y6424729D01*
X96424729Y6736038D01*
X96058669Y6980631D01*
X95651925Y7149110D01*
X95220128Y7235000D01*
X94779872Y7235000D01*
X94348075Y7149110D01*
X93941331Y6980631D01*
X93575271Y6736038D01*
X93263962Y6424729D01*
X93019369Y6058669D01*
X92850890Y5651925D01*
X92765000Y5220128D01*
X73959874Y5220128D01*
X80504193Y11764446D01*
X80532238Y11787462D01*
X80624087Y11899380D01*
X80692337Y12027067D01*
X80734365Y12165615D01*
X80734826Y12170299D01*
X80811100Y12211068D01*
X81029607Y12390392D01*
X81208932Y12608899D01*
X81280000Y12741858D01*
X81351068Y12608900D01*
X81530392Y12390393D01*
X81748899Y12211068D01*
X81998192Y12077818D01*
X82268691Y11995764D01*
X82550000Y11968057D01*
X82831308Y11995764D01*
X83101807Y12077818D01*
X83351100Y12211068D01*
X83569607Y12390392D01*
X83748932Y12608899D01*
X83820000Y12741858D01*
X83891068Y12608900D01*
X84070392Y12390393D01*
X84288899Y12211068D01*
X84538192Y12077818D01*
X84808691Y11995764D01*
X85090000Y11968057D01*
X85371308Y11995764D01*
X85641807Y12077818D01*
X85891100Y12211068D01*
X86109607Y12390392D01*
X86288932Y12608899D01*
X86360000Y12741858D01*
X86431068Y12608900D01*
X86610392Y12390393D01*
X86828899Y12211068D01*
X87078192Y12077818D01*
X87348691Y11995764D01*
X87630000Y11968057D01*
X87911308Y11995764D01*
X88181807Y12077818D01*
X88431100Y12211068D01*
X88649607Y12390392D01*
X88828932Y12608899D01*
X88897265Y12736741D01*
X89047399Y12507161D01*
X89245105Y12305500D01*
X89478354Y12146285D01*
X89738182Y12035633D01*
X89820961Y12018096D01*
X90043000Y12140085D01*
X90043000Y13683000D01*
X90023000Y13683000D01*
X90023000Y13937000D01*
X90043000Y13937000D01*
X90043000Y15479915D01*
X90297000Y15479915D01*
X90297000Y13937000D01*
X90317000Y13937000D01*
X90317000Y13683000D01*
X90297000Y13683000D01*
X90297000Y12140085D01*
X90519039Y12018096D01*
X90601818Y12035633D01*
X90861646Y12146285D01*
X91094895Y12305500D01*
X91292601Y12507161D01*
X91442735Y12736742D01*
X91511068Y12608900D01*
X91690392Y12390393D01*
X91908899Y12211068D01*
X92158192Y12077818D01*
X92428691Y11995764D01*
X92710000Y11968057D01*
X92991308Y11995764D01*
X93261807Y12077818D01*
X93511100Y12211068D01*
X93729607Y12390392D01*
X93908932Y12608899D01*
X94042182Y12858192D01*
X94124236Y13128691D01*
X94145000Y13339508D01*
X94145000Y14280491D01*
X94124236Y14491309D01*
X94042182Y14761808D01*
X93908932Y15011101D01*
X93729608Y15229608D01*
X93511101Y15408932D01*
X93261808Y15542182D01*
X92991309Y15624236D01*
X92710000Y15651943D01*
X92428692Y15624236D01*
X92158193Y15542182D01*
X91908900Y15408932D01*
X91690393Y15229608D01*
X91511068Y15011101D01*
X91442735Y14883259D01*
X91292601Y15112839D01*
X91094895Y15314500D01*
X90861646Y15473715D01*
X90601818Y15584367D01*
X90519039Y15601904D01*
X90297000Y15479915D01*
X90043000Y15479915D01*
X89820961Y15601904D01*
X89738182Y15584367D01*
X89478354Y15473715D01*
X89245105Y15314500D01*
X89047399Y15112839D01*
X88897265Y14883259D01*
X88828932Y15011101D01*
X88649608Y15229608D01*
X88431101Y15408932D01*
X88181808Y15542182D01*
X87911309Y15624236D01*
X87630000Y15651943D01*
X87348692Y15624236D01*
X87078193Y15542182D01*
X86828900Y15408932D01*
X86610393Y15229608D01*
X86431068Y15011101D01*
X86360000Y14878142D01*
X86288932Y15011101D01*
X86109608Y15229608D01*
X85891101Y15408932D01*
X85641808Y15542182D01*
X85371309Y15624236D01*
X85090000Y15651943D01*
X84808692Y15624236D01*
X84538193Y15542182D01*
X84288900Y15408932D01*
X84070393Y15229608D01*
X83891068Y15011101D01*
X83820000Y14878142D01*
X83748932Y15011101D01*
X83569608Y15229608D01*
X83351101Y15408932D01*
X83101808Y15542182D01*
X82831309Y15624236D01*
X82550000Y15651943D01*
X82268692Y15624236D01*
X81998193Y15542182D01*
X81748900Y15408932D01*
X81530393Y15229608D01*
X81351068Y15011101D01*
X81280000Y14878142D01*
X81208932Y15011101D01*
X81029608Y15229608D01*
X80811101Y15408932D01*
X80693394Y15471848D01*
X84416247Y19194700D01*
X85053895Y19194700D01*
X85090000Y19191144D01*
X85126105Y19194700D01*
X85234085Y19205335D01*
X85372633Y19247363D01*
X85500320Y19315613D01*
X85612238Y19407462D01*
X85704087Y19519380D01*
X85772337Y19647067D01*
X85814365Y19785615D01*
X85814826Y19790299D01*
X85891100Y19831068D01*
X86109607Y20010392D01*
X86288932Y20228899D01*
X86360000Y20361858D01*
X86431068Y20228900D01*
X86610392Y20010393D01*
X86828899Y19831068D01*
X87078192Y19697818D01*
X87348691Y19615764D01*
X87630000Y19588057D01*
X87911308Y19615764D01*
X88181807Y19697818D01*
X88431100Y19831068D01*
X88649607Y20010392D01*
X88828932Y20228899D01*
X88900000Y20361858D01*
X88971068Y20228900D01*
X89150392Y20010393D01*
X89368899Y19831068D01*
X89618192Y19697818D01*
X89888691Y19615764D01*
X90170000Y19588057D01*
X90451308Y19615764D01*
X90721807Y19697818D01*
X90971100Y19831068D01*
X91189607Y20010392D01*
X91282419Y20123483D01*
X91284188Y20105518D01*
X91320498Y19985820D01*
X91379463Y19875506D01*
X91458815Y19778815D01*
X91555506Y19699463D01*
X91665820Y19640498D01*
X91785518Y19604188D01*
X91910000Y19591928D01*
X93510000Y19591928D01*
X93634482Y19604188D01*
X93754180Y19640498D01*
X93864494Y19699463D01*
X93961185Y19778815D01*
X93998600Y19824406D01*
X93998600Y18097419D01*
X93994560Y18056400D01*
X94008702Y17912814D01*
X94010682Y17892712D01*
X94058428Y17735314D01*
X94135964Y17590255D01*
X94240309Y17463109D01*
X94272179Y17436954D01*
X95103714Y16605418D01*
X95085000Y16511335D01*
X95085000Y16228665D01*
X95140147Y15951426D01*
X95248320Y15690273D01*
X95405363Y15455241D01*
X95605241Y15255363D01*
X95840273Y15098320D01*
X96101426Y14990147D01*
X96378665Y14935000D01*
X96661335Y14935000D01*
X96938574Y14990147D01*
X97199727Y15098320D01*
X97434759Y15255363D01*
X97634637Y15455241D01*
X97791680Y15690273D01*
X97899853Y15951426D01*
X97955000Y16228665D01*
X97955000Y16511335D01*
X97899853Y16788574D01*
X97791680Y17049727D01*
X97634637Y17284759D01*
X97434759Y17484637D01*
X97234131Y17618692D01*
X97261514Y17633329D01*
X97333097Y17877298D01*
X96520000Y18690395D01*
X96505858Y18676252D01*
X96326253Y18855857D01*
X96340395Y18870000D01*
X96699605Y18870000D01*
X97512702Y18056903D01*
X97756671Y18128486D01*
X97877571Y18383996D01*
X97946300Y18658184D01*
X97960217Y18940512D01*
X97918787Y19220130D01*
X97823603Y19486292D01*
X97756671Y19611514D01*
X97512702Y19683097D01*
X96699605Y18870000D01*
X96340395Y18870000D01*
X96326253Y18884142D01*
X96505858Y19063747D01*
X96520000Y19049605D01*
X97333097Y19862702D01*
X97261514Y20106671D01*
X97006004Y20227571D01*
X96731816Y20296300D01*
X96449488Y20310217D01*
X96169870Y20268787D01*
X95903708Y20173603D01*
X95778486Y20106671D01*
X95706903Y19862704D01*
X95668600Y19901007D01*
X95668600Y22905082D01*
X95672640Y22946100D01*
X95656518Y23109789D01*
X95608772Y23267187D01*
X95531236Y23412246D01*
X95453039Y23507530D01*
X95453037Y23507532D01*
X95426891Y23539391D01*
X95395032Y23565537D01*
X93718934Y25241633D01*
X93729607Y25250392D01*
X93908932Y25468899D01*
X94042182Y25718192D01*
X94124236Y25988691D01*
X94145000Y26199508D01*
X94145000Y27140491D01*
X94124236Y27351309D01*
X94042182Y27621808D01*
X93908932Y27871101D01*
X93729608Y28089608D01*
X93546077Y28240228D01*
X93549039Y28270301D01*
X93545000Y28311309D01*
X93545000Y28311319D01*
X93532918Y28433989D01*
X93485172Y28591387D01*
X93407636Y28736446D01*
X93303291Y28863591D01*
X93271426Y28889742D01*
X92809833Y29351335D01*
X95085000Y29351335D01*
X95085000Y29068665D01*
X95140147Y28791426D01*
X95248320Y28530273D01*
X95405363Y28295241D01*
X95605241Y28095363D01*
X95840273Y27938320D01*
X96101426Y27830147D01*
X96378665Y27775000D01*
X96661335Y27775000D01*
X96938574Y27830147D01*
X97199727Y27938320D01*
X97434759Y28095363D01*
X97634637Y28295241D01*
X97791680Y28530273D01*
X97899853Y28791426D01*
X97955000Y29068665D01*
X97955000Y29351335D01*
X97899853Y29628574D01*
X97791680Y29889727D01*
X97634637Y30124759D01*
X97434759Y30324637D01*
X97234131Y30458692D01*
X97261514Y30473329D01*
X97333097Y30717298D01*
X96520000Y31530395D01*
X95706903Y30717298D01*
X95778486Y30473329D01*
X95807341Y30459676D01*
X95605241Y30324637D01*
X95405363Y30124759D01*
X95248320Y29889727D01*
X95140147Y29628574D01*
X95085000Y29351335D01*
X92809833Y29351335D01*
X92205400Y29955767D01*
X92205400Y31639488D01*
X95079783Y31639488D01*
X95121213Y31359870D01*
X95216397Y31093708D01*
X95283329Y30968486D01*
X95527298Y30896903D01*
X96340395Y31710000D01*
X96699605Y31710000D01*
X97512702Y30896903D01*
X97756671Y30968486D01*
X97877571Y31223996D01*
X97946300Y31498184D01*
X97960217Y31780512D01*
X97918787Y32060130D01*
X97823603Y32326292D01*
X97756671Y32451514D01*
X97512702Y32523097D01*
X96699605Y31710000D01*
X96340395Y31710000D01*
X95527298Y32523097D01*
X95283329Y32451514D01*
X95162429Y32196004D01*
X95093700Y31921816D01*
X95079783Y31639488D01*
X92205400Y31639488D01*
X92205400Y32451928D01*
X93510000Y32451928D01*
X93634482Y32464188D01*
X93754180Y32500498D01*
X93864494Y32559463D01*
X93961185Y32638815D01*
X94013615Y32702702D01*
X95706903Y32702702D01*
X96520000Y31889605D01*
X97333097Y32702702D01*
X97261514Y32946671D01*
X97006004Y33067571D01*
X96731816Y33136300D01*
X96449488Y33150217D01*
X96169870Y33108787D01*
X95903708Y33013603D01*
X95778486Y32946671D01*
X95706903Y32702702D01*
X94013615Y32702702D01*
X94040537Y32735506D01*
X94099502Y32845820D01*
X94135812Y32965518D01*
X94148072Y33090000D01*
X94148072Y35490000D01*
X94135812Y35614482D01*
X94099502Y35734180D01*
X94040537Y35844494D01*
X93961185Y35941185D01*
X93864494Y36020537D01*
X93754180Y36079502D01*
X93634482Y36115812D01*
X93510000Y36128072D01*
X92205400Y36128072D01*
X92205400Y36243293D01*
X92209439Y36284301D01*
X92205400Y36325309D01*
X92205400Y36325319D01*
X92193318Y36447989D01*
X92145572Y36605387D01*
X92068036Y36750446D01*
X91963691Y36877591D01*
X91931828Y36903740D01*
X83565337Y45270230D01*
X83703475Y45408368D01*
X83820000Y45582760D01*
X83936525Y45408368D01*
X84143368Y45201525D01*
X84386589Y45039010D01*
X84656842Y44927068D01*
X84943740Y44870000D01*
X85236260Y44870000D01*
X85523158Y44927068D01*
X85793411Y45039010D01*
X86036632Y45201525D01*
X86168487Y45333380D01*
X86190498Y45260820D01*
X86249463Y45150506D01*
X86328815Y45053815D01*
X86425506Y44974463D01*
X86535820Y44915498D01*
X86655518Y44879188D01*
X86780000Y44866928D01*
X88480000Y44866928D01*
X88604482Y44879188D01*
X88724180Y44915498D01*
X88834494Y44974463D01*
X88931185Y45053815D01*
X89010537Y45150506D01*
X89069502Y45260820D01*
X89105812Y45380518D01*
X89118072Y45505000D01*
X89118072Y47205000D01*
X89105812Y47329482D01*
X89069502Y47449180D01*
X89010537Y47559494D01*
X88931185Y47656185D01*
X88834494Y47735537D01*
X88724180Y47794502D01*
X88604482Y47830812D01*
X88480000Y47843072D01*
X86780000Y47843072D01*
X86655518Y47830812D01*
X86535820Y47794502D01*
X86425506Y47735537D01*
X86328815Y47656185D01*
X86249463Y47559494D01*
X86190498Y47449180D01*
X86168487Y47376620D01*
X86036632Y47508475D01*
X85793411Y47670990D01*
X85523158Y47782932D01*
X85236260Y47840000D01*
X84943740Y47840000D01*
X84656842Y47782932D01*
X84386589Y47670990D01*
X84143368Y47508475D01*
X84103670Y47468777D01*
X77968559Y53603887D01*
X77945538Y53631938D01*
X77833620Y53723787D01*
X77705933Y53792037D01*
X77567385Y53834065D01*
X77459405Y53844700D01*
X77423300Y53848256D01*
X77387195Y53844700D01*
X70018072Y53844700D01*
X70018072Y55220128D01*
X92765000Y55220128D01*
X92765000Y54779872D01*
X92850890Y54348075D01*
X93019369Y53941331D01*
X93263962Y53575271D01*
X93575271Y53263962D01*
X93941331Y53019369D01*
X94348075Y52850890D01*
X94779872Y52765000D01*
X95220128Y52765000D01*
X95651925Y52850890D01*
X96058669Y53019369D01*
X96424729Y53263962D01*
X96736038Y53575271D01*
X96980631Y53941331D01*
X97149110Y54348075D01*
X97235000Y54779872D01*
X97235000Y55220128D01*
X97149110Y55651925D01*
X96980631Y56058669D01*
X96736038Y56424729D01*
X96424729Y56736038D01*
X96058669Y56980631D01*
X95651925Y57149110D01*
X95220128Y57235000D01*
X94779872Y57235000D01*
X94348075Y57149110D01*
X93941331Y56980631D01*
X93575271Y56736038D01*
X93263962Y56424729D01*
X93019369Y56058669D01*
X92850890Y55651925D01*
X92765000Y55220128D01*
X70018072Y55220128D01*
X70018072Y55810000D01*
X70005812Y55934482D01*
X69969502Y56054180D01*
X69910537Y56164494D01*
X69831185Y56261185D01*
X69734494Y56340537D01*
X69624180Y56399502D01*
X69504482Y56435812D01*
X69380000Y56448072D01*
X67780000Y56448072D01*
X67655518Y56435812D01*
X67535820Y56399502D01*
X67425506Y56340537D01*
X67328815Y56261185D01*
X67249463Y56164494D01*
X67190498Y56054180D01*
X67154188Y55934482D01*
X67152419Y55916518D01*
X67059608Y56029608D01*
X66841101Y56208932D01*
X66764826Y56249702D01*
X66764365Y56254385D01*
X66722337Y56392933D01*
X66654087Y56520620D01*
X66562238Y56632538D01*
X66534193Y56655554D01*
X64177959Y59011788D01*
X64154938Y59039838D01*
X64043020Y59131687D01*
X63915333Y59199937D01*
X63776785Y59241965D01*
X63668805Y59252600D01*
X63632700Y59256156D01*
X63596595Y59252600D01*
X19183694Y59252600D01*
X19147599Y59256155D01*
X19111504Y59252600D01*
X19111495Y59252600D01*
X19003515Y59241965D01*
X18864967Y59199937D01*
X18737280Y59131687D01*
X18625362Y59039838D01*
X18602346Y59011793D01*
X2187208Y42596654D01*
X2159162Y42573637D01*
X2067313Y42461719D01*
X1999063Y42334032D01*
X1984185Y42284986D01*
X1957035Y42195485D01*
X1942844Y42051400D01*
X660000Y42051400D01*
X660000Y55220128D01*
X2765000Y55220128D01*
X2765000Y54779872D01*
X2850890Y54348075D01*
X3019369Y53941331D01*
X3263962Y53575271D01*
X3575271Y53263962D01*
X3941331Y53019369D01*
X4348075Y52850890D01*
X4779872Y52765000D01*
X5220128Y52765000D01*
X5651925Y52850890D01*
X6058669Y53019369D01*
X6424729Y53263962D01*
X6736038Y53575271D01*
X6980631Y53941331D01*
X7149110Y54348075D01*
X7235000Y54779872D01*
X7235000Y55220128D01*
X7149110Y55651925D01*
X6980631Y56058669D01*
X6736038Y56424729D01*
X6424729Y56736038D01*
X6058669Y56980631D01*
X5651925Y57149110D01*
X5220128Y57235000D01*
X4779872Y57235000D01*
X4348075Y57149110D01*
X3941331Y56980631D01*
X3575271Y56736038D01*
X3263962Y56424729D01*
X3019369Y56058669D01*
X2850890Y55651925D01*
X2765000Y55220128D01*
X660000Y55220128D01*
X660000Y59340000D01*
X99340001Y59340000D01*
X99340000Y660000D01*
G37*
G04 #@! TD.AperFunction*
D19*
X37689680Y52495613D02*
X37817367Y52427363D01*
X37955915Y52385335D01*
X38063895Y52374700D01*
X38100000Y52371144D01*
X38136105Y52374700D01*
X38733254Y52374700D01*
X50090213Y41017740D01*
X49998900Y40968932D01*
X49842153Y40840293D01*
X48517358Y42165088D01*
X48494338Y42193138D01*
X48382420Y42284987D01*
X48254733Y42353237D01*
X48116185Y42395265D01*
X48008205Y42405900D01*
X47972100Y42409456D01*
X47935995Y42405900D01*
X38936694Y42405900D01*
X38900599Y42409455D01*
X38864504Y42405900D01*
X38864495Y42405900D01*
X38756515Y42395265D01*
X38617967Y42353237D01*
X38490280Y42284987D01*
X38378362Y42193138D01*
X38355346Y42165093D01*
X37605808Y41415554D01*
X37577763Y41392538D01*
X37485914Y41280620D01*
X37430371Y41176706D01*
X37417664Y41152933D01*
X37375635Y41014385D01*
X37375174Y41009701D01*
X37298900Y40968932D01*
X37080393Y40789608D01*
X36901068Y40571101D01*
X36830000Y40438142D01*
X36758932Y40571101D01*
X36579608Y40789608D01*
X36361101Y40968932D01*
X36111808Y41102182D01*
X35841309Y41184236D01*
X35560000Y41211943D01*
X35278692Y41184236D01*
X35008193Y41102182D01*
X34758900Y40968932D01*
X34540393Y40789608D01*
X34361068Y40571101D01*
X34227818Y40321808D01*
X34145764Y40051309D01*
X34125000Y39840492D01*
X34125000Y38899509D01*
X34145764Y38688692D01*
X34227818Y38418193D01*
X34361068Y38168900D01*
X34540392Y37950393D01*
X34758899Y37771068D01*
X34835174Y37730298D01*
X34835635Y37725615D01*
X34877663Y37587067D01*
X34945913Y37459380D01*
X35037762Y37347462D01*
X35149680Y37255613D01*
X35277367Y37187363D01*
X35415915Y37145335D01*
X35523895Y37134700D01*
X35560000Y37131144D01*
X35596105Y37134700D01*
X35988254Y37134700D01*
X44068006Y29054947D01*
X44085310Y28967955D01*
X44152023Y28806895D01*
X44248876Y28661945D01*
X44372145Y28538676D01*
X44517095Y28441823D01*
X44678155Y28375110D01*
X44849135Y28341100D01*
X44985000Y28341100D01*
X44985000Y28304263D01*
X44918900Y28268932D01*
X44700393Y28089608D01*
X44521068Y27871101D01*
X44387818Y27621808D01*
X44305764Y27351309D01*
X44285000Y27140492D01*
X44285000Y26199509D01*
X44305764Y25988692D01*
X44387818Y25718193D01*
X44521068Y25468900D01*
X44700392Y25250393D01*
X44918899Y25071068D01*
X45168192Y24937818D01*
X45438691Y24855764D01*
X45720000Y24828057D01*
X46001308Y24855764D01*
X46271807Y24937818D01*
X46424601Y25019488D01*
X46424600Y11176805D01*
X46421044Y11140700D01*
X46435235Y10996616D01*
X46477263Y10858068D01*
X46545513Y10730381D01*
X46637362Y10618463D01*
X46665408Y10595446D01*
X48535373Y8725480D01*
X48376525Y8566632D01*
X48260000Y8392240D01*
X48143475Y8566632D01*
X47936632Y8773475D01*
X47693411Y8935990D01*
X47423158Y9047932D01*
X47136260Y9105000D01*
X46843740Y9105000D01*
X46556842Y9047932D01*
X46286589Y8935990D01*
X46043368Y8773475D01*
X45836525Y8566632D01*
X45720000Y8392240D01*
X45603475Y8566632D01*
X45396632Y8773475D01*
X45153411Y8935990D01*
X44883158Y9047932D01*
X44596260Y9105000D01*
X44303740Y9105000D01*
X44016842Y9047932D01*
X43746589Y8935990D01*
X43503368Y8773475D01*
X43296525Y8566632D01*
X43180000Y8392240D01*
X43063475Y8566632D01*
X42856632Y8773475D01*
X42613411Y8935990D01*
X42343158Y9047932D01*
X42056260Y9105000D01*
X41763740Y9105000D01*
X41476842Y9047932D01*
X41206589Y8935990D01*
X40963368Y8773475D01*
X40756525Y8566632D01*
X40640000Y8392240D01*
X40523475Y8566632D01*
X40316632Y8773475D01*
X40073411Y8935990D01*
X39803158Y9047932D01*
X39516260Y9105000D01*
X39223740Y9105000D01*
X38936842Y9047932D01*
X38666589Y8935990D01*
X38423368Y8773475D01*
X38216525Y8566632D01*
X38094805Y8384466D01*
X38025178Y8501355D01*
X37830269Y8717588D01*
X37596920Y8891641D01*
X37334099Y9016825D01*
X37186890Y9061476D01*
X36957000Y8940155D01*
X36957000Y7747000D01*
X36977000Y7747000D01*
X36977000Y7493000D01*
X36957000Y7493000D01*
X36957000Y5207000D01*
X36977000Y5207000D01*
X36977000Y4953000D01*
X36957000Y4953000D01*
X36957000Y4933000D01*
X36703000Y4933000D01*
X36703000Y4953000D01*
X36683000Y4953000D01*
X36683000Y5207000D01*
X36703000Y5207000D01*
X36703000Y7493000D01*
X36683000Y7493000D01*
X36683000Y7747000D01*
X36703000Y7747000D01*
X36703000Y8940155D01*
X36473110Y9061476D01*
X36325901Y9016825D01*
X36063080Y8891641D01*
X35829731Y8717588D01*
X35634822Y8501355D01*
X35565195Y8384466D01*
X35443475Y8566632D01*
X35236632Y8773475D01*
X34993411Y8935990D01*
X34723158Y9047932D01*
X34436260Y9105000D01*
X34143740Y9105000D01*
X33856842Y9047932D01*
X33586589Y8935990D01*
X33343368Y8773475D01*
X33136525Y8566632D01*
X32974010Y8323411D01*
X32862068Y8053158D01*
X32805000Y7766260D01*
X32805000Y7473740D01*
X32862068Y7186842D01*
X32974010Y6916589D01*
X33136525Y6673368D01*
X33343368Y6466525D01*
X33517760Y6350000D01*
X33343368Y6233475D01*
X33136525Y6026632D01*
X32974010Y5783411D01*
X32862068Y5513158D01*
X32805000Y5226260D01*
X32805000Y4933740D01*
X32862068Y4646842D01*
X32974010Y4376589D01*
X33049173Y4264100D01*
X32901647Y4264100D01*
X25413058Y11752688D01*
X25507515Y11724035D01*
X25615495Y11713400D01*
X25615504Y11713400D01*
X25651599Y11709845D01*
X25687694Y11713400D01*
X27085995Y11713400D01*
X27122100Y11709844D01*
X27158205Y11713400D01*
X27266185Y11724035D01*
X27404733Y11766063D01*
X27532420Y11834313D01*
X27644338Y11926162D01*
X27667358Y11954212D01*
X29285297Y13572150D01*
X29313337Y13595162D01*
X29336350Y13623203D01*
X29336353Y13623206D01*
X29405186Y13707079D01*
X29405187Y13707080D01*
X29473437Y13834767D01*
X29515465Y13973315D01*
X29526100Y14081295D01*
X29526100Y14081304D01*
X29529655Y14117399D01*
X29526100Y14153494D01*
X29526100Y15434504D01*
X29565241Y15395363D01*
X29800273Y15238320D01*
X30061426Y15130147D01*
X30338665Y15075000D01*
X30621335Y15075000D01*
X30898574Y15130147D01*
X31159727Y15238320D01*
X31394759Y15395363D01*
X31594637Y15595241D01*
X31751680Y15830273D01*
X31859853Y16091426D01*
X31915000Y16368665D01*
X31915000Y16651335D01*
X31859853Y16928574D01*
X31751680Y17189727D01*
X31671317Y17310000D01*
X35391928Y17310000D01*
X35391928Y15710000D01*
X35404188Y15585518D01*
X35440498Y15465820D01*
X35499463Y15355506D01*
X35578815Y15258815D01*
X35675506Y15179463D01*
X35785820Y15120498D01*
X35905518Y15084188D01*
X36030000Y15071928D01*
X37630000Y15071928D01*
X37754482Y15084188D01*
X37874180Y15120498D01*
X37984494Y15179463D01*
X38081185Y15258815D01*
X38160537Y15355506D01*
X38219502Y15465820D01*
X38255812Y15585518D01*
X38268072Y15710000D01*
X38268072Y17310000D01*
X38255812Y17434482D01*
X38219502Y17554180D01*
X38160537Y17664494D01*
X38081185Y17761185D01*
X37984494Y17840537D01*
X37874180Y17899502D01*
X37754482Y17935812D01*
X37630000Y17948072D01*
X37622785Y17948072D01*
X37643097Y18017298D01*
X36830000Y18830395D01*
X36016903Y18017298D01*
X36037215Y17948072D01*
X36030000Y17948072D01*
X35905518Y17935812D01*
X35785820Y17899502D01*
X35675506Y17840537D01*
X35578815Y17761185D01*
X35499463Y17664494D01*
X35440498Y17554180D01*
X35404188Y17434482D01*
X35391928Y17310000D01*
X31671317Y17310000D01*
X31594637Y17424759D01*
X31394759Y17624637D01*
X31194131Y17758692D01*
X31221514Y17773329D01*
X31293097Y18017298D01*
X30480000Y18830395D01*
X30465858Y18816252D01*
X30286253Y18995857D01*
X30300395Y19010000D01*
X30659605Y19010000D01*
X31472702Y18196903D01*
X31716671Y18268486D01*
X31837571Y18523996D01*
X31906300Y18798184D01*
X31913265Y18939488D01*
X35389783Y18939488D01*
X35431213Y18659870D01*
X35526397Y18393708D01*
X35593329Y18268486D01*
X35837298Y18196903D01*
X36650395Y19010000D01*
X37009605Y19010000D01*
X37822702Y18196903D01*
X38066671Y18268486D01*
X38187571Y18523996D01*
X38256300Y18798184D01*
X38270217Y19080512D01*
X38228787Y19360130D01*
X38133603Y19626292D01*
X38066671Y19751514D01*
X37822702Y19823097D01*
X37009605Y19010000D01*
X36650395Y19010000D01*
X35837298Y19823097D01*
X35593329Y19751514D01*
X35472429Y19496004D01*
X35403700Y19221816D01*
X35389783Y18939488D01*
X31913265Y18939488D01*
X31920217Y19080512D01*
X31878787Y19360130D01*
X31783603Y19626292D01*
X31716671Y19751514D01*
X31472702Y19823097D01*
X30659605Y19010000D01*
X30300395Y19010000D01*
X30286253Y19024142D01*
X30465858Y19203747D01*
X30480000Y19189605D01*
X31293097Y20002702D01*
X36016903Y20002702D01*
X36830000Y19189605D01*
X37643097Y20002702D01*
X37571514Y20246671D01*
X37316004Y20367571D01*
X37041816Y20436300D01*
X36759488Y20450217D01*
X36479870Y20408787D01*
X36213708Y20313603D01*
X36088486Y20246671D01*
X36016903Y20002702D01*
X31293097Y20002702D01*
X31221514Y20246671D01*
X30966004Y20367571D01*
X30691816Y20436300D01*
X30409488Y20450217D01*
X30129870Y20408787D01*
X29863708Y20313603D01*
X29738486Y20246671D01*
X29666903Y20002704D01*
X29550630Y20118977D01*
X29526100Y20094447D01*
X29526100Y23342754D01*
X31303953Y25120606D01*
X31390945Y25137910D01*
X31552005Y25204623D01*
X31696955Y25301476D01*
X31820224Y25424745D01*
X31917077Y25569695D01*
X31983790Y25730755D01*
X32017800Y25901735D01*
X32017800Y26076065D01*
X31983790Y26247045D01*
X31917077Y26408105D01*
X31820224Y26553055D01*
X31696955Y26676324D01*
X31552005Y26773177D01*
X31390945Y26839890D01*
X31219965Y26873900D01*
X31045635Y26873900D01*
X30874655Y26839890D01*
X30713595Y26773177D01*
X30568645Y26676324D01*
X30445376Y26553055D01*
X30348523Y26408105D01*
X30281810Y26247045D01*
X30264506Y26160053D01*
X28296908Y24192454D01*
X28268863Y24169438D01*
X28177014Y24057520D01*
X28108764Y23929833D01*
X28066735Y23791285D01*
X28052544Y23647200D01*
X28056101Y23611085D01*
X28056101Y23040543D01*
X28000537Y23144494D01*
X27921185Y23241185D01*
X27824494Y23320537D01*
X27714180Y23379502D01*
X27594482Y23415812D01*
X27505000Y23424625D01*
X27505000Y25098889D01*
X27689607Y25250392D01*
X27868932Y25468899D01*
X28002182Y25718192D01*
X28084236Y25988691D01*
X28105000Y26199508D01*
X28105000Y27140491D01*
X28084236Y27351309D01*
X28002182Y27621808D01*
X27868932Y27871101D01*
X27689608Y28089608D01*
X27505000Y28241112D01*
X27505000Y29351335D01*
X29045000Y29351335D01*
X29045000Y29068665D01*
X29100147Y28791426D01*
X29208320Y28530273D01*
X29365363Y28295241D01*
X29565241Y28095363D01*
X29800273Y27938320D01*
X30061426Y27830147D01*
X30338665Y27775000D01*
X30621335Y27775000D01*
X30898574Y27830147D01*
X31159727Y27938320D01*
X31394759Y28095363D01*
X31594637Y28295241D01*
X31751680Y28530273D01*
X31859853Y28791426D01*
X31915000Y29068665D01*
X31915000Y29351335D01*
X31859853Y29628574D01*
X31751680Y29889727D01*
X31594637Y30124759D01*
X31394759Y30324637D01*
X31194131Y30458692D01*
X31221514Y30473329D01*
X31293097Y30717298D01*
X30480000Y31530395D01*
X29666903Y30717298D01*
X29738486Y30473329D01*
X29767341Y30459676D01*
X29565241Y30324637D01*
X29365363Y30124759D01*
X29208320Y29889727D01*
X29100147Y29628574D01*
X29045000Y29351335D01*
X27505000Y29351335D01*
X27505000Y31639488D01*
X29039783Y31639488D01*
X29081213Y31359870D01*
X29176397Y31093708D01*
X29243329Y30968486D01*
X29487298Y30896903D01*
X30300395Y31710000D01*
X30659605Y31710000D01*
X31472702Y30896903D01*
X31716671Y30968486D01*
X31837571Y31223996D01*
X31906300Y31498184D01*
X31920217Y31780512D01*
X31878787Y32060130D01*
X31783603Y32326292D01*
X31716671Y32451514D01*
X31472702Y32523097D01*
X30659605Y31710000D01*
X30300395Y31710000D01*
X29487298Y32523097D01*
X29243329Y32451514D01*
X29122429Y32196004D01*
X29053700Y31921816D01*
X29039783Y31639488D01*
X27505000Y31639488D01*
X27505000Y32455375D01*
X27594482Y32464188D01*
X27714180Y32500498D01*
X27824494Y32559463D01*
X27921185Y32638815D01*
X27973615Y32702702D01*
X29666903Y32702702D01*
X30480000Y31889605D01*
X31293097Y32702702D01*
X31221514Y32946671D01*
X30966004Y33067571D01*
X30691816Y33136300D01*
X30409488Y33150217D01*
X30129870Y33108787D01*
X29863708Y33013603D01*
X29738486Y32946671D01*
X29666903Y32702702D01*
X27973615Y32702702D01*
X28000537Y32735506D01*
X28059502Y32845820D01*
X28095812Y32965518D01*
X28108072Y33090000D01*
X28108072Y35490000D01*
X28095812Y35614482D01*
X28059502Y35734180D01*
X28000537Y35844494D01*
X27921185Y35941185D01*
X27824494Y36020537D01*
X27714180Y36079502D01*
X27594482Y36115812D01*
X27470000Y36128072D01*
X25870000Y36128072D01*
X25745518Y36115812D01*
X25625820Y36079502D01*
X25515506Y36020537D01*
X25418815Y35941185D01*
X25339463Y35844494D01*
X25280498Y35734180D01*
X25244188Y35614482D01*
X25242419Y35596518D01*
X25149608Y35709608D01*
X25116184Y35737038D01*
X37410593Y48031446D01*
X37438638Y48054462D01*
X37530487Y48166380D01*
X37598737Y48294067D01*
X37640765Y48432615D01*
X37651400Y48540595D01*
X37651400Y48540604D01*
X37654955Y48576699D01*
X37651400Y48612794D01*
X37651400Y52527029D01*
X37689680Y52495613D01*
G04 #@! TA.AperFunction,Conductor*
D20*
G36*
X37689680Y52495613D02*
G01*
X37817367Y52427363D01*
X37955915Y52385335D01*
X38063895Y52374700D01*
X38100000Y52371144D01*
X38136105Y52374700D01*
X38733254Y52374700D01*
X50090213Y41017740D01*
X49998900Y40968932D01*
X49842153Y40840293D01*
X48517358Y42165088D01*
X48494338Y42193138D01*
X48382420Y42284987D01*
X48254733Y42353237D01*
X48116185Y42395265D01*
X48008205Y42405900D01*
X47972100Y42409456D01*
X47935995Y42405900D01*
X38936694Y42405900D01*
X38900599Y42409455D01*
X38864504Y42405900D01*
X38864495Y42405900D01*
X38756515Y42395265D01*
X38617967Y42353237D01*
X38490280Y42284987D01*
X38378362Y42193138D01*
X38355346Y42165093D01*
X37605808Y41415554D01*
X37577763Y41392538D01*
X37485914Y41280620D01*
X37430371Y41176706D01*
X37417664Y41152933D01*
X37375635Y41014385D01*
X37375174Y41009701D01*
X37298900Y40968932D01*
X37080393Y40789608D01*
X36901068Y40571101D01*
X36830000Y40438142D01*
X36758932Y40571101D01*
X36579608Y40789608D01*
X36361101Y40968932D01*
X36111808Y41102182D01*
X35841309Y41184236D01*
X35560000Y41211943D01*
X35278692Y41184236D01*
X35008193Y41102182D01*
X34758900Y40968932D01*
X34540393Y40789608D01*
X34361068Y40571101D01*
X34227818Y40321808D01*
X34145764Y40051309D01*
X34125000Y39840492D01*
X34125000Y38899509D01*
X34145764Y38688692D01*
X34227818Y38418193D01*
X34361068Y38168900D01*
X34540392Y37950393D01*
X34758899Y37771068D01*
X34835174Y37730298D01*
X34835635Y37725615D01*
X34877663Y37587067D01*
X34945913Y37459380D01*
X35037762Y37347462D01*
X35149680Y37255613D01*
X35277367Y37187363D01*
X35415915Y37145335D01*
X35523895Y37134700D01*
X35560000Y37131144D01*
X35596105Y37134700D01*
X35988254Y37134700D01*
X44068006Y29054947D01*
X44085310Y28967955D01*
X44152023Y28806895D01*
X44248876Y28661945D01*
X44372145Y28538676D01*
X44517095Y28441823D01*
X44678155Y28375110D01*
X44849135Y28341100D01*
X44985000Y28341100D01*
X44985000Y28304263D01*
X44918900Y28268932D01*
X44700393Y28089608D01*
X44521068Y27871101D01*
X44387818Y27621808D01*
X44305764Y27351309D01*
X44285000Y27140492D01*
X44285000Y26199509D01*
X44305764Y25988692D01*
X44387818Y25718193D01*
X44521068Y25468900D01*
X44700392Y25250393D01*
X44918899Y25071068D01*
X45168192Y24937818D01*
X45438691Y24855764D01*
X45720000Y24828057D01*
X46001308Y24855764D01*
X46271807Y24937818D01*
X46424601Y25019488D01*
X46424600Y11176805D01*
X46421044Y11140700D01*
X46435235Y10996616D01*
X46477263Y10858068D01*
X46545513Y10730381D01*
X46637362Y10618463D01*
X46665408Y10595446D01*
X48535373Y8725480D01*
X48376525Y8566632D01*
X48260000Y8392240D01*
X48143475Y8566632D01*
X47936632Y8773475D01*
X47693411Y8935990D01*
X47423158Y9047932D01*
X47136260Y9105000D01*
X46843740Y9105000D01*
X46556842Y9047932D01*
X46286589Y8935990D01*
X46043368Y8773475D01*
X45836525Y8566632D01*
X45720000Y8392240D01*
X45603475Y8566632D01*
X45396632Y8773475D01*
X45153411Y8935990D01*
X44883158Y9047932D01*
X44596260Y9105000D01*
X44303740Y9105000D01*
X44016842Y9047932D01*
X43746589Y8935990D01*
X43503368Y8773475D01*
X43296525Y8566632D01*
X43180000Y8392240D01*
X43063475Y8566632D01*
X42856632Y8773475D01*
X42613411Y8935990D01*
X42343158Y9047932D01*
X42056260Y9105000D01*
X41763740Y9105000D01*
X41476842Y9047932D01*
X41206589Y8935990D01*
X40963368Y8773475D01*
X40756525Y8566632D01*
X40640000Y8392240D01*
X40523475Y8566632D01*
X40316632Y8773475D01*
X40073411Y8935990D01*
X39803158Y9047932D01*
X39516260Y9105000D01*
X39223740Y9105000D01*
X38936842Y9047932D01*
X38666589Y8935990D01*
X38423368Y8773475D01*
X38216525Y8566632D01*
X38094805Y8384466D01*
X38025178Y8501355D01*
X37830269Y8717588D01*
X37596920Y8891641D01*
X37334099Y9016825D01*
X37186890Y9061476D01*
X36957000Y8940155D01*
X36957000Y7747000D01*
X36977000Y7747000D01*
X36977000Y7493000D01*
X36957000Y7493000D01*
X36957000Y5207000D01*
X36977000Y5207000D01*
X36977000Y4953000D01*
X36957000Y4953000D01*
X36957000Y4933000D01*
X36703000Y4933000D01*
X36703000Y4953000D01*
X36683000Y4953000D01*
X36683000Y5207000D01*
X36703000Y5207000D01*
X36703000Y7493000D01*
X36683000Y7493000D01*
X36683000Y7747000D01*
X36703000Y7747000D01*
X36703000Y8940155D01*
X36473110Y9061476D01*
X36325901Y9016825D01*
X36063080Y8891641D01*
X35829731Y8717588D01*
X35634822Y8501355D01*
X35565195Y8384466D01*
X35443475Y8566632D01*
X35236632Y8773475D01*
X34993411Y8935990D01*
X34723158Y9047932D01*
X34436260Y9105000D01*
X34143740Y9105000D01*
X33856842Y9047932D01*
X33586589Y8935990D01*
X33343368Y8773475D01*
X33136525Y8566632D01*
X32974010Y8323411D01*
X32862068Y8053158D01*
X32805000Y7766260D01*
X32805000Y7473740D01*
X32862068Y7186842D01*
X32974010Y6916589D01*
X33136525Y6673368D01*
X33343368Y6466525D01*
X33517760Y6350000D01*
X33343368Y6233475D01*
X33136525Y6026632D01*
X32974010Y5783411D01*
X32862068Y5513158D01*
X32805000Y5226260D01*
X32805000Y4933740D01*
X32862068Y4646842D01*
X32974010Y4376589D01*
X33049173Y4264100D01*
X32901647Y4264100D01*
X25413058Y11752688D01*
X25507515Y11724035D01*
X25615495Y11713400D01*
X25615504Y11713400D01*
X25651599Y11709845D01*
X25687694Y11713400D01*
X27085995Y11713400D01*
X27122100Y11709844D01*
X27158205Y11713400D01*
X27266185Y11724035D01*
X27404733Y11766063D01*
X27532420Y11834313D01*
X27644338Y11926162D01*
X27667358Y11954212D01*
X29285297Y13572150D01*
X29313337Y13595162D01*
X29336350Y13623203D01*
X29336353Y13623206D01*
X29405186Y13707079D01*
X29405187Y13707080D01*
X29473437Y13834767D01*
X29515465Y13973315D01*
X29526100Y14081295D01*
X29526100Y14081304D01*
X29529655Y14117399D01*
X29526100Y14153494D01*
X29526100Y15434504D01*
X29565241Y15395363D01*
X29800273Y15238320D01*
X30061426Y15130147D01*
X30338665Y15075000D01*
X30621335Y15075000D01*
X30898574Y15130147D01*
X31159727Y15238320D01*
X31394759Y15395363D01*
X31594637Y15595241D01*
X31751680Y15830273D01*
X31859853Y16091426D01*
X31915000Y16368665D01*
X31915000Y16651335D01*
X31859853Y16928574D01*
X31751680Y17189727D01*
X31671317Y17310000D01*
X35391928Y17310000D01*
X35391928Y15710000D01*
X35404188Y15585518D01*
X35440498Y15465820D01*
X35499463Y15355506D01*
X35578815Y15258815D01*
X35675506Y15179463D01*
X35785820Y15120498D01*
X35905518Y15084188D01*
X36030000Y15071928D01*
X37630000Y15071928D01*
X37754482Y15084188D01*
X37874180Y15120498D01*
X37984494Y15179463D01*
X38081185Y15258815D01*
X38160537Y15355506D01*
X38219502Y15465820D01*
X38255812Y15585518D01*
X38268072Y15710000D01*
X38268072Y17310000D01*
X38255812Y17434482D01*
X38219502Y17554180D01*
X38160537Y17664494D01*
X38081185Y17761185D01*
X37984494Y17840537D01*
X37874180Y17899502D01*
X37754482Y17935812D01*
X37630000Y17948072D01*
X37622785Y17948072D01*
X37643097Y18017298D01*
X36830000Y18830395D01*
X36016903Y18017298D01*
X36037215Y17948072D01*
X36030000Y17948072D01*
X35905518Y17935812D01*
X35785820Y17899502D01*
X35675506Y17840537D01*
X35578815Y17761185D01*
X35499463Y17664494D01*
X35440498Y17554180D01*
X35404188Y17434482D01*
X35391928Y17310000D01*
X31671317Y17310000D01*
X31594637Y17424759D01*
X31394759Y17624637D01*
X31194131Y17758692D01*
X31221514Y17773329D01*
X31293097Y18017298D01*
X30480000Y18830395D01*
X30465858Y18816252D01*
X30286253Y18995857D01*
X30300395Y19010000D01*
X30659605Y19010000D01*
X31472702Y18196903D01*
X31716671Y18268486D01*
X31837571Y18523996D01*
X31906300Y18798184D01*
X31913265Y18939488D01*
X35389783Y18939488D01*
X35431213Y18659870D01*
X35526397Y18393708D01*
X35593329Y18268486D01*
X35837298Y18196903D01*
X36650395Y19010000D01*
X37009605Y19010000D01*
X37822702Y18196903D01*
X38066671Y18268486D01*
X38187571Y18523996D01*
X38256300Y18798184D01*
X38270217Y19080512D01*
X38228787Y19360130D01*
X38133603Y19626292D01*
X38066671Y19751514D01*
X37822702Y19823097D01*
X37009605Y19010000D01*
X36650395Y19010000D01*
X35837298Y19823097D01*
X35593329Y19751514D01*
X35472429Y19496004D01*
X35403700Y19221816D01*
X35389783Y18939488D01*
X31913265Y18939488D01*
X31920217Y19080512D01*
X31878787Y19360130D01*
X31783603Y19626292D01*
X31716671Y19751514D01*
X31472702Y19823097D01*
X30659605Y19010000D01*
X30300395Y19010000D01*
X30286253Y19024142D01*
X30465858Y19203747D01*
X30480000Y19189605D01*
X31293097Y20002702D01*
X36016903Y20002702D01*
X36830000Y19189605D01*
X37643097Y20002702D01*
X37571514Y20246671D01*
X37316004Y20367571D01*
X37041816Y20436300D01*
X36759488Y20450217D01*
X36479870Y20408787D01*
X36213708Y20313603D01*
X36088486Y20246671D01*
X36016903Y20002702D01*
X31293097Y20002702D01*
X31221514Y20246671D01*
X30966004Y20367571D01*
X30691816Y20436300D01*
X30409488Y20450217D01*
X30129870Y20408787D01*
X29863708Y20313603D01*
X29738486Y20246671D01*
X29666903Y20002704D01*
X29550630Y20118977D01*
X29526100Y20094447D01*
X29526100Y23342754D01*
X31303953Y25120606D01*
X31390945Y25137910D01*
X31552005Y25204623D01*
X31696955Y25301476D01*
X31820224Y25424745D01*
X31917077Y25569695D01*
X31983790Y25730755D01*
X32017800Y25901735D01*
X32017800Y26076065D01*
X31983790Y26247045D01*
X31917077Y26408105D01*
X31820224Y26553055D01*
X31696955Y26676324D01*
X31552005Y26773177D01*
X31390945Y26839890D01*
X31219965Y26873900D01*
X31045635Y26873900D01*
X30874655Y26839890D01*
X30713595Y26773177D01*
X30568645Y26676324D01*
X30445376Y26553055D01*
X30348523Y26408105D01*
X30281810Y26247045D01*
X30264506Y26160053D01*
X28296908Y24192454D01*
X28268863Y24169438D01*
X28177014Y24057520D01*
X28108764Y23929833D01*
X28066735Y23791285D01*
X28052544Y23647200D01*
X28056101Y23611085D01*
X28056101Y23040543D01*
X28000537Y23144494D01*
X27921185Y23241185D01*
X27824494Y23320537D01*
X27714180Y23379502D01*
X27594482Y23415812D01*
X27505000Y23424625D01*
X27505000Y25098889D01*
X27689607Y25250392D01*
X27868932Y25468899D01*
X28002182Y25718192D01*
X28084236Y25988691D01*
X28105000Y26199508D01*
X28105000Y27140491D01*
X28084236Y27351309D01*
X28002182Y27621808D01*
X27868932Y27871101D01*
X27689608Y28089608D01*
X27505000Y28241112D01*
X27505000Y29351335D01*
X29045000Y29351335D01*
X29045000Y29068665D01*
X29100147Y28791426D01*
X29208320Y28530273D01*
X29365363Y28295241D01*
X29565241Y28095363D01*
X29800273Y27938320D01*
X30061426Y27830147D01*
X30338665Y27775000D01*
X30621335Y27775000D01*
X30898574Y27830147D01*
X31159727Y27938320D01*
X31394759Y28095363D01*
X31594637Y28295241D01*
X31751680Y28530273D01*
X31859853Y28791426D01*
X31915000Y29068665D01*
X31915000Y29351335D01*
X31859853Y29628574D01*
X31751680Y29889727D01*
X31594637Y30124759D01*
X31394759Y30324637D01*
X31194131Y30458692D01*
X31221514Y30473329D01*
X31293097Y30717298D01*
X30480000Y31530395D01*
X29666903Y30717298D01*
X29738486Y30473329D01*
X29767341Y30459676D01*
X29565241Y30324637D01*
X29365363Y30124759D01*
X29208320Y29889727D01*
X29100147Y29628574D01*
X29045000Y29351335D01*
X27505000Y29351335D01*
X27505000Y31639488D01*
X29039783Y31639488D01*
X29081213Y31359870D01*
X29176397Y31093708D01*
X29243329Y30968486D01*
X29487298Y30896903D01*
X30300395Y31710000D01*
X30659605Y31710000D01*
X31472702Y30896903D01*
X31716671Y30968486D01*
X31837571Y31223996D01*
X31906300Y31498184D01*
X31920217Y31780512D01*
X31878787Y32060130D01*
X31783603Y32326292D01*
X31716671Y32451514D01*
X31472702Y32523097D01*
X30659605Y31710000D01*
X30300395Y31710000D01*
X29487298Y32523097D01*
X29243329Y32451514D01*
X29122429Y32196004D01*
X29053700Y31921816D01*
X29039783Y31639488D01*
X27505000Y31639488D01*
X27505000Y32455375D01*
X27594482Y32464188D01*
X27714180Y32500498D01*
X27824494Y32559463D01*
X27921185Y32638815D01*
X27973615Y32702702D01*
X29666903Y32702702D01*
X30480000Y31889605D01*
X31293097Y32702702D01*
X31221514Y32946671D01*
X30966004Y33067571D01*
X30691816Y33136300D01*
X30409488Y33150217D01*
X30129870Y33108787D01*
X29863708Y33013603D01*
X29738486Y32946671D01*
X29666903Y32702702D01*
X27973615Y32702702D01*
X28000537Y32735506D01*
X28059502Y32845820D01*
X28095812Y32965518D01*
X28108072Y33090000D01*
X28108072Y35490000D01*
X28095812Y35614482D01*
X28059502Y35734180D01*
X28000537Y35844494D01*
X27921185Y35941185D01*
X27824494Y36020537D01*
X27714180Y36079502D01*
X27594482Y36115812D01*
X27470000Y36128072D01*
X25870000Y36128072D01*
X25745518Y36115812D01*
X25625820Y36079502D01*
X25515506Y36020537D01*
X25418815Y35941185D01*
X25339463Y35844494D01*
X25280498Y35734180D01*
X25244188Y35614482D01*
X25242419Y35596518D01*
X25149608Y35709608D01*
X25116184Y35737038D01*
X37410593Y48031446D01*
X37438638Y48054462D01*
X37530487Y48166380D01*
X37598737Y48294067D01*
X37640765Y48432615D01*
X37651400Y48540595D01*
X37651400Y48540604D01*
X37654955Y48576699D01*
X37651400Y48612794D01*
X37651400Y52527029D01*
X37689680Y52495613D01*
G37*
G04 #@! TD.AperFunction*
D19*
X54737000Y5207000D02*
X54757000Y5207000D01*
X54757000Y4953000D01*
X54737000Y4953000D01*
X54737000Y4933000D01*
X54483000Y4933000D01*
X54483000Y4953000D01*
X54463000Y4953000D01*
X54463000Y5207000D01*
X54483000Y5207000D01*
X54483000Y5227000D01*
X54737000Y5227000D01*
X54737000Y5207000D01*
G04 #@! TA.AperFunction,Conductor*
D20*
G36*
X54737000Y5207000D02*
G01*
X54757000Y5207000D01*
X54757000Y4953000D01*
X54737000Y4953000D01*
X54737000Y4933000D01*
X54483000Y4933000D01*
X54483000Y4953000D01*
X54463000Y4953000D01*
X54463000Y5207000D01*
X54483000Y5207000D01*
X54483000Y5227000D01*
X54737000Y5227000D01*
X54737000Y5207000D01*
G37*
G04 #@! TD.AperFunction*
D19*
X49657000Y5207000D02*
X49677000Y5207000D01*
X49677000Y4953000D01*
X49657000Y4953000D01*
X49657000Y4933000D01*
X49403000Y4933000D01*
X49403000Y4953000D01*
X49383000Y4953000D01*
X49383000Y5207000D01*
X49403000Y5207000D01*
X49403000Y5227000D01*
X49657000Y5227000D01*
X49657000Y5207000D01*
G04 #@! TA.AperFunction,Conductor*
D20*
G36*
X49657000Y5207000D02*
G01*
X49677000Y5207000D01*
X49677000Y4953000D01*
X49657000Y4953000D01*
X49657000Y4933000D01*
X49403000Y4933000D01*
X49403000Y4953000D01*
X49383000Y4953000D01*
X49383000Y5207000D01*
X49403000Y5207000D01*
X49403000Y5227000D01*
X49657000Y5227000D01*
X49657000Y5207000D01*
G37*
G04 #@! TD.AperFunction*
D19*
X42037000Y5207000D02*
X42057000Y5207000D01*
X42057000Y4953000D01*
X42037000Y4953000D01*
X42037000Y4933000D01*
X41783000Y4933000D01*
X41783000Y4953000D01*
X41763000Y4953000D01*
X41763000Y5207000D01*
X41783000Y5207000D01*
X41783000Y5227000D01*
X42037000Y5227000D01*
X42037000Y5207000D01*
G04 #@! TA.AperFunction,Conductor*
D20*
G36*
X42037000Y5207000D02*
G01*
X42057000Y5207000D01*
X42057000Y4953000D01*
X42037000Y4953000D01*
X42037000Y4933000D01*
X41783000Y4933000D01*
X41783000Y4953000D01*
X41763000Y4953000D01*
X41763000Y5207000D01*
X41783000Y5207000D01*
X41783000Y5227000D01*
X42037000Y5227000D01*
X42037000Y5207000D01*
G37*
G04 #@! TD.AperFunction*
D19*
X5151068Y25468900D02*
X5330392Y25250393D01*
X5548899Y25071068D01*
X5798192Y24937818D01*
X6068691Y24855764D01*
X6350000Y24828057D01*
X6631308Y24855764D01*
X6901807Y24937818D01*
X6985401Y24982500D01*
X6985401Y24296015D01*
X6981844Y24259900D01*
X6996035Y24115815D01*
X7025279Y24019413D01*
X7038064Y23977267D01*
X7106314Y23849580D01*
X7198163Y23737662D01*
X7226208Y23714646D01*
X7903816Y23037037D01*
X7870393Y23009608D01*
X7691068Y22791101D01*
X7620000Y22658142D01*
X7548932Y22791101D01*
X7369608Y23009608D01*
X7151101Y23188932D01*
X6901808Y23322182D01*
X6631309Y23404236D01*
X6350000Y23431943D01*
X6068692Y23404236D01*
X5798193Y23322182D01*
X5548900Y23188932D01*
X5330393Y23009608D01*
X5151068Y22791101D01*
X5082735Y22663259D01*
X4932601Y22892839D01*
X4734895Y23094500D01*
X4501646Y23253715D01*
X4241818Y23364367D01*
X4159039Y23381904D01*
X3937000Y23259915D01*
X3937000Y21717000D01*
X3957000Y21717000D01*
X3957000Y21463000D01*
X3937000Y21463000D01*
X3937000Y19920085D01*
X4159039Y19798096D01*
X4241818Y19815633D01*
X4501646Y19926285D01*
X4734895Y20085500D01*
X4932601Y20287161D01*
X5082735Y20516742D01*
X5151068Y20388900D01*
X5330392Y20170393D01*
X5548899Y19991068D01*
X5798192Y19857818D01*
X6068691Y19775764D01*
X6350000Y19748057D01*
X6631308Y19775764D01*
X6901807Y19857818D01*
X7151100Y19991068D01*
X7369607Y20170392D01*
X7548932Y20388899D01*
X7620000Y20521858D01*
X7691068Y20388900D01*
X7870392Y20170393D01*
X8088899Y19991068D01*
X8338192Y19857818D01*
X8608691Y19775764D01*
X8890000Y19748057D01*
X9171308Y19775764D01*
X9279001Y19808432D01*
X9279001Y16898748D01*
X8395808Y16015554D01*
X8367763Y15992538D01*
X8275914Y15880620D01*
X8235224Y15804494D01*
X8207664Y15752933D01*
X8165635Y15614385D01*
X8165174Y15609701D01*
X8088900Y15568932D01*
X7870393Y15389608D01*
X7691068Y15171101D01*
X7620000Y15038142D01*
X7548932Y15171101D01*
X7369608Y15389608D01*
X7151101Y15568932D01*
X7074826Y15609702D01*
X7074365Y15614385D01*
X7056777Y15672364D01*
X7032337Y15752933D01*
X6964087Y15880620D01*
X6920117Y15934197D01*
X6895253Y15964494D01*
X6895250Y15964497D01*
X6872237Y15992538D01*
X6844197Y16015550D01*
X3416400Y19443346D01*
X3416400Y19807536D01*
X3460961Y19798096D01*
X3683000Y19920085D01*
X3683000Y21463000D01*
X3663000Y21463000D01*
X3663000Y21717000D01*
X3683000Y21717000D01*
X3683000Y23259915D01*
X3460961Y23381904D01*
X3416400Y23372464D01*
X3416400Y24889827D01*
X3528691Y24855764D01*
X3810000Y24828057D01*
X4091308Y24855764D01*
X4361807Y24937818D01*
X4611100Y25071068D01*
X4829607Y25250392D01*
X5008932Y25468899D01*
X5080000Y25601858D01*
X5151068Y25468900D01*
G04 #@! TA.AperFunction,Conductor*
D20*
G36*
X5151068Y25468900D02*
G01*
X5330392Y25250393D01*
X5548899Y25071068D01*
X5798192Y24937818D01*
X6068691Y24855764D01*
X6350000Y24828057D01*
X6631308Y24855764D01*
X6901807Y24937818D01*
X6985401Y24982500D01*
X6985401Y24296015D01*
X6981844Y24259900D01*
X6996035Y24115815D01*
X7025279Y24019413D01*
X7038064Y23977267D01*
X7106314Y23849580D01*
X7198163Y23737662D01*
X7226208Y23714646D01*
X7903816Y23037037D01*
X7870393Y23009608D01*
X7691068Y22791101D01*
X7620000Y22658142D01*
X7548932Y22791101D01*
X7369608Y23009608D01*
X7151101Y23188932D01*
X6901808Y23322182D01*
X6631309Y23404236D01*
X6350000Y23431943D01*
X6068692Y23404236D01*
X5798193Y23322182D01*
X5548900Y23188932D01*
X5330393Y23009608D01*
X5151068Y22791101D01*
X5082735Y22663259D01*
X4932601Y22892839D01*
X4734895Y23094500D01*
X4501646Y23253715D01*
X4241818Y23364367D01*
X4159039Y23381904D01*
X3937000Y23259915D01*
X3937000Y21717000D01*
X3957000Y21717000D01*
X3957000Y21463000D01*
X3937000Y21463000D01*
X3937000Y19920085D01*
X4159039Y19798096D01*
X4241818Y19815633D01*
X4501646Y19926285D01*
X4734895Y20085500D01*
X4932601Y20287161D01*
X5082735Y20516742D01*
X5151068Y20388900D01*
X5330392Y20170393D01*
X5548899Y19991068D01*
X5798192Y19857818D01*
X6068691Y19775764D01*
X6350000Y19748057D01*
X6631308Y19775764D01*
X6901807Y19857818D01*
X7151100Y19991068D01*
X7369607Y20170392D01*
X7548932Y20388899D01*
X7620000Y20521858D01*
X7691068Y20388900D01*
X7870392Y20170393D01*
X8088899Y19991068D01*
X8338192Y19857818D01*
X8608691Y19775764D01*
X8890000Y19748057D01*
X9171308Y19775764D01*
X9279001Y19808432D01*
X9279001Y16898748D01*
X8395808Y16015554D01*
X8367763Y15992538D01*
X8275914Y15880620D01*
X8235224Y15804494D01*
X8207664Y15752933D01*
X8165635Y15614385D01*
X8165174Y15609701D01*
X8088900Y15568932D01*
X7870393Y15389608D01*
X7691068Y15171101D01*
X7620000Y15038142D01*
X7548932Y15171101D01*
X7369608Y15389608D01*
X7151101Y15568932D01*
X7074826Y15609702D01*
X7074365Y15614385D01*
X7056777Y15672364D01*
X7032337Y15752933D01*
X6964087Y15880620D01*
X6920117Y15934197D01*
X6895253Y15964494D01*
X6895250Y15964497D01*
X6872237Y15992538D01*
X6844197Y16015550D01*
X3416400Y19443346D01*
X3416400Y19807536D01*
X3460961Y19798096D01*
X3683000Y19920085D01*
X3683000Y21463000D01*
X3663000Y21463000D01*
X3663000Y21717000D01*
X3683000Y21717000D01*
X3683000Y23259915D01*
X3460961Y23381904D01*
X3416400Y23372464D01*
X3416400Y24889827D01*
X3528691Y24855764D01*
X3810000Y24828057D01*
X4091308Y24855764D01*
X4361807Y24937818D01*
X4611100Y25071068D01*
X4829607Y25250392D01*
X5008932Y25468899D01*
X5080000Y25601858D01*
X5151068Y25468900D01*
G37*
G04 #@! TD.AperFunction*
D19*
X64841068Y53408900D02*
X65020392Y53190393D01*
X65238899Y53011068D01*
X65488192Y52877818D01*
X65758691Y52795764D01*
X66040000Y52768057D01*
X66321308Y52795764D01*
X66591807Y52877818D01*
X66841100Y53011068D01*
X67059607Y53190392D01*
X67152419Y53303483D01*
X67154188Y53285518D01*
X67190498Y53165820D01*
X67249463Y53055506D01*
X67328815Y52958815D01*
X67425506Y52879463D01*
X67535820Y52820498D01*
X67655518Y52784188D01*
X67780000Y52771928D01*
X67927135Y52771928D01*
X67965913Y52699380D01*
X68057762Y52587462D01*
X68169680Y52495613D01*
X68297367Y52427363D01*
X68435915Y52385335D01*
X68543895Y52374700D01*
X68580000Y52371144D01*
X68616105Y52374700D01*
X77118854Y52374700D01*
X81832187Y47661367D01*
X81603368Y47508475D01*
X81396525Y47301632D01*
X81234010Y47058411D01*
X81122068Y46788158D01*
X81065000Y46501260D01*
X81065000Y46208740D01*
X81122068Y45921842D01*
X81234010Y45651589D01*
X81396525Y45408368D01*
X81603368Y45201525D01*
X81713264Y45128095D01*
X81710960Y45104700D01*
X81727082Y44941012D01*
X81774828Y44783614D01*
X81824900Y44689937D01*
X81852365Y44638554D01*
X81956710Y44511409D01*
X81988574Y44485259D01*
X90360669Y36113163D01*
X90170000Y36131943D01*
X89888692Y36104236D01*
X89618193Y36022182D01*
X89368900Y35888932D01*
X89150393Y35709608D01*
X88971068Y35491101D01*
X88900000Y35358142D01*
X88828932Y35491101D01*
X88649608Y35709608D01*
X88431101Y35888932D01*
X88181808Y36022182D01*
X87911309Y36104236D01*
X87630000Y36131943D01*
X87348692Y36104236D01*
X87078193Y36022182D01*
X86828900Y35888932D01*
X86610393Y35709608D01*
X86431068Y35491101D01*
X86362735Y35363259D01*
X86212601Y35592839D01*
X86014895Y35794500D01*
X85781646Y35953715D01*
X85521818Y36064367D01*
X85439039Y36081904D01*
X85217000Y35959915D01*
X85217000Y34417000D01*
X85237000Y34417000D01*
X85237000Y34163000D01*
X85217000Y34163000D01*
X85217000Y32620085D01*
X85439039Y32498096D01*
X85521818Y32515633D01*
X85781646Y32626285D01*
X86014895Y32785500D01*
X86212601Y32987161D01*
X86362735Y33216742D01*
X86431068Y33088900D01*
X86610392Y32870393D01*
X86828899Y32691068D01*
X87078192Y32557818D01*
X87348691Y32475764D01*
X87630000Y32448057D01*
X87911308Y32475764D01*
X88181807Y32557818D01*
X88431100Y32691068D01*
X88649607Y32870392D01*
X88828932Y33088899D01*
X88900000Y33221858D01*
X88971068Y33088900D01*
X89150392Y32870393D01*
X89368899Y32691068D01*
X89435000Y32655736D01*
X89435000Y31540747D01*
X86040543Y28146289D01*
X85891101Y28268932D01*
X85805457Y28314710D01*
X86200653Y28709906D01*
X86287645Y28727210D01*
X86448705Y28793923D01*
X86593655Y28890776D01*
X86716924Y29014045D01*
X86813777Y29158995D01*
X86880490Y29320055D01*
X86914500Y29491035D01*
X86914500Y29665365D01*
X86880490Y29836345D01*
X86813777Y29997405D01*
X86716924Y30142355D01*
X86593655Y30265624D01*
X86448705Y30362477D01*
X86287645Y30429190D01*
X86116665Y30463200D01*
X85942335Y30463200D01*
X85771355Y30429190D01*
X85610295Y30362477D01*
X85465345Y30265624D01*
X85342076Y30142355D01*
X85245223Y29997405D01*
X85178510Y29836345D01*
X85161206Y29749353D01*
X83530073Y28118219D01*
X83474895Y28174500D01*
X83241646Y28333715D01*
X82981818Y28444367D01*
X82899039Y28461904D01*
X82677000Y28339915D01*
X82677000Y26797000D01*
X82697000Y26797000D01*
X82697000Y26543000D01*
X82677000Y26543000D01*
X82677000Y26523000D01*
X82423000Y26523000D01*
X82423000Y26543000D01*
X80137000Y26543000D01*
X80137000Y25000085D01*
X80359039Y24878096D01*
X80441818Y24895633D01*
X80701646Y25006285D01*
X80934895Y25165500D01*
X81132601Y25367161D01*
X81280000Y25592559D01*
X81427399Y25367161D01*
X81625105Y25165500D01*
X81858354Y25006285D01*
X81883451Y24995597D01*
X80553154Y23665300D01*
X80046105Y23665300D01*
X80010000Y23668856D01*
X79973895Y23665300D01*
X79865915Y23654665D01*
X79727367Y23612637D01*
X79599680Y23544387D01*
X79487762Y23452538D01*
X79395913Y23340620D01*
X79327663Y23212933D01*
X79285635Y23074385D01*
X79285174Y23069701D01*
X79208900Y23028932D01*
X78990393Y22849608D01*
X78811068Y22631101D01*
X78742735Y22503259D01*
X78592601Y22732839D01*
X78394895Y22934500D01*
X78161646Y23093715D01*
X77901818Y23204367D01*
X77819039Y23221904D01*
X77597000Y23099915D01*
X77597000Y21557000D01*
X77617000Y21557000D01*
X77617000Y21303000D01*
X77597000Y21303000D01*
X77597000Y19760085D01*
X77819039Y19638096D01*
X77901818Y19655633D01*
X78161646Y19766285D01*
X78394895Y19925500D01*
X78592601Y20127161D01*
X78742735Y20356742D01*
X78811068Y20228900D01*
X78990392Y20010393D01*
X79208899Y19831068D01*
X79458192Y19697818D01*
X79728691Y19615764D01*
X80010000Y19588057D01*
X80291308Y19615764D01*
X80561807Y19697818D01*
X80811100Y19831068D01*
X81029607Y20010392D01*
X81208932Y20228899D01*
X81280000Y20361858D01*
X81351068Y20228900D01*
X81530392Y20010393D01*
X81748899Y19831068D01*
X81998192Y19697818D01*
X82268691Y19615764D01*
X82550000Y19588057D01*
X82750454Y19607800D01*
X78425156Y15282502D01*
X78271101Y15408932D01*
X78194826Y15449702D01*
X78194365Y15454385D01*
X78152337Y15592933D01*
X78084087Y15720620D01*
X77992238Y15832538D01*
X77880320Y15924387D01*
X77752633Y15992637D01*
X77614085Y16034665D01*
X77506105Y16045300D01*
X77470000Y16048856D01*
X77433895Y16045300D01*
X73734178Y16045300D01*
X73769853Y16131426D01*
X73825000Y16408665D01*
X73825000Y16691335D01*
X73769853Y16968574D01*
X73661680Y17229727D01*
X73504637Y17464759D01*
X73304759Y17664637D01*
X73104131Y17798692D01*
X73131514Y17813329D01*
X73203097Y18057298D01*
X72390000Y18870395D01*
X72375858Y18856252D01*
X72196253Y19035857D01*
X72210395Y19050000D01*
X72569605Y19050000D01*
X73382702Y18236903D01*
X73626671Y18308486D01*
X73747571Y18563996D01*
X73816300Y18838184D01*
X73830217Y19120512D01*
X73788787Y19400130D01*
X73693603Y19666292D01*
X73626671Y19791514D01*
X73382702Y19863097D01*
X72569605Y19050000D01*
X72210395Y19050000D01*
X72196253Y19064142D01*
X72375858Y19243747D01*
X72390000Y19229605D01*
X73203097Y20042702D01*
X73131514Y20286671D01*
X72876004Y20407571D01*
X72601816Y20476300D01*
X72319488Y20490217D01*
X72039870Y20448787D01*
X71773708Y20353603D01*
X71648486Y20286671D01*
X71576903Y20042704D01*
X71541100Y20078507D01*
X71541100Y21303000D01*
X76035000Y21303000D01*
X76035000Y20903000D01*
X76087350Y20625486D01*
X76192834Y20363517D01*
X76347399Y20127161D01*
X76545105Y19925500D01*
X76778354Y19766285D01*
X77038182Y19655633D01*
X77120961Y19638096D01*
X77343000Y19760085D01*
X77343000Y21303000D01*
X76035000Y21303000D01*
X71541100Y21303000D01*
X71541100Y21957000D01*
X76035000Y21957000D01*
X76035000Y21557000D01*
X77343000Y21557000D01*
X77343000Y23099915D01*
X77120961Y23221904D01*
X77038182Y23204367D01*
X76778354Y23093715D01*
X76545105Y22934500D01*
X76347399Y22732839D01*
X76192834Y22496483D01*
X76087350Y22234514D01*
X76035000Y21957000D01*
X71541100Y21957000D01*
X71541100Y22902593D01*
X71545139Y22943601D01*
X71541100Y22984609D01*
X71541100Y22984619D01*
X71529018Y23107289D01*
X71481272Y23264687D01*
X71403736Y23409746D01*
X71299391Y23536891D01*
X71267527Y23563041D01*
X69588934Y25241633D01*
X69599607Y25250392D01*
X69778932Y25468899D01*
X69912182Y25718192D01*
X69994236Y25988691D01*
X70015000Y26199508D01*
X70015000Y27140491D01*
X70015000Y27140492D01*
X76035000Y27140492D01*
X76035000Y26199509D01*
X76055764Y25988692D01*
X76137818Y25718193D01*
X76271068Y25468900D01*
X76450392Y25250393D01*
X76668899Y25071068D01*
X76918192Y24937818D01*
X77188691Y24855764D01*
X77470000Y24828057D01*
X77751308Y24855764D01*
X78021807Y24937818D01*
X78271100Y25071068D01*
X78489607Y25250392D01*
X78668932Y25468899D01*
X78737265Y25596741D01*
X78887399Y25367161D01*
X79085105Y25165500D01*
X79318354Y25006285D01*
X79578182Y24895633D01*
X79660961Y24878096D01*
X79883000Y25000085D01*
X79883000Y26543000D01*
X79863000Y26543000D01*
X79863000Y26797000D01*
X79883000Y26797000D01*
X79883000Y28339915D01*
X80137000Y28339915D01*
X80137000Y26797000D01*
X82423000Y26797000D01*
X82423000Y28339915D01*
X82200961Y28461904D01*
X82118182Y28444367D01*
X81858354Y28333715D01*
X81625105Y28174500D01*
X81427399Y27972839D01*
X81280000Y27747441D01*
X81132601Y27972839D01*
X80934895Y28174500D01*
X80701646Y28333715D01*
X80441818Y28444367D01*
X80359039Y28461904D01*
X80137000Y28339915D01*
X79883000Y28339915D01*
X79660961Y28461904D01*
X79578182Y28444367D01*
X79318354Y28333715D01*
X79085105Y28174500D01*
X78887399Y27972839D01*
X78737265Y27743259D01*
X78668932Y27871101D01*
X78489608Y28089608D01*
X78271101Y28268932D01*
X78021808Y28402182D01*
X77751309Y28484236D01*
X77470000Y28511943D01*
X77188692Y28484236D01*
X76918193Y28402182D01*
X76668900Y28268932D01*
X76450393Y28089608D01*
X76271068Y27871101D01*
X76137818Y27621808D01*
X76055764Y27351309D01*
X76035000Y27140492D01*
X70015000Y27140492D01*
X69994236Y27351309D01*
X69912182Y27621808D01*
X69778932Y27871101D01*
X69599608Y28089608D01*
X69381101Y28268932D01*
X69131808Y28402182D01*
X68861309Y28484236D01*
X68580000Y28511943D01*
X68298692Y28484236D01*
X68028193Y28402182D01*
X67778900Y28268932D01*
X67560393Y28089608D01*
X67381068Y27871101D01*
X67310000Y27738142D01*
X67238932Y27871101D01*
X67059608Y28089608D01*
X66841101Y28268932D01*
X66591808Y28402182D01*
X66321309Y28484236D01*
X66040000Y28511943D01*
X65758692Y28484236D01*
X65505000Y28407280D01*
X65505000Y31215254D01*
X66534193Y32244446D01*
X66562238Y32267462D01*
X66654087Y32379380D01*
X66722337Y32507067D01*
X66764365Y32645615D01*
X66764826Y32650299D01*
X66841100Y32691068D01*
X67059607Y32870392D01*
X67152419Y32983483D01*
X67154188Y32965518D01*
X67190498Y32845820D01*
X67249463Y32735506D01*
X67328815Y32638815D01*
X67425506Y32559463D01*
X67535820Y32500498D01*
X67655518Y32464188D01*
X67780000Y32451928D01*
X68294250Y32455000D01*
X68453000Y32613750D01*
X68453000Y34163000D01*
X68707000Y34163000D01*
X68707000Y32613750D01*
X68865750Y32455000D01*
X69380000Y32451928D01*
X69504482Y32464188D01*
X69624180Y32500498D01*
X69734494Y32559463D01*
X69831185Y32638815D01*
X69910537Y32735506D01*
X69969502Y32845820D01*
X70005812Y32965518D01*
X70018072Y33090000D01*
X70015000Y34004250D01*
X69856250Y34163000D01*
X68707000Y34163000D01*
X68453000Y34163000D01*
X68433000Y34163000D01*
X68433000Y34417000D01*
X68453000Y34417000D01*
X68453000Y35966250D01*
X68294250Y36125000D01*
X67780000Y36128072D01*
X67655518Y36115812D01*
X67535820Y36079502D01*
X67425506Y36020537D01*
X67328815Y35941185D01*
X67249463Y35844494D01*
X67190498Y35734180D01*
X67154188Y35614482D01*
X67152419Y35596518D01*
X67059608Y35709608D01*
X66841101Y35888932D01*
X66591808Y36022182D01*
X66321309Y36104236D01*
X66040000Y36131943D01*
X65758692Y36104236D01*
X65488193Y36022182D01*
X65238900Y35888932D01*
X65020393Y35709608D01*
X64841068Y35491101D01*
X64770000Y35358142D01*
X64698932Y35491101D01*
X64519608Y35709608D01*
X64301101Y35888932D01*
X64051808Y36022182D01*
X63781309Y36104236D01*
X63500000Y36131943D01*
X63218692Y36104236D01*
X62948193Y36022182D01*
X62698900Y35888932D01*
X62545833Y35763313D01*
X61154558Y37154588D01*
X61131538Y37182638D01*
X61019620Y37274487D01*
X60891933Y37342737D01*
X60753385Y37384765D01*
X60645405Y37395400D01*
X60609300Y37398956D01*
X60573195Y37395400D01*
X59469647Y37395400D01*
X59138258Y37726788D01*
X59221100Y37771068D01*
X59439607Y37950392D01*
X59618932Y38168899D01*
X59690000Y38301858D01*
X59761068Y38168900D01*
X59940392Y37950393D01*
X60158899Y37771068D01*
X60408192Y37637818D01*
X60678691Y37555764D01*
X60960000Y37528057D01*
X61241308Y37555764D01*
X61511807Y37637818D01*
X61761100Y37771068D01*
X61979607Y37950392D01*
X62158932Y38168899D01*
X62230000Y38301858D01*
X62301068Y38168900D01*
X62480392Y37950393D01*
X62698899Y37771068D01*
X62948192Y37637818D01*
X63218691Y37555764D01*
X63500000Y37528057D01*
X63781308Y37555764D01*
X64051807Y37637818D01*
X64301100Y37771068D01*
X64519607Y37950392D01*
X64698932Y38168899D01*
X64770000Y38301858D01*
X64841068Y38168900D01*
X65020392Y37950393D01*
X65238899Y37771068D01*
X65488192Y37637818D01*
X65758691Y37555764D01*
X66040000Y37528057D01*
X66321308Y37555764D01*
X66591807Y37637818D01*
X66841100Y37771068D01*
X67059607Y37950392D01*
X67238932Y38168899D01*
X67310000Y38301858D01*
X67381068Y38168900D01*
X67560392Y37950393D01*
X67743922Y37799773D01*
X67740960Y37769700D01*
X67757082Y37606012D01*
X67804828Y37448614D01*
X67881732Y37304738D01*
X67882365Y37303554D01*
X67986710Y37176409D01*
X68018574Y37150259D01*
X69042775Y36126058D01*
X68865750Y36125000D01*
X68707000Y35966250D01*
X68707000Y34417000D01*
X69856250Y34417000D01*
X70015000Y34575750D01*
X70016936Y35151896D01*
X70354601Y34814230D01*
X70354600Y30491419D01*
X70350560Y30450400D01*
X70354600Y30409382D01*
X70366682Y30286712D01*
X70414428Y30129314D01*
X70491964Y29984255D01*
X70596309Y29857109D01*
X70628178Y29830955D01*
X70973714Y29485418D01*
X70955000Y29391335D01*
X70955000Y29108665D01*
X71010147Y28831426D01*
X71118320Y28570273D01*
X71275363Y28335241D01*
X71475241Y28135363D01*
X71710273Y27978320D01*
X71971426Y27870147D01*
X72248665Y27815000D01*
X72531335Y27815000D01*
X72808574Y27870147D01*
X73069727Y27978320D01*
X73304759Y28135363D01*
X73504637Y28335241D01*
X73661680Y28570273D01*
X73769853Y28831426D01*
X73825000Y29108665D01*
X73825000Y29391335D01*
X73769853Y29668574D01*
X73661680Y29929727D01*
X73504637Y30164759D01*
X73304759Y30364637D01*
X73104131Y30498692D01*
X73131514Y30513329D01*
X73203097Y30757298D01*
X72390000Y31570395D01*
X72375858Y31556252D01*
X72196253Y31735857D01*
X72210395Y31750000D01*
X72569605Y31750000D01*
X73382702Y30936903D01*
X73626671Y31008486D01*
X73747571Y31263996D01*
X73816300Y31538184D01*
X73830217Y31820512D01*
X73788787Y32100130D01*
X73693603Y32366292D01*
X73626671Y32491514D01*
X73382702Y32563097D01*
X72569605Y31750000D01*
X72210395Y31750000D01*
X72196253Y31764142D01*
X72375858Y31943747D01*
X72390000Y31929605D01*
X73203097Y32742702D01*
X73131514Y32986671D01*
X72876004Y33107571D01*
X72601816Y33176300D01*
X72319488Y33190217D01*
X72039870Y33148787D01*
X72024600Y33143326D01*
X72024600Y34163000D01*
X76035000Y34163000D01*
X76035000Y33763000D01*
X76087350Y33485486D01*
X76192834Y33223517D01*
X76347399Y32987161D01*
X76545105Y32785500D01*
X76778354Y32626285D01*
X77038182Y32515633D01*
X77120961Y32498096D01*
X77343000Y32620085D01*
X77343000Y34163000D01*
X76035000Y34163000D01*
X72024600Y34163000D01*
X72024600Y34817000D01*
X76035000Y34817000D01*
X76035000Y34417000D01*
X77343000Y34417000D01*
X77343000Y35959915D01*
X77597000Y35959915D01*
X77597000Y34417000D01*
X77617000Y34417000D01*
X77617000Y34163000D01*
X77597000Y34163000D01*
X77597000Y32620085D01*
X77819039Y32498096D01*
X77901818Y32515633D01*
X78161646Y32626285D01*
X78394895Y32785500D01*
X78592601Y32987161D01*
X78742735Y33216742D01*
X78811068Y33088900D01*
X78990392Y32870393D01*
X79208899Y32691068D01*
X79458192Y32557818D01*
X79728691Y32475764D01*
X80010000Y32448057D01*
X80291308Y32475764D01*
X80561807Y32557818D01*
X80811100Y32691068D01*
X81029607Y32870392D01*
X81208932Y33088899D01*
X81277265Y33216741D01*
X81427399Y32987161D01*
X81625105Y32785500D01*
X81858354Y32626285D01*
X82118182Y32515633D01*
X82200961Y32498096D01*
X82423000Y32620085D01*
X82423000Y34163000D01*
X82677000Y34163000D01*
X82677000Y32620085D01*
X82899039Y32498096D01*
X82981818Y32515633D01*
X83241646Y32626285D01*
X83474895Y32785500D01*
X83672601Y32987161D01*
X83820000Y33212559D01*
X83967399Y32987161D01*
X84165105Y32785500D01*
X84398354Y32626285D01*
X84658182Y32515633D01*
X84740961Y32498096D01*
X84963000Y32620085D01*
X84963000Y34163000D01*
X82677000Y34163000D01*
X82423000Y34163000D01*
X82403000Y34163000D01*
X82403000Y34417000D01*
X82423000Y34417000D01*
X82423000Y35959915D01*
X82677000Y35959915D01*
X82677000Y34417000D01*
X84963000Y34417000D01*
X84963000Y35959915D01*
X84740961Y36081904D01*
X84658182Y36064367D01*
X84398354Y35953715D01*
X84165105Y35794500D01*
X83967399Y35592839D01*
X83820000Y35367441D01*
X83672601Y35592839D01*
X83474895Y35794500D01*
X83241646Y35953715D01*
X82981818Y36064367D01*
X82899039Y36081904D01*
X82677000Y35959915D01*
X82423000Y35959915D01*
X82200961Y36081904D01*
X82118182Y36064367D01*
X81858354Y35953715D01*
X81625105Y35794500D01*
X81427399Y35592839D01*
X81277265Y35363259D01*
X81208932Y35491101D01*
X81029608Y35709608D01*
X80811101Y35888932D01*
X80561808Y36022182D01*
X80291309Y36104236D01*
X80010000Y36131943D01*
X79728692Y36104236D01*
X79458193Y36022182D01*
X79208900Y35888932D01*
X78990393Y35709608D01*
X78811068Y35491101D01*
X78742735Y35363259D01*
X78592601Y35592839D01*
X78394895Y35794500D01*
X78161646Y35953715D01*
X77901818Y36064367D01*
X77819039Y36081904D01*
X77597000Y35959915D01*
X77343000Y35959915D01*
X77120961Y36081904D01*
X77038182Y36064367D01*
X76778354Y35953715D01*
X76545105Y35794500D01*
X76347399Y35592839D01*
X76192834Y35356483D01*
X76087350Y35094514D01*
X76035000Y34817000D01*
X72024600Y34817000D01*
X72024600Y35119082D01*
X72028640Y35160100D01*
X72022762Y35219784D01*
X72012518Y35323789D01*
X71964772Y35481187D01*
X71887236Y35626246D01*
X71835567Y35689205D01*
X71809039Y35721530D01*
X71809037Y35721532D01*
X71782891Y35753391D01*
X71751032Y35779537D01*
X69588934Y37941633D01*
X69599607Y37950392D01*
X69778932Y38168899D01*
X69912182Y38418192D01*
X69994236Y38688691D01*
X70015000Y38899508D01*
X70015000Y39840491D01*
X69994236Y40051309D01*
X69912182Y40321808D01*
X69778932Y40571101D01*
X69599608Y40789608D01*
X69381101Y40968932D01*
X69131808Y41102182D01*
X68861309Y41184236D01*
X68580000Y41211943D01*
X68298692Y41184236D01*
X68028193Y41102182D01*
X67778900Y40968932D01*
X67560393Y40789608D01*
X67381068Y40571101D01*
X67310000Y40438142D01*
X67238932Y40571101D01*
X67059608Y40789608D01*
X66841101Y40968932D01*
X66591808Y41102182D01*
X66321309Y41184236D01*
X66040000Y41211943D01*
X65758692Y41184236D01*
X65488193Y41102182D01*
X65238900Y40968932D01*
X65020393Y40789608D01*
X64841068Y40571101D01*
X64770000Y40438142D01*
X64698932Y40571101D01*
X64519608Y40789608D01*
X64301101Y40968932D01*
X64051808Y41102182D01*
X63781309Y41184236D01*
X63500000Y41211943D01*
X63218692Y41184236D01*
X62948193Y41102182D01*
X62698900Y40968932D01*
X62480393Y40789608D01*
X62301068Y40571101D01*
X62230000Y40438142D01*
X62158932Y40571101D01*
X61979608Y40789608D01*
X61761101Y40968932D01*
X61684826Y41009702D01*
X61684365Y41014385D01*
X61642337Y41152933D01*
X61574087Y41280620D01*
X61482238Y41392538D01*
X61370320Y41484387D01*
X61242633Y41552637D01*
X61104085Y41594665D01*
X60996105Y41605300D01*
X60960000Y41608856D01*
X60923895Y41605300D01*
X60326747Y41605300D01*
X56070712Y45861335D01*
X70955000Y45861335D01*
X70955000Y45578665D01*
X71010147Y45301426D01*
X71118320Y45040273D01*
X71275363Y44805241D01*
X71475241Y44605363D01*
X71710273Y44448320D01*
X71971426Y44340147D01*
X72248665Y44285000D01*
X72531335Y44285000D01*
X72808574Y44340147D01*
X73069727Y44448320D01*
X73304759Y44605363D01*
X73504637Y44805241D01*
X73661680Y45040273D01*
X73769853Y45301426D01*
X73825000Y45578665D01*
X73825000Y45861335D01*
X73769853Y46138574D01*
X73661680Y46399727D01*
X73504637Y46634759D01*
X73304759Y46834637D01*
X73104131Y46968692D01*
X73131514Y46983329D01*
X73203097Y47227298D01*
X72390000Y48040395D01*
X71576903Y47227298D01*
X71648486Y46983329D01*
X71677341Y46969676D01*
X71475241Y46834637D01*
X71275363Y46634759D01*
X71118320Y46399727D01*
X71010147Y46138574D01*
X70955000Y45861335D01*
X56070712Y45861335D01*
X53782559Y48149488D01*
X70949783Y48149488D01*
X70991213Y47869870D01*
X71086397Y47603708D01*
X71153329Y47478486D01*
X71397298Y47406903D01*
X72210395Y48220000D01*
X72569605Y48220000D01*
X73382702Y47406903D01*
X73626671Y47478486D01*
X73747571Y47733996D01*
X73816300Y48008184D01*
X73830217Y48290512D01*
X73788787Y48570130D01*
X73693603Y48836292D01*
X73626671Y48961514D01*
X73382702Y49033097D01*
X72569605Y48220000D01*
X72210395Y48220000D01*
X71397298Y49033097D01*
X71153329Y48961514D01*
X71032429Y48706004D01*
X70963700Y48431816D01*
X70949783Y48149488D01*
X53782559Y48149488D01*
X52719345Y49212702D01*
X71576903Y49212702D01*
X72390000Y48399605D01*
X73203097Y49212702D01*
X73131514Y49456671D01*
X72876004Y49577571D01*
X72601816Y49646300D01*
X72319488Y49660217D01*
X72039870Y49618787D01*
X71773708Y49523603D01*
X71648486Y49456671D01*
X71576903Y49212702D01*
X52719345Y49212702D01*
X48969786Y52962260D01*
X49061100Y53011068D01*
X49246243Y53163011D01*
X49793746Y52615507D01*
X49816762Y52587462D01*
X49928680Y52495613D01*
X50056367Y52427363D01*
X50152886Y52398084D01*
X50194914Y52385335D01*
X50209132Y52383935D01*
X50302895Y52374700D01*
X50302902Y52374700D01*
X50338999Y52371145D01*
X50375096Y52374700D01*
X58383895Y52374700D01*
X58420000Y52371144D01*
X58456105Y52374700D01*
X58564085Y52385335D01*
X58702633Y52427363D01*
X58830320Y52495613D01*
X58942238Y52587462D01*
X59034087Y52699380D01*
X59102337Y52827067D01*
X59144365Y52965615D01*
X59144826Y52970299D01*
X59221100Y53011068D01*
X59439607Y53190392D01*
X59618932Y53408899D01*
X59690000Y53541858D01*
X59761068Y53408900D01*
X59940392Y53190393D01*
X60158899Y53011068D01*
X60408192Y52877818D01*
X60678691Y52795764D01*
X60960000Y52768057D01*
X61241308Y52795764D01*
X61511807Y52877818D01*
X61761100Y53011068D01*
X61979607Y53190392D01*
X62158932Y53408899D01*
X62230000Y53541858D01*
X62301068Y53408900D01*
X62480392Y53190393D01*
X62698899Y53011068D01*
X62948192Y52877818D01*
X63218691Y52795764D01*
X63500000Y52768057D01*
X63781308Y52795764D01*
X64051807Y52877818D01*
X64301100Y53011068D01*
X64519607Y53190392D01*
X64698932Y53408899D01*
X64770000Y53541858D01*
X64841068Y53408900D01*
G04 #@! TA.AperFunction,Conductor*
D20*
G36*
X64841068Y53408900D02*
G01*
X65020392Y53190393D01*
X65238899Y53011068D01*
X65488192Y52877818D01*
X65758691Y52795764D01*
X66040000Y52768057D01*
X66321308Y52795764D01*
X66591807Y52877818D01*
X66841100Y53011068D01*
X67059607Y53190392D01*
X67152419Y53303483D01*
X67154188Y53285518D01*
X67190498Y53165820D01*
X67249463Y53055506D01*
X67328815Y52958815D01*
X67425506Y52879463D01*
X67535820Y52820498D01*
X67655518Y52784188D01*
X67780000Y52771928D01*
X67927135Y52771928D01*
X67965913Y52699380D01*
X68057762Y52587462D01*
X68169680Y52495613D01*
X68297367Y52427363D01*
X68435915Y52385335D01*
X68543895Y52374700D01*
X68580000Y52371144D01*
X68616105Y52374700D01*
X77118854Y52374700D01*
X81832187Y47661367D01*
X81603368Y47508475D01*
X81396525Y47301632D01*
X81234010Y47058411D01*
X81122068Y46788158D01*
X81065000Y46501260D01*
X81065000Y46208740D01*
X81122068Y45921842D01*
X81234010Y45651589D01*
X81396525Y45408368D01*
X81603368Y45201525D01*
X81713264Y45128095D01*
X81710960Y45104700D01*
X81727082Y44941012D01*
X81774828Y44783614D01*
X81824900Y44689937D01*
X81852365Y44638554D01*
X81956710Y44511409D01*
X81988574Y44485259D01*
X90360669Y36113163D01*
X90170000Y36131943D01*
X89888692Y36104236D01*
X89618193Y36022182D01*
X89368900Y35888932D01*
X89150393Y35709608D01*
X88971068Y35491101D01*
X88900000Y35358142D01*
X88828932Y35491101D01*
X88649608Y35709608D01*
X88431101Y35888932D01*
X88181808Y36022182D01*
X87911309Y36104236D01*
X87630000Y36131943D01*
X87348692Y36104236D01*
X87078193Y36022182D01*
X86828900Y35888932D01*
X86610393Y35709608D01*
X86431068Y35491101D01*
X86362735Y35363259D01*
X86212601Y35592839D01*
X86014895Y35794500D01*
X85781646Y35953715D01*
X85521818Y36064367D01*
X85439039Y36081904D01*
X85217000Y35959915D01*
X85217000Y34417000D01*
X85237000Y34417000D01*
X85237000Y34163000D01*
X85217000Y34163000D01*
X85217000Y32620085D01*
X85439039Y32498096D01*
X85521818Y32515633D01*
X85781646Y32626285D01*
X86014895Y32785500D01*
X86212601Y32987161D01*
X86362735Y33216742D01*
X86431068Y33088900D01*
X86610392Y32870393D01*
X86828899Y32691068D01*
X87078192Y32557818D01*
X87348691Y32475764D01*
X87630000Y32448057D01*
X87911308Y32475764D01*
X88181807Y32557818D01*
X88431100Y32691068D01*
X88649607Y32870392D01*
X88828932Y33088899D01*
X88900000Y33221858D01*
X88971068Y33088900D01*
X89150392Y32870393D01*
X89368899Y32691068D01*
X89435000Y32655736D01*
X89435000Y31540747D01*
X86040543Y28146289D01*
X85891101Y28268932D01*
X85805457Y28314710D01*
X86200653Y28709906D01*
X86287645Y28727210D01*
X86448705Y28793923D01*
X86593655Y28890776D01*
X86716924Y29014045D01*
X86813777Y29158995D01*
X86880490Y29320055D01*
X86914500Y29491035D01*
X86914500Y29665365D01*
X86880490Y29836345D01*
X86813777Y29997405D01*
X86716924Y30142355D01*
X86593655Y30265624D01*
X86448705Y30362477D01*
X86287645Y30429190D01*
X86116665Y30463200D01*
X85942335Y30463200D01*
X85771355Y30429190D01*
X85610295Y30362477D01*
X85465345Y30265624D01*
X85342076Y30142355D01*
X85245223Y29997405D01*
X85178510Y29836345D01*
X85161206Y29749353D01*
X83530073Y28118219D01*
X83474895Y28174500D01*
X83241646Y28333715D01*
X82981818Y28444367D01*
X82899039Y28461904D01*
X82677000Y28339915D01*
X82677000Y26797000D01*
X82697000Y26797000D01*
X82697000Y26543000D01*
X82677000Y26543000D01*
X82677000Y26523000D01*
X82423000Y26523000D01*
X82423000Y26543000D01*
X80137000Y26543000D01*
X80137000Y25000085D01*
X80359039Y24878096D01*
X80441818Y24895633D01*
X80701646Y25006285D01*
X80934895Y25165500D01*
X81132601Y25367161D01*
X81280000Y25592559D01*
X81427399Y25367161D01*
X81625105Y25165500D01*
X81858354Y25006285D01*
X81883451Y24995597D01*
X80553154Y23665300D01*
X80046105Y23665300D01*
X80010000Y23668856D01*
X79973895Y23665300D01*
X79865915Y23654665D01*
X79727367Y23612637D01*
X79599680Y23544387D01*
X79487762Y23452538D01*
X79395913Y23340620D01*
X79327663Y23212933D01*
X79285635Y23074385D01*
X79285174Y23069701D01*
X79208900Y23028932D01*
X78990393Y22849608D01*
X78811068Y22631101D01*
X78742735Y22503259D01*
X78592601Y22732839D01*
X78394895Y22934500D01*
X78161646Y23093715D01*
X77901818Y23204367D01*
X77819039Y23221904D01*
X77597000Y23099915D01*
X77597000Y21557000D01*
X77617000Y21557000D01*
X77617000Y21303000D01*
X77597000Y21303000D01*
X77597000Y19760085D01*
X77819039Y19638096D01*
X77901818Y19655633D01*
X78161646Y19766285D01*
X78394895Y19925500D01*
X78592601Y20127161D01*
X78742735Y20356742D01*
X78811068Y20228900D01*
X78990392Y20010393D01*
X79208899Y19831068D01*
X79458192Y19697818D01*
X79728691Y19615764D01*
X80010000Y19588057D01*
X80291308Y19615764D01*
X80561807Y19697818D01*
X80811100Y19831068D01*
X81029607Y20010392D01*
X81208932Y20228899D01*
X81280000Y20361858D01*
X81351068Y20228900D01*
X81530392Y20010393D01*
X81748899Y19831068D01*
X81998192Y19697818D01*
X82268691Y19615764D01*
X82550000Y19588057D01*
X82750454Y19607800D01*
X78425156Y15282502D01*
X78271101Y15408932D01*
X78194826Y15449702D01*
X78194365Y15454385D01*
X78152337Y15592933D01*
X78084087Y15720620D01*
X77992238Y15832538D01*
X77880320Y15924387D01*
X77752633Y15992637D01*
X77614085Y16034665D01*
X77506105Y16045300D01*
X77470000Y16048856D01*
X77433895Y16045300D01*
X73734178Y16045300D01*
X73769853Y16131426D01*
X73825000Y16408665D01*
X73825000Y16691335D01*
X73769853Y16968574D01*
X73661680Y17229727D01*
X73504637Y17464759D01*
X73304759Y17664637D01*
X73104131Y17798692D01*
X73131514Y17813329D01*
X73203097Y18057298D01*
X72390000Y18870395D01*
X72375858Y18856252D01*
X72196253Y19035857D01*
X72210395Y19050000D01*
X72569605Y19050000D01*
X73382702Y18236903D01*
X73626671Y18308486D01*
X73747571Y18563996D01*
X73816300Y18838184D01*
X73830217Y19120512D01*
X73788787Y19400130D01*
X73693603Y19666292D01*
X73626671Y19791514D01*
X73382702Y19863097D01*
X72569605Y19050000D01*
X72210395Y19050000D01*
X72196253Y19064142D01*
X72375858Y19243747D01*
X72390000Y19229605D01*
X73203097Y20042702D01*
X73131514Y20286671D01*
X72876004Y20407571D01*
X72601816Y20476300D01*
X72319488Y20490217D01*
X72039870Y20448787D01*
X71773708Y20353603D01*
X71648486Y20286671D01*
X71576903Y20042704D01*
X71541100Y20078507D01*
X71541100Y21303000D01*
X76035000Y21303000D01*
X76035000Y20903000D01*
X76087350Y20625486D01*
X76192834Y20363517D01*
X76347399Y20127161D01*
X76545105Y19925500D01*
X76778354Y19766285D01*
X77038182Y19655633D01*
X77120961Y19638096D01*
X77343000Y19760085D01*
X77343000Y21303000D01*
X76035000Y21303000D01*
X71541100Y21303000D01*
X71541100Y21957000D01*
X76035000Y21957000D01*
X76035000Y21557000D01*
X77343000Y21557000D01*
X77343000Y23099915D01*
X77120961Y23221904D01*
X77038182Y23204367D01*
X76778354Y23093715D01*
X76545105Y22934500D01*
X76347399Y22732839D01*
X76192834Y22496483D01*
X76087350Y22234514D01*
X76035000Y21957000D01*
X71541100Y21957000D01*
X71541100Y22902593D01*
X71545139Y22943601D01*
X71541100Y22984609D01*
X71541100Y22984619D01*
X71529018Y23107289D01*
X71481272Y23264687D01*
X71403736Y23409746D01*
X71299391Y23536891D01*
X71267527Y23563041D01*
X69588934Y25241633D01*
X69599607Y25250392D01*
X69778932Y25468899D01*
X69912182Y25718192D01*
X69994236Y25988691D01*
X70015000Y26199508D01*
X70015000Y27140491D01*
X70015000Y27140492D01*
X76035000Y27140492D01*
X76035000Y26199509D01*
X76055764Y25988692D01*
X76137818Y25718193D01*
X76271068Y25468900D01*
X76450392Y25250393D01*
X76668899Y25071068D01*
X76918192Y24937818D01*
X77188691Y24855764D01*
X77470000Y24828057D01*
X77751308Y24855764D01*
X78021807Y24937818D01*
X78271100Y25071068D01*
X78489607Y25250392D01*
X78668932Y25468899D01*
X78737265Y25596741D01*
X78887399Y25367161D01*
X79085105Y25165500D01*
X79318354Y25006285D01*
X79578182Y24895633D01*
X79660961Y24878096D01*
X79883000Y25000085D01*
X79883000Y26543000D01*
X79863000Y26543000D01*
X79863000Y26797000D01*
X79883000Y26797000D01*
X79883000Y28339915D01*
X80137000Y28339915D01*
X80137000Y26797000D01*
X82423000Y26797000D01*
X82423000Y28339915D01*
X82200961Y28461904D01*
X82118182Y28444367D01*
X81858354Y28333715D01*
X81625105Y28174500D01*
X81427399Y27972839D01*
X81280000Y27747441D01*
X81132601Y27972839D01*
X80934895Y28174500D01*
X80701646Y28333715D01*
X80441818Y28444367D01*
X80359039Y28461904D01*
X80137000Y28339915D01*
X79883000Y28339915D01*
X79660961Y28461904D01*
X79578182Y28444367D01*
X79318354Y28333715D01*
X79085105Y28174500D01*
X78887399Y27972839D01*
X78737265Y27743259D01*
X78668932Y27871101D01*
X78489608Y28089608D01*
X78271101Y28268932D01*
X78021808Y28402182D01*
X77751309Y28484236D01*
X77470000Y28511943D01*
X77188692Y28484236D01*
X76918193Y28402182D01*
X76668900Y28268932D01*
X76450393Y28089608D01*
X76271068Y27871101D01*
X76137818Y27621808D01*
X76055764Y27351309D01*
X76035000Y27140492D01*
X70015000Y27140492D01*
X69994236Y27351309D01*
X69912182Y27621808D01*
X69778932Y27871101D01*
X69599608Y28089608D01*
X69381101Y28268932D01*
X69131808Y28402182D01*
X68861309Y28484236D01*
X68580000Y28511943D01*
X68298692Y28484236D01*
X68028193Y28402182D01*
X67778900Y28268932D01*
X67560393Y28089608D01*
X67381068Y27871101D01*
X67310000Y27738142D01*
X67238932Y27871101D01*
X67059608Y28089608D01*
X66841101Y28268932D01*
X66591808Y28402182D01*
X66321309Y28484236D01*
X66040000Y28511943D01*
X65758692Y28484236D01*
X65505000Y28407280D01*
X65505000Y31215254D01*
X66534193Y32244446D01*
X66562238Y32267462D01*
X66654087Y32379380D01*
X66722337Y32507067D01*
X66764365Y32645615D01*
X66764826Y32650299D01*
X66841100Y32691068D01*
X67059607Y32870392D01*
X67152419Y32983483D01*
X67154188Y32965518D01*
X67190498Y32845820D01*
X67249463Y32735506D01*
X67328815Y32638815D01*
X67425506Y32559463D01*
X67535820Y32500498D01*
X67655518Y32464188D01*
X67780000Y32451928D01*
X68294250Y32455000D01*
X68453000Y32613750D01*
X68453000Y34163000D01*
X68707000Y34163000D01*
X68707000Y32613750D01*
X68865750Y32455000D01*
X69380000Y32451928D01*
X69504482Y32464188D01*
X69624180Y32500498D01*
X69734494Y32559463D01*
X69831185Y32638815D01*
X69910537Y32735506D01*
X69969502Y32845820D01*
X70005812Y32965518D01*
X70018072Y33090000D01*
X70015000Y34004250D01*
X69856250Y34163000D01*
X68707000Y34163000D01*
X68453000Y34163000D01*
X68433000Y34163000D01*
X68433000Y34417000D01*
X68453000Y34417000D01*
X68453000Y35966250D01*
X68294250Y36125000D01*
X67780000Y36128072D01*
X67655518Y36115812D01*
X67535820Y36079502D01*
X67425506Y36020537D01*
X67328815Y35941185D01*
X67249463Y35844494D01*
X67190498Y35734180D01*
X67154188Y35614482D01*
X67152419Y35596518D01*
X67059608Y35709608D01*
X66841101Y35888932D01*
X66591808Y36022182D01*
X66321309Y36104236D01*
X66040000Y36131943D01*
X65758692Y36104236D01*
X65488193Y36022182D01*
X65238900Y35888932D01*
X65020393Y35709608D01*
X64841068Y35491101D01*
X64770000Y35358142D01*
X64698932Y35491101D01*
X64519608Y35709608D01*
X64301101Y35888932D01*
X64051808Y36022182D01*
X63781309Y36104236D01*
X63500000Y36131943D01*
X63218692Y36104236D01*
X62948193Y36022182D01*
X62698900Y35888932D01*
X62545833Y35763313D01*
X61154558Y37154588D01*
X61131538Y37182638D01*
X61019620Y37274487D01*
X60891933Y37342737D01*
X60753385Y37384765D01*
X60645405Y37395400D01*
X60609300Y37398956D01*
X60573195Y37395400D01*
X59469647Y37395400D01*
X59138258Y37726788D01*
X59221100Y37771068D01*
X59439607Y37950392D01*
X59618932Y38168899D01*
X59690000Y38301858D01*
X59761068Y38168900D01*
X59940392Y37950393D01*
X60158899Y37771068D01*
X60408192Y37637818D01*
X60678691Y37555764D01*
X60960000Y37528057D01*
X61241308Y37555764D01*
X61511807Y37637818D01*
X61761100Y37771068D01*
X61979607Y37950392D01*
X62158932Y38168899D01*
X62230000Y38301858D01*
X62301068Y38168900D01*
X62480392Y37950393D01*
X62698899Y37771068D01*
X62948192Y37637818D01*
X63218691Y37555764D01*
X63500000Y37528057D01*
X63781308Y37555764D01*
X64051807Y37637818D01*
X64301100Y37771068D01*
X64519607Y37950392D01*
X64698932Y38168899D01*
X64770000Y38301858D01*
X64841068Y38168900D01*
X65020392Y37950393D01*
X65238899Y37771068D01*
X65488192Y37637818D01*
X65758691Y37555764D01*
X66040000Y37528057D01*
X66321308Y37555764D01*
X66591807Y37637818D01*
X66841100Y37771068D01*
X67059607Y37950392D01*
X67238932Y38168899D01*
X67310000Y38301858D01*
X67381068Y38168900D01*
X67560392Y37950393D01*
X67743922Y37799773D01*
X67740960Y37769700D01*
X67757082Y37606012D01*
X67804828Y37448614D01*
X67881732Y37304738D01*
X67882365Y37303554D01*
X67986710Y37176409D01*
X68018574Y37150259D01*
X69042775Y36126058D01*
X68865750Y36125000D01*
X68707000Y35966250D01*
X68707000Y34417000D01*
X69856250Y34417000D01*
X70015000Y34575750D01*
X70016936Y35151896D01*
X70354601Y34814230D01*
X70354600Y30491419D01*
X70350560Y30450400D01*
X70354600Y30409382D01*
X70366682Y30286712D01*
X70414428Y30129314D01*
X70491964Y29984255D01*
X70596309Y29857109D01*
X70628178Y29830955D01*
X70973714Y29485418D01*
X70955000Y29391335D01*
X70955000Y29108665D01*
X71010147Y28831426D01*
X71118320Y28570273D01*
X71275363Y28335241D01*
X71475241Y28135363D01*
X71710273Y27978320D01*
X71971426Y27870147D01*
X72248665Y27815000D01*
X72531335Y27815000D01*
X72808574Y27870147D01*
X73069727Y27978320D01*
X73304759Y28135363D01*
X73504637Y28335241D01*
X73661680Y28570273D01*
X73769853Y28831426D01*
X73825000Y29108665D01*
X73825000Y29391335D01*
X73769853Y29668574D01*
X73661680Y29929727D01*
X73504637Y30164759D01*
X73304759Y30364637D01*
X73104131Y30498692D01*
X73131514Y30513329D01*
X73203097Y30757298D01*
X72390000Y31570395D01*
X72375858Y31556252D01*
X72196253Y31735857D01*
X72210395Y31750000D01*
X72569605Y31750000D01*
X73382702Y30936903D01*
X73626671Y31008486D01*
X73747571Y31263996D01*
X73816300Y31538184D01*
X73830217Y31820512D01*
X73788787Y32100130D01*
X73693603Y32366292D01*
X73626671Y32491514D01*
X73382702Y32563097D01*
X72569605Y31750000D01*
X72210395Y31750000D01*
X72196253Y31764142D01*
X72375858Y31943747D01*
X72390000Y31929605D01*
X73203097Y32742702D01*
X73131514Y32986671D01*
X72876004Y33107571D01*
X72601816Y33176300D01*
X72319488Y33190217D01*
X72039870Y33148787D01*
X72024600Y33143326D01*
X72024600Y34163000D01*
X76035000Y34163000D01*
X76035000Y33763000D01*
X76087350Y33485486D01*
X76192834Y33223517D01*
X76347399Y32987161D01*
X76545105Y32785500D01*
X76778354Y32626285D01*
X77038182Y32515633D01*
X77120961Y32498096D01*
X77343000Y32620085D01*
X77343000Y34163000D01*
X76035000Y34163000D01*
X72024600Y34163000D01*
X72024600Y34817000D01*
X76035000Y34817000D01*
X76035000Y34417000D01*
X77343000Y34417000D01*
X77343000Y35959915D01*
X77597000Y35959915D01*
X77597000Y34417000D01*
X77617000Y34417000D01*
X77617000Y34163000D01*
X77597000Y34163000D01*
X77597000Y32620085D01*
X77819039Y32498096D01*
X77901818Y32515633D01*
X78161646Y32626285D01*
X78394895Y32785500D01*
X78592601Y32987161D01*
X78742735Y33216742D01*
X78811068Y33088900D01*
X78990392Y32870393D01*
X79208899Y32691068D01*
X79458192Y32557818D01*
X79728691Y32475764D01*
X80010000Y32448057D01*
X80291308Y32475764D01*
X80561807Y32557818D01*
X80811100Y32691068D01*
X81029607Y32870392D01*
X81208932Y33088899D01*
X81277265Y33216741D01*
X81427399Y32987161D01*
X81625105Y32785500D01*
X81858354Y32626285D01*
X82118182Y32515633D01*
X82200961Y32498096D01*
X82423000Y32620085D01*
X82423000Y34163000D01*
X82677000Y34163000D01*
X82677000Y32620085D01*
X82899039Y32498096D01*
X82981818Y32515633D01*
X83241646Y32626285D01*
X83474895Y32785500D01*
X83672601Y32987161D01*
X83820000Y33212559D01*
X83967399Y32987161D01*
X84165105Y32785500D01*
X84398354Y32626285D01*
X84658182Y32515633D01*
X84740961Y32498096D01*
X84963000Y32620085D01*
X84963000Y34163000D01*
X82677000Y34163000D01*
X82423000Y34163000D01*
X82403000Y34163000D01*
X82403000Y34417000D01*
X82423000Y34417000D01*
X82423000Y35959915D01*
X82677000Y35959915D01*
X82677000Y34417000D01*
X84963000Y34417000D01*
X84963000Y35959915D01*
X84740961Y36081904D01*
X84658182Y36064367D01*
X84398354Y35953715D01*
X84165105Y35794500D01*
X83967399Y35592839D01*
X83820000Y35367441D01*
X83672601Y35592839D01*
X83474895Y35794500D01*
X83241646Y35953715D01*
X82981818Y36064367D01*
X82899039Y36081904D01*
X82677000Y35959915D01*
X82423000Y35959915D01*
X82200961Y36081904D01*
X82118182Y36064367D01*
X81858354Y35953715D01*
X81625105Y35794500D01*
X81427399Y35592839D01*
X81277265Y35363259D01*
X81208932Y35491101D01*
X81029608Y35709608D01*
X80811101Y35888932D01*
X80561808Y36022182D01*
X80291309Y36104236D01*
X80010000Y36131943D01*
X79728692Y36104236D01*
X79458193Y36022182D01*
X79208900Y35888932D01*
X78990393Y35709608D01*
X78811068Y35491101D01*
X78742735Y35363259D01*
X78592601Y35592839D01*
X78394895Y35794500D01*
X78161646Y35953715D01*
X77901818Y36064367D01*
X77819039Y36081904D01*
X77597000Y35959915D01*
X77343000Y35959915D01*
X77120961Y36081904D01*
X77038182Y36064367D01*
X76778354Y35953715D01*
X76545105Y35794500D01*
X76347399Y35592839D01*
X76192834Y35356483D01*
X76087350Y35094514D01*
X76035000Y34817000D01*
X72024600Y34817000D01*
X72024600Y35119082D01*
X72028640Y35160100D01*
X72022762Y35219784D01*
X72012518Y35323789D01*
X71964772Y35481187D01*
X71887236Y35626246D01*
X71835567Y35689205D01*
X71809039Y35721530D01*
X71809037Y35721532D01*
X71782891Y35753391D01*
X71751032Y35779537D01*
X69588934Y37941633D01*
X69599607Y37950392D01*
X69778932Y38168899D01*
X69912182Y38418192D01*
X69994236Y38688691D01*
X70015000Y38899508D01*
X70015000Y39840491D01*
X69994236Y40051309D01*
X69912182Y40321808D01*
X69778932Y40571101D01*
X69599608Y40789608D01*
X69381101Y40968932D01*
X69131808Y41102182D01*
X68861309Y41184236D01*
X68580000Y41211943D01*
X68298692Y41184236D01*
X68028193Y41102182D01*
X67778900Y40968932D01*
X67560393Y40789608D01*
X67381068Y40571101D01*
X67310000Y40438142D01*
X67238932Y40571101D01*
X67059608Y40789608D01*
X66841101Y40968932D01*
X66591808Y41102182D01*
X66321309Y41184236D01*
X66040000Y41211943D01*
X65758692Y41184236D01*
X65488193Y41102182D01*
X65238900Y40968932D01*
X65020393Y40789608D01*
X64841068Y40571101D01*
X64770000Y40438142D01*
X64698932Y40571101D01*
X64519608Y40789608D01*
X64301101Y40968932D01*
X64051808Y41102182D01*
X63781309Y41184236D01*
X63500000Y41211943D01*
X63218692Y41184236D01*
X62948193Y41102182D01*
X62698900Y40968932D01*
X62480393Y40789608D01*
X62301068Y40571101D01*
X62230000Y40438142D01*
X62158932Y40571101D01*
X61979608Y40789608D01*
X61761101Y40968932D01*
X61684826Y41009702D01*
X61684365Y41014385D01*
X61642337Y41152933D01*
X61574087Y41280620D01*
X61482238Y41392538D01*
X61370320Y41484387D01*
X61242633Y41552637D01*
X61104085Y41594665D01*
X60996105Y41605300D01*
X60960000Y41608856D01*
X60923895Y41605300D01*
X60326747Y41605300D01*
X56070712Y45861335D01*
X70955000Y45861335D01*
X70955000Y45578665D01*
X71010147Y45301426D01*
X71118320Y45040273D01*
X71275363Y44805241D01*
X71475241Y44605363D01*
X71710273Y44448320D01*
X71971426Y44340147D01*
X72248665Y44285000D01*
X72531335Y44285000D01*
X72808574Y44340147D01*
X73069727Y44448320D01*
X73304759Y44605363D01*
X73504637Y44805241D01*
X73661680Y45040273D01*
X73769853Y45301426D01*
X73825000Y45578665D01*
X73825000Y45861335D01*
X73769853Y46138574D01*
X73661680Y46399727D01*
X73504637Y46634759D01*
X73304759Y46834637D01*
X73104131Y46968692D01*
X73131514Y46983329D01*
X73203097Y47227298D01*
X72390000Y48040395D01*
X71576903Y47227298D01*
X71648486Y46983329D01*
X71677341Y46969676D01*
X71475241Y46834637D01*
X71275363Y46634759D01*
X71118320Y46399727D01*
X71010147Y46138574D01*
X70955000Y45861335D01*
X56070712Y45861335D01*
X53782559Y48149488D01*
X70949783Y48149488D01*
X70991213Y47869870D01*
X71086397Y47603708D01*
X71153329Y47478486D01*
X71397298Y47406903D01*
X72210395Y48220000D01*
X72569605Y48220000D01*
X73382702Y47406903D01*
X73626671Y47478486D01*
X73747571Y47733996D01*
X73816300Y48008184D01*
X73830217Y48290512D01*
X73788787Y48570130D01*
X73693603Y48836292D01*
X73626671Y48961514D01*
X73382702Y49033097D01*
X72569605Y48220000D01*
X72210395Y48220000D01*
X71397298Y49033097D01*
X71153329Y48961514D01*
X71032429Y48706004D01*
X70963700Y48431816D01*
X70949783Y48149488D01*
X53782559Y48149488D01*
X52719345Y49212702D01*
X71576903Y49212702D01*
X72390000Y48399605D01*
X73203097Y49212702D01*
X73131514Y49456671D01*
X72876004Y49577571D01*
X72601816Y49646300D01*
X72319488Y49660217D01*
X72039870Y49618787D01*
X71773708Y49523603D01*
X71648486Y49456671D01*
X71576903Y49212702D01*
X52719345Y49212702D01*
X48969786Y52962260D01*
X49061100Y53011068D01*
X49246243Y53163011D01*
X49793746Y52615507D01*
X49816762Y52587462D01*
X49928680Y52495613D01*
X50056367Y52427363D01*
X50152886Y52398084D01*
X50194914Y52385335D01*
X50209132Y52383935D01*
X50302895Y52374700D01*
X50302902Y52374700D01*
X50338999Y52371145D01*
X50375096Y52374700D01*
X58383895Y52374700D01*
X58420000Y52371144D01*
X58456105Y52374700D01*
X58564085Y52385335D01*
X58702633Y52427363D01*
X58830320Y52495613D01*
X58942238Y52587462D01*
X59034087Y52699380D01*
X59102337Y52827067D01*
X59144365Y52965615D01*
X59144826Y52970299D01*
X59221100Y53011068D01*
X59439607Y53190392D01*
X59618932Y53408899D01*
X59690000Y53541858D01*
X59761068Y53408900D01*
X59940392Y53190393D01*
X60158899Y53011068D01*
X60408192Y52877818D01*
X60678691Y52795764D01*
X60960000Y52768057D01*
X61241308Y52795764D01*
X61511807Y52877818D01*
X61761100Y53011068D01*
X61979607Y53190392D01*
X62158932Y53408899D01*
X62230000Y53541858D01*
X62301068Y53408900D01*
X62480392Y53190393D01*
X62698899Y53011068D01*
X62948192Y52877818D01*
X63218691Y52795764D01*
X63500000Y52768057D01*
X63781308Y52795764D01*
X64051807Y52877818D01*
X64301100Y53011068D01*
X64519607Y53190392D01*
X64698932Y53408899D01*
X64770000Y53541858D01*
X64841068Y53408900D01*
G37*
G04 #@! TD.AperFunction*
D19*
X53467000Y21717000D02*
X53487000Y21717000D01*
X53487000Y21463000D01*
X53467000Y21463000D01*
X53467000Y19920085D01*
X53689039Y19798096D01*
X53771818Y19815633D01*
X53875001Y19859575D01*
X53875000Y15707280D01*
X53621309Y15784236D01*
X53340000Y15811943D01*
X53058692Y15784236D01*
X52824400Y15713165D01*
X52824400Y19851313D01*
X52908182Y19815633D01*
X52990961Y19798096D01*
X53213000Y19920085D01*
X53213000Y21463000D01*
X53193000Y21463000D01*
X53193000Y21717000D01*
X53213000Y21717000D01*
X53213000Y21737000D01*
X53467000Y21737000D01*
X53467000Y21717000D01*
G04 #@! TA.AperFunction,Conductor*
D20*
G36*
X53467000Y21717000D02*
G01*
X53487000Y21717000D01*
X53487000Y21463000D01*
X53467000Y21463000D01*
X53467000Y19920085D01*
X53689039Y19798096D01*
X53771818Y19815633D01*
X53875001Y19859575D01*
X53875000Y15707280D01*
X53621309Y15784236D01*
X53340000Y15811943D01*
X53058692Y15784236D01*
X52824400Y15713165D01*
X52824400Y19851313D01*
X52908182Y19815633D01*
X52990961Y19798096D01*
X53213000Y19920085D01*
X53213000Y21463000D01*
X53193000Y21463000D01*
X53193000Y21717000D01*
X53213000Y21717000D01*
X53213000Y21737000D01*
X53467000Y21737000D01*
X53467000Y21717000D01*
G37*
G04 #@! TD.AperFunction*
D19*
X90535401Y29650928D02*
X90531360Y29609900D01*
X90547482Y29446212D01*
X90595228Y29288814D01*
X90664618Y29158995D01*
X90672765Y29143754D01*
X90777110Y29016609D01*
X90808974Y28990459D01*
X91701066Y28098367D01*
X91690393Y28089608D01*
X91511068Y27871101D01*
X91442735Y27743259D01*
X91292601Y27972839D01*
X91094895Y28174500D01*
X90861646Y28333715D01*
X90601818Y28444367D01*
X90519039Y28461904D01*
X90297000Y28339915D01*
X90297000Y26797000D01*
X90317000Y26797000D01*
X90317000Y26543000D01*
X90297000Y26543000D01*
X90297000Y25000085D01*
X90519039Y24878096D01*
X90601818Y24895633D01*
X90861646Y25006285D01*
X91094895Y25165500D01*
X91292601Y25367161D01*
X91442735Y25596742D01*
X91511068Y25468900D01*
X91690392Y25250393D01*
X91873922Y25099773D01*
X91870960Y25069700D01*
X91887082Y24906012D01*
X91934828Y24748614D01*
X92012364Y24603555D01*
X92021877Y24591963D01*
X92116710Y24476409D01*
X92148574Y24450259D01*
X93330760Y23268072D01*
X91910000Y23268072D01*
X91785518Y23255812D01*
X91665820Y23219502D01*
X91555506Y23160537D01*
X91458815Y23081185D01*
X91379463Y22984494D01*
X91320498Y22874180D01*
X91284188Y22754482D01*
X91282419Y22736518D01*
X91189608Y22849608D01*
X90971101Y23028932D01*
X90721808Y23162182D01*
X90451309Y23244236D01*
X90170000Y23271943D01*
X89888692Y23244236D01*
X89618193Y23162182D01*
X89368900Y23028932D01*
X89150393Y22849608D01*
X88971068Y22631101D01*
X88900000Y22498142D01*
X88828932Y22631101D01*
X88649608Y22849608D01*
X88431101Y23028932D01*
X88181808Y23162182D01*
X87911309Y23244236D01*
X87630000Y23271943D01*
X87348692Y23244236D01*
X87078193Y23162182D01*
X86828900Y23028932D01*
X86610393Y22849608D01*
X86431068Y22631101D01*
X86360000Y22498142D01*
X86288932Y22631101D01*
X86109608Y22849608D01*
X86076184Y22877038D01*
X86854197Y23655050D01*
X86882237Y23678062D01*
X86905250Y23706103D01*
X86905253Y23706106D01*
X86974086Y23789979D01*
X86974087Y23789980D01*
X87042337Y23917667D01*
X87084365Y24056215D01*
X87095000Y24164195D01*
X87095000Y24164204D01*
X87098555Y24200299D01*
X87095000Y24236394D01*
X87095000Y24939575D01*
X87198182Y24895633D01*
X87280961Y24878096D01*
X87503000Y25000085D01*
X87503000Y26543000D01*
X87757000Y26543000D01*
X87757000Y25000085D01*
X87979039Y24878096D01*
X88061818Y24895633D01*
X88321646Y25006285D01*
X88554895Y25165500D01*
X88752601Y25367161D01*
X88900000Y25592559D01*
X89047399Y25367161D01*
X89245105Y25165500D01*
X89478354Y25006285D01*
X89738182Y24895633D01*
X89820961Y24878096D01*
X90043000Y25000085D01*
X90043000Y26543000D01*
X87757000Y26543000D01*
X87503000Y26543000D01*
X87483000Y26543000D01*
X87483000Y26797000D01*
X87503000Y26797000D01*
X87503000Y26817000D01*
X87757000Y26817000D01*
X87757000Y26797000D01*
X90043000Y26797000D01*
X90043000Y28339915D01*
X89820961Y28461904D01*
X89738182Y28444367D01*
X89478354Y28333715D01*
X89245105Y28174500D01*
X89047399Y27972839D01*
X88900000Y27747441D01*
X88752601Y27972839D01*
X88554895Y28174500D01*
X88321646Y28333715D01*
X88311277Y28338131D01*
X90535401Y30562254D01*
X90535401Y29650928D01*
G04 #@! TA.AperFunction,Conductor*
D20*
G36*
X90535401Y29650928D02*
G01*
X90531360Y29609900D01*
X90547482Y29446212D01*
X90595228Y29288814D01*
X90664618Y29158995D01*
X90672765Y29143754D01*
X90777110Y29016609D01*
X90808974Y28990459D01*
X91701066Y28098367D01*
X91690393Y28089608D01*
X91511068Y27871101D01*
X91442735Y27743259D01*
X91292601Y27972839D01*
X91094895Y28174500D01*
X90861646Y28333715D01*
X90601818Y28444367D01*
X90519039Y28461904D01*
X90297000Y28339915D01*
X90297000Y26797000D01*
X90317000Y26797000D01*
X90317000Y26543000D01*
X90297000Y26543000D01*
X90297000Y25000085D01*
X90519039Y24878096D01*
X90601818Y24895633D01*
X90861646Y25006285D01*
X91094895Y25165500D01*
X91292601Y25367161D01*
X91442735Y25596742D01*
X91511068Y25468900D01*
X91690392Y25250393D01*
X91873922Y25099773D01*
X91870960Y25069700D01*
X91887082Y24906012D01*
X91934828Y24748614D01*
X92012364Y24603555D01*
X92021877Y24591963D01*
X92116710Y24476409D01*
X92148574Y24450259D01*
X93330760Y23268072D01*
X91910000Y23268072D01*
X91785518Y23255812D01*
X91665820Y23219502D01*
X91555506Y23160537D01*
X91458815Y23081185D01*
X91379463Y22984494D01*
X91320498Y22874180D01*
X91284188Y22754482D01*
X91282419Y22736518D01*
X91189608Y22849608D01*
X90971101Y23028932D01*
X90721808Y23162182D01*
X90451309Y23244236D01*
X90170000Y23271943D01*
X89888692Y23244236D01*
X89618193Y23162182D01*
X89368900Y23028932D01*
X89150393Y22849608D01*
X88971068Y22631101D01*
X88900000Y22498142D01*
X88828932Y22631101D01*
X88649608Y22849608D01*
X88431101Y23028932D01*
X88181808Y23162182D01*
X87911309Y23244236D01*
X87630000Y23271943D01*
X87348692Y23244236D01*
X87078193Y23162182D01*
X86828900Y23028932D01*
X86610393Y22849608D01*
X86431068Y22631101D01*
X86360000Y22498142D01*
X86288932Y22631101D01*
X86109608Y22849608D01*
X86076184Y22877038D01*
X86854197Y23655050D01*
X86882237Y23678062D01*
X86905250Y23706103D01*
X86905253Y23706106D01*
X86974086Y23789979D01*
X86974087Y23789980D01*
X87042337Y23917667D01*
X87084365Y24056215D01*
X87095000Y24164195D01*
X87095000Y24164204D01*
X87098555Y24200299D01*
X87095000Y24236394D01*
X87095000Y24939575D01*
X87198182Y24895633D01*
X87280961Y24878096D01*
X87503000Y25000085D01*
X87503000Y26543000D01*
X87757000Y26543000D01*
X87757000Y25000085D01*
X87979039Y24878096D01*
X88061818Y24895633D01*
X88321646Y25006285D01*
X88554895Y25165500D01*
X88752601Y25367161D01*
X88900000Y25592559D01*
X89047399Y25367161D01*
X89245105Y25165500D01*
X89478354Y25006285D01*
X89738182Y24895633D01*
X89820961Y24878096D01*
X90043000Y25000085D01*
X90043000Y26543000D01*
X87757000Y26543000D01*
X87503000Y26543000D01*
X87483000Y26543000D01*
X87483000Y26797000D01*
X87503000Y26797000D01*
X87503000Y26817000D01*
X87757000Y26817000D01*
X87757000Y26797000D01*
X90043000Y26797000D01*
X90043000Y28339915D01*
X89820961Y28461904D01*
X89738182Y28444367D01*
X89478354Y28333715D01*
X89245105Y28174500D01*
X89047399Y27972839D01*
X88900000Y27747441D01*
X88752601Y27972839D01*
X88554895Y28174500D01*
X88321646Y28333715D01*
X88311277Y28338131D01*
X90535401Y30562254D01*
X90535401Y29650928D01*
G37*
G04 #@! TD.AperFunction*
D19*
X11612054Y36525300D02*
X6386105Y36525300D01*
X6350000Y36528856D01*
X6313895Y36525300D01*
X6205915Y36514665D01*
X6067367Y36472637D01*
X5939680Y36404387D01*
X5827762Y36312538D01*
X5735913Y36200620D01*
X5667663Y36072933D01*
X5625635Y35934385D01*
X5625174Y35929701D01*
X5548900Y35888932D01*
X5330393Y35709608D01*
X5151068Y35491101D01*
X5082735Y35363259D01*
X4932601Y35592839D01*
X4734895Y35794500D01*
X4501646Y35953715D01*
X4241818Y36064367D01*
X4159039Y36081904D01*
X3937000Y35959915D01*
X3937000Y34417000D01*
X3957000Y34417000D01*
X3957000Y34163000D01*
X3937000Y34163000D01*
X3937000Y32620085D01*
X4159039Y32498096D01*
X4241818Y32515633D01*
X4501646Y32626285D01*
X4734895Y32785500D01*
X4932601Y32987161D01*
X5082735Y33216742D01*
X5151068Y33088900D01*
X5330392Y32870393D01*
X5548899Y32691068D01*
X5798192Y32557818D01*
X6068691Y32475764D01*
X6350000Y32448057D01*
X6631308Y32475764D01*
X6901807Y32557818D01*
X7151100Y32691068D01*
X7369607Y32870392D01*
X7548932Y33088899D01*
X7620000Y33221858D01*
X7691068Y33088900D01*
X7870392Y32870393D01*
X7903816Y32842963D01*
X7226208Y32165354D01*
X7198162Y32142337D01*
X7106313Y32030419D01*
X7038063Y31902732D01*
X7011755Y31816005D01*
X6996035Y31764185D01*
X6981844Y31620100D01*
X6985400Y31583995D01*
X6985400Y28357501D01*
X6901808Y28402182D01*
X6631309Y28484236D01*
X6350000Y28511943D01*
X6068692Y28484236D01*
X5798193Y28402182D01*
X5548900Y28268932D01*
X5330393Y28089608D01*
X5151068Y27871101D01*
X5080000Y27738142D01*
X5008932Y27871101D01*
X4829608Y28089608D01*
X4611101Y28268932D01*
X4361808Y28402182D01*
X4091309Y28484236D01*
X3810000Y28511943D01*
X3528692Y28484236D01*
X3416400Y28450173D01*
X3416400Y32507536D01*
X3460961Y32498096D01*
X3683000Y32620085D01*
X3683000Y34163000D01*
X3663000Y34163000D01*
X3663000Y34417000D01*
X3683000Y34417000D01*
X3683000Y35959915D01*
X3460961Y36081904D01*
X3416400Y36072464D01*
X3416400Y41490000D01*
X8671928Y41490000D01*
X8671928Y39790000D01*
X8684188Y39665518D01*
X8720498Y39545820D01*
X8779463Y39435506D01*
X8858815Y39338815D01*
X8955506Y39259463D01*
X9065820Y39200498D01*
X9185518Y39164188D01*
X9310000Y39151928D01*
X11010000Y39151928D01*
X11134482Y39164188D01*
X11254180Y39200498D01*
X11364494Y39259463D01*
X11461185Y39338815D01*
X11540537Y39435506D01*
X11599502Y39545820D01*
X11635812Y39665518D01*
X11648072Y39790000D01*
X11648072Y41490000D01*
X11635812Y41614482D01*
X11599502Y41734180D01*
X11540537Y41844494D01*
X11461185Y41941185D01*
X11364494Y42020537D01*
X11254180Y42079502D01*
X11181620Y42101513D01*
X11313475Y42233368D01*
X11475990Y42476589D01*
X11587932Y42746842D01*
X11645000Y43033740D01*
X11645000Y43326260D01*
X11587932Y43613158D01*
X11475990Y43883411D01*
X11313475Y44126632D01*
X11106632Y44333475D01*
X10863411Y44495990D01*
X10593158Y44607932D01*
X10306260Y44665000D01*
X10013740Y44665000D01*
X9726842Y44607932D01*
X9456589Y44495990D01*
X9213368Y44333475D01*
X9006525Y44126632D01*
X8844010Y43883411D01*
X8732068Y43613158D01*
X8675000Y43326260D01*
X8675000Y43033740D01*
X8732068Y42746842D01*
X8844010Y42476589D01*
X9006525Y42233368D01*
X9138380Y42101513D01*
X9065820Y42079502D01*
X8955506Y42020537D01*
X8858815Y41941185D01*
X8779463Y41844494D01*
X8720498Y41734180D01*
X8684188Y41614482D01*
X8671928Y41490000D01*
X3416400Y41490000D01*
X3416400Y41746954D01*
X19452047Y57782600D01*
X32869353Y57782600D01*
X11612054Y36525300D01*
G04 #@! TA.AperFunction,Conductor*
D20*
G36*
X11612054Y36525300D02*
G01*
X6386105Y36525300D01*
X6350000Y36528856D01*
X6313895Y36525300D01*
X6205915Y36514665D01*
X6067367Y36472637D01*
X5939680Y36404387D01*
X5827762Y36312538D01*
X5735913Y36200620D01*
X5667663Y36072933D01*
X5625635Y35934385D01*
X5625174Y35929701D01*
X5548900Y35888932D01*
X5330393Y35709608D01*
X5151068Y35491101D01*
X5082735Y35363259D01*
X4932601Y35592839D01*
X4734895Y35794500D01*
X4501646Y35953715D01*
X4241818Y36064367D01*
X4159039Y36081904D01*
X3937000Y35959915D01*
X3937000Y34417000D01*
X3957000Y34417000D01*
X3957000Y34163000D01*
X3937000Y34163000D01*
X3937000Y32620085D01*
X4159039Y32498096D01*
X4241818Y32515633D01*
X4501646Y32626285D01*
X4734895Y32785500D01*
X4932601Y32987161D01*
X5082735Y33216742D01*
X5151068Y33088900D01*
X5330392Y32870393D01*
X5548899Y32691068D01*
X5798192Y32557818D01*
X6068691Y32475764D01*
X6350000Y32448057D01*
X6631308Y32475764D01*
X6901807Y32557818D01*
X7151100Y32691068D01*
X7369607Y32870392D01*
X7548932Y33088899D01*
X7620000Y33221858D01*
X7691068Y33088900D01*
X7870392Y32870393D01*
X7903816Y32842963D01*
X7226208Y32165354D01*
X7198162Y32142337D01*
X7106313Y32030419D01*
X7038063Y31902732D01*
X7011755Y31816005D01*
X6996035Y31764185D01*
X6981844Y31620100D01*
X6985400Y31583995D01*
X6985400Y28357501D01*
X6901808Y28402182D01*
X6631309Y28484236D01*
X6350000Y28511943D01*
X6068692Y28484236D01*
X5798193Y28402182D01*
X5548900Y28268932D01*
X5330393Y28089608D01*
X5151068Y27871101D01*
X5080000Y27738142D01*
X5008932Y27871101D01*
X4829608Y28089608D01*
X4611101Y28268932D01*
X4361808Y28402182D01*
X4091309Y28484236D01*
X3810000Y28511943D01*
X3528692Y28484236D01*
X3416400Y28450173D01*
X3416400Y32507536D01*
X3460961Y32498096D01*
X3683000Y32620085D01*
X3683000Y34163000D01*
X3663000Y34163000D01*
X3663000Y34417000D01*
X3683000Y34417000D01*
X3683000Y35959915D01*
X3460961Y36081904D01*
X3416400Y36072464D01*
X3416400Y41490000D01*
X8671928Y41490000D01*
X8671928Y39790000D01*
X8684188Y39665518D01*
X8720498Y39545820D01*
X8779463Y39435506D01*
X8858815Y39338815D01*
X8955506Y39259463D01*
X9065820Y39200498D01*
X9185518Y39164188D01*
X9310000Y39151928D01*
X11010000Y39151928D01*
X11134482Y39164188D01*
X11254180Y39200498D01*
X11364494Y39259463D01*
X11461185Y39338815D01*
X11540537Y39435506D01*
X11599502Y39545820D01*
X11635812Y39665518D01*
X11648072Y39790000D01*
X11648072Y41490000D01*
X11635812Y41614482D01*
X11599502Y41734180D01*
X11540537Y41844494D01*
X11461185Y41941185D01*
X11364494Y42020537D01*
X11254180Y42079502D01*
X11181620Y42101513D01*
X11313475Y42233368D01*
X11475990Y42476589D01*
X11587932Y42746842D01*
X11645000Y43033740D01*
X11645000Y43326260D01*
X11587932Y43613158D01*
X11475990Y43883411D01*
X11313475Y44126632D01*
X11106632Y44333475D01*
X10863411Y44495990D01*
X10593158Y44607932D01*
X10306260Y44665000D01*
X10013740Y44665000D01*
X9726842Y44607932D01*
X9456589Y44495990D01*
X9213368Y44333475D01*
X9006525Y44126632D01*
X8844010Y43883411D01*
X8732068Y43613158D01*
X8675000Y43326260D01*
X8675000Y43033740D01*
X8732068Y42746842D01*
X8844010Y42476589D01*
X9006525Y42233368D01*
X9138380Y42101513D01*
X9065820Y42079502D01*
X8955506Y42020537D01*
X8858815Y41941185D01*
X8779463Y41844494D01*
X8720498Y41734180D01*
X8684188Y41614482D01*
X8671928Y41490000D01*
X3416400Y41490000D01*
X3416400Y41746954D01*
X19452047Y57782600D01*
X32869353Y57782600D01*
X11612054Y36525300D01*
G37*
G04 #@! TD.AperFunction*
D19*
X45847000Y34417000D02*
X45867000Y34417000D01*
X45867000Y34163000D01*
X45847000Y34163000D01*
X45847000Y34143000D01*
X45593000Y34143000D01*
X45593000Y34163000D01*
X45573000Y34163000D01*
X45573000Y34417000D01*
X45593000Y34417000D01*
X45593000Y34437000D01*
X45847000Y34437000D01*
X45847000Y34417000D01*
G04 #@! TA.AperFunction,Conductor*
D20*
G36*
X45847000Y34417000D02*
G01*
X45867000Y34417000D01*
X45867000Y34163000D01*
X45847000Y34163000D01*
X45847000Y34143000D01*
X45593000Y34143000D01*
X45593000Y34163000D01*
X45573000Y34163000D01*
X45573000Y34417000D01*
X45593000Y34417000D01*
X45593000Y34437000D01*
X45847000Y34437000D01*
X45847000Y34417000D01*
G37*
G04 #@! TD.AperFunction*
D19*
X48387000Y39497000D02*
X48407000Y39497000D01*
X48407000Y39243000D01*
X48387000Y39243000D01*
X48387000Y37700085D01*
X48609039Y37578096D01*
X48691818Y37595633D01*
X48951646Y37706285D01*
X49184895Y37865500D01*
X49244677Y37926477D01*
X51065345Y36105808D01*
X50800000Y36131943D01*
X50518692Y36104236D01*
X50248193Y36022182D01*
X49998900Y35888932D01*
X49843197Y35761150D01*
X49282458Y36321888D01*
X49259438Y36349938D01*
X49147520Y36441787D01*
X49019833Y36510037D01*
X48881285Y36552065D01*
X48773305Y36562700D01*
X48737200Y36566256D01*
X48701095Y36562700D01*
X47842705Y36562700D01*
X47806600Y36566256D01*
X47770495Y36562700D01*
X47662515Y36552065D01*
X47523967Y36510037D01*
X47396280Y36441787D01*
X47284362Y36349938D01*
X47261346Y36321893D01*
X46688983Y35749530D01*
X46644895Y35794500D01*
X46411646Y35953715D01*
X46151818Y36064367D01*
X46072267Y36081220D01*
X47322697Y37331650D01*
X47350737Y37354662D01*
X47373750Y37382703D01*
X47373753Y37382706D01*
X47436679Y37459381D01*
X47442587Y37466580D01*
X47510837Y37594267D01*
X47540116Y37690786D01*
X47548855Y37719595D01*
X47568354Y37706285D01*
X47828182Y37595633D01*
X47910961Y37578096D01*
X48133000Y37700085D01*
X48133000Y39243000D01*
X48113000Y39243000D01*
X48113000Y39497000D01*
X48133000Y39497000D01*
X48133000Y39517000D01*
X48387000Y39517000D01*
X48387000Y39497000D01*
G04 #@! TA.AperFunction,Conductor*
D20*
G36*
X48387000Y39497000D02*
G01*
X48407000Y39497000D01*
X48407000Y39243000D01*
X48387000Y39243000D01*
X48387000Y37700085D01*
X48609039Y37578096D01*
X48691818Y37595633D01*
X48951646Y37706285D01*
X49184895Y37865500D01*
X49244677Y37926477D01*
X51065345Y36105808D01*
X50800000Y36131943D01*
X50518692Y36104236D01*
X50248193Y36022182D01*
X49998900Y35888932D01*
X49843197Y35761150D01*
X49282458Y36321888D01*
X49259438Y36349938D01*
X49147520Y36441787D01*
X49019833Y36510037D01*
X48881285Y36552065D01*
X48773305Y36562700D01*
X48737200Y36566256D01*
X48701095Y36562700D01*
X47842705Y36562700D01*
X47806600Y36566256D01*
X47770495Y36562700D01*
X47662515Y36552065D01*
X47523967Y36510037D01*
X47396280Y36441787D01*
X47284362Y36349938D01*
X47261346Y36321893D01*
X46688983Y35749530D01*
X46644895Y35794500D01*
X46411646Y35953715D01*
X46151818Y36064367D01*
X46072267Y36081220D01*
X47322697Y37331650D01*
X47350737Y37354662D01*
X47373750Y37382703D01*
X47373753Y37382706D01*
X47436679Y37459381D01*
X47442587Y37466580D01*
X47510837Y37594267D01*
X47540116Y37690786D01*
X47548855Y37719595D01*
X47568354Y37706285D01*
X47828182Y37595633D01*
X47910961Y37578096D01*
X48133000Y37700085D01*
X48133000Y39243000D01*
X48113000Y39243000D01*
X48113000Y39497000D01*
X48133000Y39497000D01*
X48133000Y39517000D01*
X48387000Y39517000D01*
X48387000Y39497000D01*
G37*
G04 #@! TD.AperFunction*
D19*
X35687000Y54737000D02*
X35707000Y54737000D01*
X35707000Y54483000D01*
X35687000Y54483000D01*
X35687000Y52940085D01*
X35909039Y52818096D01*
X35991818Y52835633D01*
X36181400Y52916370D01*
X36181401Y48881148D01*
X23736300Y36436046D01*
X23736300Y43703154D01*
X34125000Y54091853D01*
X34125000Y54083000D01*
X34177350Y53805486D01*
X34282834Y53543517D01*
X34437399Y53307161D01*
X34635105Y53105500D01*
X34868354Y52946285D01*
X35128182Y52835633D01*
X35210961Y52818096D01*
X35433000Y52940085D01*
X35433000Y54483000D01*
X35413000Y54483000D01*
X35413000Y54737000D01*
X35433000Y54737000D01*
X35433000Y54757000D01*
X35687000Y54757000D01*
X35687000Y54737000D01*
G04 #@! TA.AperFunction,Conductor*
D20*
G36*
X35687000Y54737000D02*
G01*
X35707000Y54737000D01*
X35707000Y54483000D01*
X35687000Y54483000D01*
X35687000Y52940085D01*
X35909039Y52818096D01*
X35991818Y52835633D01*
X36181400Y52916370D01*
X36181401Y48881148D01*
X23736300Y36436046D01*
X23736300Y43703154D01*
X34125000Y54091853D01*
X34125000Y54083000D01*
X34177350Y53805486D01*
X34282834Y53543517D01*
X34437399Y53307161D01*
X34635105Y53105500D01*
X34868354Y52946285D01*
X35128182Y52835633D01*
X35210961Y52818096D01*
X35433000Y52940085D01*
X35433000Y54483000D01*
X35413000Y54483000D01*
X35413000Y54737000D01*
X35433000Y54737000D01*
X35433000Y54757000D01*
X35687000Y54757000D01*
X35687000Y54737000D01*
G37*
G04 #@! TD.AperFunction*
D19*
X53467000Y39497000D02*
X53487000Y39497000D01*
X53487000Y39243000D01*
X53467000Y39243000D01*
X53467000Y39223000D01*
X53213000Y39223000D01*
X53213000Y39243000D01*
X53193000Y39243000D01*
X53193000Y39497000D01*
X53213000Y39497000D01*
X53213000Y39517000D01*
X53467000Y39517000D01*
X53467000Y39497000D01*
G04 #@! TA.AperFunction,Conductor*
D20*
G36*
X53467000Y39497000D02*
G01*
X53487000Y39497000D01*
X53487000Y39243000D01*
X53467000Y39243000D01*
X53467000Y39223000D01*
X53213000Y39223000D01*
X53213000Y39243000D01*
X53193000Y39243000D01*
X53193000Y39497000D01*
X53213000Y39497000D01*
X53213000Y39517000D01*
X53467000Y39517000D01*
X53467000Y39497000D01*
G37*
G04 #@! TD.AperFunction*
M02*
